<?xml version="1.0" encoding="utf-8"?>
<!-- Generator: Adobe Illustrator 20.1.0, SVG Export Plug-In . SVG Version: 6.00 Build 0)  -->
<svg version="1.0" id="Layer_1" xmlns="http://www.w3.org/2000/svg" xmlns:xlink="http://www.w3.org/1999/xlink" x="0px" y="0px"
	 viewBox="0 0 410.4 296.5" enable-background="new 0 0 410.4 296.5" xml:space="preserve">
<g id="figure_1">
	<g id="axes_1">
		<g id="patch_2">
			<path fill="#FFFFFF" d="M52.9,266.5H410V0.4H52.9V266.5z"/>
		</g>
		<g id="PathCollection_1">
			<g>
				<defs>
					<rect id="SVGID_1_" x="52.9" y="0.4" width="357.1" height="266.1"/>
				</defs>
				<clipPath id="SVGID_2_">
					<use xlink:href="#SVGID_1_"  overflow="visible"/>
				</clipPath>
				<path clip-path="url(#SVGID_2_)" fill="#48186A" d="M52.9,265.2v-1.3v-0.6l0.8,0.6l1,0.7l0.8,0.6l1,0.7l0.9,0.6h-0.9h-1.8h-1.8
					V265.2z"/>
			</g>
			<g>
				<defs>
					<rect id="SVGID_3_" x="52.9" y="0.4" width="357.1" height="266.1"/>
				</defs>
				<clipPath id="SVGID_4_">
					<use xlink:href="#SVGID_3_"  overflow="visible"/>
				</clipPath>
				<path clip-path="url(#SVGID_4_)" fill="#48186A" d="M52.9,1.7V0.4h1.8h0.8L54.7,1l-1,0.7l-0.8,0.6V1.7z"/>
			</g>
			<g>
				<defs>
					<rect id="SVGID_5_" x="52.9" y="0.4" width="357.1" height="266.1"/>
				</defs>
				<clipPath id="SVGID_6_">
					<use xlink:href="#SVGID_5_"  overflow="visible"/>
				</clipPath>
				<path clip-path="url(#SVGID_6_)" fill="#48186A" d="M408.2,265.9l1-0.7l0.8-0.6v0.6v1.3h-1.8h-0.9L408.2,265.9z"/>
			</g>
			<g>
				<defs>
					<rect id="SVGID_7_" x="52.9" y="0.4" width="357.1" height="266.1"/>
				</defs>
				<clipPath id="SVGID_8_">
					<use xlink:href="#SVGID_7_"  overflow="visible"/>
				</clipPath>
				<path clip-path="url(#SVGID_8_)" fill="#48186A" d="M409.2,0.4h0.8V1L409.2,0.4z"/>
			</g>
		</g>
		<g id="PathCollection_2">
			<g>
				<defs>
					<rect id="SVGID_9_" x="52.9" y="0.4" width="357.1" height="266.1"/>
				</defs>
				<clipPath id="SVGID_10_">
					<use xlink:href="#SVGID_9_"  overflow="visible"/>
				</clipPath>
				<path clip-path="url(#SVGID_10_)" fill="#424086" d="M53.7,263.8l-0.8-0.6v-0.7v-1.3v-1.3v-1.3v-1.3v-1.3v-1.3v-1.3v-1.3v-1.3
					v-1.3v-1.3v-1.3v-1.3v-1.3v-1.3v-1.3v-1.3v-1.3v-1.3v-1.3v-1.3v-1.3v-1.3v-1.3v-1.3v-1.3l1.2,1.3l0.6,0.6l0.7,0.8l1,1l0.3,0.3
					l1.4,1.3l0.1,0.1l1.3,1.2l0.5,0.5l0.9,0.8l0.9,0.8l0.6,0.5l1.2,1.1l0.3,0.2l1.5,1.3l0,0l1.6,1.3l0.2,0.2l1.4,1.1l0.4,0.3l1.2,1
					l0.6,0.5l1.1,0.9l0.7,0.6l1,0.8l0.8,0.6l0.9,0.7l0.9,0.6l0.9,0.7l0.9,0.6l1,0.7l0.8,0.6l1,0.7l0.8,0.5l1.2,0.8l0.6,0.4l1.3,0.9
					l0.5,0.3l1.5,1L87,256l1.8,1.2l0,0l1.8,1.1l0.3,0.2l1.5,0.9l0.7,0.4l1.1,0.7l1.1,0.7l0.7,0.4l1.6,0.9l0.2,0.1l1.8,1l0.4,0.2
					l1.4,0.8l1,0.6l0.8,0.4l1.7,0.9h-1.7h-1.8h-1.8h-1.8H96h-1.8h-1.8h-1.8h-1.8H87h-1.8h-1.8h-1.8h-1.8H78h-1.8h-1.8h-1.8h-1.8H69
					h-1.8h-1.8h-1.8h-1.8h-1.8h-1.8h-0.9l-0.9-0.6l-1-0.7l-0.8-0.6L53.7,263.8z"/>
			</g>
			<g>
				<defs>
					<rect id="SVGID_11_" x="52.9" y="0.4" width="357.1" height="266.1"/>
				</defs>
				<clipPath id="SVGID_12_">
					<use xlink:href="#SVGID_11_"  overflow="visible"/>
				</clipPath>
				<path clip-path="url(#SVGID_12_)" fill="#424086" d="M52.9,36.5v-1.3v-1.3v-1.3v-1.3v-1.3v-1.3v-1.3v-1.3v-1.3v-1.3v-1.3v-1.3
					v-1.3v-1.3v-1.3v-1.3v-1.3v-1.3v-1.3V9.8V8.4V7.1V5.7V4.4V3.1V2.4l0.8-0.6l1-0.7l0.8-0.6h1h1.8h1.8h1.8h1.8h1.8h1.8H69h1.8h1.8
					h1.8h1.8H78h1.8h1.8h1.8h1.8H87h1.8h1.8h1.8h1.8H96h1.8h1.8h1.8h1l-1,0.6l-1.4,0.8L99.5,2l-1.8,1l-0.2,0.1L96,4l-0.7,0.4
					l-1.1,0.7l-1.1,0.7l-0.7,0.4l-1.5,0.9l-0.3,0.2l-1.8,1.1l0,0L87,9.6l-0.3,0.2l-1.5,1l-0.5,0.3L83.4,12l-0.6,0.4l-1.2,0.8
					l-0.8,0.5l-1,0.7L79,15.1l-1,0.7l-0.9,0.6l-0.9,0.7l-0.9,0.6l-0.9,0.7l-0.8,0.6l-1,0.8l-0.7,0.6l-1.1,0.9l-0.6,0.5l-1.2,1
					l-0.4,0.3l-1.4,1.1L67,24.5l-1.6,1.3l0,0l-1.5,1.3l-0.3,0.2l-1.2,1.1L61.9,29L61,29.8l-0.9,0.8l-0.5,0.5l-1.3,1.2l-0.1,0.1
					l-1.4,1.3l-0.3,0.3l-1,1l-0.7,0.8l-0.6,0.6l-1.2,1.3V36.5z"/>
			</g>
			<g>
				<defs>
					<rect id="SVGID_13_" x="52.9" y="0.4" width="357.1" height="266.1"/>
				</defs>
				<clipPath id="SVGID_14_">
					<use xlink:href="#SVGID_13_"  overflow="visible"/>
				</clipPath>
				<path clip-path="url(#SVGID_14_)" fill="#424086" d="M361.6,265.6l0.8-0.4l1-0.6l1.4-0.8l0.4-0.2l1.8-1l0.2-0.1l1.6-0.9l0.7-0.4
					l1.1-0.7l1.1-0.7l0.7-0.4l1.5-0.9l0.3-0.2l1.8-1.1l0,0l1.8-1.2l0.3-0.2l1.5-1l0.5-0.3l1.3-0.9l0.6-0.4l1.2-0.8l0.8-0.5l1-0.7
					l0.8-0.6l1-0.7l0.9-0.6l0.9-0.7l0.9-0.6l0.9-0.7l0.8-0.6l1-0.8l0.7-0.6l1.1-0.9l0.6-0.5l1.2-1l0.4-0.3l1.4-1.1l0.2-0.2l1.6-1.3
					l0,0l1.5-1.3l0.3-0.2l1.2-1.1l0.6-0.5l0.9-0.8l0.9-0.8l0.5-0.5l1.3-1.2l0.1-0.1l1.4-1.3l0.3-0.3l1-1l0.7-0.8v0.8v1.3v1.3v1.3
					v1.3v1.3v1.3v1.3v1.3v1.3v1.3v1.3v1.3v1.3v1.3v1.3v1.3v1.3v1.3v1.3v1.3v1.3v1.3v1.3v1.3v1.3v0.7l-0.8,0.6l-1,0.7l-0.9,0.6h-0.9
					h-1.8h-1.8H401h-1.8h-1.8h-1.8h-1.8h-1.8h-1.8h-1.8h-1.8h-1.8h-1.8h-1.8h-1.8h-1.8h-1.8h-1.8h-1.8h-1.8h-1.8h-1.8h-1.8h-1.8
					h-1.8h-1.7L361.6,265.6z"/>
			</g>
			<g>
				<defs>
					<rect id="SVGID_15_" x="52.9" y="0.4" width="357.1" height="266.1"/>
				</defs>
				<clipPath id="SVGID_16_">
					<use xlink:href="#SVGID_15_"  overflow="visible"/>
				</clipPath>
				<path clip-path="url(#SVGID_16_)" fill="#424086" d="M362.3,0.4h1h1.8h1.8h1.8h1.8h1.8h1.8h1.8h1.8h1.8h1.8h1.8h1.8h1.8h1.8h1.8
					h1.8h1.8h1.8h1.8h1.8h1.8h1.8h1.8h1.8h1.8h1L410,1v0.7v1.3v1.3v1.3v1.3v1.3v1.3v1.3v1.3v1.3v1.3v1.3v1.3v1.3v1.3v1.3v1.3v1.3
					v1.3v1.3v1.3v1.3v1.3v1.3v1.3v1.3v0.8l-0.7-0.8l-1-1l-0.3-0.3l-1.4-1.3l-0.1-0.1l-1.3-1.2l-0.5-0.5l-0.9-0.8l-0.9-0.8l-0.6-0.5
					l-1.2-1.1l-0.3-0.2l-1.5-1.3l0,0l-1.6-1.3l-0.2-0.2l-1.4-1.1l-0.4-0.3l-1.2-1l-0.6-0.5l-1.1-0.9l-0.7-0.6l-1-0.8l-0.8-0.6
					l-0.9-0.7l-0.9-0.6l-0.9-0.7l-0.9-0.6l-1-0.7l-0.8-0.6l-1-0.7l-0.8-0.5l-1.2-0.8l-0.6-0.4l-1.3-0.9l-0.5-0.3l-1.5-1l-0.3-0.2
					l-1.8-1.2l0,0l-1.8-1.1l-0.3-0.2l-1.5-0.9l-0.7-0.4l-1.1-0.7l-1.1-0.7L368.7,4l-1.6-0.9L366.9,3l-1.8-1l-0.4-0.2L363.4,1
					L362.3,0.4z"/>
			</g>
		</g>
		<g id="PathCollection_3">
			<g>
				<defs>
					<rect id="SVGID_17_" x="52.9" y="0.4" width="357.1" height="266.1"/>
				</defs>
				<clipPath id="SVGID_18_">
					<use xlink:href="#SVGID_17_"  overflow="visible"/>
				</clipPath>
				<path clip-path="url(#SVGID_18_)" fill="#33638D" d="M54.1,229.1l-1.2-1.3v-0.1v-1.3v-1.3v-1.3v-1.3V221v-1.3v-1.3V217v-1.3
					v-1.3V213v-1.3v-1.3V209v-1.3v-1.3V205v-1.3v-1.3V201v-1.3v-1.3V197v-1.3v-1.3V193v-1.3v-1.3V189v-1.3v-1.3v-1.3v-1.3v-0.8
					l0.4,0.8l0.7,1.3l0.7,1.3l0,0l0.7,1.3l0.8,1.3l0.3,0.5l0.5,0.8l0.8,1.3l0.5,0.8l0.3,0.5l0.8,1.3l0.6,1l0.2,0.3l0.9,1.3l0.7,1
					l0.2,0.3l0.9,1.3l0.6,0.9L64,201l1,1.3l0.5,0.6l0.5,0.7l1,1.3l0.2,0.3l0.9,1.1l0.9,1.1l0.2,0.2l1.1,1.3l0.5,0.6l0.6,0.7l1.2,1.3
					l0,0l1.2,1.3l0.6,0.6l0.7,0.7l1.1,1.2l0.1,0.1l1.3,1.3l0.4,0.4l0.9,1l0.8,0.8l0.5,0.5l1.3,1.2l0.1,0.1l1.4,1.3l0.3,0.2l1.2,1.1
					l0.6,0.5l0.9,0.8l0.9,0.8l0.7,0.6l1.1,1l0.4,0.4l1.3,1.1l0.3,0.2l1.5,1.2l0.1,0.1l1.7,1.3l0,0l1.7,1.3l0,0l1.8,1.3l0,0l1.8,1.3
					l0,0l1.8,1.2l0.1,0.1l1.7,1.1l0.3,0.2l1.5,1l0.5,0.3l1.3,0.8l0.8,0.5l1,0.7l1.1,0.7l0.7,0.4l1.5,0.9l0.3,0.2l1.8,1.1l0.1,0.1
					l1.6,1l0.7,0.4l1.1,0.6l1.3,0.7l0.5,0.3l1.8,1l0.2,0.1l1.6,0.9l0.9,0.5l0.9,0.4l1.8,0.9l0,0l1.8,0.9l1,0.5l0.8,0.4l1.8,0.8
					l0.3,0.1l1.5,0.7l1.4,0.6l0.4,0.2l1.8,0.8l1,0.4l0.8,0.3l1.8,0.7l0.6,0.3l1.2,0.5l1.8,0.7l0.5,0.2l1.3,0.5l1.8,0.7l0.5,0.2
					l1.3,0.5l1.8,0.6l0.7,0.2l1.1,0.4l1.8,0.6l1.1,0.4l0.7,0.2l1.8,0.6l1.8,0.5l0,0l1.8,0.5l1.8,0.5l1,0.3h-1h-1.8h-1.8h-1.8H157
					h-1.8h-1.8h-1.8h-1.8H148h-1.8h-1.8h-1.8h-1.8H139h-1.8h-1.8h-1.8h-1.8h-1.8h-1.8h-1.8h-1.8h-1.8h-1.8h-1.8h-1.8h-1.8h-1.8h-1.8
					h-1.8h-1.8h-1.8h-1.8h-0.1l-1.7-0.9l-0.8-0.4l-1-0.6l-1.4-0.8l-0.4-0.2l-1.8-1l-0.2-0.1l-1.6-0.9l-0.7-0.4l-1.1-0.7l-1.1-0.7
					l-0.7-0.4l-1.5-0.9l-0.3-0.2l-1.8-1.1l0,0L87,256l-0.3-0.2l-1.5-1l-0.5-0.3l-1.3-0.9l-0.6-0.4l-1.2-0.8l-0.8-0.5l-1-0.7
					l-0.8-0.6l-1-0.7l-0.9-0.6l-0.9-0.7l-0.9-0.6l-0.9-0.7l-0.8-0.6l-1-0.8l-0.7-0.6l-1.1-0.9l-0.6-0.5l-1.2-1l-0.4-0.3l-1.4-1.1
					l-0.2-0.2l-1.6-1.3l0,0l-1.5-1.3l-0.3-0.2l-1.2-1.1l-0.6-0.5l-0.9-0.8l-0.9-0.8l-0.5-0.5l-1.3-1.2l-0.1-0.1l-1.4-1.3l-0.3-0.3
					l-1-1l-0.7-0.8L54.1,229.1z"/>
			</g>
			<g>
				<defs>
					<rect id="SVGID_19_" x="52.9" y="0.4" width="357.1" height="266.1"/>
				</defs>
				<clipPath id="SVGID_20_">
					<use xlink:href="#SVGID_19_"  overflow="visible"/>
				</clipPath>
				<path clip-path="url(#SVGID_20_)" fill="#33638D" d="M52.9,82v-1.3v-1.3V78v-1.3v-1.3v-1.3v-1.3v-1.3v-1.3v-1.3v-1.3v-1.3v-1.3
					v-1.3v-1.3v-1.3v-1.3v-1.3v-1.3v-1.3v-1.3v-1.3v-1.3v-1.3v-1.3v-1.3v-1.3v-1.3v-1.3v-1.3v-1.3v-1.3v-1.3v-0.1l1.2-1.3l0.6-0.6
					l0.7-0.8l1-1l0.3-0.3l1.4-1.3l0.1-0.1l1.3-1.2l0.5-0.5l0.9-0.8l0.9-0.8l0.6-0.5l1.2-1.1l0.3-0.2l1.5-1.3l0,0l1.6-1.3l0.2-0.2
					l1.4-1.1l0.4-0.3l1.2-1l0.6-0.5l1.1-0.9l0.7-0.6l1-0.8l0.8-0.6l0.9-0.7l0.9-0.6l0.9-0.7l0.9-0.6l1-0.7l0.8-0.6l1-0.7l0.8-0.5
					l1.2-0.8l0.6-0.4l1.3-0.9l0.5-0.3l1.5-1L87,9.6l1.8-1.2l0,0l1.8-1.1l0.3-0.2l1.5-0.9l0.7-0.4l1.1-0.7l1.1-0.7L96,4l1.6-0.9
					L97.8,3l1.8-1l0.4-0.2l1.4-0.8l1-0.6h0.8h1.8h1.8h1.8h1.8h1.8h1.8h1.8h1.8h1.8h1.8h1.8h1.8h1.8h1.8h1.8h1.8h1.8h1.8h1.8h1.8h1.8
					h1.8h1.8h1.8h1.8h1.8h1.8h1.8h1.8h1.8h1.8h1.8l-1.8,0.5L157,1.5l-0.7,0.2l-1.1,0.4l-1.8,0.6l-1.1,0.4l-0.7,0.2l-1.8,0.6
					l-1.3,0.5L148,4.6l-1.8,0.7l-1.3,0.5l-0.5,0.2l-1.8,0.7l-1.2,0.5l-0.6,0.3L139,8.1l-0.8,0.3l-1,0.4l-1.8,0.8l-0.4,0.2l-1.4,0.6
					l-1.5,0.7l-0.3,0.1l-1.8,0.8l-0.8,0.4l-1,0.5l-1.8,0.9l0,0l-1.8,0.9l-0.9,0.4l-0.9,0.5l-1.6,0.9l-0.2,0.1l-1.8,1l-0.5,0.3
					l-1.3,0.7l-1.1,0.6l-0.7,0.4l-1.6,1l-0.1,0.1l-1.8,1.1l-0.3,0.2l-1.5,0.9l-0.7,0.4l-1.1,0.7l-1,0.7l-0.8,0.5l-1.3,0.8l-0.5,0.3
					l-1.5,1l-0.3,0.2l-1.7,1.1l-0.1,0.1l-1.8,1.2l0,0l-1.8,1.3l0,0L96,32.5l0,0l-1.7,1.3l0,0l-1.7,1.3l-0.1,0.1l-1.5,1.2l-0.3,0.2
					l-1.3,1.1l-0.4,0.4l-1.1,1L87,39.8l-0.9,0.8l-0.9,0.8l-0.6,0.5L83.4,43l-0.3,0.2l-1.4,1.3l-0.1,0.1l-1.3,1.2l-0.5,0.5L79,47.2
					l-0.9,1l-0.4,0.4l-1.3,1.3L76.2,50l-1.1,1.2l-0.7,0.7l-0.6,0.6l-1.2,1.3l0,0l-1.2,1.3L70.8,56l-0.5,0.6l-1.1,1.3L69,58.1
					l-0.9,1.1l-0.9,1.1L67,60.6l-1,1.3l-0.5,0.7L65,63.3l-1,1.3l-0.3,0.5L63,65.9l-0.9,1.3l-0.2,0.3l-0.7,1l-0.9,1.3l-0.2,0.3
					l-0.6,1l-0.8,1.3l-0.3,0.5l-0.5,0.8L57,75.3l-0.5,0.8l-0.3,0.5L55.4,78l-0.7,1.3l0,0L54,80.6L53.3,82l-0.4,0.8V82z"/>
			</g>
			<g>
				<defs>
					<rect id="SVGID_21_" x="52.9" y="0.4" width="357.1" height="266.1"/>
				</defs>
				<clipPath id="SVGID_22_">
					<use xlink:href="#SVGID_21_"  overflow="visible"/>
				</clipPath>
				<path clip-path="url(#SVGID_22_)" fill="#33638D" d="M300.5,266.2l1.8-0.5l1.8-0.5l0,0l1.8-0.5l1.8-0.6l0.7-0.2l1.1-0.4l1.8-0.6
					l1.1-0.4l0.7-0.2l1.8-0.6l1.3-0.5l0.5-0.2l1.8-0.7l1.3-0.5l0.5-0.2l1.8-0.7l1.2-0.5l0.6-0.3l1.8-0.7l0.8-0.3l1-0.4l1.8-0.8
					l0.4-0.2l1.4-0.6l1.5-0.7l0.3-0.1l1.8-0.8l0.8-0.4l1-0.5l1.8-0.9l0,0l1.8-0.9l0.9-0.4l0.9-0.5l1.6-0.9l0.2-0.1l1.8-1l0.5-0.3
					l1.3-0.7l1.1-0.6l0.7-0.4l1.6-1l0.1-0.1l1.8-1.1l0.3-0.2l1.5-0.9l0.7-0.4l1.1-0.7l1-0.7l0.8-0.5l1.3-0.8l0.5-0.3l1.5-1l0.3-0.2
					l1.7-1.1l0.1-0.1l1.8-1.2l0,0l1.8-1.3l0,0l1.8-1.3l0,0l1.7-1.3l0,0l1.7-1.3l0.1-0.1l1.5-1.2l0.3-0.2l1.3-1.1l0.4-0.4l1.1-1
					l0.7-0.6l0.9-0.8l0.9-0.8l0.6-0.5l1.2-1.1l0.3-0.2l1.4-1.3l0.1-0.1l1.3-1.2l0.5-0.5l0.8-0.8l0.9-1l0.4-0.4l1.3-1.3l0.1-0.1
					l1.1-1.2l0.7-0.7l0.6-0.6l1.2-1.3l0,0l1.2-1.3l0.6-0.7l0.5-0.6l1.1-1.3l0.2-0.2l0.9-1.1l0.9-1.1l0.2-0.3l1-1.3l0.5-0.7l0.5-0.6
					l1-1.3l0.3-0.5l0.6-0.9l0.9-1.3l0.2-0.3l0.7-1l0.9-1.3l0.2-0.3l0.6-1l0.8-1.3l0.3-0.5l0.5-0.8l0.8-1.3l0.5-0.8l0.3-0.5l0.8-1.3
					l0.7-1.3v1.3v1.3v1.3v1.3v1.3v1.3v1.3v1.3v1.3v1.3v1.3v1.3v1.3v1.3v1.3v1.3v1.3v1.3v1.3v1.3v1.3v1.3v1.3v1.3v1.3v1.3v1.3v1.3
					v1.3v1.3v1.3v1.3v0.6l-0.7,0.8l-1,1l-0.3,0.3l-1.4,1.3l-0.1,0.1l-1.3,1.2l-0.5,0.5l-0.9,0.8l-0.9,0.8l-0.6,0.5l-1.2,1.1
					l-0.3,0.2l-1.5,1.3l0,0l-1.6,1.3l-0.2,0.2l-1.4,1.1l-0.4,0.3l-1.2,1l-0.6,0.5l-1.1,0.9l-0.7,0.6l-1,0.8l-0.8,0.6l-0.9,0.7
					l-0.9,0.6l-0.9,0.7l-0.9,0.6l-1,0.7l-0.8,0.6l-1,0.7l-0.8,0.5l-1.2,0.8l-0.6,0.4l-1.3,0.9l-0.5,0.3l-1.5,1l-0.3,0.2l-1.8,1.2
					l0,0l-1.8,1.1l-0.3,0.2l-1.5,0.9l-0.7,0.4l-1.1,0.7l-1.1,0.7l-0.7,0.4l-1.6,0.9l-0.2,0.1l-1.8,1l-0.4,0.2l-1.4,0.8l-1,0.6
					l-0.8,0.4l-1.7,0.9h-0.1H358h-1.8h-1.8h-1.8h-1.8H349h-1.8h-1.8h-1.8h-1.8H340h-1.8h-1.8h-1.8h-1.8H331h-1.8h-1.8h-1.8h-1.8
					h-1.8h-1.8h-1.8h-1.8h-1.8h-1.8h-1.8h-1.8h-1.8h-1.8h-1.8h-1.8h-1.8h-1L300.5,266.2z"/>
			</g>
			<g>
				<defs>
					<rect id="SVGID_23_" x="52.9" y="0.4" width="357.1" height="266.1"/>
				</defs>
				<clipPath id="SVGID_24_">
					<use xlink:href="#SVGID_23_"  overflow="visible"/>
				</clipPath>
				<path clip-path="url(#SVGID_24_)" fill="#33638D" d="M304.1,0.4h1.8h1.8h1.8h1.8h1.8h1.8h1.8h1.8h1.8h1.8h1.8h1.8h1.8h1.8h1.8
					h1.8h1.8h1.8h1.8h1.8h1.8h1.8h1.8h1.8h1.8h1.8h1.8h1.8h1.8h1.8h1.8h1.8h0.8l1,0.6l1.4,0.8l0.4,0.2l1.8,1l0.2,0.1l1.6,0.9
					l0.7,0.4l1.1,0.7l1.1,0.7l0.7,0.4l1.5,0.9l0.3,0.2l1.8,1.1l0,0l1.8,1.2l0.3,0.2l1.5,1l0.5,0.3l1.3,0.9l0.6,0.4l1.2,0.8l0.8,0.5
					l1,0.7l0.8,0.6l1,0.7l0.9,0.6l0.9,0.7l0.9,0.6l0.9,0.7l0.8,0.6l1,0.8l0.7,0.6l1.1,0.9l0.6,0.5l1.2,1l0.4,0.3l1.4,1.1l0.2,0.2
					l1.6,1.3l0,0l1.5,1.3l0.3,0.2l1.2,1.1l0.6,0.5l0.9,0.8l0.9,0.8l0.5,0.5l1.3,1.2l0.1,0.1l1.4,1.3l0.3,0.3l1,1l0.7,0.8v0.6v1.3
					v1.3v1.3v1.3v1.3v1.3v1.3v1.3v1.3v1.3v1.3v1.3v1.3v1.3v1.3v1.3v1.3v1.3v1.3v1.3v1.3v1.3v1.3v1.3v1.3v1.3v1.3v1.3v1.3v1.3V78v1.3
					l-0.7-1.3l-0.8-1.3l-0.3-0.5l-0.5-0.8l-0.8-1.3l-0.5-0.8l-0.3-0.5l-0.8-1.3l-0.6-1l-0.2-0.3l-0.9-1.3l-0.7-1l-0.2-0.3l-0.9-1.3
					l-0.6-0.9l-0.3-0.5l-1-1.3l-0.5-0.6l-0.5-0.7l-1-1.3l-0.2-0.3l-0.9-1.1l-0.9-1.1l-0.2-0.2l-1.1-1.3l-0.5-0.6l-0.6-0.7l-1.2-1.3
					l0,0l-1.2-1.3l-0.6-0.6l-0.7-0.7l-1.1-1.2l-0.1-0.1l-1.3-1.3l-0.4-0.4l-0.9-1l-0.8-0.8l-0.5-0.5l-1.3-1.2l-0.1-0.1l-1.4-1.3
					l-0.3-0.2l-1.2-1.1l-0.6-0.5l-0.9-0.8l-0.9-0.8l-0.7-0.6l-1.1-1l-0.4-0.4l-1.3-1.1l-0.3-0.2l-1.5-1.2l-0.1-0.1l-1.7-1.3l0,0
					l-1.7-1.3l0,0l-1.8-1.3l0,0l-1.8-1.3l0,0l-1.8-1.2l-0.1-0.1l-1.7-1.1l-0.3-0.2l-1.5-1l-0.5-0.3L358,25l-0.8-0.5l-1-0.7l-1.1-0.7
					l-0.7-0.4l-1.5-0.9l-0.3-0.2l-1.8-1.1l-0.1-0.1l-1.6-1l-0.7-0.4l-1.1-0.6l-1.3-0.7l-0.5-0.3l-1.8-1l-0.2-0.1l-1.6-0.9l-0.9-0.5
					l-0.9-0.4l-1.8-0.9l0,0l-1.8-0.9l-1-0.5l-0.8-0.4l-1.8-0.8l-0.3-0.1l-1.5-0.7l-1.4-0.6l-0.4-0.2l-1.8-0.8l-1-0.4l-0.8-0.3
					l-1.8-0.7l-0.6-0.3l-1.2-0.5l-1.8-0.7l-0.5-0.2l-1.3-0.5l-1.8-0.7l-0.5-0.2l-1.3-0.5l-1.8-0.6l-0.7-0.2l-1.1-0.4l-1.8-0.6
					l-1.1-0.4l-0.7-0.2l-1.8-0.6L304.1,0.4z"/>
			</g>
		</g>
		<g id="PathCollection_4">
			<g>
				<defs>
					<rect id="SVGID_25_" x="52.9" y="0.4" width="357.1" height="266.1"/>
				</defs>
				<clipPath id="SVGID_26_">
					<use xlink:href="#SVGID_25_"  overflow="visible"/>
				</clipPath>
				<path clip-path="url(#SVGID_26_)" fill="#26828E" d="M54.7,186.3l-0.7-1.3l-0.7-1.3l-0.4-0.8v-0.6v-1.3v-1.3v-1.3v-1.3v-1.3
					v-1.3v-1.3v-1.3v-1.3v-1.3v-1.3v-1.3v-1.3v-1.3v-1.3v-1.3v-1.3v-1.3v-1.3v-1.3v-1.3v-1.3v-1.3v-1.3v-1.3v-1.3v-1.3v-1.3v-1.3
					v-1.3v-1.3v-1.3v-1.3v-1.3v-1.3v-1.3v-1.3v-1.3v-1.3v-1.3v-1.3v-1.3v-1.3v-1.3v-1.3v-1.3v-1.3v-1.3v-1.3v-1.3v-1.3v-1.3v-1.3
					v-1.3v-1.3v-1.3V106v-1.3v-1.3V102v-1.3v-1.3V98v-1.3v-1.3V94v-1.3v-1.3V90v-1.3v-1.3V86v-1.3v-1.3v-0.6l0.4-0.8l0.7-1.3
					l0.7-1.3l0,0l0.7-1.3l0.8-1.3l0.3-0.5l0.5-0.8l0.8-1.3l0.5-0.8l0.3-0.5l0.8-1.3l0.6-1l0.2-0.3l0.9-1.3l0.7-1l0.2-0.3l0.9-1.3
					l0.6-0.9l0.3-0.5l1-1.3l0.5-0.6l0.5-0.7l1-1.3l0.2-0.3l0.9-1.1l0.9-1.1l0.2-0.2l1.1-1.3l0.5-0.6l0.6-0.7l1.2-1.3l0,0l1.2-1.3
					l0.6-0.6l0.7-0.7l1.1-1.2l0.1-0.1l1.3-1.3l0.4-0.4l0.9-1l0.8-0.8l0.5-0.5l1.3-1.2l0.1-0.1l1.4-1.3l0.3-0.2l1.2-1.1l0.6-0.5
					l0.9-0.8l0.9-0.8l0.7-0.6l1.1-1l0.4-0.4l1.3-1.1l0.3-0.2l1.5-1.2l0.1-0.1l1.7-1.3l0,0l1.7-1.3l0,0l1.8-1.3l0,0l1.8-1.3l0,0
					l1.8-1.2l0.1-0.1l1.7-1.1l0.3-0.2l1.5-1l0.5-0.3l1.3-0.8l0.8-0.5l1-0.7l1.1-0.7l0.7-0.4l1.5-0.9l0.3-0.2l1.8-1.1l0.1-0.1l1.6-1
					l0.7-0.4l1.1-0.6l1.3-0.7l0.5-0.3l1.8-1l0.2-0.1l1.6-0.9l0.9-0.5l0.9-0.4l1.8-0.9l0,0l1.8-0.9l1-0.5l0.8-0.4l1.8-0.8l0.3-0.1
					l1.5-0.7l1.4-0.6l0.4-0.2l1.8-0.8l1-0.4l0.8-0.3l1.8-0.7l0.6-0.3l1.2-0.5l1.8-0.7l0.5-0.2l1.3-0.5l1.8-0.7l0.5-0.2l1.3-0.5
					l1.8-0.6l0.7-0.2l1.1-0.4l1.8-0.6l1.1-0.4l0.7-0.2l1.8-0.6l1.8-0.5h0h1.8h1.8h1.8h1.8h1.8h1.8h1.8h1.8h1.8h1.8h1.8h1.8h1.8h1.8
					h1.8h1.8h1.8h1.8h1.8h1.8h1.8h1.8h1.8h1.8h1.8h1.8h1.8h1.8h1.8h1.8h1.8h1.8h1.8h1.8h1.8h1.8h1.8h1.8h1.8h1.8h1.8h1.8h1.8h1.8
					h1.8h1.8h1.8h1.8h1.8h1.8h1.8h1.8h1.8h1.8h1.8h1.8h1.8h1.8h1.8h1.8h1.8h1.8h1.8h1.8h1.8h1.8h1.8h1.8h1.8h1.8h1.8h1.8h1.8h1.8
					h1.8h1.8h1.8h1.8h1.8h1.8h0l1.8,0.5l1.8,0.6l0.7,0.2l1.1,0.4l1.8,0.6l1.1,0.4l0.7,0.2l1.8,0.6l1.3,0.5l0.5,0.2l1.8,0.7l1.3,0.5
					l0.5,0.2l1.8,0.7l1.2,0.5l0.6,0.3l1.8,0.7l0.8,0.3l1,0.4l1.8,0.8l0.4,0.2l1.4,0.6l1.5,0.7l0.3,0.1l1.8,0.8l0.8,0.4l1,0.5
					l1.8,0.9l0,0l1.8,0.9l0.9,0.4l0.9,0.5l1.6,0.9l0.2,0.1l1.8,1l0.5,0.3l1.3,0.7l1.1,0.6l0.7,0.4l1.6,1l0.1,0.1l1.8,1.1l0.3,0.2
					l1.5,0.9l0.7,0.4l1.1,0.7l1,0.7L358,25l1.3,0.8l0.5,0.3l1.5,1l0.3,0.2l1.7,1.1l0.1,0.1l1.8,1.2l0,0l1.8,1.3l0,0l1.8,1.3l0,0
					l1.7,1.3l0,0l1.7,1.3l0.1,0.1l1.5,1.2l0.3,0.2l1.3,1.1l0.4,0.4l1.1,1l0.7,0.6l0.9,0.8l0.9,0.8l0.6,0.5l1.2,1.1l0.3,0.2l1.4,1.3
					l0.1,0.1l1.3,1.2l0.5,0.5l0.8,0.8l0.9,1l0.4,0.4l1.3,1.3l0.1,0.1l1.1,1.2l0.7,0.7l0.6,0.6l1.2,1.3l0,0l1.2,1.3l0.6,0.7l0.5,0.6
					l1.1,1.3l0.2,0.2l0.9,1.1l0.9,1.1l0.2,0.3l1,1.3l0.5,0.7l0.5,0.6l1,1.3l0.3,0.5l0.6,0.9l0.9,1.3l0.2,0.3l0.7,1l0.9,1.3l0.2,0.3
					l0.6,1l0.8,1.3l0.3,0.5l0.5,0.8l0.8,1.3l0.5,0.8l0.3,0.5l0.8,1.3l0.7,1.3v0v1.3V82v1.3v1.3V86v1.3v1.3V90v1.3v1.3V94v1.3v1.3V98
					v1.3v1.3v1.3v1.3v1.3v1.3v1.3v1.3v1.3v1.3v1.3v1.3v1.3v1.3v1.3v1.3v1.3v1.3v1.3v1.3v1.3v1.3v1.3v1.3v1.3v1.3v1.3v1.3v1.3v1.3
					v1.3v1.3v1.3v1.3v1.3v1.3v1.3v1.3v1.3v1.3v1.3v1.3v1.3v1.3v1.3v1.3v1.3v1.3v1.3v1.3v1.3v1.3v1.3v1.3v1.3v1.3v1.3v1.3v1.3v1.3
					v1.3v1.3v1.3v1.3v1.3v1.3v0l-0.7,1.3l-0.8,1.3l-0.3,0.5l-0.5,0.8l-0.8,1.3l-0.5,0.8l-0.3,0.5l-0.8,1.3l-0.6,1l-0.2,0.3l-0.9,1.3
					l-0.7,1l-0.2,0.3l-0.9,1.3l-0.6,0.9l-0.3,0.5l-1,1.3l-0.5,0.6l-0.5,0.7l-1,1.3l-0.2,0.3l-0.9,1.1l-0.9,1.1l-0.2,0.2l-1.1,1.3
					l-0.5,0.6l-0.6,0.7l-1.2,1.3l0,0l-1.2,1.3l-0.6,0.6l-0.7,0.7l-1.1,1.2l-0.1,0.1l-1.3,1.3l-0.4,0.4l-0.9,1l-0.8,0.8l-0.5,0.5
					l-1.3,1.2L383,221l-1.4,1.3l-0.3,0.2l-1.2,1.1l-0.6,0.5l-0.9,0.8l-0.9,0.8l-0.7,0.6l-1.1,1l-0.4,0.4l-1.3,1.1l-0.3,0.2l-1.5,1.2
					l-0.1,0.1l-1.7,1.3l0,0l-1.7,1.3l0,0l-1.8,1.3l0,0l-1.8,1.3l0,0l-1.8,1.2l-0.1,0.1l-1.7,1.1l-0.3,0.2l-1.5,1l-0.5,0.3l-1.3,0.8
					l-0.8,0.5l-1,0.7l-1.1,0.7l-0.7,0.4l-1.5,0.9l-0.3,0.2l-1.8,1.1l-0.1,0.1l-1.6,1l-0.7,0.4l-1.1,0.6l-1.3,0.7l-0.5,0.3l-1.8,1
					l-0.2,0.1l-1.6,0.9l-0.9,0.5l-0.9,0.4l-1.8,0.9l0,0l-1.8,0.9l-1,0.5l-0.8,0.4l-1.8,0.8l-0.3,0.1l-1.5,0.7l-1.4,0.6l-0.4,0.2
					l-1.8,0.8l-1,0.4l-0.8,0.3l-1.8,0.7l-0.6,0.3l-1.2,0.5l-1.8,0.7l-0.5,0.2l-1.3,0.5l-1.8,0.7l-0.5,0.2l-1.3,0.5l-1.8,0.6
					l-0.7,0.2l-1.1,0.4l-1.8,0.6l-1.1,0.4l-0.7,0.2l-1.8,0.6l-1.8,0.5l0,0l-1.8,0.5l-1.8,0.5l-1,0.3h-0.8H297h-1.8h-1.8h-1.8h-1.8
					H288h-1.8h-1.8h-1.8h-1.8H279h-1.8h-1.8h-1.8h-1.8H270h-1.8h-1.8h-1.8h-1.8h-1.8h-1.8h-1.8h-1.8h-1.8h-1.8h-1.8h-1.8h-1.8h-1.8
					h-1.8h-1.8h-1.8h-1.8h-1.8h-1.8h-1.8h-1.8h-1.8H227h-1.8h-1.8h-1.8h-1.8H218h-1.8h-1.8h-1.8h-1.8H209h-1.8h-1.8h-1.8h-1.8H200
					h-1.8h-1.8h-1.8h-1.8h-1.8h-1.8h-1.8h-1.8h-1.8h-1.8h-1.8h-1.8h-1.8h-1.8h-1.8h-1.8h-1.8h-1.8h-1.8h-0.8l-1-0.3l-1.8-0.5
					l-1.8-0.5l0,0l-1.8-0.5l-1.8-0.6l-0.7-0.2l-1.1-0.4l-1.8-0.6l-1.1-0.4l-0.7-0.2l-1.8-0.6l-1.3-0.5L148,261l-1.8-0.7l-1.3-0.5
					l-0.5-0.2l-1.8-0.7l-1.2-0.5l-0.6-0.3l-1.8-0.7l-0.8-0.3l-1-0.4l-1.8-0.8l-0.4-0.2l-1.4-0.6l-1.5-0.7l-0.3-0.1l-1.8-0.8
					l-0.8-0.4l-1-0.5l-1.8-0.9l0,0l-1.8-0.9l-0.9-0.4l-0.9-0.5l-1.6-0.9l-0.2-0.1l-1.8-1l-0.5-0.3l-1.3-0.7l-1.1-0.6l-0.7-0.4
					l-1.6-1l-0.1-0.1l-1.8-1.1l-0.3-0.2l-1.5-0.9l-0.7-0.4l-1.1-0.7l-1-0.7l-0.8-0.5l-1.3-0.8l-0.5-0.3l-1.5-1l-0.3-0.2l-1.7-1.1
					l-0.1-0.1l-1.8-1.2l0,0l-1.8-1.3l0,0l-1.8-1.3l0,0l-1.7-1.3l0,0l-1.7-1.3l-0.1-0.1l-1.5-1.2l-0.3-0.2l-1.3-1.1l-0.4-0.4l-1.1-1
					l-0.7-0.6l-0.9-0.8l-0.9-0.8l-0.6-0.5l-1.2-1.1l-0.3-0.2l-1.4-1.3l-0.1-0.1l-1.3-1.2l-0.5-0.5l-0.8-0.8l-0.9-1l-0.4-0.4
					l-1.3-1.3l-0.1-0.1l-1.1-1.2l-0.7-0.7l-0.6-0.6l-1.2-1.3l0,0l-1.2-1.3l-0.6-0.7l-0.5-0.6l-1.1-1.3l-0.2-0.2l-0.9-1.1l-0.9-1.1
					L67,205l-1-1.3l-0.5-0.7l-0.5-0.6l-1-1.3l-0.3-0.5l-0.6-0.9l-0.9-1.3l-0.2-0.3l-0.7-1l-0.9-1.3l-0.2-0.3l-0.6-1l-0.8-1.3
					l-0.3-0.5l-0.5-0.8l-0.8-1.3l-0.5-0.8l-0.3-0.5l-0.8-1.3L54.7,186.3L54.7,186.3z M69,141l0.1,1.2l0.1,1.3l0.2,1.3l0.2,1.3
					l0.2,1.3l0.2,1.3l0.2,1.3l0.3,1.3l0.2,1l0.1,0.3l0.3,1.3l0.3,1.3l0.4,1.3l0.4,1.3l0.4,1.2l0,0.1l0.4,1.3l0.4,1.3l0.5,1.3
					l0.5,1.3l0,0l0.5,1.3l0.5,1.3l0.5,1.3l0.2,0.5l0.4,0.8l0.6,1.3l0.6,1.3l0.2,0.5l0.4,0.8l0.7,1.3l0.7,1.3l0,0.1l0.7,1.3l0.7,1.3
					l0.4,0.7l0.4,0.6l0.8,1.3l0.7,1.1l0.2,0.3l0.8,1.3l0.8,1.2l0.1,0.1l0.9,1.3l0.8,1.2l0.1,0.1l0.9,1.3l0.8,1.1l0.2,0.3l1,1.3
					l0.6,0.8l0.4,0.6l1.1,1.3l0.3,0.4l0.8,1l1,1.2l0.1,0.2l1.2,1.3l0.5,0.6l0.7,0.8l1.1,1.2l0.1,0.1l1.3,1.3l0.4,0.4l0.9,0.9
					l0.9,0.9l0.4,0.4l1.4,1.3l0,0l1.4,1.3l0.4,0.3l1.1,1l0.7,0.6l0.8,0.7l1,0.9l0.6,0.5l1.2,1l0.4,0.3l1.4,1.2l0.2,0.2l1.6,1.3
					l0.1,0.1l1.7,1.3l0,0l1.8,1.3l0,0l1.8,1.3l0.1,0.1l1.7,1.2l0.2,0.1l1.6,1.1l0.4,0.3l1.4,0.9l0.6,0.4l1.2,0.7l1,0.6l0.8,0.5
					l1.4,0.8l0.4,0.3l1.8,1.1l0,0l1.8,1l0.6,0.3l1.2,0.7l1.2,0.7l0.6,0.3l1.8,0.9l0.2,0.1l1.6,0.8l1,0.5l0.8,0.4l1.8,0.9l0.2,0.1
					l1.6,0.7l1.3,0.6l0.5,0.2l1.8,0.8l0.8,0.3l1,0.4l1.8,0.7l0.4,0.1l1.4,0.6l1.8,0.7l0.1,0.1l1.7,0.6l1.8,0.7l0.1,0l1.7,0.6
					l1.8,0.6l0.3,0.1l1.4,0.5l1.8,0.6l0.8,0.3l0.9,0.3l1.8,0.5l1.7,0.5l0.1,0l1.8,0.5l1.8,0.5l1.1,0.3l0.7,0.2l1.8,0.5l1.8,0.4
					l1.1,0.3l0.7,0.2l1.8,0.4l1.8,0.4l1.8,0.4l0.1,0l1.7,0.3l1.8,0.3l1.8,0.3l1.8,0.3l0.1,0l1.7,0.3l1.8,0.3l1.8,0.3l1.8,0.2
					l1.8,0.2l0.4,0l1.4,0.2l1.8,0.2l1.8,0.2l1.8,0.2l1.8,0.2l1.8,0.1l1.8,0.1l1.8,0.1l1.6,0.1l0.2,0l1.8,0.1l1.8,0.1l1.8,0.1l1.8,0
					l1.8,0l1.8,0l1.8,0l1.8,0l1.8,0l1.8-0.1l1.8-0.1l1.8-0.1l0.2,0l1.6-0.1l1.8-0.1l1.8-0.1l1.8-0.1l1.8-0.2l1.8-0.2l1.8-0.2
					l1.8-0.2l1.4-0.2l0.4,0l1.8-0.2l1.8-0.2l1.8-0.3l1.8-0.3l1.7-0.3l0.1,0l1.8-0.3l1.8-0.3l1.8-0.3l1.7-0.3l0.1,0l1.8-0.4l1.8-0.4
					l1.8-0.4l0.7-0.2l1.1-0.3l1.8-0.4l1.8-0.5l0.7-0.2l1.1-0.3l1.8-0.5l1.8-0.5l0.1,0l1.7-0.5l1.8-0.5l0.9-0.3l0.8-0.3l1.8-0.6
					l1.4-0.5l0.3-0.1l1.8-0.6l1.7-0.6l0.1,0l1.8-0.7l1.7-0.6l0.1-0.1l1.8-0.7l1.4-0.6l0.4-0.1l1.8-0.7l1-0.4l0.8-0.3l1.8-0.8
					l0.5-0.2l1.3-0.6l1.6-0.7l0.2-0.1l1.8-0.9l0.8-0.4l1-0.5l1.6-0.8l0.2-0.1l1.8-0.9l0.6-0.3l1.2-0.7l1.2-0.7l0.6-0.3l1.8-1l0,0
					l1.8-1.1l0.4-0.3l1.4-0.8l0.8-0.5l1-0.6l1.2-0.7l0.6-0.4l1.4-0.9l0.4-0.3l1.6-1.1l0.2-0.1l1.7-1.2l0.1-0.1l1.8-1.3l0,0l1.8-1.3
					l0,0l1.7-1.3l0.1-0.1l1.6-1.3l0.2-0.2l1.4-1.2l0.4-0.3l1.2-1l0.6-0.5l1-0.9l0.8-0.7l0.7-0.6l1.1-1l0.4-0.3l1.4-1.3l0,0l1.4-1.3
					l0.4-0.4l0.9-0.9l0.9-0.9l0.4-0.4l1.3-1.3l0.1-0.1l1.1-1.2l0.7-0.8l0.5-0.6l1.2-1.3l0.1-0.2l1-1.2l0.8-1l0.3-0.4l1.1-1.3
					l0.4-0.6l0.6-0.8l1-1.3l0.2-0.3l0.8-1.1l0.9-1.3l0.1-0.1l0.8-1.2l0.9-1.3l0.1-0.1l0.8-1.2l0.8-1.3l0.2-0.3l0.7-1.1l0.8-1.3
					l0.4-0.6l0.4-0.7l0.7-1.3l0.7-1.3l0-0.1l0.7-1.3l0.7-1.3l0.4-0.8l0.2-0.5l0.6-1.3l0.6-1.3l0.4-0.8l0.2-0.5l0.5-1.3l0.5-1.3
					l0.5-1.3l0,0l0.5-1.3l0.5-1.3l0.4-1.3l0.4-1.3l0-0.1l0.4-1.2l0.4-1.3l0.4-1.3l0.3-1.3l0.3-1.3l0.1-0.3l0.2-1l0.3-1.3l0.2-1.3
					l0.2-1.3l0.2-1.3l0.2-1.3l0.2-1.3l0.1-1.3l0.1-1.2l0-0.1l0.1-1.3l0.1-1.3l0.1-1.3l0-1.3l0-1.3l0-1.3l0-1.3l0-1.3l0-1.3l-0.1-1.3
					l-0.1-1.3l-0.1-1.3l0-0.1l-0.1-1.2l-0.1-1.3l-0.2-1.3l-0.2-1.3l-0.2-1.3l-0.2-1.3l-0.2-1.3l-0.3-1.3l-0.2-1l-0.1-0.3l-0.3-1.3
					l-0.3-1.3l-0.4-1.3l-0.4-1.3l-0.4-1.2l0-0.1l-0.4-1.3l-0.4-1.3l-0.5-1.3l-0.5-1.3l0,0l-0.5-1.3l-0.5-1.3l-0.5-1.3l-0.2-0.5
					l-0.4-0.8l-0.6-1.3l-0.6-1.3l-0.2-0.5l-0.4-0.8l-0.7-1.3l-0.7-1.3l0-0.1l-0.7-1.3l-0.7-1.3l-0.4-0.7l-0.4-0.6l-0.8-1.3l-0.7-1.1
					l-0.2-0.3l-0.8-1.3l-0.8-1.2l-0.1-0.1l-0.9-1.3l-0.8-1.2l-0.1-0.1l-0.9-1.3l-0.8-1.1l-0.2-0.3l-1-1.3l-0.6-0.8l-0.4-0.6
					l-1.1-1.3l-0.3-0.4l-0.8-1l-1-1.2l-0.1-0.2l-1.2-1.3l-0.5-0.6l-0.7-0.8l-1.1-1.2l-0.1-0.1l-1.3-1.3l-0.4-0.4l-0.9-0.9l-0.9-0.9
					l-0.4-0.4l-1.4-1.3l0,0l-1.4-1.3l-0.4-0.3l-1.1-1l-0.7-0.6l-0.8-0.7l-1-0.9l-0.6-0.5l-1.2-1l-0.4-0.3l-1.4-1.2l-0.2-0.2
					l-1.6-1.3l-0.1-0.1l-1.7-1.3l0,0l-1.8-1.3l0,0l-1.8-1.3l-0.1-0.1l-1.7-1.2l-0.2-0.1l-1.6-1.1l-0.4-0.3l-1.4-0.9l-0.6-0.4
					l-1.2-0.7l-1-0.6l-0.8-0.5l-1.4-0.8l-0.4-0.3l-1.8-1.1l0,0l-1.8-1l-0.6-0.3l-1.2-0.7l-1.2-0.7l-0.6-0.3l-1.8-0.9l-0.2-0.1
					l-1.6-0.8l-1-0.5l-0.8-0.4l-1.8-0.9l-0.2-0.1l-1.6-0.7l-1.3-0.6l-0.5-0.2l-1.8-0.8l-0.8-0.3l-1-0.4l-1.8-0.7l-0.4-0.1l-1.4-0.6
					l-1.8-0.7l-0.1-0.1l-1.7-0.6l-1.8-0.7l-0.1,0l-1.7-0.6l-1.8-0.6l-0.3-0.1l-1.4-0.5l-1.8-0.6l-0.8-0.3l-0.9-0.3l-1.8-0.5
					l-1.7-0.5l-0.1,0l-1.8-0.5l-1.8-0.5l-1.1-0.3l-0.7-0.2l-1.8-0.5l-1.8-0.4l-1.1-0.3l-0.7-0.2l-1.8-0.4l-1.8-0.4l-1.8-0.4l-0.1,0
					l-1.7-0.3l-1.8-0.3l-1.8-0.3l-1.8-0.3l-0.1,0l-1.7-0.3l-1.8-0.3l-1.8-0.3l-1.8-0.2l-1.8-0.2l-0.4,0l-1.4-0.2l-1.8-0.2l-1.8-0.2
					l-1.8-0.2l-1.8-0.2l-1.8-0.1l-1.8-0.1l-1.8-0.1l-1.6-0.1l-0.2,0l-1.8-0.1l-1.8-0.1l-1.8-0.1l-1.8,0l-1.8,0l-1.8,0l-1.8,0l-1.8,0
					l-1.8,0l-1.8,0.1l-1.8,0.1l-1.8,0.1l-0.2,0l-1.6,0.1l-1.8,0.1l-1.8,0.1l-1.8,0.1l-1.8,0.2l-1.8,0.2l-1.8,0.2l-1.8,0.2l-1.4,0.2
					l-0.4,0l-1.8,0.2l-1.8,0.2l-1.8,0.3l-1.8,0.3l-1.7,0.3l-0.1,0l-1.8,0.3l-1.8,0.3l-1.8,0.3l-1.7,0.3l-0.1,0l-1.8,0.4l-1.8,0.4
					l-1.8,0.4l-0.7,0.2l-1.1,0.3l-1.8,0.4l-1.8,0.5l-0.7,0.2l-1.1,0.3l-1.8,0.5l-1.8,0.5l-0.1,0l-1.7,0.5l-1.8,0.5l-0.9,0.3
					l-0.8,0.3l-1.8,0.6l-1.4,0.5l-0.3,0.1l-1.8,0.6l-1.7,0.6l-0.1,0l-1.8,0.7l-1.7,0.6l-0.1,0.1l-1.8,0.7l-1.4,0.6l-0.4,0.1
					l-1.8,0.7l-1,0.4l-0.8,0.3l-1.8,0.8l-0.5,0.2l-1.3,0.6l-1.6,0.7l-0.2,0.1l-1.8,0.9l-0.8,0.4l-1,0.5l-1.6,0.8l-0.2,0.1l-1.8,0.9
					l-0.6,0.3l-1.2,0.7l-1.2,0.7l-0.6,0.3l-1.8,1l0,0l-1.8,1.1l-0.4,0.3l-1.4,0.8l-0.8,0.5l-1,0.6l-1.2,0.7l-0.6,0.4l-1.4,0.9
					l-0.4,0.3l-1.6,1.1l-0.2,0.1l-1.7,1.2l-0.1,0.1l-1.8,1.3l0,0l-1.8,1.3l0,0l-1.7,1.3l-0.1,0.1l-1.6,1.3l-0.2,0.2l-1.4,1.2
					l-0.4,0.3l-1.2,1l-0.6,0.5l-1,0.9l-0.8,0.7l-0.7,0.6l-1.1,1l-0.4,0.3l-1.4,1.3l0,0l-1.4,1.3l-0.4,0.4l-0.9,0.9l-0.9,0.9
					l-0.4,0.4l-1.3,1.3l-0.1,0.1l-1.1,1.2L96,65.4l-0.5,0.6l-1.2,1.3l-0.1,0.2l-1,1.2l-0.8,1l-0.3,0.4L91,71.3l-0.4,0.6L90,72.6
					l-1,1.3l-0.2,0.3L88,75.3l-0.9,1.3L87,76.7L86.1,78l-0.9,1.3l-0.1,0.1l-0.8,1.2L83.6,82l-0.2,0.3l-0.7,1.1L82,84.6l-0.4,0.6
					L81.2,86l-0.7,1.3l-0.7,1.3l0,0.1L79.1,90l-0.7,1.3L78,92.2l-0.2,0.5L77.2,94l-0.6,1.3l-0.4,0.8L76,96.7L75.5,98l-0.5,1.3
					l-0.5,1.3l0,0L74,102l-0.5,1.3l-0.4,1.3l-0.4,1.3l0,0.1l-0.4,1.2l-0.4,1.3l-0.4,1.3l-0.3,1.3l-0.3,1.3l-0.1,0.3l-0.2,1l-0.3,1.3
					l-0.2,1.3l-0.2,1.3l-0.2,1.3l-0.2,1.3l-0.2,1.3l-0.1,1.3l-0.1,1.2l0,0.1l-0.1,1.3l-0.1,1.3l-0.1,1.3l0,1.3l0,1.3l0,1.3l0,1.3
					l0,1.3l0,1.3l0.1,1.3l0.1,1.3l0.1,1.3L69,141z"/>
			</g>
		</g>
		<g id="PathCollection_5">
			<g>
				<defs>
					<rect id="SVGID_27_" x="52.9" y="0.4" width="357.1" height="266.1"/>
				</defs>
				<clipPath id="SVGID_28_">
					<use xlink:href="#SVGID_27_"  overflow="visible"/>
				</clipPath>
				<path clip-path="url(#SVGID_28_)" fill="#1FA088" d="M69,140.8l-0.1-1.3l-0.1-1.3l-0.1-1.3l0-1.3l0-1.3l0-1.3l0-1.3l0-1.3l0-1.3
					l0.1-1.3l0.1-1.3l0.1-1.3l0-0.1l0.1-1.2l0.1-1.3l0.2-1.3l0.2-1.3l0.2-1.3l0.2-1.3l0.2-1.3l0.3-1.3l0.2-1l0.1-0.3l0.3-1.3
					l0.3-1.3l0.4-1.3l0.4-1.3l0.4-1.2l0-0.1l0.4-1.3l0.4-1.3L74,102l0.5-1.3l0,0l0.5-1.3l0.5-1.3l0.5-1.3l0.2-0.5l0.4-0.8l0.6-1.3
					l0.6-1.3l0.2-0.5l0.4-0.8l0.7-1.3l0.7-1.3l0-0.1l0.7-1.3l0.7-1.3l0.4-0.7l0.4-0.6l0.8-1.3l0.7-1.1l0.2-0.3l0.8-1.3l0.8-1.2
					l0.1-0.1l0.9-1.3l0.8-1.2l0.1-0.1l0.9-1.3l0.8-1.1l0.2-0.3l1-1.3l0.6-0.8l0.4-0.6l1.1-1.3l0.3-0.4l0.8-1l1-1.2l0.1-0.2l1.2-1.3
					l0.5-0.6l0.7-0.8l1.1-1.2l0.1-0.1l1.3-1.3l0.4-0.4l0.9-0.9l0.9-0.9l0.4-0.4l1.4-1.3l0,0l1.4-1.3l0.4-0.3l1.1-1l0.7-0.6l0.8-0.7
					l1-0.9l0.6-0.5l1.2-1l0.4-0.3l1.4-1.2l0.2-0.2l1.6-1.3l0.1-0.1l1.7-1.3l0,0l1.8-1.3l0,0l1.8-1.3l0.1-0.1l1.7-1.2l0.2-0.1
					l1.6-1.1l0.4-0.3l1.4-0.9l0.6-0.4l1.2-0.7l1-0.6l0.8-0.5l1.4-0.8l0.4-0.3l1.8-1.1l0,0l1.8-1l0.6-0.3l1.2-0.7l1.2-0.7l0.6-0.3
					l1.8-0.9l0.2-0.1l1.6-0.8l1-0.5l0.8-0.4l1.8-0.9l0.2-0.1l1.6-0.7l1.3-0.6l0.5-0.2l1.8-0.8l0.8-0.3l1-0.4l1.8-0.7l0.4-0.1
					l1.4-0.6l1.8-0.7l0.1-0.1l1.7-0.6l1.8-0.7l0.1,0l1.7-0.6l1.8-0.6l0.3-0.1l1.4-0.5l1.8-0.6l0.8-0.3l0.9-0.3l1.8-0.5l1.7-0.5
					l0.1,0l1.8-0.5l1.8-0.5l1.1-0.3l0.7-0.2l1.8-0.5l1.8-0.4l1.1-0.3l0.7-0.2l1.8-0.4l1.8-0.4l1.8-0.4l0.1,0l1.7-0.3l1.8-0.3
					l1.8-0.3l1.8-0.3l0.1,0l1.7-0.3l1.8-0.3l1.8-0.3l1.8-0.2l1.8-0.2l0.4,0l1.4-0.2l1.8-0.2l1.8-0.2l1.8-0.2l1.8-0.2l1.8-0.1
					l1.8-0.1l1.8-0.1l1.6-0.1l0.2,0l1.8-0.1l1.8-0.1l1.8-0.1l1.8,0l1.8,0l1.8,0l1.8,0l1.8,0l1.8,0l1.8,0.1l1.8,0.1l1.8,0.1l0.2,0
					l1.6,0.1l1.8,0.1l1.8,0.1l1.8,0.1l1.8,0.2l1.8,0.2l1.8,0.2l1.8,0.2l1.4,0.2l0.4,0l1.8,0.2l1.8,0.2l1.8,0.3l1.8,0.3l1.7,0.3
					l0.1,0l1.8,0.3l1.8,0.3l1.8,0.3l1.7,0.3l0.1,0l1.8,0.4l1.8,0.4l1.8,0.4l0.7,0.2l1.1,0.3l1.8,0.4l1.8,0.5l0.7,0.2l1.1,0.3
					l1.8,0.5l1.8,0.5l0.1,0l1.7,0.5l1.8,0.5l0.9,0.3l0.8,0.3l1.8,0.6l1.4,0.5l0.3,0.1l1.8,0.6l1.7,0.6l0.1,0l1.8,0.7l1.7,0.6
					l0.1,0.1l1.8,0.7l1.4,0.6l0.4,0.1l1.8,0.7l1,0.4l0.8,0.3l1.8,0.8l0.5,0.2l1.3,0.6l1.6,0.7l0.2,0.1l1.8,0.9l0.8,0.4l1,0.5
					l1.6,0.8l0.2,0.1l1.8,0.9l0.6,0.3l1.2,0.7l1.2,0.7l0.6,0.3l1.8,1l0,0l1.8,1.1l0.4,0.3l1.4,0.8l0.8,0.5l1,0.6l1.2,0.7l0.6,0.4
					l1.4,0.9l0.4,0.3l1.6,1.1l0.2,0.1l1.7,1.2l0.1,0.1l1.8,1.3l0,0l1.8,1.3l0,0l1.7,1.3l0.1,0.1l1.6,1.3l0.2,0.2l1.4,1.2l0.4,0.3
					l1.2,1l0.6,0.5l1,0.9l0.8,0.7l0.7,0.6l1.1,1l0.4,0.3l1.4,1.3l0,0l1.4,1.3l0.4,0.4l0.9,0.9l0.9,0.9l0.4,0.4l1.3,1.3l0.1,0.1
					l1.1,1.2l0.7,0.8l0.5,0.6l1.2,1.3l0.1,0.2l1,1.2l0.8,1l0.3,0.4l1.1,1.3l0.4,0.6l0.6,0.8l1,1.3l0.2,0.3l0.8,1.1l0.9,1.3l0.1,0.1
					l0.8,1.2l0.9,1.3l0.1,0.1l0.8,1.2l0.8,1.3l0.2,0.3l0.7,1.1l0.8,1.3l0.4,0.6l0.4,0.7l0.7,1.3l0.7,1.3l0,0.1l0.7,1.3l0.7,1.3
					l0.4,0.8l0.2,0.5l0.6,1.3l0.6,1.3l0.4,0.8l0.2,0.5l0.5,1.3l0.5,1.3l0.5,1.3l0,0l0.5,1.3l0.5,1.3l0.4,1.3l0.4,1.3l0,0.1l0.4,1.2
					l0.4,1.3l0.4,1.3l0.3,1.3l0.3,1.3l0.1,0.3l0.2,1l0.3,1.3l0.2,1.3l0.2,1.3l0.2,1.3l0.2,1.3l0.2,1.3l0.1,1.3l0.1,1.2l0,0.1
					l0.1,1.3l0.1,1.3l0.1,1.3l0,1.3l0,1.3l0,1.3l0,1.3l0,1.3l0,1.3l-0.1,1.3l-0.1,1.3l-0.1,1.3l0,0.1l-0.1,1.2l-0.1,1.3l-0.2,1.3
					l-0.2,1.3l-0.2,1.3l-0.2,1.3l-0.2,1.3l-0.3,1.3l-0.2,1l-0.1,0.3l-0.3,1.3l-0.3,1.3l-0.4,1.3l-0.4,1.3l-0.4,1.2l0,0.1l-0.4,1.3
					l-0.4,1.3l-0.5,1.3l-0.5,1.3l0,0l-0.5,1.3l-0.5,1.3l-0.5,1.3l-0.2,0.5l-0.4,0.8l-0.6,1.3l-0.6,1.3l-0.2,0.5l-0.4,0.8l-0.7,1.3
					l-0.7,1.3l0,0.1l-0.7,1.3l-0.7,1.3l-0.4,0.7l-0.4,0.6l-0.8,1.3l-0.7,1.1l-0.2,0.3l-0.8,1.3l-0.8,1.2l-0.1,0.1l-0.9,1.3l-0.8,1.2
					l-0.1,0.1l-0.9,1.3l-0.8,1.1l-0.2,0.3l-1,1.3l-0.6,0.8l-0.4,0.6l-1.1,1.3l-0.3,0.4l-0.8,1l-1,1.2l-0.1,0.2l-1.2,1.3l-0.5,0.6
					L368,201l-1.1,1.2l-0.1,0.1l-1.3,1.3l-0.4,0.4l-0.9,0.9l-0.9,0.9l-0.4,0.4l-1.4,1.3l0,0l-1.4,1.3l-0.4,0.3l-1.1,1L358,211
					l-0.8,0.7l-1,0.9l-0.6,0.5l-1.2,1l-0.4,0.3l-1.4,1.2l-0.2,0.2l-1.6,1.3l-0.1,0.1l-1.7,1.3l0,0l-1.8,1.3l0,0l-1.8,1.3l-0.1,0.1
					l-1.7,1.2l-0.2,0.1l-1.6,1.1l-0.4,0.3l-1.4,0.9l-0.6,0.4l-1.2,0.7l-1,0.6l-0.8,0.5l-1.4,0.8l-0.4,0.3l-1.8,1.1l0,0l-1.8,1
					l-0.6,0.3l-1.2,0.7l-1.2,0.7l-0.6,0.3l-1.8,0.9l-0.2,0.1l-1.6,0.8l-1,0.5l-0.8,0.4l-1.8,0.9l-0.2,0.1l-1.6,0.7l-1.3,0.6
					l-0.5,0.2l-1.8,0.8l-0.8,0.3l-1,0.4l-1.8,0.7l-0.4,0.1l-1.4,0.6l-1.8,0.7l-0.1,0.1l-1.7,0.6l-1.8,0.7l-0.1,0l-1.7,0.6l-1.8,0.6
					l-0.3,0.1l-1.4,0.5l-1.8,0.6l-0.8,0.3l-0.9,0.3l-1.8,0.5l-1.7,0.5l-0.1,0l-1.8,0.5l-1.8,0.5l-1.1,0.3l-0.7,0.2l-1.8,0.5
					l-1.8,0.4l-1.1,0.3l-0.7,0.2l-1.8,0.4l-1.8,0.4l-1.8,0.4l-0.1,0l-1.7,0.3l-1.8,0.3l-1.8,0.3l-1.8,0.3l-0.1,0l-1.7,0.3l-1.8,0.3
					l-1.8,0.3l-1.8,0.2l-1.8,0.2l-0.4,0l-1.4,0.2l-1.8,0.2l-1.8,0.2l-1.8,0.2l-1.8,0.2l-1.8,0.1l-1.8,0.1l-1.8,0.1l-1.6,0.1l-0.2,0
					l-1.8,0.1l-1.8,0.1l-1.8,0.1l-1.8,0l-1.8,0l-1.8,0l-1.8,0l-1.8,0l-1.8,0l-1.8-0.1l-1.8-0.1l-1.8-0.1l-0.2,0l-1.6-0.1l-1.8-0.1
					l-1.8-0.1l-1.8-0.1l-1.8-0.2l-1.8-0.2l-1.8-0.2l-1.8-0.2l-1.4-0.2l-0.4,0l-1.8-0.2l-1.8-0.2l-1.8-0.3l-1.8-0.3l-1.7-0.3l-0.1,0
					l-1.8-0.3l-1.8-0.3l-1.8-0.3l-1.7-0.3l-0.1,0l-1.8-0.4l-1.8-0.4l-1.8-0.4l-0.7-0.2l-1.1-0.3l-1.8-0.4l-1.8-0.5l-0.7-0.2
					l-1.1-0.3l-1.8-0.5l-1.8-0.5l-0.1,0l-1.7-0.5l-1.8-0.5l-0.9-0.3l-0.8-0.3l-1.8-0.6l-1.4-0.5l-0.3-0.1l-1.8-0.6l-1.7-0.6l-0.1,0
					l-1.8-0.7l-1.7-0.6L157,241l-1.8-0.7l-1.4-0.6l-0.4-0.1l-1.8-0.7l-1-0.4l-0.8-0.3l-1.8-0.8l-0.5-0.2l-1.3-0.6l-1.6-0.7l-0.2-0.1
					l-1.8-0.9l-0.8-0.4l-1-0.5l-1.6-0.8L139,233l-1.8-0.9l-0.6-0.3l-1.2-0.7l-1.2-0.7l-0.6-0.3l-1.8-1l0,0l-1.8-1.1l-0.4-0.3
					l-1.4-0.8l-0.8-0.5l-1-0.6l-1.2-0.7l-0.6-0.4l-1.4-0.9l-0.4-0.3l-1.6-1.1l-0.2-0.1l-1.7-1.2l-0.1-0.1l-1.8-1.3l0,0l-1.8-1.3l0,0
					L114,217l-0.1-0.1l-1.6-1.3l-0.2-0.2l-1.4-1.2l-0.4-0.3l-1.2-1l-0.6-0.5l-1-0.9l-0.8-0.7l-0.7-0.6l-1.1-1l-0.4-0.3l-1.4-1.3l0,0
					l-1.4-1.3l-0.4-0.4l-0.9-0.9l-0.9-0.9l-0.4-0.4l-1.3-1.3l-0.1-0.1l-1.1-1.2l-0.7-0.8l-0.5-0.6l-1.2-1.3l-0.1-0.2l-1-1.2l-0.8-1
					l-0.3-0.4l-1.1-1.3l-0.4-0.6L90,193l-1-1.3l-0.2-0.3l-0.8-1.1l-0.9-1.3l-0.1-0.1l-0.8-1.2l-0.9-1.3l-0.1-0.1l-0.8-1.2l-0.8-1.3
					l-0.2-0.3l-0.7-1.1l-0.8-1.3l-0.4-0.6l-0.4-0.7l-0.7-1.3l-0.7-1.3l0-0.1l-0.7-1.3l-0.7-1.3l-0.4-0.8l-0.2-0.5l-0.6-1.3l-0.6-1.3
					l-0.4-0.8l-0.2-0.5l-0.5-1.3l-0.5-1.3l-0.5-1.3l0,0l-0.5-1.3l-0.5-1.3l-0.4-1.3l-0.4-1.3l0-0.1l-0.4-1.2l-0.4-1.3l-0.4-1.3
					l-0.3-1.3l-0.3-1.3l-0.1-0.3l-0.2-1l-0.3-1.3l-0.2-1.3l-0.2-1.3l-0.2-1.3l-0.2-1.3l-0.2-1.3l-0.1-1.3L69,141L69,140.8z
					 M97.8,139.1l0,0.3l0.1,1.3l0.2,1.3l0.2,1.3l0.2,1.3l0.2,1.3l0.3,1.3l0.3,1.3l0.3,1.3l0,0.1l0.3,1.2l0.4,1.3l0.4,1.3l0.4,1.3
					l0.4,1.1l0.1,0.2l0.5,1.3l0.5,1.3l0.5,1.3l0.3,0.7l0.3,0.6l0.6,1.3l0.6,1.3l0.4,0.8l0.2,0.5l0.6,1.3l0.7,1.3l0.2,0.5l0.5,0.9
					l0.7,1.3l0.6,1l0.2,0.3l0.8,1.3l0.8,1.3l0,0l0.9,1.3l0.9,1.3l0,0.1l0.9,1.3l0.9,1.3l0.1,0.1l1,1.3l0.7,1l0.3,0.4l1.1,1.3
					l0.4,0.5l0.7,0.8l1.1,1.3l0,0l1.2,1.3l0.6,0.6l0.7,0.7l1.1,1.2l0.1,0.1l1.3,1.3l0.3,0.3l1,1l0.8,0.7l0.6,0.6l1.1,1.1l0.3,0.3
					l1.5,1.3l0,0l1.6,1.3l0.2,0.2l1.4,1.2l0.4,0.3l1.3,1.1l0.5,0.4l1.3,1l0.5,0.4l1.3,1l0.5,0.3l1.4,1l0.4,0.3l1.6,1.1l0.2,0.1
					l1.8,1.2l0,0l1.8,1.1l0.4,0.2l1.4,0.9l0.8,0.5l1,0.6l1.3,0.8l0.4,0.3l1.8,1l0.2,0.1l1.6,0.8l1,0.5l0.8,0.4l1.8,0.9l0.1,0
					l1.7,0.8l1.1,0.5l0.7,0.3l1.8,0.8l0.5,0.2l1.3,0.5l1.8,0.7l0.1,0l1.7,0.7l1.7,0.7l0.1,0l1.8,0.7l1.8,0.6l0,0l1.8,0.6l1.8,0.6
					l0.4,0.1l1.4,0.4l1.8,0.5l1.2,0.3l0.6,0.2l1.8,0.5l1.8,0.5l0.7,0.2l1.1,0.3l1.8,0.4l1.8,0.4l0.8,0.2l0.9,0.2l1.8,0.4l1.8,0.4
					l1.8,0.3l0.3,0l1.5,0.3l1.8,0.3l1.8,0.3l1.8,0.3l1.6,0.2l0.2,0l1.8,0.2l1.8,0.2l1.8,0.2l1.8,0.2l1.8,0.2l1.8,0.1l1.8,0.1
					l1.8,0.1l0.5,0l1.3,0.1l1.8,0.1l1.8,0l1.8,0l1.8,0l1.8,0l1.8,0l1.8,0l1.8-0.1l1.3-0.1l0.5,0l1.8-0.1l1.8-0.1l1.8-0.1l1.8-0.2
					l1.8-0.2l1.8-0.2l1.8-0.2l1.8-0.2l0.2,0l1.6-0.2l1.8-0.3l1.8-0.3l1.8-0.3l1.5-0.3l0.3,0l1.8-0.3l1.8-0.4l1.8-0.4l0.9-0.2
					l0.8-0.2l1.8-0.4l1.8-0.4l1.1-0.3l0.7-0.2l1.8-0.5l1.8-0.5l0.6-0.2l1.2-0.3l1.8-0.5l1.4-0.4l0.4-0.1l1.8-0.6l1.8-0.6l0,0
					l1.8-0.6l1.8-0.7l0.1,0l1.7-0.7l1.7-0.7l0.1,0l1.8-0.7l1.3-0.5l0.5-0.2l1.8-0.8l0.7-0.3l1.1-0.5l1.7-0.8l0.1,0l1.8-0.9l0.8-0.4
					l1-0.5l1.6-0.8l0.2-0.1l1.8-1l0.4-0.3l1.3-0.8l1-0.6l0.8-0.5l1.4-0.9l0.4-0.2l1.8-1.1l0,0l1.8-1.2l0.2-0.1l1.6-1.1l0.4-0.3
					l1.4-1l0.5-0.3l1.3-1l0.5-0.4l1.3-1l0.5-0.4l1.3-1.1l0.4-0.3l1.4-1.2l0.2-0.2l1.6-1.3l0,0l1.5-1.3l0.3-0.3l1.1-1.1l0.6-0.6
					l0.8-0.7l1-1l0.3-0.3l1.3-1.3l0.1-0.1l1.1-1.2l0.7-0.7l0.6-0.6l1.2-1.3l0,0l1.1-1.3l0.7-0.8l0.4-0.5l1.1-1.3l0.3-0.4l0.7-1
					l1-1.3l0.1-0.1l0.9-1.3l0.9-1.3l0-0.1l0.9-1.3l0.9-1.3l0,0l0.8-1.3l0.8-1.3l0.2-0.3l0.6-1l0.7-1.3l0.5-0.9l0.2-0.5l0.7-1.3
					l0.6-1.3l0.2-0.5l0.4-0.8l0.6-1.3l0.6-1.3l0.3-0.6l0.3-0.7l0.5-1.3l0.5-1.3l0.5-1.3l0.1-0.2l0.4-1.1l0.4-1.3l0.4-1.3l0.4-1.3
					l0.3-1.2l0-0.1l0.3-1.3l0.3-1.3l0.3-1.3l0.2-1.3l0.2-1.3l0.2-1.3l0.2-1.3l0.1-1.3l0-0.3l0.1-1l0.1-1.3l0.1-1.3l0-1.3l0-1.3
					l0-1.3l0-1.3l-0.1-1.3l-0.1-1.3l-0.1-1l0-0.3l-0.1-1.3l-0.2-1.3l-0.2-1.3l-0.2-1.3l-0.2-1.3l-0.3-1.3l-0.3-1.3l-0.3-1.3l0-0.1
					l-0.3-1.2l-0.4-1.3l-0.4-1.3l-0.4-1.3l-0.4-1.1l-0.1-0.2l-0.5-1.3l-0.5-1.3l-0.5-1.3l-0.3-0.7l-0.3-0.6l-0.6-1.3l-0.6-1.3
					l-0.4-0.8l-0.2-0.5l-0.6-1.3l-0.7-1.3l-0.2-0.5l-0.5-0.9l-0.7-1.3l-0.6-1l-0.2-0.3l-0.8-1.3l-0.8-1.3l0,0l-0.9-1.3l-0.9-1.3
					l0-0.1l-0.9-1.3l-0.9-1.3l-0.1-0.1l-1-1.3l-0.7-1l-0.3-0.4l-1.1-1.3l-0.4-0.5l-0.7-0.8l-1.1-1.3l0,0l-1.2-1.3l-0.6-0.6l-0.7-0.7
					l-1.1-1.2l-0.1-0.1l-1.3-1.3l-0.3-0.3l-1-1l-0.8-0.7l-0.6-0.6l-1.1-1.1l-0.3-0.3l-1.5-1.3l0,0l-1.6-1.3l-0.2-0.2l-1.4-1.2
					l-0.4-0.3l-1.3-1.1l-0.5-0.4l-1.3-1l-0.5-0.4l-1.3-1l-0.5-0.3l-1.4-1l-0.4-0.3l-1.6-1.1l-0.2-0.1l-1.8-1.2l0,0l-1.8-1.1
					l-0.4-0.2l-1.4-0.9l-0.8-0.5l-1-0.6l-1.3-0.8l-0.4-0.3l-1.8-1l-0.2-0.1l-1.6-0.8l-1-0.5l-0.8-0.4l-1.8-0.9l-0.1,0l-1.7-0.8
					l-1.1-0.5l-0.7-0.3l-1.8-0.8l-0.5-0.2l-1.3-0.5l-1.8-0.7l-0.1,0l-1.7-0.7l-1.7-0.7l-0.1,0l-1.8-0.7l-1.8-0.6l0,0l-1.8-0.6
					l-1.8-0.6l-0.4-0.1l-1.4-0.4l-1.8-0.5l-1.2-0.3l-0.6-0.2l-1.8-0.5l-1.8-0.5l-0.7-0.2l-1.1-0.3l-1.8-0.4l-1.8-0.4l-0.8-0.2
					l-0.9-0.2l-1.8-0.4l-1.8-0.4l-1.8-0.3l-0.3,0l-1.5-0.3l-1.8-0.3l-1.8-0.3l-1.8-0.3l-1.6-0.2l-0.2,0l-1.8-0.2l-1.8-0.2l-1.8-0.2
					l-1.8-0.2l-1.8-0.2l-1.8-0.1l-1.8-0.1l-1.8-0.1l-0.5,0l-1.3-0.1l-1.8-0.1l-1.8,0l-1.8,0l-1.8,0l-1.8,0l-1.8,0l-1.8,0l-1.8,0.1
					l-1.3,0.1l-0.5,0l-1.8,0.1l-1.8,0.1l-1.8,0.1l-1.8,0.2l-1.8,0.2l-1.8,0.2l-1.8,0.2l-1.8,0.2l-0.2,0l-1.6,0.2l-1.8,0.3l-1.8,0.3
					l-1.8,0.3l-1.5,0.3l-0.3,0l-1.8,0.3l-1.8,0.4l-1.8,0.4l-0.9,0.2l-0.8,0.2l-1.8,0.4l-1.8,0.4l-1.1,0.3l-0.7,0.2l-1.8,0.5
					l-1.8,0.5l-0.6,0.2l-1.2,0.3l-1.8,0.5l-1.4,0.4l-0.4,0.1l-1.8,0.6l-1.8,0.6l0,0l-1.8,0.6l-1.8,0.7l-0.1,0l-1.7,0.7l-1.7,0.7
					l-0.1,0l-1.8,0.7l-1.3,0.5l-0.5,0.2l-1.8,0.8l-0.7,0.3l-1.1,0.5l-1.7,0.8l-0.1,0l-1.8,0.9l-0.8,0.4l-1,0.5l-1.6,0.8l-0.2,0.1
					l-1.8,1l-0.4,0.3l-1.3,0.8l-1,0.6l-0.8,0.5l-1.4,0.9l-0.4,0.2l-1.8,1.1l0,0l-1.8,1.2l-0.2,0.1l-1.6,1.1l-0.4,0.3l-1.4,1
					l-0.5,0.3l-1.3,1l-0.5,0.4l-1.3,1l-0.5,0.4l-1.3,1.1l-0.4,0.3l-1.4,1.2l-0.2,0.2l-1.6,1.3l0,0l-1.5,1.3l-0.3,0.3l-1.1,1.1
					l-0.6,0.6l-0.8,0.7l-1,1l-0.3,0.3l-1.3,1.3l-0.1,0.1l-1.1,1.2l-0.7,0.7l-0.6,0.6l-1.2,1.3l0,0l-1.1,1.3l-0.7,0.8l-0.4,0.5
					L116,82l-0.3,0.4l-0.7,1l-1,1.3l-0.1,0.1L113,86l-0.9,1.3l0,0.1l-0.9,1.3l-0.9,1.3l0,0l-0.8,1.3l-0.8,1.3l-0.2,0.3l-0.6,1
					l-0.7,1.3l-0.5,0.9l-0.2,0.5l-0.7,1.3l-0.6,1.3l-0.2,0.5l-0.4,0.8L104,102l-0.6,1.3l-0.3,0.6l-0.3,0.7l-0.5,1.3l-0.5,1.3
					l-0.5,1.3l-0.1,0.2l-0.4,1.1l-0.4,1.3l-0.4,1.3l-0.4,1.3l-0.3,1.2l0,0.1l-0.3,1.3l-0.3,1.3l-0.3,1.3l-0.2,1.3l-0.2,1.3l-0.2,1.3
					l-0.2,1.3l-0.1,1.3l0,0.3l-0.1,1l-0.1,1.3l-0.1,1.3l0,1.3l0,1.3l0,1.3l0,1.3l0.1,1.3l0.1,1.3L97.8,139.1z"/>
			</g>
		</g>
		<g id="PathCollection_6">
			<g>
				<defs>
					<rect id="SVGID_29_" x="52.9" y="0.4" width="357.1" height="266.1"/>
				</defs>
				<clipPath id="SVGID_30_">
					<use xlink:href="#SVGID_29_"  overflow="visible"/>
				</clipPath>
				<path clip-path="url(#SVGID_30_)" fill="#3FBC73" d="M97.7,138.1l-0.1-1.3l-0.1-1.3l0-1.3l0-1.3l0-1.3l0-1.3l0.1-1.3l0.1-1.3
					l0.1-1l0-0.3l0.1-1.3l0.2-1.3l0.2-1.3l0.2-1.3l0.2-1.3l0.3-1.3l0.3-1.3l0.3-1.3l0-0.1l0.3-1.2l0.4-1.3l0.4-1.3l0.4-1.3l0.4-1.1
					l0.1-0.2l0.5-1.3l0.5-1.3l0.5-1.3l0.3-0.7l0.3-0.6l0.6-1.3l0.6-1.3l0.4-0.8l0.2-0.5l0.6-1.3l0.7-1.3l0.2-0.5l0.5-0.9l0.7-1.3
					l0.6-1l0.2-0.3l0.8-1.3l0.8-1.3l0,0l0.9-1.3l0.9-1.3l0-0.1L113,86l0.9-1.3l0.1-0.1l1-1.3l0.7-1L116,82l1.1-1.3l0.4-0.5l0.7-0.8
					l1.1-1.3l0,0l1.2-1.3l0.6-0.6l0.7-0.7l1.1-1.2l0.1-0.1l1.3-1.3l0.3-0.3l1-1l0.8-0.7l0.6-0.6l1.1-1.1l0.3-0.3l1.5-1.3l0,0
					l1.6-1.3l0.2-0.2l1.4-1.2l0.4-0.3l1.3-1.1l0.5-0.4l1.3-1l0.5-0.4l1.3-1l0.5-0.3l1.4-1l0.4-0.3l1.6-1.1l0.2-0.1l1.8-1.2l0,0
					l1.8-1.1l0.4-0.2l1.4-0.9l0.8-0.5l1-0.6l1.3-0.8l0.4-0.3l1.8-1l0.2-0.1l1.6-0.8l1-0.5l0.8-0.4l1.8-0.9l0.1,0l1.7-0.8l1.1-0.5
					l0.7-0.3l1.8-0.8l0.5-0.2l1.3-0.5l1.8-0.7l0.1,0l1.7-0.7l1.7-0.7l0.1,0l1.8-0.7l1.8-0.6l0,0l1.8-0.6l1.8-0.6l0.4-0.1l1.4-0.4
					l1.8-0.5l1.2-0.3l0.6-0.2l1.8-0.5l1.8-0.5l0.7-0.2l1.1-0.3l1.8-0.4l1.8-0.4l0.8-0.2l0.9-0.2l1.8-0.4l1.8-0.4l1.8-0.3l0.3,0
					l1.5-0.3l1.8-0.3l1.8-0.3l1.8-0.3l1.6-0.2l0.2,0l1.8-0.2l1.8-0.2l1.8-0.2l1.8-0.2l1.8-0.2l1.8-0.1l1.8-0.1l1.8-0.1l0.5,0
					l1.3-0.1l1.8-0.1l1.8,0l1.8,0l1.8,0l1.8,0l1.8,0l1.8,0l1.8,0.1l1.3,0.1l0.5,0l1.8,0.1l1.8,0.1l1.8,0.1l1.8,0.2l1.8,0.2l1.8,0.2
					l1.8,0.2l1.8,0.2l0.2,0l1.6,0.2l1.8,0.3l1.8,0.3l1.8,0.3l1.5,0.3l0.3,0l1.8,0.3l1.8,0.4l1.8,0.4l0.9,0.2l0.8,0.2l1.8,0.4
					l1.8,0.4l1.1,0.3l0.7,0.2l1.8,0.5l1.8,0.5l0.6,0.2l1.2,0.3l1.8,0.5l1.4,0.4l0.4,0.1l1.8,0.6l1.8,0.6l0,0l1.8,0.6l1.8,0.7l0.1,0
					l1.7,0.7l1.7,0.7l0.1,0l1.8,0.7l1.3,0.5l0.5,0.2l1.8,0.8l0.7,0.3l1.1,0.5l1.7,0.8l0.1,0l1.8,0.9l0.8,0.4l1,0.5l1.6,0.8l0.2,0.1
					l1.8,1l0.4,0.3l1.3,0.8l1,0.6l0.8,0.5l1.4,0.9l0.4,0.2l1.8,1.1l0,0l1.8,1.2l0.2,0.1l1.6,1.1l0.4,0.3l1.4,1l0.5,0.3l1.3,1
					l0.5,0.4l1.3,1l0.5,0.4l1.3,1.1l0.4,0.3l1.4,1.2l0.2,0.2l1.6,1.3l0,0l1.5,1.3l0.3,0.3l1.1,1.1l0.6,0.6l0.8,0.7l1,1l0.3,0.3
					l1.3,1.3l0.1,0.1l1.1,1.2l0.7,0.7l0.6,0.6l1.2,1.3l0,0l1.1,1.3l0.7,0.8l0.4,0.5l1.1,1.3l0.3,0.4l0.7,1l1,1.3l0.1,0.1l0.9,1.3
					l0.9,1.3l0,0.1l0.9,1.3l0.9,1.3l0,0l0.8,1.3l0.8,1.3l0.2,0.3l0.6,1l0.7,1.3l0.5,0.9l0.2,0.5l0.7,1.3l0.6,1.3l0.2,0.5l0.4,0.8
					l0.6,1.3l0.6,1.3l0.3,0.6l0.3,0.7l0.5,1.3l0.5,1.3l0.5,1.3l0.1,0.2l0.4,1.1l0.4,1.3l0.4,1.3l0.4,1.3l0.3,1.2l0,0.1l0.3,1.3
					l0.3,1.3l0.3,1.3l0.2,1.3l0.2,1.3l0.2,1.3l0.2,1.3l0.1,1.3l0,0.3l0.1,1l0.1,1.3l0.1,1.3l0,1.3l0,1.3l0,1.3l0,1.3l-0.1,1.3
					l-0.1,1.3l-0.1,1l0,0.3l-0.1,1.3l-0.2,1.3l-0.2,1.3l-0.2,1.3l-0.2,1.3l-0.3,1.3l-0.3,1.3l-0.3,1.3l0,0.1l-0.3,1.2l-0.4,1.3
					l-0.4,1.3l-0.4,1.3l-0.4,1.1l-0.1,0.2l-0.5,1.3l-0.5,1.3l-0.5,1.3l-0.3,0.7l-0.3,0.6l-0.6,1.3l-0.6,1.3l-0.4,0.8l-0.2,0.5
					l-0.6,1.3l-0.7,1.3l-0.2,0.5l-0.5,0.9l-0.7,1.3l-0.6,1l-0.2,0.3l-0.8,1.3l-0.8,1.3l0,0l-0.9,1.3l-0.9,1.3l0,0.1l-0.9,1.3
					l-0.9,1.3l-0.1,0.1l-1,1.3l-0.7,1l-0.3,0.4l-1.1,1.3l-0.4,0.5l-0.7,0.8l-1.1,1.3l0,0l-1.2,1.3l-0.6,0.6l-0.7,0.7l-1.1,1.2
					l-0.1,0.1l-1.3,1.3l-0.3,0.3l-1,1l-0.8,0.7l-0.6,0.6l-1.1,1.1l-0.3,0.3l-1.5,1.3l0,0l-1.6,1.3l-0.2,0.2l-1.4,1.2l-0.4,0.3
					l-1.3,1.1l-0.5,0.4l-1.3,1l-0.5,0.4l-1.3,1l-0.5,0.3l-1.4,1l-0.4,0.3l-1.6,1.1l-0.2,0.1l-1.8,1.2l0,0l-1.8,1.1l-0.4,0.2
					l-1.4,0.9l-0.8,0.5l-1,0.6l-1.3,0.8l-0.4,0.3l-1.8,1l-0.2,0.1l-1.6,0.8l-1,0.5l-0.8,0.4l-1.8,0.9l-0.1,0l-1.7,0.8l-1.1,0.5
					l-0.7,0.3l-1.8,0.8l-0.5,0.2l-1.3,0.5L297,221l-0.1,0l-1.7,0.7l-1.7,0.7l-0.1,0l-1.8,0.7l-1.8,0.6l0,0l-1.8,0.6l-1.8,0.6
					l-0.4,0.1l-1.4,0.4l-1.8,0.5l-1.2,0.3l-0.6,0.2l-1.8,0.5l-1.8,0.5l-0.7,0.2l-1.1,0.3l-1.8,0.4l-1.8,0.4l-0.8,0.2l-0.9,0.2
					l-1.8,0.4l-1.8,0.4l-1.8,0.3l-0.3,0l-1.5,0.3l-1.8,0.3l-1.8,0.3l-1.8,0.3l-1.6,0.2l-0.2,0l-1.8,0.2l-1.8,0.2l-1.8,0.2l-1.8,0.2
					l-1.8,0.2l-1.8,0.1l-1.8,0.1l-1.8,0.1l-0.5,0l-1.3,0.1l-1.8,0.1l-1.8,0l-1.8,0l-1.8,0l-1.8,0l-1.8,0l-1.8,0l-1.8-0.1l-1.3-0.1
					l-0.5,0l-1.8-0.1l-1.8-0.1l-1.8-0.1l-1.8-0.2l-1.8-0.2l-1.8-0.2l-1.8-0.2l-1.8-0.2l-0.2,0l-1.6-0.2l-1.8-0.3l-1.8-0.3l-1.8-0.3
					l-1.5-0.3l-0.3,0l-1.8-0.3l-1.8-0.4l-1.8-0.4l-0.9-0.2l-0.8-0.2l-1.8-0.4l-1.8-0.4l-1.1-0.3l-0.7-0.2l-1.8-0.5l-1.8-0.5
					l-0.6-0.2l-1.2-0.3l-1.8-0.5l-1.4-0.4l-0.4-0.1l-1.8-0.6l-1.8-0.6l0,0l-1.8-0.6l-1.8-0.7l-0.1,0l-1.7-0.7l-1.7-0.7l-0.1,0
					l-1.8-0.7l-1.3-0.5l-0.5-0.2l-1.8-0.8l-0.7-0.3l-1.1-0.5l-1.7-0.8l-0.1,0l-1.8-0.9l-0.8-0.4l-1-0.5l-1.6-0.8l-0.2-0.1l-1.8-1
					l-0.4-0.3l-1.3-0.8l-1-0.6l-0.8-0.5l-1.4-0.9l-0.4-0.2l-1.8-1.1l0,0l-1.8-1.2l-0.2-0.1l-1.6-1.1l-0.4-0.3l-1.4-1l-0.5-0.3
					l-1.3-1l-0.5-0.4l-1.3-1l-0.5-0.4l-1.3-1.1l-0.4-0.3l-1.4-1.2l-0.2-0.2l-1.6-1.3l0,0l-1.5-1.3l-0.3-0.3l-1.1-1.1l-0.6-0.6
					l-0.8-0.7l-1-1l-0.3-0.3l-1.3-1.3l-0.1-0.1l-1.1-1.2l-0.7-0.7l-0.6-0.6l-1.2-1.3l0,0l-1.1-1.3l-0.7-0.8l-0.4-0.5l-1.1-1.3
					l-0.3-0.4l-0.7-1l-1-1.3l-0.1-0.1l-0.9-1.3l-0.9-1.3l0-0.1l-0.9-1.3l-0.9-1.3l0,0l-0.8-1.3l-0.8-1.3l-0.2-0.3l-0.6-1l-0.7-1.3
					l-0.5-0.9l-0.2-0.5l-0.7-1.3l-0.6-1.3l-0.2-0.5l-0.4-0.8l-0.6-1.3l-0.6-1.3l-0.3-0.6l-0.3-0.7l-0.5-1.3l-0.5-1.3l-0.5-1.3
					l-0.1-0.2l-0.4-1.1l-0.4-1.3l-0.4-1.3l-0.4-1.3l-0.3-1.2l0-0.1l-0.3-1.3l-0.3-1.3l-0.3-1.3l-0.2-1.3l-0.2-1.3l-0.2-1.3l-0.2-1.3
					l-0.1-1.3l0-0.3L97.7,138.1z M130.1,141.5l0.1,0.6l0.2,1.3l0.3,1.3l0.3,1.3l0.3,1.3l0.4,1.3l0.2,0.6l0.2,0.7l0.4,1.3l0.5,1.3
					l0.5,1.3l0.2,0.4l0.4,0.9l0.6,1.3l0.6,1.3l0.2,0.5l0.4,0.8l0.7,1.3l0.7,1.3l0,0l0.8,1.3l0.8,1.3l0.2,0.3l0.6,1l0.9,1.3l0.3,0.4
					l0.7,1l1,1.3l0.1,0.2l0.9,1.1l0.9,1.1l0.2,0.2l1.1,1.3l0.5,0.6l0.7,0.8l1.1,1.2l0.1,0.1l1.3,1.3l0.4,0.4l1,0.9l0.8,0.8l0.6,0.5
					l1.2,1.1l0.3,0.2l1.5,1.3l0,0l1.6,1.3l0.1,0.1l1.6,1.2l0.2,0.2l1.5,1.2l0.2,0.2l1.6,1.2l0.2,0.1l1.8,1.2l0,0l1.8,1.1l0.3,0.2
					l1.5,0.9l0.7,0.4l1.1,0.6l1.3,0.7l0.5,0.3l1.8,1l0.2,0.1l1.6,0.8l1,0.5l0.8,0.4l1.8,0.8l0.3,0.1l1.5,0.7l1.5,0.7l0.3,0.1
					l1.8,0.7l1.3,0.5l0.5,0.2l1.8,0.7l1.4,0.5l0.4,0.2l1.8,0.6l1.8,0.6l0,0l1.8,0.5l1.8,0.5l1.1,0.3l0.7,0.2l1.8,0.5l1.8,0.4
					l1.2,0.3l0.6,0.1l1.8,0.4l1.8,0.3l1.8,0.3l0.9,0.2l0.9,0.1l1.8,0.3l1.8,0.2l1.8,0.2l1.8,0.2l1.8,0.2l0.8,0.1l1,0.1l1.8,0.1
					l1.8,0.1l1.8,0.1l1.8,0.1l1.8,0l1.8,0l1.8,0l1.8,0l1.8-0.1l1.8-0.1l1.8-0.1l1.8-0.1l1-0.1l0.8-0.1l1.8-0.2l1.8-0.2l1.8-0.2
					l1.8-0.2l1.8-0.3l0.9-0.1l0.9-0.2l1.8-0.3l1.8-0.3l1.8-0.4l0.6-0.1l1.2-0.3l1.8-0.4l1.8-0.5l0.7-0.2l1.1-0.3l1.8-0.5l1.8-0.5
					l0,0l1.8-0.6l1.8-0.6l0.4-0.2l1.4-0.5l1.8-0.7l0.5-0.2l1.3-0.5l1.8-0.7l0.3-0.1l1.5-0.7l1.5-0.7l0.3-0.1l1.8-0.8l0.8-0.4l1-0.5
					l1.6-0.8l0.2-0.1l1.8-1l0.5-0.3l1.3-0.7l1.1-0.6l0.7-0.4l1.5-0.9l0.3-0.2l1.8-1.1l0,0l1.8-1.2l0.2-0.1l1.6-1.2l0.2-0.2l1.5-1.2
					l0.2-0.2l1.6-1.2l0.1-0.1l1.6-1.3l0,0l1.5-1.3l0.3-0.2l1.2-1.1l0.6-0.5l0.8-0.8l1-0.9l0.4-0.4l1.3-1.3l0.1-0.1l1.1-1.2l0.7-0.8
					l0.5-0.6l1.1-1.3l0.2-0.2l0.9-1.1l0.9-1.1l0.1-0.2l1-1.3l0.7-1l0.3-0.4l0.9-1.3l0.6-1l0.2-0.3l0.8-1.3l0.8-1.3l0,0l0.7-1.3
					l0.7-1.3l0.4-0.8l0.2-0.5l0.6-1.3l0.6-1.3l0.4-0.9l0.2-0.4l0.5-1.3l0.5-1.3l0.4-1.3l0.2-0.7l0.2-0.6l0.4-1.3l0.3-1.3l0.3-1.3
					l0.3-1.3l0.2-1.3l0.1-0.6l0.1-0.7l0.2-1.3l0.1-1.3l0.1-1.3l0.1-1.3l0-1.3l0-1.3l0-1.3l0-1.3l-0.1-1.3l-0.1-1.3l-0.1-1.3
					l-0.2-1.3l-0.1-0.7l-0.1-0.6l-0.2-1.3l-0.3-1.3l-0.3-1.3l-0.3-1.3l-0.4-1.3l-0.2-0.6l-0.2-0.7l-0.4-1.3l-0.5-1.3l-0.5-1.3
					l-0.2-0.4l-0.4-0.9l-0.6-1.3l-0.6-1.3l-0.2-0.5l-0.4-0.8l-0.7-1.3l-0.7-1.3l0,0l-0.8-1.3l-0.8-1.3l-0.2-0.3l-0.6-1l-0.9-1.3
					l-0.3-0.4l-0.7-1l-1-1.3l-0.1-0.2l-0.9-1.1l-0.9-1.1l-0.2-0.2l-1.1-1.3l-0.5-0.6l-0.7-0.8l-1.1-1.2l-0.1-0.1l-1.3-1.3l-0.4-0.4
					l-1-0.9l-0.8-0.8l-0.6-0.5l-1.2-1.1l-0.3-0.2l-1.5-1.3l0,0l-1.6-1.3l-0.1-0.1l-1.6-1.2l-0.2-0.2l-1.5-1.2l-0.2-0.2l-1.6-1.2
					l-0.2-0.1l-1.8-1.2l0,0l-1.8-1.1l-0.3-0.2L297,73l-0.7-0.4l-1.1-0.6l-1.3-0.7l-0.5-0.3l-1.8-1l-0.2-0.1l-1.6-0.8l-1-0.5
					l-0.8-0.4l-1.8-0.8l-0.3-0.1l-1.5-0.7l-1.5-0.7l-0.3-0.1l-1.8-0.7l-1.3-0.5l-0.5-0.2l-1.8-0.7l-1.4-0.5l-0.4-0.2l-1.8-0.6
					l-1.8-0.6l0,0l-1.8-0.5l-1.8-0.5l-1.1-0.3l-0.7-0.2l-1.8-0.5l-1.8-0.4l-1.2-0.3l-0.6-0.1l-1.8-0.4l-1.8-0.3l-1.8-0.3l-0.9-0.2
					l-0.9-0.1l-1.8-0.3l-1.8-0.2l-1.8-0.2l-1.8-0.2l-1.8-0.2l-0.8-0.1l-1-0.1l-1.8-0.1l-1.8-0.1l-1.8-0.1l-1.8-0.1l-1.8,0l-1.8,0
					l-1.8,0l-1.8,0l-1.8,0.1l-1.8,0.1l-1.8,0.1l-1.8,0.1l-1,0.1l-0.8,0.1l-1.8,0.2l-1.8,0.2l-1.8,0.2l-1.8,0.2l-1.8,0.3l-0.9,0.1
					l-0.9,0.2l-1.8,0.3l-1.8,0.3l-1.8,0.4l-0.6,0.1l-1.2,0.3l-1.8,0.4l-1.8,0.5l-0.7,0.2l-1.1,0.3l-1.8,0.5l-1.8,0.5l0,0l-1.8,0.6
					l-1.8,0.6l-0.4,0.2l-1.4,0.5l-1.8,0.7l-0.5,0.2l-1.3,0.5l-1.8,0.7l-0.3,0.1l-1.5,0.7l-1.5,0.7l-0.3,0.1l-1.8,0.8l-0.8,0.4
					l-1,0.5l-1.6,0.8l-0.2,0.1l-1.8,1l-0.5,0.3l-1.3,0.7l-1.1,0.6l-0.7,0.4l-1.5,0.9l-0.3,0.2l-1.8,1.1l0,0l-1.8,1.2l-0.2,0.1
					l-1.6,1.2l-0.2,0.2l-1.5,1.2l-0.2,0.2l-1.6,1.2l-0.1,0.1l-1.6,1.3l0,0l-1.5,1.3l-0.3,0.2l-1.2,1.1l-0.6,0.5l-0.8,0.8l-1,0.9
					l-0.4,0.4l-1.3,1.3l-0.1,0.1l-1.1,1.2l-0.7,0.8l-0.5,0.6l-1.1,1.3l-0.2,0.2l-0.9,1.1l-0.9,1.1l-0.1,0.2l-1,1.3l-0.7,1l-0.3,0.4
					l-0.9,1.3l-0.6,1l-0.2,0.3L138,102l-0.8,1.3l0,0l-0.7,1.3l-0.7,1.3l-0.4,0.8l-0.2,0.5l-0.6,1.3l-0.6,1.3l-0.4,0.9l-0.2,0.4
					l-0.5,1.3l-0.5,1.3l-0.4,1.3l-0.2,0.7l-0.2,0.6l-0.4,1.3l-0.3,1.3l-0.3,1.3l-0.3,1.3l-0.2,1.3l-0.1,0.6l-0.1,0.7l-0.2,1.3
					l-0.1,1.3l-0.1,1.3l-0.1,1.3l0,1.3l0,1.3l0,1.3l0,1.3l0.1,1.3l0.1,1.3l0.1,1.3l0.2,1.3L130.1,141.5z"/>
			</g>
		</g>
		<g id="PathCollection_7">
			<g>
				<defs>
					<rect id="SVGID_31_" x="52.9" y="0.4" width="357.1" height="266.1"/>
				</defs>
				<clipPath id="SVGID_32_">
					<use xlink:href="#SVGID_31_"  overflow="visible"/>
				</clipPath>
				<path clip-path="url(#SVGID_32_)" fill="#84D44B" d="M129.9,140.8l-0.2-1.3l-0.1-1.3l-0.1-1.3l-0.1-1.3l0-1.3l0-1.3l0-1.3l0-1.3
					l0.1-1.3l0.1-1.3l0.1-1.3l0.2-1.3l0.1-0.7l0.1-0.6l0.2-1.3l0.3-1.3l0.3-1.3l0.3-1.3l0.4-1.3l0.2-0.6l0.2-0.7l0.4-1.3l0.5-1.3
					l0.5-1.3l0.2-0.4l0.4-0.9l0.6-1.3l0.6-1.3l0.2-0.5l0.4-0.8l0.7-1.3l0.7-1.3l0,0l0.8-1.3l0.8-1.3l0.2-0.3l0.6-1l0.9-1.3l0.3-0.4
					l0.7-1l1-1.3l0.1-0.2l0.9-1.1l0.9-1.1l0.2-0.2l1.1-1.3l0.5-0.6l0.7-0.8l1.1-1.2l0.1-0.1l1.3-1.3l0.4-0.4l1-0.9l0.8-0.8l0.6-0.5
					l1.2-1.1l0.3-0.2l1.5-1.3l0,0l1.6-1.3l0.1-0.1l1.6-1.2l0.2-0.2l1.5-1.2l0.2-0.2l1.6-1.2l0.2-0.1l1.8-1.2l0,0l1.8-1.1l0.3-0.2
					l1.5-0.9l0.7-0.4l1.1-0.6l1.3-0.7l0.5-0.3l1.8-1l0.2-0.1l1.6-0.8l1-0.5l0.8-0.4l1.8-0.8l0.3-0.1l1.5-0.7l1.5-0.7l0.3-0.1
					l1.8-0.7l1.3-0.5l0.5-0.2l1.8-0.7l1.4-0.5l0.4-0.2l1.8-0.6l1.8-0.6l0,0l1.8-0.5l1.8-0.5l1.1-0.3l0.7-0.2l1.8-0.5l1.8-0.4
					l1.2-0.3l0.6-0.1l1.8-0.4l1.8-0.3l1.8-0.3l0.9-0.2l0.9-0.1l1.8-0.3l1.8-0.2l1.8-0.2l1.8-0.2l1.8-0.2l0.8-0.1l1-0.1l1.8-0.1
					l1.8-0.1l1.8-0.1l1.8-0.1l1.8,0l1.8,0l1.8,0l1.8,0l1.8,0.1l1.8,0.1l1.8,0.1l1.8,0.1l1,0.1l0.8,0.1l1.8,0.2l1.8,0.2l1.8,0.2
					l1.8,0.2l1.8,0.3l0.9,0.1l0.9,0.2l1.8,0.3l1.8,0.3l1.8,0.4l0.6,0.1l1.2,0.3l1.8,0.4l1.8,0.5l0.7,0.2l1.1,0.3l1.8,0.5l1.8,0.5
					l0,0l1.8,0.6l1.8,0.6l0.4,0.2l1.4,0.5l1.8,0.7l0.5,0.2l1.3,0.5l1.8,0.7l0.3,0.1l1.5,0.7l1.5,0.7l0.3,0.1l1.8,0.8l0.8,0.4l1,0.5
					l1.6,0.8l0.2,0.1l1.8,1l0.5,0.3l1.3,0.7l1.1,0.6L297,73l1.5,0.9l0.3,0.2l1.8,1.1l0,0l1.8,1.2l0.2,0.1l1.6,1.2l0.2,0.2l1.5,1.2
					l0.2,0.2l1.6,1.2l0.1,0.1l1.6,1.3l0,0l1.5,1.3l0.3,0.2l1.2,1.1l0.6,0.5l0.8,0.8l1,0.9l0.4,0.4l1.3,1.3l0.1,0.1l1.1,1.2l0.7,0.8
					l0.5,0.6l1.1,1.3l0.2,0.2l0.9,1.1l0.9,1.1l0.1,0.2l1,1.3l0.7,1l0.3,0.4l0.9,1.3l0.6,1l0.2,0.3l0.8,1.3l0.8,1.3l0,0l0.7,1.3
					l0.7,1.3l0.4,0.8l0.2,0.5l0.6,1.3l0.6,1.3l0.4,0.9l0.2,0.4l0.5,1.3l0.5,1.3l0.4,1.3l0.2,0.7l0.2,0.6l0.4,1.3l0.3,1.3l0.3,1.3
					l0.3,1.3l0.2,1.3l0.1,0.6l0.1,0.7l0.2,1.3l0.1,1.3l0.1,1.3l0.1,1.3l0,1.3l0,1.3l0,1.3l0,1.3l-0.1,1.3l-0.1,1.3l-0.1,1.3
					l-0.2,1.3l-0.1,0.7l-0.1,0.6l-0.2,1.3l-0.3,1.3l-0.3,1.3l-0.3,1.3l-0.4,1.3l-0.2,0.6l-0.2,0.7l-0.4,1.3l-0.5,1.3l-0.5,1.3
					l-0.2,0.4l-0.4,0.9l-0.6,1.3l-0.6,1.3l-0.2,0.5l-0.4,0.8l-0.7,1.3l-0.7,1.3l0,0l-0.8,1.3l-0.8,1.3l-0.2,0.3l-0.6,1l-0.9,1.3
					l-0.3,0.4l-0.7,1l-1,1.3l-0.1,0.2l-0.9,1.1l-0.9,1.1l-0.2,0.2l-1.1,1.3l-0.5,0.6l-0.7,0.8l-1.1,1.2l-0.1,0.1l-1.3,1.3l-0.4,0.4
					l-1,0.9l-0.8,0.8l-0.6,0.5l-1.2,1.1l-0.3,0.2l-1.5,1.3l0,0l-1.6,1.3l-0.1,0.1l-1.6,1.2l-0.2,0.2l-1.5,1.2l-0.2,0.2l-1.6,1.2
					l-0.2,0.1l-1.8,1.2l0,0l-1.8,1.1l-0.3,0.2l-1.5,0.9l-0.7,0.4l-1.1,0.6l-1.3,0.7l-0.5,0.3l-1.8,1l-0.2,0.1l-1.6,0.8l-1,0.5
					l-0.8,0.4l-1.8,0.8l-0.3,0.1l-1.5,0.7l-1.5,0.7l-0.3,0.1l-1.8,0.7l-1.3,0.5l-0.5,0.2l-1.8,0.7l-1.4,0.5l-0.4,0.2l-1.8,0.6
					l-1.8,0.6l0,0l-1.8,0.5l-1.8,0.5l-1.1,0.3l-0.7,0.2l-1.8,0.5l-1.8,0.4l-1.2,0.3l-0.6,0.1l-1.8,0.4l-1.8,0.3l-1.8,0.3l-0.9,0.2
					l-0.9,0.1l-1.8,0.3l-1.8,0.2l-1.8,0.2l-1.8,0.2l-1.8,0.2l-0.8,0.1l-1,0.1l-1.8,0.1l-1.8,0.1l-1.8,0.1l-1.8,0.1l-1.8,0l-1.8,0
					l-1.8,0l-1.8,0l-1.8-0.1l-1.8-0.1l-1.8-0.1l-1.8-0.1l-1-0.1l-0.8-0.1l-1.8-0.2l-1.8-0.2l-1.8-0.2l-1.8-0.2l-1.8-0.3l-0.9-0.1
					l-0.9-0.2l-1.8-0.3l-1.8-0.3l-1.8-0.4l-0.6-0.1l-1.2-0.3l-1.8-0.4l-1.8-0.5l-0.7-0.2l-1.1-0.3l-1.8-0.5l-1.8-0.5l0,0l-1.8-0.6
					l-1.8-0.6l-0.4-0.2l-1.4-0.5l-1.8-0.7l-0.5-0.2l-1.3-0.5l-1.8-0.7l-0.3-0.1l-1.5-0.7l-1.5-0.7l-0.3-0.1l-1.8-0.8l-0.8-0.4
					l-1-0.5l-1.6-0.8l-0.2-0.1l-1.8-1l-0.5-0.3l-1.3-0.7l-1.1-0.6l-0.7-0.4l-1.5-0.9l-0.3-0.2l-1.8-1.1l0,0l-1.8-1.2l-0.2-0.1
					l-1.6-1.2l-0.2-0.2l-1.5-1.2l-0.2-0.2l-1.6-1.2l-0.1-0.1l-1.6-1.3l0,0l-1.5-1.3l-0.3-0.2l-1.2-1.1l-0.6-0.5l-0.8-0.8l-1-0.9
					l-0.4-0.4l-1.3-1.3l-0.1-0.1l-1.1-1.2l-0.7-0.8l-0.5-0.6l-1.1-1.3l-0.2-0.2l-0.9-1.1l-0.9-1.1l-0.1-0.2l-1-1.3l-0.7-1l-0.3-0.4
					l-0.9-1.3l-0.6-1l-0.2-0.3l-0.8-1.3l-0.8-1.3l0,0l-0.7-1.3l-0.7-1.3l-0.4-0.8l-0.2-0.5l-0.6-1.3l-0.6-1.3l-0.4-0.9l-0.2-0.4
					l-0.5-1.3l-0.5-1.3l-0.4-1.3l-0.2-0.7l-0.2-0.6l-0.4-1.3l-0.3-1.3l-0.3-1.3l-0.3-1.3l-0.2-1.3l-0.1-0.6L129.9,140.8z
					 M171.3,139.9l0.2,0.9l0.3,1.3l0.4,1.3l0.5,1.3l0.4,1l0.1,0.3l0.6,1.3l0.6,1.3l0.5,0.9l0.2,0.4l0.8,1.3l0.8,1.3l0,0.1l0.9,1.3
					l0.8,1.2l0.1,0.2l1.1,1.3l0.6,0.7l0.5,0.6l1.2,1.3l0,0l1.3,1.3l0.5,0.5l1,0.9l0.8,0.7l0.7,0.6l1.1,0.9l0.6,0.5l1.2,0.9l0.6,0.4
					l1.2,0.8l0.8,0.5l1,0.6l1.2,0.7l0.6,0.4l1.8,1l0,0l1.8,0.9l0.8,0.4l1,0.5l1.8,0.8l0.2,0.1l1.6,0.6l1.8,0.7l0.1,0l1.7,0.6
					l1.8,0.6l0.6,0.2l1.2,0.3l1.8,0.5l1.8,0.4l0.4,0.1l1.4,0.3l1.8,0.3l1.8,0.3l1.8,0.3l1.2,0.1l0.6,0.1l1.8,0.2l1.8,0.1l1.8,0.1
					l1.8,0.1l1.8,0l1.8,0l1.8-0.1l1.8-0.1l1.8-0.1l1.8-0.2l0.6-0.1l1.2-0.1l1.8-0.3l1.8-0.3l1.8-0.3l1.4-0.3l0.4-0.1l1.8-0.4
					l1.8-0.5l1.2-0.3l0.6-0.2l1.8-0.6l1.7-0.6l0.1,0l1.8-0.7l1.6-0.6l0.2-0.1l1.8-0.8l1-0.5l0.8-0.4l1.8-0.9l0,0l1.8-1l0.6-0.4
					l1.2-0.7l1-0.6l0.8-0.5l1.2-0.8l0.6-0.4l1.2-0.9l0.6-0.5l1.1-0.9l0.7-0.6l0.8-0.7l1-0.9l0.5-0.5l1.3-1.3l0,0l1.2-1.3l0.5-0.6
					l0.6-0.7l1.1-1.3l0.1-0.2l0.8-1.2l0.9-1.3l0-0.1l0.8-1.3l0.8-1.3l0.2-0.4l0.5-0.9l0.6-1.3l0.6-1.3l0.1-0.3l0.4-1l0.5-1.3
					l0.4-1.3l0.3-1.3l0.2-0.9l0.1-0.5l0.2-1.3l0.2-1.3l0.1-1.3l0.1-1.3l0-1.3l0-1.3l-0.1-1.3l-0.1-1.3l-0.2-1.3l-0.2-1.3l-0.1-0.5
					l-0.2-0.9l-0.3-1.3l-0.4-1.3l-0.5-1.3l-0.4-1l-0.1-0.3l-0.6-1.3l-0.6-1.3l-0.5-0.9l-0.2-0.4l-0.8-1.3l-0.8-1.3l0-0.1l-0.9-1.3
					l-0.8-1.2l-0.1-0.2l-1.1-1.3l-0.6-0.7l-0.5-0.6l-1.2-1.3l0,0l-1.3-1.3l-0.5-0.5l-1-0.9l-0.8-0.7l-0.7-0.6l-1.1-0.9l-0.6-0.5
					l-1.2-0.9l-0.6-0.4l-1.2-0.8l-0.8-0.5l-1-0.6l-1.2-0.7l-0.6-0.4l-1.8-1l0,0l-1.8-0.9l-0.8-0.4l-1-0.5l-1.8-0.8l-0.2-0.1
					l-1.6-0.6l-1.8-0.7l-0.1,0l-1.7-0.6l-1.8-0.6l-0.6-0.2l-1.2-0.3l-1.8-0.5l-1.8-0.4l-0.4-0.1l-1.4-0.3l-1.8-0.3l-1.8-0.3
					l-1.8-0.3l-1.2-0.1l-0.6-0.1l-1.8-0.2l-1.8-0.1l-1.8-0.1l-1.8-0.1l-1.8,0l-1.8,0l-1.8,0.1l-1.8,0.1l-1.8,0.1l-1.8,0.2l-0.6,0.1
					l-1.2,0.1l-1.8,0.3L218,88l-1.8,0.3l-1.4,0.3l-0.4,0.1l-1.8,0.4l-1.8,0.5l-1.2,0.3l-0.6,0.2l-1.8,0.6l-1.7,0.6l-0.1,0l-1.8,0.7
					l-1.6,0.6l-0.2,0.1l-1.8,0.8l-1,0.5l-0.8,0.4l-1.8,0.9l0,0l-1.8,1l-0.6,0.4l-1.2,0.7l-1,0.6l-0.8,0.5l-1.2,0.8l-0.6,0.4
					l-1.2,0.9l-0.6,0.5l-1.1,0.9l-0.7,0.6l-0.8,0.7l-1,0.9l-0.5,0.5l-1.3,1.3l0,0l-1.2,1.3l-0.5,0.6l-0.6,0.7l-1.1,1.3l-0.1,0.2
					l-0.8,1.2l-0.9,1.3l0,0.1l-0.8,1.3l-0.8,1.3l-0.2,0.4l-0.5,0.9l-0.6,1.3l-0.6,1.3l-0.1,0.3l-0.4,1l-0.5,1.3l-0.4,1.3l-0.3,1.3
					l-0.2,0.9l-0.1,0.5l-0.2,1.3l-0.2,1.3l-0.1,1.3l-0.1,1.3l0,1.3l0,1.3l0.1,1.3l0.1,1.3l0.2,1.3l0.2,1.3L171.3,139.9z"/>
			</g>
		</g>
		<g id="PathCollection_8">
			<g>
				<defs>
					<rect id="SVGID_33_" x="52.9" y="0.4" width="357.1" height="266.1"/>
				</defs>
				<clipPath id="SVGID_34_">
					<use xlink:href="#SVGID_33_"  overflow="visible"/>
				</clipPath>
				<path clip-path="url(#SVGID_34_)" fill="#D5E21A" d="M171.2,139.5l-0.2-1.3l-0.2-1.3l-0.1-1.3l-0.1-1.3l0-1.3l0-1.3l0.1-1.3
					l0.1-1.3l0.2-1.3l0.2-1.3l0.1-0.5l0.2-0.9l0.3-1.3l0.4-1.3l0.5-1.3l0.4-1l0.1-0.3l0.6-1.3l0.6-1.3l0.5-0.9l0.2-0.4l0.8-1.3
					l0.8-1.3l0-0.1l0.9-1.3l0.8-1.2l0.1-0.2l1.1-1.3l0.6-0.7l0.5-0.6l1.2-1.3l0,0l1.3-1.3l0.5-0.5l1-0.9l0.8-0.7l0.7-0.6l1.1-0.9
					l0.6-0.5l1.2-0.9l0.6-0.4l1.2-0.8l0.8-0.5l1-0.6l1.2-0.7l0.6-0.4l1.8-1l0,0l1.8-0.9l0.8-0.4l1-0.5l1.8-0.8l0.2-0.1l1.6-0.6
					l1.8-0.7l0.1,0l1.7-0.6l1.8-0.6l0.6-0.2l1.2-0.3l1.8-0.5l1.8-0.4l0.4-0.1l1.4-0.3L218,88l1.8-0.3l1.8-0.3l1.2-0.1l0.6-0.1
					l1.8-0.2l1.8-0.1l1.8-0.1l1.8-0.1l1.8,0l1.8,0l1.8,0.1l1.8,0.1l1.8,0.1l1.8,0.2l0.6,0.1l1.2,0.1l1.8,0.3l1.8,0.3l1.8,0.3
					l1.4,0.3l0.4,0.1l1.8,0.4l1.8,0.5l1.2,0.3l0.6,0.2l1.8,0.6l1.7,0.6l0.1,0l1.8,0.7l1.6,0.6l0.2,0.1l1.8,0.8l1,0.5l0.8,0.4
					l1.8,0.9l0,0l1.8,1l0.6,0.4l1.2,0.7l1,0.6l0.8,0.5l1.2,0.8l0.6,0.4l1.2,0.9l0.6,0.5l1.1,0.9l0.7,0.6l0.8,0.7l1,0.9l0.5,0.5
					l1.3,1.3l0,0l1.2,1.3l0.5,0.6l0.6,0.7l1.1,1.3l0.1,0.2l0.8,1.2l0.9,1.3l0,0.1l0.8,1.3l0.8,1.3l0.2,0.4l0.5,0.9l0.6,1.3l0.6,1.3
					l0.1,0.3l0.4,1l0.5,1.3l0.4,1.3l0.3,1.3l0.2,0.9l0.1,0.5l0.2,1.3l0.2,1.3l0.1,1.3l0.1,1.3l0,1.3l0,1.3l-0.1,1.3l-0.1,1.3
					l-0.2,1.3l-0.2,1.3l-0.1,0.5l-0.2,0.9l-0.3,1.3l-0.4,1.3l-0.5,1.3l-0.4,1l-0.1,0.3l-0.6,1.3l-0.6,1.3l-0.5,0.9l-0.2,0.4
					l-0.8,1.3l-0.8,1.3l0,0.1l-0.9,1.3l-0.8,1.2l-0.1,0.2l-1.1,1.3l-0.6,0.7l-0.5,0.6l-1.2,1.3l0,0l-1.3,1.3l-0.5,0.5l-1,0.9
					l-0.8,0.7l-0.7,0.6l-1.1,0.9l-0.6,0.5l-1.2,0.9l-0.6,0.4l-1.2,0.8l-0.8,0.5l-1,0.6l-1.2,0.7l-0.6,0.4l-1.8,1l0,0l-1.8,0.9
					l-0.8,0.4l-1,0.5l-1.8,0.8l-0.2,0.1l-1.6,0.6l-1.8,0.7l-0.1,0l-1.7,0.6l-1.8,0.6l-0.6,0.2l-1.2,0.3l-1.8,0.5l-1.8,0.4l-0.4,0.1
					l-1.4,0.3l-1.8,0.3l-1.8,0.3l-1.8,0.3l-1.2,0.1l-0.6,0.1l-1.8,0.2l-1.8,0.1l-1.8,0.1l-1.8,0.1l-1.8,0l-1.8,0l-1.8-0.1l-1.8-0.1
					l-1.8-0.1l-1.8-0.2l-0.6-0.1l-1.2-0.1l-1.8-0.3l-1.8-0.3l-1.8-0.3l-1.4-0.3l-0.4-0.1l-1.8-0.4l-1.8-0.5l-1.2-0.3l-0.6-0.2
					l-1.8-0.6l-1.7-0.6l-0.1,0l-1.8-0.7l-1.6-0.6l-0.2-0.1L200,172l-1-0.5l-0.8-0.4l-1.8-0.9l0,0l-1.8-1l-0.6-0.4l-1.2-0.7l-1-0.6
					l-0.8-0.5l-1.2-0.8l-0.6-0.4l-1.2-0.9l-0.6-0.5l-1.1-0.9l-0.7-0.6l-0.8-0.7l-1-0.9l-0.5-0.5l-1.3-1.3l0,0l-1.2-1.3l-0.5-0.6
					l-0.6-0.7l-1.1-1.3l-0.1-0.2l-0.8-1.2l-0.9-1.3l0-0.1l-0.8-1.3l-0.8-1.3l-0.2-0.4l-0.5-0.9l-0.6-1.3l-0.6-1.3l-0.1-0.3l-0.4-1
					l-0.5-1.3l-0.4-1.3l-0.3-1.3l-0.2-0.9L171.2,139.5z"/>
			</g>
		</g>
		<g id="matplotlib.axis_1">
			<g id="xtick_1">
				<g id="line2d_1">
					<g>
						<g>
							<path id="m739b7533ac" stroke="#000000" stroke-width="0.8" stroke-linejoin="round" d="M52.9,266.5v3.5"/>
						</g>
					</g>
				</g>
				<g id="text_1">
					<g transform="translate(42.277344 322.182437)scale(0.1 -0.1)">
						<g>
							<path id="DejaVuSans-8722" d="M-36.5,446.2h62.6v-8.3h-62.6V446.2z"/>
						</g>
						<g>
							<path id="DejaVuSans-49" d="M49.1,419h16.1v55.6l-17.5-3.5v9l17.4,3.5H75V419h16.1v-8.3h-42V419z"/>
						</g>
						<g>
							<path id="DejaVuSans-46" d="M111,423.1h10.3v-12.4H111V423.1z"/>
						</g>
						<g>
							<path id="DejaVuSans-48" d="M163.9,477.1c-5.1,0-8.9-2.5-11.5-7.5c-2.6-5-3.8-12.5-3.8-22.5c0-10,1.3-17.5,3.8-22.5
								c2.6-5,6.4-7.5,11.5-7.5c5.1,0,8.9,2.5,11.5,7.5c2.6,5,3.8,12.5,3.8,22.5c0,10-1.3,17.5-3.8,22.5
								C172.8,474.6,169,477.1,163.9,477.1z M163.9,484.9c8.2,0,14.4-3.2,18.7-9.7c4.3-6.5,6.5-15.8,6.5-28.1
								c0-12.3-2.2-21.6-6.5-28.1c-4.3-6.5-10.6-9.7-18.7-9.7c-8.2,0-14.4,3.2-18.7,9.7c-4.3,6.5-6.5,15.8-6.5,28.1
								c0,12.3,2.2,21.7,6.5,28.1C149.5,481.7,155.7,484.9,163.9,484.9z"/>
						</g>
						<g>
							<path id="DejaVuSans-48_1_" d="M227.5,477.1c-5.1,0-8.9-2.5-11.5-7.5c-2.6-5-3.8-12.5-3.8-22.5c0-10,1.3-17.5,3.8-22.5
								c2.6-5,6.4-7.5,11.5-7.5c5.1,0,8.9,2.5,11.5,7.5c2.6,5,3.8,12.5,3.8,22.5c0,10-1.3,17.5-3.8,22.5
								C236.4,474.6,232.6,477.1,227.5,477.1z M227.5,484.9c8.2,0,14.4-3.2,18.7-9.7c4.3-6.5,6.5-15.8,6.5-28.1
								c0-12.3-2.2-21.6-6.5-28.1c-4.3-6.5-10.6-9.7-18.7-9.7c-8.2,0-14.4,3.2-18.7,9.7c-4.3,6.5-6.5,15.8-6.5,28.1
								c0,12.3,2.2,21.7,6.5,28.1C213.1,481.7,219.3,484.9,227.5,484.9z"/>
						</g>
					</g>
				</g>
			</g>
			<g id="xtick_2">
				<g id="line2d_2">
					<g>
						<g>
							<path id="m739b7533ac_1_" stroke="#000000" stroke-width="0.8" stroke-linejoin="round" d="M97.8,266.5v3.5"/>
						</g>
					</g>
				</g>
				<g id="text_2">
					<g transform="translate(87.141665 322.182437)scale(0.1 -0.1)">
						<g>
							<path id="DejaVuSans-8722_1_" d="M-36.5,446.2h62.6v-8.3h-62.6V446.2z"/>
						</g>
						<g>
							<path id="DejaVuSans-48_2_" d="M68.5,477.1c-5.1,0-8.9-2.5-11.5-7.5c-2.6-5-3.8-12.5-3.8-22.5c0-10,1.3-17.5,3.8-22.5
								c2.6-5,6.4-7.5,11.5-7.5c5.1,0,8.9,2.5,11.5,7.5c2.6,5,3.8,12.5,3.8,22.5c0,10-1.3,17.5-3.8,22.5
								C77.4,474.6,73.6,477.1,68.5,477.1z M68.5,484.9c8.2,0,14.4-3.2,18.7-9.7c4.3-6.5,6.5-15.8,6.5-28.1
								c0-12.3-2.2-21.6-6.5-28.1c-4.3-6.5-10.6-9.7-18.7-9.7c-8.2,0-14.4,3.2-18.7,9.7c-4.3,6.5-6.5,15.8-6.5,28.1
								c0,12.3,2.2,21.7,6.5,28.1C54.1,481.7,60.3,484.9,68.5,484.9z"/>
						</g>
						<g>
							<path id="DejaVuSans-46_1_" d="M111,423.1h10.3v-12.4H111V423.1z"/>
						</g>
						<g>
							<path id="DejaVuSans-55" d="M140.3,483.6h46.9v-4.2l-26.5-68.7h-10.3l24.9,64.6h-35V483.6z"/>
						</g>
						<g>
							<path id="DejaVuSans-53" d="M206.5,483.6h38.7v-8.3h-29.7v-17.9c1.4,0.5,2.9,0.9,4.3,1.1c1.4,0.2,2.9,0.4,4.3,0.4
								c8.1,0,14.6-2.2,19.3-6.7c4.8-4.5,7.1-10.5,7.1-18.1c0-7.8-2.4-13.9-7.3-18.3c-4.9-4.3-11.8-6.5-20.7-6.5
								c-3.1,0-6.2,0.3-9.4,0.8c-3.2,0.5-6.4,1.3-9.8,2.3v9.9c2.9-1.6,6-2.8,9.1-3.6s6.4-1.2,9.9-1.2c5.6,0,10.1,1.5,13.4,4.4
								c3.3,3,4.9,7,4.9,12.1c0,5.1-1.6,9.1-4.9,12c-3.3,3-7.7,4.5-13.4,4.5c-2.6,0-5.3-0.3-7.9-0.9c-2.6-0.6-5.3-1.5-8-2.7V483.6z"
								/>
						</g>
					</g>
				</g>
			</g>
			<g id="xtick_3">
				<g id="line2d_3">
					<g>
						<g>
							<path id="m739b7533ac_2_" stroke="#000000" stroke-width="0.8" stroke-linejoin="round" d="M142.6,266.5v3.5"/>
						</g>
					</g>
				</g>
				<g id="text_3">
					<g transform="translate(132.005987 322.182437)scale(0.1 -0.1)">
						<g>
							<path id="DejaVuSans-8722_2_" d="M-36.5,446.2h62.6v-8.3h-62.6V446.2z"/>
						</g>
						<g>
							<path id="DejaVuSans-48_3_" d="M68.5,477.1c-5.1,0-8.9-2.5-11.5-7.5c-2.6-5-3.8-12.5-3.8-22.5c0-10,1.3-17.5,3.8-22.5
								c2.6-5,6.4-7.5,11.5-7.5c5.1,0,8.9,2.5,11.5,7.5c2.6,5,3.8,12.5,3.8,22.5c0,10-1.3,17.5-3.8,22.5
								C77.4,474.6,73.6,477.1,68.5,477.1z M68.5,484.9c8.2,0,14.4-3.2,18.7-9.7c4.3-6.5,6.5-15.8,6.5-28.1
								c0-12.3-2.2-21.6-6.5-28.1c-4.3-6.5-10.6-9.7-18.7-9.7c-8.2,0-14.4,3.2-18.7,9.7c-4.3,6.5-6.5,15.8-6.5,28.1
								c0,12.3,2.2,21.7,6.5,28.1C54.1,481.7,60.3,484.9,68.5,484.9z"/>
						</g>
						<g>
							<path id="DejaVuSans-46_2_" d="M111,423.1h10.3v-12.4H111V423.1z"/>
						</g>
						<g>
							<path id="DejaVuSans-53_1_" d="M142.9,483.6h38.7v-8.3h-29.7v-17.9c1.4,0.5,2.9,0.9,4.3,1.1c1.4,0.2,2.9,0.4,4.3,0.4
								c8.1,0,14.6-2.2,19.3-6.7c4.8-4.5,7.1-10.5,7.1-18.1c0-7.8-2.4-13.9-7.3-18.3c-4.9-4.3-11.8-6.5-20.7-6.5
								c-3.1,0-6.2,0.3-9.4,0.8c-3.2,0.5-6.4,1.3-9.8,2.3v9.9c2.9-1.6,6-2.8,9.1-3.6s6.4-1.2,9.9-1.2c5.6,0,10.1,1.5,13.4,4.4
								c3.3,3,4.9,7,4.9,12.1c0,5.1-1.6,9.1-4.9,12c-3.3,3-7.7,4.5-13.4,4.5c-2.6,0-5.3-0.3-7.9-0.9c-2.6-0.6-5.3-1.5-8-2.7V483.6z"
								/>
						</g>
						<g>
							<path id="DejaVuSans-48_4_" d="M227.5,477.1c-5.1,0-8.9-2.5-11.5-7.5c-2.6-5-3.8-12.5-3.8-22.5c0-10,1.3-17.5,3.8-22.5
								c2.6-5,6.4-7.5,11.5-7.5c5.1,0,8.9,2.5,11.5,7.5c2.6,5,3.8,12.5,3.8,22.5c0,10-1.3,17.5-3.8,22.5
								C236.4,474.6,232.6,477.1,227.5,477.1z M227.5,484.9c8.2,0,14.4-3.2,18.7-9.7c4.3-6.5,6.5-15.8,6.5-28.1
								c0-12.3-2.2-21.6-6.5-28.1c-4.3-6.5-10.6-9.7-18.7-9.7c-8.2,0-14.4,3.2-18.7,9.7c-4.3,6.5-6.5,15.8-6.5,28.1
								c0,12.3,2.2,21.7,6.5,28.1C213.1,481.7,219.3,484.9,227.5,484.9z"/>
						</g>
					</g>
				</g>
			</g>
			<g id="xtick_4">
				<g id="line2d_4">
					<g>
						<g>
							<path id="m739b7533ac_3_" stroke="#000000" stroke-width="0.8" stroke-linejoin="round" d="M187.5,266.5v3.5"/>
						</g>
					</g>
				</g>
				<g id="text_4">
					<g transform="translate(176.870309 322.182437)scale(0.1 -0.1)">
						<g>
							<path id="DejaVuSans-8722_3_" d="M-36.5,446.2h62.6v-8.3h-62.6V446.2z"/>
						</g>
						<g>
							<path id="DejaVuSans-48_5_" d="M68.5,477.1c-5.1,0-8.9-2.5-11.5-7.5c-2.6-5-3.8-12.5-3.8-22.5c0-10,1.3-17.5,3.8-22.5
								c2.6-5,6.4-7.5,11.5-7.5c5.1,0,8.9,2.5,11.5,7.5c2.6,5,3.8,12.5,3.8,22.5c0,10-1.3,17.5-3.8,22.5
								C77.4,474.6,73.6,477.1,68.5,477.1z M68.5,484.9c8.2,0,14.4-3.2,18.7-9.7c4.3-6.5,6.5-15.8,6.5-28.1
								c0-12.3-2.2-21.6-6.5-28.1c-4.3-6.5-10.6-9.7-18.7-9.7c-8.2,0-14.4,3.2-18.7,9.7c-4.3,6.5-6.5,15.8-6.5,28.1
								c0,12.3,2.2,21.7,6.5,28.1C54.1,481.7,60.3,484.9,68.5,484.9z"/>
						</g>
						<g>
							<path id="DejaVuSans-46_3_" d="M111,423.1h10.3v-12.4H111V423.1z"/>
						</g>
						<g>
							<path id="DejaVuSans-50" d="M151.3,419h34.4v-8.3h-46.3v8.3c3.7,3.9,8.8,9.1,15.3,15.6c6.5,6.5,10.5,10.7,12.2,12.6
								c3.2,3.5,5.4,6.5,6.6,9c1.3,2.5,1.9,4.9,1.9,7.3c0,3.9-1.4,7-4.1,9.5c-2.7,2.4-6.3,3.7-10.6,3.7c-3.1,0-6.4-0.5-9.8-1.6
								c-3.4-1.1-7.1-2.7-11-4.9v10c4,1.6,7.7,2.8,11.1,3.6c3.5,0.8,6.6,1.2,9.5,1.2c7.6,0,13.6-1.9,18.1-5.7
								c4.5-3.8,6.7-8.8,6.7-15.1c0-3-0.6-5.8-1.7-8.5c-1.1-2.7-3.2-5.8-6.1-9.5c-0.8-0.9-3.4-3.7-7.8-8.2
								C165.4,433.4,159.2,427.1,151.3,419z"/>
						</g>
						<g>
							<path id="DejaVuSans-53_2_" d="M206.5,483.6h38.7v-8.3h-29.7v-17.9c1.4,0.5,2.9,0.9,4.3,1.1c1.4,0.2,2.9,0.4,4.3,0.4
								c8.1,0,14.6-2.2,19.3-6.7c4.8-4.5,7.1-10.5,7.1-18.1c0-7.8-2.4-13.9-7.3-18.3c-4.9-4.3-11.8-6.5-20.7-6.5
								c-3.1,0-6.2,0.3-9.4,0.8c-3.2,0.5-6.4,1.3-9.8,2.3v9.9c2.9-1.6,6-2.8,9.1-3.6s6.4-1.2,9.9-1.2c5.6,0,10.1,1.5,13.4,4.4
								c3.3,3,4.9,7,4.9,12.1c0,5.1-1.6,9.1-4.9,12c-3.3,3-7.7,4.5-13.4,4.5c-2.6,0-5.3-0.3-7.9-0.9c-2.6-0.6-5.3-1.5-8-2.7V483.6z"
								/>
						</g>
					</g>
				</g>
			</g>
			<g id="xtick_5">
				<g id="line2d_5">
					<g>
						<g>
							<path id="m739b7533ac_4_" stroke="#000000" stroke-width="0.8" stroke-linejoin="round" d="M232.3,266.5v3.5"/>
						</g>
					</g>
				</g>
				<g id="text_5">
					<g transform="translate(225.924474 322.182437)scale(0.1 -0.1)">
						<g>
							<path id="DejaVuSans-48_6_" d="M-15.3,477.1c-5.1,0-8.9-2.5-11.5-7.5c-2.6-5-3.8-12.5-3.8-22.5c0-10,1.3-17.5,3.8-22.5
								c2.6-5,6.4-7.5,11.5-7.5c5.1,0,8.9,2.5,11.5,7.5c2.6,5,3.8,12.5,3.8,22.5c0,10-1.3,17.5-3.8,22.5
								C-6.4,474.6-10.2,477.1-15.3,477.1z M-15.3,484.9c8.2,0,14.4-3.2,18.7-9.7c4.3-6.5,6.5-15.8,6.5-28.1
								c0-12.3-2.2-21.6-6.5-28.1c-4.3-6.5-10.6-9.7-18.7-9.7c-8.2,0-14.4,3.2-18.7,9.7c-4.3,6.5-6.5,15.8-6.5,28.1
								c0,12.3,2.2,21.7,6.5,28.1C-29.7,481.7-23.5,484.9-15.3,484.9z"/>
						</g>
						<g>
							<path id="DejaVuSans-46_4_" d="M27.2,423.1h10.3v-12.4H27.2V423.1z"/>
						</g>
						<g>
							<path id="DejaVuSans-48_7_" d="M80.1,477.1c-5.1,0-8.9-2.5-11.5-7.5c-2.6-5-3.8-12.5-3.8-22.5c0-10,1.3-17.5,3.8-22.5
								c2.6-5,6.4-7.5,11.5-7.5c5.1,0,8.9,2.5,11.5,7.5c2.6,5,3.8,12.5,3.8,22.5c0,10-1.3,17.5-3.8,22.5
								C89,474.6,85.2,477.1,80.1,477.1z M80.1,484.9c8.2,0,14.4-3.2,18.7-9.7c4.3-6.5,6.5-15.8,6.5-28.1c0-12.3-2.2-21.6-6.5-28.1
								c-4.3-6.5-10.6-9.7-18.7-9.7c-8.2,0-14.4,3.2-18.7,9.7c-4.3,6.5-6.5,15.8-6.5,28.1c0,12.3,2.2,21.7,6.5,28.1
								C65.7,481.7,71.9,484.9,80.1,484.9z"/>
						</g>
						<g>
							<path id="DejaVuSans-48_8_" d="M143.7,477.1c-5.1,0-8.9-2.5-11.5-7.5c-2.6-5-3.8-12.5-3.8-22.5c0-10,1.3-17.5,3.8-22.5
								c2.6-5,6.4-7.5,11.5-7.5c5.1,0,8.9,2.5,11.5,7.5c2.6,5,3.8,12.5,3.8,22.5c0,10-1.3,17.5-3.8,22.5
								C152.7,474.6,148.8,477.1,143.7,477.1z M143.7,484.9c8.2,0,14.4-3.2,18.7-9.7c4.3-6.5,6.5-15.8,6.5-28.1
								c0-12.3-2.2-21.6-6.5-28.1c-4.3-6.5-10.6-9.7-18.7-9.7c-8.2,0-14.4,3.2-18.7,9.7c-4.3,6.5-6.5,15.8-6.5,28.1
								c0,12.3,2.2,21.7,6.5,28.1C129.3,481.7,135.5,484.9,143.7,484.9z"/>
						</g>
					</g>
				</g>
			</g>
			<g id="xtick_6">
				<g id="line2d_6">
					<g>
						<g>
							<path id="m739b7533ac_5_" stroke="#000000" stroke-width="0.8" stroke-linejoin="round" d="M277.2,266.5v3.5"/>
						</g>
					</g>
				</g>
				<g id="text_6">
					<g transform="translate(270.788796 322.182437)scale(0.1 -0.1)">
						<g>
							<path id="DejaVuSans-48_9_" d="M-15.3,477.1c-5.1,0-8.9-2.5-11.5-7.5c-2.6-5-3.8-12.5-3.8-22.5c0-10,1.3-17.5,3.8-22.5
								c2.6-5,6.4-7.5,11.5-7.5c5.1,0,8.9,2.5,11.5,7.5c2.6,5,3.8,12.5,3.8,22.5c0,10-1.3,17.5-3.8,22.5
								C-6.4,474.6-10.2,477.1-15.3,477.1z M-15.3,484.9c8.2,0,14.4-3.2,18.7-9.7c4.3-6.5,6.5-15.8,6.5-28.1
								c0-12.3-2.2-21.6-6.5-28.1c-4.3-6.5-10.6-9.7-18.7-9.7c-8.2,0-14.4,3.2-18.7,9.7c-4.3,6.5-6.5,15.8-6.5,28.1
								c0,12.3,2.2,21.7,6.5,28.1C-29.7,481.7-23.5,484.9-15.3,484.9z"/>
						</g>
						<g>
							<path id="DejaVuSans-46_5_" d="M27.2,423.1h10.3v-12.4H27.2V423.1z"/>
						</g>
						<g>
							<path id="DejaVuSans-50_1_" d="M67.5,419h34.4v-8.3H55.6v8.3c3.7,3.9,8.8,9.1,15.3,15.6c6.5,6.5,10.5,10.7,12.2,12.6
								c3.2,3.5,5.4,6.5,6.6,9c1.3,2.5,1.9,4.9,1.9,7.3c0,3.9-1.4,7-4.1,9.5c-2.7,2.4-6.3,3.7-10.6,3.7c-3.1,0-6.4-0.5-9.8-1.6
								c-3.4-1.1-7.1-2.7-11-4.9v10c4,1.6,7.7,2.8,11.1,3.6c3.5,0.8,6.6,1.2,9.5,1.2c7.6,0,13.6-1.9,18.1-5.7
								c4.5-3.8,6.7-8.8,6.7-15.1c0-3-0.6-5.8-1.7-8.5c-1.1-2.7-3.2-5.8-6.1-9.5c-0.8-0.9-3.4-3.7-7.8-8.2
								C81.6,433.4,75.4,427.1,67.5,419z"/>
						</g>
						<g>
							<path id="DejaVuSans-53_3_" d="M122.7,483.6h38.7v-8.3h-29.7v-17.9c1.4,0.5,2.9,0.9,4.3,1.1c1.4,0.2,2.9,0.4,4.3,0.4
								c8.1,0,14.6-2.2,19.3-6.7c4.8-4.5,7.1-10.5,7.1-18.1c0-7.8-2.4-13.9-7.3-18.3c-4.9-4.3-11.8-6.5-20.7-6.5
								c-3.1,0-6.2,0.3-9.4,0.8c-3.2,0.5-6.4,1.3-9.8,2.3v9.9c2.9-1.6,6-2.8,9.1-3.6s6.4-1.2,9.9-1.2c5.6,0,10.1,1.5,13.4,4.4
								c3.3,3,4.9,7,4.9,12.1c0,5.1-1.6,9.1-4.9,12c-3.3,3-7.7,4.5-13.4,4.5c-2.6,0-5.3-0.3-7.9-0.9c-2.6-0.6-5.3-1.5-8-2.7V483.6z"
								/>
						</g>
					</g>
				</g>
			</g>
			<g id="xtick_7">
				<g id="line2d_7">
					<g>
						<g>
							<path id="m739b7533ac_6_" stroke="#000000" stroke-width="0.8" stroke-linejoin="round" d="M322.1,266.5v3.5"/>
						</g>
					</g>
				</g>
				<g id="text_7">
					<g transform="translate(315.653117 322.182437)scale(0.1 -0.1)">
						<g>
							<path id="DejaVuSans-48_10_" d="M-15.3,477.1c-5.1,0-8.9-2.5-11.5-7.5c-2.6-5-3.8-12.5-3.8-22.5c0-10,1.3-17.5,3.8-22.5
								c2.6-5,6.4-7.5,11.5-7.5c5.1,0,8.9,2.5,11.5,7.5c2.6,5,3.8,12.5,3.8,22.5c0,10-1.3,17.5-3.8,22.5
								C-6.4,474.6-10.2,477.1-15.3,477.1z M-15.3,484.9c8.2,0,14.4-3.2,18.7-9.7c4.3-6.5,6.5-15.8,6.5-28.1
								c0-12.3-2.2-21.6-6.5-28.1c-4.3-6.5-10.6-9.7-18.7-9.7c-8.2,0-14.4,3.2-18.7,9.7c-4.3,6.5-6.5,15.8-6.5,28.1
								c0,12.3,2.2,21.7,6.5,28.1C-29.7,481.7-23.5,484.9-15.3,484.9z"/>
						</g>
						<g>
							<path id="DejaVuSans-46_6_" d="M27.2,423.1h10.3v-12.4H27.2V423.1z"/>
						</g>
						<g>
							<path id="DejaVuSans-53_4_" d="M59.1,483.6h38.7v-8.3H68.1v-17.9c1.4,0.5,2.9,0.9,4.3,1.1c1.4,0.2,2.9,0.4,4.3,0.4
								c8.1,0,14.6-2.2,19.3-6.7c4.8-4.5,7.1-10.5,7.1-18.1c0-7.8-2.4-13.9-7.3-18.3c-4.9-4.3-11.8-6.5-20.7-6.5
								c-3.1,0-6.2,0.3-9.4,0.8c-3.2,0.5-6.4,1.3-9.8,2.3v9.9c2.9-1.6,6-2.8,9.1-3.6s6.4-1.2,9.9-1.2c5.6,0,10.1,1.5,13.4,4.4
								c3.3,3,4.9,7,4.9,12.1c0,5.1-1.6,9.1-4.9,12c-3.3,3-7.7,4.5-13.4,4.5c-2.6,0-5.3-0.3-7.9-0.9c-2.6-0.6-5.3-1.5-8-2.7V483.6z"
								/>
						</g>
						<g>
							<path id="DejaVuSans-48_11_" d="M143.7,477.1c-5.1,0-8.9-2.5-11.5-7.5c-2.6-5-3.8-12.5-3.8-22.5c0-10,1.3-17.5,3.8-22.5
								c2.6-5,6.4-7.5,11.5-7.5c5.1,0,8.9,2.5,11.5,7.5c2.6,5,3.8,12.5,3.8,22.5c0,10-1.3,17.5-3.8,22.5
								C152.7,474.6,148.8,477.1,143.7,477.1z M143.7,484.9c8.2,0,14.4-3.2,18.7-9.7c4.3-6.5,6.5-15.8,6.5-28.1
								c0-12.3-2.2-21.6-6.5-28.1c-4.3-6.5-10.6-9.7-18.7-9.7c-8.2,0-14.4,3.2-18.7,9.7c-4.3,6.5-6.5,15.8-6.5,28.1
								c0,12.3,2.2,21.7,6.5,28.1C129.3,481.7,135.5,484.9,143.7,484.9z"/>
						</g>
					</g>
				</g>
			</g>
			<g id="xtick_8">
				<g id="line2d_8">
					<g>
						<g>
							<path id="m739b7533ac_7_" stroke="#000000" stroke-width="0.8" stroke-linejoin="round" d="M366.9,266.5v3.5"/>
						</g>
					</g>
				</g>
				<g id="text_8">
					<g transform="translate(360.517439 322.182437)scale(0.1 -0.1)">
						<g>
							<path id="DejaVuSans-48_12_" d="M-15.3,477.1c-5.1,0-8.9-2.5-11.5-7.5c-2.6-5-3.8-12.5-3.8-22.5c0-10,1.3-17.5,3.8-22.5
								c2.6-5,6.4-7.5,11.5-7.5c5.1,0,8.9,2.5,11.5,7.5c2.6,5,3.8,12.5,3.8,22.5c0,10-1.3,17.5-3.8,22.5
								C-6.4,474.6-10.2,477.1-15.3,477.1z M-15.3,484.9c8.2,0,14.4-3.2,18.7-9.7c4.3-6.5,6.5-15.8,6.5-28.1
								c0-12.3-2.2-21.6-6.5-28.1c-4.3-6.5-10.6-9.7-18.7-9.7c-8.2,0-14.4,3.2-18.7,9.7c-4.3,6.5-6.5,15.8-6.5,28.1
								c0,12.3,2.2,21.7,6.5,28.1C-29.7,481.7-23.5,484.9-15.3,484.9z"/>
						</g>
						<g>
							<path id="DejaVuSans-46_7_" d="M27.2,423.1h10.3v-12.4H27.2V423.1z"/>
						</g>
						<g>
							<path id="DejaVuSans-55_1_" d="M56.5,483.6h46.9v-4.2l-26.5-68.7H66.6l24.9,64.6h-35V483.6z"/>
						</g>
						<g>
							<path id="DejaVuSans-53_5_" d="M122.7,483.6h38.7v-8.3h-29.7v-17.9c1.4,0.5,2.9,0.9,4.3,1.1c1.4,0.2,2.9,0.4,4.3,0.4
								c8.1,0,14.6-2.2,19.3-6.7c4.8-4.5,7.1-10.5,7.1-18.1c0-7.8-2.4-13.9-7.3-18.3c-4.9-4.3-11.8-6.5-20.7-6.5
								c-3.1,0-6.2,0.3-9.4,0.8c-3.2,0.5-6.4,1.3-9.8,2.3v9.9c2.9-1.6,6-2.8,9.1-3.6s6.4-1.2,9.9-1.2c5.6,0,10.1,1.5,13.4,4.4
								c3.3,3,4.9,7,4.9,12.1c0,5.1-1.6,9.1-4.9,12c-3.3,3-7.7,4.5-13.4,4.5c-2.6,0-5.3-0.3-7.9-0.9c-2.6-0.6-5.3-1.5-8-2.7V483.6z"
								/>
						</g>
					</g>
				</g>
			</g>
			<g id="text_9">
				<g transform="translate(227.435625 337.38025)scale(0.12 -0.12)">
					<g>
						<path id="DejaVuSans-119" d="M-35,397h9l11.2-42.7L-3.7,397H6.9l11.2-42.7L29.4,397h9L24,342.3H13.4L1.7,387.1l-11.8-44.8
							h-10.6L-35,397z"/>
					</g>
					<g>
						<path id="DejaVuSans-48_13_" d="M74.3,408.7c-5.1,0-8.9-2.5-11.5-7.5c-2.6-5-3.8-12.5-3.8-22.5c0-10,1.3-17.5,3.8-22.5
							c2.6-5,6.4-7.5,11.5-7.5c5.1,0,8.9,2.5,11.5,7.5c2.6,5,3.8,12.5,3.8,22.5c0,10-1.3,17.5-3.8,22.5
							C83.3,406.2,79.4,408.7,74.3,408.7z M74.3,416.5c8.2,0,14.4-3.2,18.7-9.7c4.3-6.5,6.5-15.8,6.5-28.1c0-12.3-2.2-21.6-6.5-28.1
							c-4.3-6.5-10.6-9.7-18.7-9.7c-8.2,0-14.4,3.2-18.7,9.7c-4.3,6.5-6.5,15.8-6.5,28.1c0,12.3,2.2,21.7,6.5,28.1
							C59.9,413.3,66.1,416.5,74.3,416.5z"/>
					</g>
				</g>
			</g>
		</g>
		<g id="matplotlib.axis_2">
			<g id="ytick_1">
				<g id="line2d_9">
					<g>
						<g>
							<path id="m332bf011ad" stroke="#000000" stroke-width="0.8" stroke-linejoin="round" d="M52.9,266.5h-3.5"/>
						</g>
					</g>
				</g>
				<g id="text_10">
					<g transform="translate(19.954687 311.383219)scale(0.1 -0.1)">
						<g>
							<path id="DejaVuSans-8722_4_" d="M-36.5,446.2h62.6v-8.3h-62.6V446.2z"/>
						</g>
						<g>
							<path id="DejaVuSans-49_1_" d="M49.1,419h16.1v55.6l-17.5-3.5v9l17.4,3.5H75V419h16.1v-8.3h-42V419z"/>
						</g>
						<g>
							<path id="DejaVuSans-46_8_" d="M111,423.1h10.3v-12.4H111V423.1z"/>
						</g>
						<g>
							<path id="DejaVuSans-48_14_" d="M163.9,477.1c-5.1,0-8.9-2.5-11.5-7.5c-2.6-5-3.8-12.5-3.8-22.5c0-10,1.3-17.5,3.8-22.5
								c2.6-5,6.4-7.5,11.5-7.5c5.1,0,8.9,2.5,11.5,7.5c2.6,5,3.8,12.5,3.8,22.5c0,10-1.3,17.5-3.8,22.5
								C172.8,474.6,169,477.1,163.9,477.1z M163.9,484.9c8.2,0,14.4-3.2,18.7-9.7c4.3-6.5,6.5-15.8,6.5-28.1
								c0-12.3-2.2-21.6-6.5-28.1c-4.3-6.5-10.6-9.7-18.7-9.7c-8.2,0-14.4,3.2-18.7,9.7c-4.3,6.5-6.5,15.8-6.5,28.1
								c0,12.3,2.2,21.7,6.5,28.1C149.5,481.7,155.7,484.9,163.9,484.9z"/>
						</g>
						<g>
							<path id="DejaVuSans-48_15_" d="M227.5,477.1c-5.1,0-8.9-2.5-11.5-7.5c-2.6-5-3.8-12.5-3.8-22.5c0-10,1.3-17.5,3.8-22.5
								c2.6-5,6.4-7.5,11.5-7.5c5.1,0,8.9,2.5,11.5,7.5c2.6,5,3.8,12.5,3.8,22.5c0,10-1.3,17.5-3.8,22.5
								C236.4,474.6,232.6,477.1,227.5,477.1z M227.5,484.9c8.2,0,14.4-3.2,18.7-9.7c4.3-6.5,6.5-15.8,6.5-28.1
								c0-12.3-2.2-21.6-6.5-28.1c-4.3-6.5-10.6-9.7-18.7-9.7c-8.2,0-14.4,3.2-18.7,9.7c-4.3,6.5-6.5,15.8-6.5,28.1
								c0,12.3,2.2,21.7,6.5,28.1C213.1,481.7,219.3,484.9,227.5,484.9z"/>
						</g>
					</g>
				</g>
			</g>
			<g id="ytick_2">
				<g id="line2d_10">
					<g>
						<g>
							<path id="m332bf011ad_1_" stroke="#000000" stroke-width="0.8" stroke-linejoin="round" d="M52.9,233.1h-3.5"/>
						</g>
					</g>
				</g>
				<g id="text_11">
					<g transform="translate(19.954687 277.952063)scale(0.1 -0.1)">
						<g>
							<path id="DejaVuSans-8722_5_" d="M-36.5,446.2h62.6v-8.3h-62.6V446.2z"/>
						</g>
						<g>
							<path id="DejaVuSans-48_16_" d="M68.5,477.1c-5.1,0-8.9-2.5-11.5-7.5c-2.6-5-3.8-12.5-3.8-22.5c0-10,1.3-17.5,3.8-22.5
								c2.6-5,6.4-7.5,11.5-7.5c5.1,0,8.9,2.5,11.5,7.5c2.6,5,3.8,12.5,3.8,22.5c0,10-1.3,17.5-3.8,22.5
								C77.4,474.6,73.6,477.1,68.5,477.1z M68.5,484.9c8.2,0,14.4-3.2,18.7-9.7c4.3-6.5,6.5-15.8,6.5-28.1
								c0-12.3-2.2-21.6-6.5-28.1c-4.3-6.5-10.6-9.7-18.7-9.7c-8.2,0-14.4,3.2-18.7,9.7c-4.3,6.5-6.5,15.8-6.5,28.1
								c0,12.3,2.2,21.7,6.5,28.1C54.1,481.7,60.3,484.9,68.5,484.9z"/>
						</g>
						<g>
							<path id="DejaVuSans-46_9_" d="M111,423.1h10.3v-12.4H111V423.1z"/>
						</g>
						<g>
							<path id="DejaVuSans-55_2_" d="M140.3,483.6h46.9v-4.2l-26.5-68.7h-10.3l24.9,64.6h-35V483.6z"/>
						</g>
						<g>
							<path id="DejaVuSans-53_6_" d="M206.5,483.6h38.7v-8.3h-29.7v-17.9c1.4,0.5,2.9,0.9,4.3,1.1c1.4,0.2,2.9,0.4,4.3,0.4
								c8.1,0,14.6-2.2,19.3-6.7c4.8-4.5,7.1-10.5,7.1-18.1c0-7.8-2.4-13.9-7.3-18.3c-4.9-4.3-11.8-6.5-20.7-6.5
								c-3.1,0-6.2,0.3-9.4,0.8c-3.2,0.5-6.4,1.3-9.8,2.3v9.9c2.9-1.6,6-2.8,9.1-3.6s6.4-1.2,9.9-1.2c5.6,0,10.1,1.5,13.4,4.4
								c3.3,3,4.9,7,4.9,12.1c0,5.1-1.6,9.1-4.9,12c-3.3,3-7.7,4.5-13.4,4.5c-2.6,0-5.3-0.3-7.9-0.9c-2.6-0.6-5.3-1.5-8-2.7V483.6z"
								/>
						</g>
					</g>
				</g>
			</g>
			<g id="ytick_3">
				<g id="line2d_11">
					<g>
						<g>
							<path id="m332bf011ad_2_" stroke="#000000" stroke-width="0.8" stroke-linejoin="round" d="M52.9,199.6h-3.5"/>
						</g>
					</g>
				</g>
				<g id="text_12">
					<g transform="translate(19.954687 244.520907)scale(0.1 -0.1)">
						<g>
							<path id="DejaVuSans-8722_6_" d="M-36.5,446.2h62.6v-8.3h-62.6V446.2z"/>
						</g>
						<g>
							<path id="DejaVuSans-48_17_" d="M68.5,477.1c-5.1,0-8.9-2.5-11.5-7.5c-2.6-5-3.8-12.5-3.8-22.5c0-10,1.3-17.5,3.8-22.5
								c2.6-5,6.4-7.5,11.5-7.5c5.1,0,8.9,2.5,11.5,7.5c2.6,5,3.8,12.5,3.8,22.5c0,10-1.3,17.5-3.8,22.5
								C77.4,474.6,73.6,477.1,68.5,477.1z M68.5,484.9c8.2,0,14.4-3.2,18.7-9.7c4.3-6.5,6.5-15.8,6.5-28.1
								c0-12.3-2.2-21.6-6.5-28.1c-4.3-6.5-10.6-9.7-18.7-9.7c-8.2,0-14.4,3.2-18.7,9.7c-4.3,6.5-6.5,15.8-6.5,28.1
								c0,12.3,2.2,21.7,6.5,28.1C54.1,481.7,60.3,484.9,68.5,484.9z"/>
						</g>
						<g>
							<path id="DejaVuSans-46_10_" d="M111,423.1h10.3v-12.4H111V423.1z"/>
						</g>
						<g>
							<path id="DejaVuSans-53_7_" d="M142.9,483.6h38.7v-8.3h-29.7v-17.9c1.4,0.5,2.9,0.9,4.3,1.1c1.4,0.2,2.9,0.4,4.3,0.4
								c8.1,0,14.6-2.2,19.3-6.7c4.8-4.5,7.1-10.5,7.1-18.1c0-7.8-2.4-13.9-7.3-18.3c-4.9-4.3-11.8-6.5-20.7-6.5
								c-3.1,0-6.2,0.3-9.4,0.8c-3.2,0.5-6.4,1.3-9.8,2.3v9.9c2.9-1.6,6-2.8,9.1-3.6s6.4-1.2,9.9-1.2c5.6,0,10.1,1.5,13.4,4.4
								c3.3,3,4.9,7,4.9,12.1c0,5.1-1.6,9.1-4.9,12c-3.3,3-7.7,4.5-13.4,4.5c-2.6,0-5.3-0.3-7.9-0.9c-2.6-0.6-5.3-1.5-8-2.7V483.6z"
								/>
						</g>
						<g>
							<path id="DejaVuSans-48_18_" d="M227.5,477.1c-5.1,0-8.9-2.5-11.5-7.5c-2.6-5-3.8-12.5-3.8-22.5c0-10,1.3-17.5,3.8-22.5
								c2.6-5,6.4-7.5,11.5-7.5c5.1,0,8.9,2.5,11.5,7.5c2.6,5,3.8,12.5,3.8,22.5c0,10-1.3,17.5-3.8,22.5
								C236.4,474.6,232.6,477.1,227.5,477.1z M227.5,484.9c8.2,0,14.4-3.2,18.7-9.7c4.3-6.5,6.5-15.8,6.5-28.1
								c0-12.3-2.2-21.6-6.5-28.1c-4.3-6.5-10.6-9.7-18.7-9.7c-8.2,0-14.4,3.2-18.7,9.7c-4.3,6.5-6.5,15.8-6.5,28.1
								c0,12.3,2.2,21.7,6.5,28.1C213.1,481.7,219.3,484.9,227.5,484.9z"/>
						</g>
					</g>
				</g>
			</g>
			<g id="ytick_4">
				<g id="line2d_12">
					<g>
						<g>
							<path id="m332bf011ad_3_" stroke="#000000" stroke-width="0.8" stroke-linejoin="round" d="M52.9,166.2h-3.5"/>
						</g>
					</g>
				</g>
				<g id="text_13">
					<g transform="translate(19.954687 211.089751)scale(0.1 -0.1)">
						<g>
							<path id="DejaVuSans-8722_7_" d="M-36.5,446.2h62.6v-8.3h-62.6V446.2z"/>
						</g>
						<g>
							<path id="DejaVuSans-48_19_" d="M68.5,477.1c-5.1,0-8.9-2.5-11.5-7.5c-2.6-5-3.8-12.5-3.8-22.5c0-10,1.3-17.5,3.8-22.5
								c2.6-5,6.4-7.5,11.5-7.5c5.1,0,8.9,2.5,11.5,7.5c2.6,5,3.8,12.5,3.8,22.5c0,10-1.3,17.5-3.8,22.5
								C77.4,474.6,73.6,477.1,68.5,477.1z M68.5,484.9c8.2,0,14.4-3.2,18.7-9.7c4.3-6.5,6.5-15.8,6.5-28.1
								c0-12.3-2.2-21.6-6.5-28.1c-4.3-6.5-10.6-9.7-18.7-9.7c-8.2,0-14.4,3.2-18.7,9.7c-4.3,6.5-6.5,15.8-6.5,28.1
								c0,12.3,2.2,21.7,6.5,28.1C54.1,481.7,60.3,484.9,68.5,484.9z"/>
						</g>
						<g>
							<path id="DejaVuSans-46_11_" d="M111,423.1h10.3v-12.4H111V423.1z"/>
						</g>
						<g>
							<path id="DejaVuSans-50_2_" d="M151.3,419h34.4v-8.3h-46.3v8.3c3.7,3.9,8.8,9.1,15.3,15.6c6.5,6.5,10.5,10.7,12.2,12.6
								c3.2,3.5,5.4,6.5,6.6,9c1.3,2.5,1.9,4.9,1.9,7.3c0,3.9-1.4,7-4.1,9.5c-2.7,2.4-6.3,3.7-10.6,3.7c-3.1,0-6.4-0.5-9.8-1.6
								c-3.4-1.1-7.1-2.7-11-4.9v10c4,1.6,7.7,2.8,11.1,3.6c3.5,0.8,6.6,1.2,9.5,1.2c7.6,0,13.6-1.9,18.1-5.7
								c4.5-3.8,6.7-8.8,6.7-15.1c0-3-0.6-5.8-1.7-8.5c-1.1-2.7-3.2-5.8-6.1-9.5c-0.8-0.9-3.4-3.7-7.8-8.2
								C165.4,433.4,159.2,427.1,151.3,419z"/>
						</g>
						<g>
							<path id="DejaVuSans-53_8_" d="M206.5,483.6h38.7v-8.3h-29.7v-17.9c1.4,0.5,2.9,0.9,4.3,1.1c1.4,0.2,2.9,0.4,4.3,0.4
								c8.1,0,14.6-2.2,19.3-6.7c4.8-4.5,7.1-10.5,7.1-18.1c0-7.8-2.4-13.9-7.3-18.3c-4.9-4.3-11.8-6.5-20.7-6.5
								c-3.1,0-6.2,0.3-9.4,0.8c-3.2,0.5-6.4,1.3-9.8,2.3v9.9c2.9-1.6,6-2.8,9.1-3.6s6.4-1.2,9.9-1.2c5.6,0,10.1,1.5,13.4,4.4
								c3.3,3,4.9,7,4.9,12.1c0,5.1-1.6,9.1-4.9,12c-3.3,3-7.7,4.5-13.4,4.5c-2.6,0-5.3-0.3-7.9-0.9c-2.6-0.6-5.3-1.5-8-2.7V483.6z"
								/>
						</g>
					</g>
				</g>
			</g>
			<g id="ytick_5">
				<g id="line2d_13">
					<g>
						<g>
							<path id="m332bf011ad_4_" stroke="#000000" stroke-width="0.8" stroke-linejoin="round" d="M52.9,132.8h-3.5"/>
						</g>
					</g>
				</g>
				<g id="text_14">
					<g transform="translate(28.334375 177.658596)scale(0.1 -0.1)">
						<g>
							<path id="DejaVuSans-48_20_" d="M-15.3,477.1c-5.1,0-8.9-2.5-11.5-7.5c-2.6-5-3.8-12.5-3.8-22.5c0-10,1.3-17.5,3.8-22.5
								c2.6-5,6.4-7.5,11.5-7.5c5.1,0,8.9,2.5,11.5,7.5c2.6,5,3.8,12.5,3.8,22.5c0,10-1.3,17.5-3.8,22.5
								C-6.4,474.6-10.2,477.1-15.3,477.1z M-15.3,484.9c8.2,0,14.4-3.2,18.7-9.7c4.3-6.5,6.5-15.8,6.5-28.1
								c0-12.3-2.2-21.6-6.5-28.1c-4.3-6.5-10.6-9.7-18.7-9.7c-8.2,0-14.4,3.2-18.7,9.7c-4.3,6.5-6.5,15.8-6.5,28.1
								c0,12.3,2.2,21.7,6.5,28.1C-29.7,481.7-23.5,484.9-15.3,484.9z"/>
						</g>
						<g>
							<path id="DejaVuSans-46_12_" d="M27.2,423.1h10.3v-12.4H27.2V423.1z"/>
						</g>
						<g>
							<path id="DejaVuSans-48_21_" d="M80.1,477.1c-5.1,0-8.9-2.5-11.5-7.5c-2.6-5-3.8-12.5-3.8-22.5c0-10,1.3-17.5,3.8-22.5
								c2.6-5,6.4-7.5,11.5-7.5c5.1,0,8.9,2.5,11.5,7.5c2.6,5,3.8,12.5,3.8,22.5c0,10-1.3,17.5-3.8,22.5
								C89,474.6,85.2,477.1,80.1,477.1z M80.1,484.9c8.2,0,14.4-3.2,18.7-9.7c4.3-6.5,6.5-15.8,6.5-28.1c0-12.3-2.2-21.6-6.5-28.1
								c-4.3-6.5-10.6-9.7-18.7-9.7c-8.2,0-14.4,3.2-18.7,9.7c-4.3,6.5-6.5,15.8-6.5,28.1c0,12.3,2.2,21.7,6.5,28.1
								C65.7,481.7,71.9,484.9,80.1,484.9z"/>
						</g>
						<g>
							<path id="DejaVuSans-48_22_" d="M143.7,477.1c-5.1,0-8.9-2.5-11.5-7.5c-2.6-5-3.8-12.5-3.8-22.5c0-10,1.3-17.5,3.8-22.5
								c2.6-5,6.4-7.5,11.5-7.5c5.1,0,8.9,2.5,11.5,7.5c2.6,5,3.8,12.5,3.8,22.5c0,10-1.3,17.5-3.8,22.5
								C152.7,474.6,148.8,477.1,143.7,477.1z M143.7,484.9c8.2,0,14.4-3.2,18.7-9.7c4.3-6.5,6.5-15.8,6.5-28.1
								c0-12.3-2.2-21.6-6.5-28.1c-4.3-6.5-10.6-9.7-18.7-9.7c-8.2,0-14.4,3.2-18.7,9.7c-4.3,6.5-6.5,15.8-6.5,28.1
								c0,12.3,2.2,21.7,6.5,28.1C129.3,481.7,135.5,484.9,143.7,484.9z"/>
						</g>
					</g>
				</g>
			</g>
			<g id="ytick_6">
				<g id="line2d_14">
					<g>
						<g>
							<path id="m332bf011ad_5_" stroke="#000000" stroke-width="0.8" stroke-linejoin="round" d="M52.9,99.4h-3.5"/>
						</g>
					</g>
				</g>
				<g id="text_15">
					<g transform="translate(28.334375 144.22744)scale(0.1 -0.1)">
						<g>
							<path id="DejaVuSans-48_23_" d="M-15.3,477.1c-5.1,0-8.9-2.5-11.5-7.5c-2.6-5-3.8-12.5-3.8-22.5c0-10,1.3-17.5,3.8-22.5
								c2.6-5,6.4-7.5,11.5-7.5c5.1,0,8.9,2.5,11.5,7.5c2.6,5,3.8,12.5,3.8,22.5c0,10-1.3,17.5-3.8,22.5
								C-6.4,474.6-10.2,477.1-15.3,477.1z M-15.3,484.9c8.2,0,14.4-3.2,18.7-9.7c4.3-6.5,6.5-15.8,6.5-28.1
								c0-12.3-2.2-21.6-6.5-28.1c-4.3-6.5-10.6-9.7-18.7-9.7c-8.2,0-14.4,3.2-18.7,9.7c-4.3,6.5-6.5,15.8-6.5,28.1
								c0,12.3,2.2,21.7,6.5,28.1C-29.7,481.7-23.5,484.9-15.3,484.9z"/>
						</g>
						<g>
							<path id="DejaVuSans-46_13_" d="M27.2,423.1h10.3v-12.4H27.2V423.1z"/>
						</g>
						<g>
							<path id="DejaVuSans-50_3_" d="M67.5,419h34.4v-8.3H55.6v8.3c3.7,3.9,8.8,9.1,15.3,15.6c6.5,6.5,10.5,10.7,12.2,12.6
								c3.2,3.5,5.4,6.5,6.6,9c1.3,2.5,1.9,4.9,1.9,7.3c0,3.9-1.4,7-4.1,9.5c-2.7,2.4-6.3,3.7-10.6,3.7c-3.1,0-6.4-0.5-9.8-1.6
								c-3.4-1.1-7.1-2.7-11-4.9v10c4,1.6,7.7,2.8,11.1,3.6c3.5,0.8,6.6,1.2,9.5,1.2c7.6,0,13.6-1.9,18.1-5.7
								c4.5-3.8,6.7-8.8,6.7-15.1c0-3-0.6-5.8-1.7-8.5c-1.1-2.7-3.2-5.8-6.1-9.5c-0.8-0.9-3.4-3.7-7.8-8.2
								C81.6,433.4,75.4,427.1,67.5,419z"/>
						</g>
						<g>
							<path id="DejaVuSans-53_9_" d="M122.7,483.6h38.7v-8.3h-29.7v-17.9c1.4,0.5,2.9,0.9,4.3,1.1c1.4,0.2,2.9,0.4,4.3,0.4
								c8.1,0,14.6-2.2,19.3-6.7c4.8-4.5,7.1-10.5,7.1-18.1c0-7.8-2.4-13.9-7.3-18.3c-4.9-4.3-11.8-6.5-20.7-6.5
								c-3.1,0-6.2,0.3-9.4,0.8c-3.2,0.5-6.4,1.3-9.8,2.3v9.9c2.9-1.6,6-2.8,9.1-3.6c3.1-0.8,6.4-1.2,9.9-1.2
								c5.6,0,10.1,1.5,13.4,4.4c3.3,3,4.9,7,4.9,12.1c0,5.1-1.6,9.1-4.9,12c-3.3,3-7.7,4.5-13.4,4.5c-2.6,0-5.3-0.3-7.9-0.9
								c-2.6-0.6-5.3-1.5-8-2.7V483.6z"/>
						</g>
					</g>
				</g>
			</g>
			<g id="ytick_7">
				<g id="line2d_15">
					<g>
						<g>
							<path id="m332bf011ad_6_" stroke="#000000" stroke-width="0.8" stroke-linejoin="round" d="M52.9,65.9h-3.5"/>
						</g>
					</g>
				</g>
				<g id="text_16">
					<g transform="translate(28.334375 110.796284)scale(0.1 -0.1)">
						<g>
							<path id="DejaVuSans-48_24_" d="M-15.3,477.1c-5.1,0-8.9-2.5-11.5-7.5c-2.6-5-3.8-12.5-3.8-22.5c0-10,1.3-17.5,3.8-22.5
								c2.6-5,6.4-7.5,11.5-7.5c5.1,0,8.9,2.5,11.5,7.5c2.6,5,3.8,12.5,3.8,22.5c0,10-1.3,17.5-3.8,22.5
								C-6.4,474.6-10.2,477.1-15.3,477.1z M-15.3,484.9c8.2,0,14.4-3.2,18.7-9.7c4.3-6.5,6.5-15.8,6.5-28.1
								c0-12.3-2.2-21.6-6.5-28.1c-4.3-6.5-10.6-9.7-18.7-9.7c-8.2,0-14.4,3.2-18.7,9.7c-4.3,6.5-6.5,15.8-6.5,28.1
								c0,12.3,2.2,21.7,6.5,28.1C-29.7,481.7-23.5,484.9-15.3,484.9z"/>
						</g>
						<g>
							<path id="DejaVuSans-46_14_" d="M27.2,423.1h10.3v-12.4H27.2V423.1z"/>
						</g>
						<g>
							<path id="DejaVuSans-53_10_" d="M59.1,483.6h38.7v-8.3H68.1v-17.9c1.4,0.5,2.9,0.9,4.3,1.1c1.4,0.2,2.9,0.4,4.3,0.4
								c8.1,0,14.6-2.2,19.3-6.7c4.8-4.5,7.1-10.5,7.1-18.1c0-7.8-2.4-13.9-7.3-18.3c-4.9-4.3-11.8-6.5-20.7-6.5
								c-3.1,0-6.2,0.3-9.4,0.8c-3.2,0.5-6.4,1.3-9.8,2.3v9.9c2.9-1.6,6-2.8,9.1-3.6s6.4-1.2,9.9-1.2c5.6,0,10.1,1.5,13.4,4.4
								c3.3,3,4.9,7,4.9,12.1c0,5.1-1.6,9.1-4.9,12c-3.3,3-7.7,4.5-13.4,4.5c-2.6,0-5.3-0.3-7.9-0.9c-2.6-0.6-5.3-1.5-8-2.7V483.6z"
								/>
						</g>
						<g>
							<path id="DejaVuSans-48_25_" d="M143.7,477.1c-5.1,0-8.9-2.5-11.5-7.5c-2.6-5-3.8-12.5-3.8-22.5c0-10,1.3-17.5,3.8-22.5
								c2.6-5,6.4-7.5,11.5-7.5c5.1,0,8.9,2.5,11.5,7.5c2.6,5,3.8,12.5,3.8,22.5c0,10-1.3,17.5-3.8,22.5
								C152.7,474.6,148.8,477.1,143.7,477.1z M143.7,484.9c8.2,0,14.4-3.2,18.7-9.7c4.3-6.5,6.5-15.8,6.5-28.1
								c0-12.3-2.2-21.6-6.5-28.1c-4.3-6.5-10.6-9.7-18.7-9.7c-8.2,0-14.4,3.2-18.7,9.7c-4.3,6.5-6.5,15.8-6.5,28.1
								c0,12.3,2.2,21.7,6.5,28.1C129.3,481.7,135.5,484.9,143.7,484.9z"/>
						</g>
					</g>
				</g>
			</g>
			<g id="ytick_8">
				<g id="line2d_16">
					<g>
						<g>
							<path id="m332bf011ad_7_" stroke="#000000" stroke-width="0.8" stroke-linejoin="round" d="M52.9,32.5h-3.5"/>
						</g>
					</g>
				</g>
				<g id="text_17">
					<g transform="translate(28.334375 77.365128)scale(0.1 -0.1)">
						<g>
							<path id="DejaVuSans-48_26_" d="M-15.3,477.1c-5.1,0-8.9-2.5-11.5-7.5c-2.6-5-3.8-12.5-3.8-22.5c0-10,1.3-17.5,3.8-22.5
								c2.6-5,6.4-7.5,11.5-7.5c5.1,0,8.9,2.5,11.5,7.5c2.6,5,3.8,12.5,3.8,22.5c0,10-1.3,17.5-3.8,22.5
								C-6.4,474.6-10.2,477.1-15.3,477.1z M-15.3,484.9c8.2,0,14.4-3.2,18.7-9.7c4.3-6.5,6.5-15.8,6.5-28.1
								c0-12.3-2.2-21.6-6.5-28.1c-4.3-6.5-10.6-9.7-18.7-9.7c-8.2,0-14.4,3.2-18.7,9.7c-4.3,6.5-6.5,15.8-6.5,28.1
								c0,12.3,2.2,21.7,6.5,28.1C-29.7,481.7-23.5,484.9-15.3,484.9z"/>
						</g>
						<g>
							<path id="DejaVuSans-46_15_" d="M27.2,423.1h10.3v-12.4H27.2V423.1z"/>
						</g>
						<g>
							<path id="DejaVuSans-55_3_" d="M56.5,483.6h46.9v-4.2l-26.5-68.7H66.6l24.9,64.6h-35V483.6z"/>
						</g>
						<g>
							<path id="DejaVuSans-53_11_" d="M122.7,483.6h38.7v-8.3h-29.7v-17.9c1.4,0.5,2.9,0.9,4.3,1.1c1.4,0.2,2.9,0.4,4.3,0.4
								c8.1,0,14.6-2.2,19.3-6.7c4.8-4.5,7.1-10.5,7.1-18.1c0-7.8-2.4-13.9-7.3-18.3c-4.9-4.3-11.8-6.5-20.7-6.5
								c-3.1,0-6.2,0.3-9.4,0.8c-3.2,0.5-6.4,1.3-9.8,2.3v9.9c2.9-1.6,6-2.8,9.1-3.6c3.1-0.8,6.4-1.2,9.9-1.2
								c5.6,0,10.1,1.5,13.4,4.4c3.3,3,4.9,7,4.9,12.1c0,5.1-1.6,9.1-4.9,12c-3.3,3-7.7,4.5-13.4,4.5c-2.6,0-5.3-0.3-7.9-0.9
								c-2.6-0.6-5.3-1.5-8-2.7V483.6z"/>
						</g>
					</g>
				</g>
			</g>
			<g id="text_18">
				<g transform="translate(13.459062 183.252375)rotate(-90)scale(0.12 -0.12)">
					<g>
						<path id="DejaVuSans-119_1_" d="M346.5,93.9h9l11.2-42.7l11.2,42.7h10.6l11.2-42.7l11.2,42.7h9l-14.3-54.7H395l-11.8,44.8
							l-11.8-44.8h-10.6L346.5,93.9z"/>
					</g>
					<g>
						<path id="DejaVuSans-49_2_" d="M436.5,47.5h16.1v55.6L435,99.7v9l17.4,3.5h9.9V47.5h16.1v-8.3h-42V47.5z"/>
					</g>
				</g>
			</g>
		</g>
		<g id="patch_3">
			<path fill="none" stroke="#000000" stroke-width="0.8" stroke-linecap="square" d="M52.9,266.5V0.4"/>
		</g>
		<g id="patch_4">
			<path fill="none" stroke="#000000" stroke-width="0.8" stroke-linecap="square" d="M410,266.5V0.4"/>
		</g>
		<g id="patch_5">
			<path fill="none" stroke="#000000" stroke-width="0.8" stroke-linecap="square" d="M52.9,266.5H410"/>
		</g>
		<g id="patch_6">
			<path fill="none" stroke="#000000" stroke-width="0.8" stroke-linecap="square" d="M52.9,0.4H410"/>
		</g>
	</g>
</g>
</svg>
