<?xml version="1.0" encoding="utf-8"?>
<!-- Generator: Adobe Illustrator 20.1.0, SVG Export Plug-In . SVG Version: 6.00 Build 0)  -->
<svg version="1.1" id="Layer_1" xmlns="http://www.w3.org/2000/svg" xmlns:xlink="http://www.w3.org/1999/xlink" x="0px" y="0px"
	 viewBox="0 0 392 294.8" style="enable-background:new 0 0 392 294.8;" xml:space="preserve">
<style type="text/css">
	.st0{stroke:#000000;stroke-width:0.8;stroke-linejoin:round;}
	.st1{clip-path:url(#SVGID_2_);}
	.st2{fill:#1FBD6A;stroke:#1FBD6A;stroke-linejoin:round;}
	.st3{clip-path:url(#SVGID_4_);}
	.st4{fill:#C503B5;stroke:#C503B5;stroke-linejoin:round;}
	.st5{fill:none;stroke:#000000;stroke-width:0.8;stroke-linecap:square;}
	.st6{opacity:0.8;fill:#FFFFFF;stroke:#CCCCCC;enable-background:new    ;}
</style>
<g id="figure_1">
	<g id="axes_1">
		<g id="matplotlib.axis_1">
			<g id="xtick_1">
				<g id="line2d_1">
					<g>
						<g>
							<path id="mf66eff093c" class="st0" d="M46.5,266.5v3.5"/>
						</g>
					</g>
				</g>
				<g id="text_1">
					<g transform="translate(66.501748 322.182437)scale(0.1 -0.1)">
						<g>
							<path id="DejaVuSans-48" d="M-199.7,477.1c-5.1,0-8.9-2.5-11.5-7.5c-2.6-5-3.8-12.5-3.8-22.5c0-10,1.3-17.5,3.8-22.5
								c2.6-5,6.4-7.5,11.5-7.5c5.1,0,8.9,2.5,11.5,7.5c2.6,5,3.8,12.5,3.8,22.5c0,10-1.3,17.5-3.8,22.5
								C-190.8,474.6-194.6,477.1-199.7,477.1z M-199.7,484.9c8.2,0,14.4-3.2,18.7-9.7c4.3-6.5,6.5-15.8,6.5-28.1
								c0-12.3-2.2-21.6-6.5-28.1c-4.3-6.5-10.6-9.7-18.7-9.7c-8.2,0-14.4,3.2-18.7,9.7c-4.3,6.5-6.5,15.8-6.5,28.1
								c0,12.3,2.2,21.7,6.5,28.1C-214.1,481.7-207.9,484.9-199.7,484.9z"/>
						</g>
					</g>
				</g>
			</g>
			<g id="xtick_2">
				<g id="line2d_2">
					<g>
						<g>
							<path id="mf66eff093c_1_" class="st0" d="M106.9,266.5v3.5"/>
						</g>
					</g>
				</g>
				<g id="text_2">
					<g transform="translate(126.827888 322.182437)scale(0.1 -0.1)">
						<g>
							<path id="DejaVuSans-49" d="M-219.1,419h16.1v55.6l-17.5-3.5v9l17.4,3.5h9.9V419h16.1v-8.3h-42V419z"/>
						</g>
					</g>
				</g>
			</g>
			<g id="xtick_3">
				<g id="line2d_3">
					<g>
						<g>
							<path id="mf66eff093c_2_" class="st0" d="M167.2,266.5v3.5"/>
						</g>
					</g>
				</g>
				<g id="text_3">
					<g transform="translate(187.154028 322.182437)scale(0.1 -0.1)">
						<g>
							<path id="DejaVuSans-50" d="M-212.3,419h34.4v-8.3h-46.3v8.3c3.7,3.9,8.8,9.1,15.3,15.6c6.5,6.5,10.5,10.7,12.2,12.6
								c3.2,3.5,5.4,6.5,6.6,9c1.3,2.5,1.9,4.9,1.9,7.3c0,3.9-1.4,7-4.1,9.5c-2.7,2.4-6.3,3.7-10.6,3.7c-3.1,0-6.4-0.5-9.8-1.6
								c-3.4-1.1-7.1-2.7-11-4.9v10c4,1.6,7.7,2.8,11.1,3.6c3.5,0.8,6.6,1.2,9.5,1.2c7.6,0,13.6-1.9,18.1-5.7
								c4.5-3.8,6.7-8.8,6.7-15.1c0-3-0.6-5.8-1.7-8.5c-1.1-2.7-3.2-5.8-6.1-9.5c-0.8-0.9-3.4-3.7-7.8-8.2
								C-198.2,433.4-204.3,427.1-212.3,419z"/>
						</g>
					</g>
				</g>
			</g>
			<g id="xtick_4">
				<g id="line2d_4">
					<g>
						<g>
							<path id="mf66eff093c_3_" class="st0" d="M227.5,266.5v3.5"/>
						</g>
					</g>
				</g>
				<g id="text_4">
					<g transform="translate(247.480168 322.182437)scale(0.1 -0.1)">
						<g>
							<path id="DejaVuSans-51" d="M-190.9,450c4.7-1,8.4-3.1,11-6.3c2.7-3.2,4-7.1,4-11.8c0-7.2-2.5-12.8-7.4-16.7
								c-4.9-3.9-12-5.9-21.1-5.9c-3.1,0-6.2,0.3-9.4,0.9c-3.2,0.6-6.6,1.5-10,2.7v9.5c2.7-1.6,5.7-2.8,9-3.6
								c3.3-0.8,6.7-1.2,10.2-1.2c6.2,0,10.9,1.2,14.1,3.7s4.9,6,4.9,10.6c0,4.3-1.5,7.7-4.5,10.1c-3,2.4-7.2,3.6-12.6,3.6h-8.5v8.1
								h8.9c4.8,0,8.6,1,11.1,2.9s3.9,4.7,3.9,8.4c0,3.7-1.3,6.6-4,8.6c-2.6,2-6.4,3-11.4,3c-2.7,0-5.6-0.3-8.7-0.9
								c-3.1-0.6-6.5-1.5-10.2-2.7v8.8c3.8,1,7.3,1.8,10.5,2.3c3.3,0.5,6.4,0.8,9.3,0.8c7.5,0,13.4-1.7,17.8-5.1
								c4.4-3.4,6.5-8,6.5-13.8c0-4-1.2-7.5-3.5-10.2S-186.6,451.1-190.9,450z"/>
						</g>
					</g>
				</g>
			</g>
			<g id="xtick_5">
				<g id="line2d_5">
					<g>
						<g>
							<path id="mf66eff093c_4_" class="st0" d="M287.8,266.5v3.5"/>
						</g>
					</g>
				</g>
				<g id="text_5">
					<g transform="translate(307.806308 322.182437)scale(0.1 -0.1)">
						<g>
							<path id="DejaVuSans-52" d="M-193.7,475l-24.9-38.9h24.9V475z M-196.3,483.6h12.4v-47.5h10.4v-8.2h-10.4v-17.2h-9.8v17.2
								h-32.9v9.5L-196.3,483.6z"/>
						</g>
					</g>
				</g>
			</g>
			<g id="xtick_6">
				<g id="line2d_6">
					<g>
						<g>
							<path id="mf66eff093c_5_" class="st0" d="M348.2,266.5v3.5"/>
						</g>
					</g>
				</g>
				<g id="text_6">
					<g transform="translate(368.132449 322.182437)scale(0.1 -0.1)">
						<g>
							<path id="DejaVuSans-53" d="M-220.7,483.6h38.7v-8.3h-29.7v-17.9c1.4,0.5,2.9,0.9,4.3,1.1c1.4,0.2,2.9,0.4,4.3,0.4
								c8.1,0,14.6-2.2,19.3-6.7c4.8-4.5,7.1-10.5,7.1-18.1c0-7.8-2.4-13.9-7.3-18.3c-4.9-4.3-11.8-6.5-20.7-6.5
								c-3.1,0-6.2,0.3-9.4,0.8c-3.2,0.5-6.4,1.3-9.8,2.3v9.9c2.9-1.6,6-2.8,9.1-3.6s6.4-1.2,9.9-1.2c5.6,0,10.1,1.5,13.4,4.4
								c3.3,3,4.9,7,4.9,12.1c0,5.1-1.6,9.1-4.9,12c-3.3,3-7.7,4.5-13.4,4.5c-2.6,0-5.3-0.3-7.9-0.9c-2.6-0.6-5.3-1.5-8-2.7V483.6z"
								/>
						</g>
					</g>
				</g>
			</g>
			<g id="text_7">
				<g transform="translate(233.200625 335.860562)scale(0.1 -0.1)">
					<g>
						<path id="DejaVuSans-120" d="M-176.6,465.4l-19.8-26.6l20.8-28.1h-10.6l-15.9,21.5l-15.9-21.5h-10.6l21.3,28.6l-19.4,26.1
							h10.6l14.5-19.5l14.5,19.5H-176.6z"/>
					</g>
				</g>
			</g>
		</g>
		<g id="matplotlib.axis_2">
			<g id="ytick_1">
				<g id="line2d_7">
					<g>
						<g>
							<path id="m62ec72cee8" class="st0" d="M34.5,262.3H31"/>
						</g>
					</g>
				</g>
				<g id="text_8">
					<g transform="translate(34.696875 307.198934)scale(0.1 -0.1)">
						<g>
							<path id="DejaVuSans-49_1_" d="M-219.1,419h16.1v55.6l-17.5-3.5v9l17.4,3.5h9.9V419h16.1v-8.3h-42V419z"/>
						</g>
						<g>
							<path id="DejaVuSans-46" d="M-157.2,423.1h10.3v-12.4h-10.3V423.1z"/>
						</g>
						<g>
							<path id="DejaVuSans-48_1_" d="M-104.3,477.1c-5.1,0-8.9-2.5-11.5-7.5c-2.6-5-3.8-12.5-3.8-22.5c0-10,1.3-17.5,3.8-22.5
								c2.6-5,6.4-7.5,11.5-7.5c5.1,0,8.9,2.5,11.5,7.5c2.6,5,3.8,12.5,3.8,22.5c0,10-1.3,17.5-3.8,22.5
								C-95.3,474.6-99.2,477.1-104.3,477.1z M-104.3,484.9c8.2,0,14.4-3.2,18.7-9.7c4.3-6.5,6.5-15.8,6.5-28.1
								c0-12.3-2.2-21.6-6.5-28.1c-4.3-6.5-10.6-9.7-18.7-9.7c-8.2,0-14.4,3.2-18.7,9.7c-4.3,6.5-6.5,15.8-6.5,28.1
								c0,12.3,2.2,21.7,6.5,28.1C-118.7,481.7-112.5,484.9-104.3,484.9z"/>
						</g>
					</g>
				</g>
			</g>
			<g id="ytick_2">
				<g id="line2d_8">
					<g>
						<g>
							<path id="m62ec72cee8_1_" class="st0" d="M34.5,227.6H31"/>
						</g>
					</g>
				</g>
				<g id="text_9">
					<g transform="translate(34.696875 272.427215)scale(0.1 -0.1)">
						<g>
							<path id="DejaVuSans-49_2_" d="M-219.1,419h16.1v55.6l-17.5-3.5v9l17.4,3.5h9.9V419h16.1v-8.3h-42V419z"/>
						</g>
						<g>
							<path id="DejaVuSans-46_1_" d="M-157.2,423.1h10.3v-12.4h-10.3V423.1z"/>
						</g>
						<g>
							<path id="DejaVuSans-53_1_" d="M-125.3,483.6h38.7v-8.3h-29.7v-17.9c1.4,0.5,2.9,0.9,4.3,1.1c1.4,0.2,2.9,0.4,4.3,0.4
								c8.1,0,14.6-2.2,19.3-6.7c4.8-4.5,7.1-10.5,7.1-18.1c0-7.8-2.4-13.9-7.3-18.3c-4.9-4.3-11.8-6.5-20.7-6.5
								c-3.1,0-6.2,0.3-9.4,0.8c-3.2,0.5-6.4,1.3-9.8,2.3v9.9c2.9-1.6,6-2.8,9.1-3.6s6.4-1.2,9.9-1.2c5.6,0,10.1,1.5,13.4,4.4
								c3.3,3,4.9,7,4.9,12.1c0,5.1-1.6,9.1-4.9,12c-3.3,3-7.7,4.5-13.4,4.5c-2.6,0-5.3-0.3-7.9-0.9c-2.6-0.6-5.3-1.5-8-2.7V483.6z"
								/>
						</g>
					</g>
				</g>
			</g>
			<g id="ytick_3">
				<g id="line2d_9">
					<g>
						<g>
							<path id="m62ec72cee8_2_" class="st0" d="M34.5,192.8H31"/>
						</g>
					</g>
				</g>
				<g id="text_10">
					<g transform="translate(34.696875 237.655496)scale(0.1 -0.1)">
						<g>
							<path id="DejaVuSans-50_1_" d="M-212.3,419h34.4v-8.3h-46.3v8.3c3.7,3.9,8.8,9.1,15.3,15.6c6.5,6.5,10.5,10.7,12.2,12.6
								c3.2,3.5,5.4,6.5,6.6,9c1.3,2.5,1.9,4.9,1.9,7.3c0,3.9-1.4,7-4.1,9.5c-2.7,2.4-6.3,3.7-10.6,3.7c-3.1,0-6.4-0.5-9.8-1.6
								c-3.4-1.1-7.1-2.7-11-4.9v10c4,1.6,7.7,2.8,11.1,3.6c3.5,0.8,6.6,1.2,9.5,1.2c7.6,0,13.6-1.9,18.1-5.7
								c4.5-3.8,6.7-8.8,6.7-15.1c0-3-0.6-5.8-1.7-8.5c-1.1-2.7-3.2-5.8-6.1-9.5c-0.8-0.9-3.4-3.7-7.8-8.2
								C-198.2,433.4-204.3,427.1-212.3,419z"/>
						</g>
						<g>
							<path id="DejaVuSans-46_2_" d="M-157.2,423.1h10.3v-12.4h-10.3V423.1z"/>
						</g>
						<g>
							<path id="DejaVuSans-48_2_" d="M-104.3,477.1c-5.1,0-8.9-2.5-11.5-7.5c-2.6-5-3.8-12.5-3.8-22.5c0-10,1.3-17.5,3.8-22.5
								c2.6-5,6.4-7.5,11.5-7.5c5.1,0,8.9,2.5,11.5,7.5c2.6,5,3.8,12.5,3.8,22.5c0,10-1.3,17.5-3.8,22.5
								C-95.3,474.6-99.2,477.1-104.3,477.1z M-104.3,484.9c8.2,0,14.4-3.2,18.7-9.7c4.3-6.5,6.5-15.8,6.5-28.1
								c0-12.3-2.2-21.6-6.5-28.1c-4.3-6.5-10.6-9.7-18.7-9.7c-8.2,0-14.4,3.2-18.7,9.7c-4.3,6.5-6.5,15.8-6.5,28.1
								c0,12.3,2.2,21.7,6.5,28.1C-118.7,481.7-112.5,484.9-104.3,484.9z"/>
						</g>
					</g>
				</g>
			</g>
			<g id="ytick_4">
				<g id="line2d_10">
					<g>
						<g>
							<path id="m62ec72cee8_3_" class="st0" d="M34.5,158H31"/>
						</g>
					</g>
				</g>
				<g id="text_11">
					<g transform="translate(34.696875 202.883777)scale(0.1 -0.1)">
						<g>
							<path id="DejaVuSans-50_2_" d="M-212.3,419h34.4v-8.3h-46.3v8.3c3.7,3.9,8.8,9.1,15.3,15.6c6.5,6.5,10.5,10.7,12.2,12.6
								c3.2,3.5,5.4,6.5,6.6,9c1.3,2.5,1.9,4.9,1.9,7.3c0,3.9-1.4,7-4.1,9.5c-2.7,2.4-6.3,3.7-10.6,3.7c-3.1,0-6.4-0.5-9.8-1.6
								c-3.4-1.1-7.1-2.7-11-4.9v10c4,1.6,7.7,2.8,11.1,3.6c3.5,0.8,6.6,1.2,9.5,1.2c7.6,0,13.6-1.9,18.1-5.7
								c4.5-3.8,6.7-8.8,6.7-15.1c0-3-0.6-5.8-1.7-8.5c-1.1-2.7-3.2-5.8-6.1-9.5c-0.8-0.9-3.4-3.7-7.8-8.2
								C-198.2,433.4-204.3,427.1-212.3,419z"/>
						</g>
						<g>
							<path id="DejaVuSans-46_3_" d="M-157.2,423.1h10.3v-12.4h-10.3V423.1z"/>
						</g>
						<g>
							<path id="DejaVuSans-53_2_" d="M-125.3,483.6h38.7v-8.3h-29.7v-17.9c1.4,0.5,2.9,0.9,4.3,1.1c1.4,0.2,2.9,0.4,4.3,0.4
								c8.1,0,14.6-2.2,19.3-6.7c4.8-4.5,7.1-10.5,7.1-18.1c0-7.8-2.4-13.9-7.3-18.3c-4.9-4.3-11.8-6.5-20.7-6.5
								c-3.1,0-6.2,0.3-9.4,0.8c-3.2,0.5-6.4,1.3-9.8,2.3v9.9c2.9-1.6,6-2.8,9.1-3.6s6.4-1.2,9.9-1.2c5.6,0,10.1,1.5,13.4,4.4
								c3.3,3,4.9,7,4.9,12.1c0,5.1-1.6,9.1-4.9,12c-3.3,3-7.7,4.5-13.4,4.5c-2.6,0-5.3-0.3-7.9-0.9c-2.6-0.6-5.3-1.5-8-2.7V483.6z"
								/>
						</g>
					</g>
				</g>
			</g>
			<g id="ytick_5">
				<g id="line2d_11">
					<g>
						<g>
							<path id="m62ec72cee8_4_" class="st0" d="M34.5,123.2H31"/>
						</g>
					</g>
				</g>
				<g id="text_12">
					<g transform="translate(34.696875 168.112057)scale(0.1 -0.1)">
						<g>
							<path id="DejaVuSans-51_1_" d="M-190.9,450c4.7-1,8.4-3.1,11-6.3c2.7-3.2,4-7.1,4-11.8c0-7.2-2.5-12.8-7.4-16.7
								c-4.9-3.9-12-5.9-21.1-5.9c-3.1,0-6.2,0.3-9.4,0.9c-3.2,0.6-6.6,1.5-10,2.7v9.5c2.7-1.6,5.7-2.8,9-3.6
								c3.3-0.8,6.7-1.2,10.2-1.2c6.2,0,10.9,1.2,14.1,3.7s4.9,6,4.9,10.6c0,4.3-1.5,7.7-4.5,10.1c-3,2.4-7.2,3.6-12.6,3.6h-8.5v8.1
								h8.9c4.8,0,8.6,1,11.1,2.9s3.9,4.7,3.9,8.4c0,3.7-1.3,6.6-4,8.6c-2.6,2-6.4,3-11.4,3c-2.7,0-5.6-0.3-8.7-0.9
								c-3.1-0.6-6.5-1.5-10.2-2.7v8.8c3.8,1,7.3,1.8,10.5,2.3c3.3,0.5,6.4,0.8,9.3,0.8c7.5,0,13.4-1.7,17.8-5.1
								c4.4-3.4,6.5-8,6.5-13.8c0-4-1.2-7.5-3.5-10.2S-186.6,451.1-190.9,450z"/>
						</g>
						<g>
							<path id="DejaVuSans-46_4_" d="M-157.2,423.1h10.3v-12.4h-10.3V423.1z"/>
						</g>
						<g>
							<path id="DejaVuSans-48_3_" d="M-104.3,477.1c-5.1,0-8.9-2.5-11.5-7.5c-2.6-5-3.8-12.5-3.8-22.5c0-10,1.3-17.5,3.8-22.5
								c2.6-5,6.4-7.5,11.5-7.5c5.1,0,8.9,2.5,11.5,7.5c2.6,5,3.8,12.5,3.8,22.5c0,10-1.3,17.5-3.8,22.5
								C-95.3,474.6-99.2,477.1-104.3,477.1z M-104.3,484.9c8.2,0,14.4-3.2,18.7-9.7c4.3-6.5,6.5-15.8,6.5-28.1
								c0-12.3-2.2-21.6-6.5-28.1c-4.3-6.5-10.6-9.7-18.7-9.7c-8.2,0-14.4,3.2-18.7,9.7c-4.3,6.5-6.5,15.8-6.5,28.1
								c0,12.3,2.2,21.7,6.5,28.1C-118.7,481.7-112.5,484.9-104.3,484.9z"/>
						</g>
					</g>
				</g>
			</g>
			<g id="ytick_6">
				<g id="line2d_12">
					<g>
						<g>
							<path id="m62ec72cee8_5_" class="st0" d="M34.5,88.5H31"/>
						</g>
					</g>
				</g>
				<g id="text_13">
					<g transform="translate(34.696875 133.340338)scale(0.1 -0.1)">
						<g>
							<path id="DejaVuSans-51_2_" d="M-190.9,450c4.7-1,8.4-3.1,11-6.3c2.7-3.2,4-7.1,4-11.8c0-7.2-2.5-12.8-7.4-16.7
								c-4.9-3.9-12-5.9-21.1-5.9c-3.1,0-6.2,0.3-9.4,0.9c-3.2,0.6-6.6,1.5-10,2.7v9.5c2.7-1.6,5.7-2.8,9-3.6
								c3.3-0.8,6.7-1.2,10.2-1.2c6.2,0,10.9,1.2,14.1,3.7s4.9,6,4.9,10.6c0,4.3-1.5,7.7-4.5,10.1c-3,2.4-7.2,3.6-12.6,3.6h-8.5v8.1
								h8.9c4.8,0,8.6,1,11.1,2.9s3.9,4.7,3.9,8.4c0,3.7-1.3,6.6-4,8.6c-2.6,2-6.4,3-11.4,3c-2.7,0-5.6-0.3-8.7-0.9
								c-3.1-0.6-6.5-1.5-10.2-2.7v8.8c3.8,1,7.3,1.8,10.5,2.3c3.3,0.5,6.4,0.8,9.3,0.8c7.5,0,13.4-1.7,17.8-5.1
								c4.4-3.4,6.5-8,6.5-13.8c0-4-1.2-7.5-3.5-10.2S-186.6,451.1-190.9,450z"/>
						</g>
						<g>
							<path id="DejaVuSans-46_5_" d="M-157.2,423.1h10.3v-12.4h-10.3V423.1z"/>
						</g>
						<g>
							<path id="DejaVuSans-53_3_" d="M-125.3,483.6h38.7v-8.3h-29.7v-17.9c1.4,0.5,2.9,0.9,4.3,1.1c1.4,0.2,2.9,0.4,4.3,0.4
								c8.1,0,14.6-2.2,19.3-6.7c4.8-4.5,7.1-10.5,7.1-18.1c0-7.8-2.4-13.9-7.3-18.3c-4.9-4.3-11.8-6.5-20.7-6.5
								c-3.1,0-6.2,0.3-9.4,0.8c-3.2,0.5-6.4,1.3-9.8,2.3v9.9c2.9-1.6,6-2.8,9.1-3.6s6.4-1.2,9.9-1.2c5.6,0,10.1,1.5,13.4,4.4
								c3.3,3,4.9,7,4.9,12.1c0,5.1-1.6,9.1-4.9,12c-3.3,3-7.7,4.5-13.4,4.5c-2.6,0-5.3-0.3-7.9-0.9c-2.6-0.6-5.3-1.5-8-2.7V483.6z"
								/>
						</g>
					</g>
				</g>
			</g>
			<g id="ytick_7">
				<g id="line2d_13">
					<g>
						<g>
							<path id="m62ec72cee8_6_" class="st0" d="M34.5,53.7H31"/>
						</g>
					</g>
				</g>
				<g id="text_14">
					<g transform="translate(34.696875 98.568619)scale(0.1 -0.1)">
						<g>
							<path id="DejaVuSans-52_1_" d="M-193.7,475l-24.9-38.9h24.9V475z M-196.3,483.6h12.4v-47.5h10.4v-8.2h-10.4v-17.2h-9.8v17.2
								h-32.9v9.5L-196.3,483.6z"/>
						</g>
						<g>
							<path id="DejaVuSans-46_6_" d="M-157.2,423.1h10.3v-12.4h-10.3V423.1z"/>
						</g>
						<g>
							<path id="DejaVuSans-48_4_" d="M-104.3,477.1c-5.1,0-8.9-2.5-11.5-7.5c-2.6-5-3.8-12.5-3.8-22.5c0-10,1.3-17.5,3.8-22.5
								c2.6-5,6.4-7.5,11.5-7.5c5.1,0,8.9,2.5,11.5,7.5c2.6,5,3.8,12.5,3.8,22.5c0,10-1.3,17.5-3.8,22.5
								C-95.3,474.6-99.2,477.1-104.3,477.1z M-104.3,484.9c8.2,0,14.4-3.2,18.7-9.7c4.3-6.5,6.5-15.8,6.5-28.1
								c0-12.3-2.2-21.6-6.5-28.1c-4.3-6.5-10.6-9.7-18.7-9.7c-8.2,0-14.4,3.2-18.7,9.7c-4.3,6.5-6.5,15.8-6.5,28.1
								c0,12.3,2.2,21.7,6.5,28.1C-118.7,481.7-112.5,484.9-104.3,484.9z"/>
						</g>
					</g>
				</g>
			</g>
			<g id="ytick_8">
				<g id="line2d_14">
					<g>
						<g>
							<path id="m62ec72cee8_7_" class="st0" d="M34.5,18.9H31"/>
						</g>
					</g>
				</g>
				<g id="text_15">
					<g transform="translate(34.696875 63.7969)scale(0.1 -0.1)">
						<g>
							<path id="DejaVuSans-52_2_" d="M-193.7,475l-24.9-38.9h24.9V475z M-196.3,483.6h12.4v-47.5h10.4v-8.2h-10.4v-17.2h-9.8v17.2
								h-32.9v9.5L-196.3,483.6z"/>
						</g>
						<g>
							<path id="DejaVuSans-46_7_" d="M-157.2,423.1h10.3v-12.4h-10.3V423.1z"/>
						</g>
						<g>
							<path id="DejaVuSans-53_4_" d="M-125.3,483.6h38.7v-8.3h-29.7v-17.9c1.4,0.5,2.9,0.9,4.3,1.1c1.4,0.2,2.9,0.4,4.3,0.4
								c8.1,0,14.6-2.2,19.3-6.7c4.8-4.5,7.1-10.5,7.1-18.1c0-7.8-2.4-13.9-7.3-18.3c-4.9-4.3-11.8-6.5-20.7-6.5
								c-3.1,0-6.2,0.3-9.4,0.8c-3.2,0.5-6.4,1.3-9.8,2.3v9.9c2.9-1.6,6-2.8,9.1-3.6s6.4-1.2,9.9-1.2c5.6,0,10.1,1.5,13.4,4.4
								c3.3,3,4.9,7,4.9,12.1c0,5.1-1.6,9.1-4.9,12c-3.3,3-7.7,4.5-13.4,4.5c-2.6,0-5.3-0.3-7.9-0.9c-2.6-0.6-5.3-1.5-8-2.7V483.6z"
								/>
						</g>
					</g>
				</g>
			</g>
			<g id="text_16">
				<g transform="translate(28.617188 177.487375)rotate(-90)scale(0.1 -0.1)">
					<g>
						<path id="DejaVuSans-121" d="M442.9,226.4c-2.5-6.5-5-10.8-7.4-12.7c-2.4-2-5.6-3-9.7-3h-7.2v7.5h5.3c2.5,0,4.4,0.6,5.8,1.8
							c1.4,1.2,2.9,3.9,4.5,8.3l1.6,4.1l-22.1,53.8h9.5l17.1-42.8l17.1,42.8h9.5L442.9,226.4z"/>
					</g>
				</g>
			</g>
		</g>
		<g id="line2d_15">
			<g>
				<defs>
					<rect id="SVGID_1_" x="34.5" y="0.4" width="357.1" height="266.1"/>
				</defs>
				<clipPath id="SVGID_2_">
					<use xlink:href="#SVGID_1_"  style="overflow:visible;"/>
				</clipPath>
				<g class="st1">
					<g>
						<path id="mf622be21c2" class="st2" d="M135.2,257.4c0.8,0,1.6-0.3,2.1-0.9c0.6-0.6,0.9-1.3,0.9-2.1s-0.3-1.6-0.9-2.1
							c-0.6-0.6-1.3-0.9-2.1-0.9s-1.6,0.3-2.1,0.9c-0.6,0.6-0.9,1.3-0.9,2.1s0.3,1.6,0.9,2.1C133.7,257.1,134.4,257.4,135.2,257.4z"
							/>
					</g>
					<g>
						<path id="mf622be21c2_1_" class="st2" d="M50.7,199.5c0.8,0,1.6-0.3,2.1-0.9c0.6-0.6,0.9-1.3,0.9-2.1s-0.3-1.6-0.9-2.1
							c-0.6-0.6-1.3-0.9-2.1-0.9s-1.6,0.3-2.1,0.9c-0.6,0.6-0.9,1.3-0.9,2.1s0.3,1.6,0.9,2.1C49.1,199.2,49.9,199.5,50.7,199.5z"/>
					</g>
					<g>
						<path id="mf622be21c2_2_" class="st2" d="M97.5,249.9c0.8,0,1.6-0.3,2.1-0.9c0.6-0.6,0.9-1.3,0.9-2.1s-0.3-1.6-0.9-2.1
							c-0.6-0.6-1.3-0.9-2.1-0.9s-1.6,0.3-2.1,0.9c-0.6,0.6-0.9,1.3-0.9,2.1s0.3,1.6,0.9,2.1C95.9,249.6,96.7,249.9,97.5,249.9z"/>
					</g>
					<g>
						<path id="mf622be21c2_3_" class="st2" d="M104.3,235.2c0.8,0,1.6-0.3,2.1-0.9c0.6-0.6,0.9-1.3,0.9-2.1s-0.3-1.6-0.9-2.1
							c-0.6-0.6-1.3-0.9-2.1-0.9s-1.6,0.3-2.1,0.9c-0.6,0.6-0.9,1.3-0.9,2.1s0.3,1.6,0.9,2.1C102.8,234.9,103.5,235.2,104.3,235.2z"
							/>
					</g>
					<g>
						<path id="mf622be21c2_4_" class="st2" d="M116.8,180.2c0.8,0,1.6-0.3,2.1-0.9c0.6-0.6,0.9-1.3,0.9-2.1s-0.3-1.6-0.9-2.1
							c-0.6-0.6-1.3-0.9-2.1-0.9s-1.6,0.3-2.1,0.9c-0.6,0.6-0.9,1.3-0.9,2.1s0.3,1.6,0.9,2.1C115.2,179.9,116,180.2,116.8,180.2z"/>
					</g>
					<g>
						<path id="mf622be21c2_5_" class="st2" d="M101.2,252.9c0.8,0,1.6-0.3,2.1-0.9c0.6-0.6,0.9-1.3,0.9-2.1s-0.3-1.6-0.9-2.1
							c-0.6-0.6-1.3-0.9-2.1-0.9s-1.6,0.3-2.1,0.9c-0.6,0.6-0.9,1.3-0.9,2.1s0.3,1.6,0.9,2.1C99.7,252.6,100.5,252.9,101.2,252.9z"
							/>
					</g>
					<g>
						<path id="mf622be21c2_6_" class="st2" d="M68.4,141.9c0.8,0,1.6-0.3,2.1-0.9c0.6-0.6,0.9-1.3,0.9-2.1s-0.3-1.6-0.9-2.1
							c-0.6-0.6-1.3-0.9-2.1-0.9s-1.6,0.3-2.1,0.9c-0.6,0.6-0.9,1.3-0.9,2.1s0.3,1.6,0.9,2.1C66.9,141.6,67.6,141.9,68.4,141.9z"/>
					</g>
					<g>
						<path id="mf622be21c2_7_" class="st2" d="M61.8,225.4c0.8,0,1.6-0.3,2.1-0.9c0.6-0.6,0.9-1.3,0.9-2.1s-0.3-1.6-0.9-2.1
							c-0.6-0.6-1.3-0.9-2.1-0.9s-1.6,0.3-2.1,0.9c-0.6,0.6-0.9,1.3-0.9,2.1s0.3,1.6,0.9,2.1C60.3,225.1,61,225.4,61.8,225.4z"/>
					</g>
					<g>
						<path id="mf622be21c2_8_" class="st2" d="M98.6,126.9c0.8,0,1.6-0.3,2.1-0.9c0.6-0.6,0.9-1.3,0.9-2.1s-0.3-1.6-0.9-2.1
							c-0.6-0.6-1.3-0.9-2.1-0.9s-1.6,0.3-2.1,0.9c-0.6,0.6-0.9,1.3-0.9,2.1s0.3,1.6,0.9,2.1C97,126.6,97.8,126.9,98.6,126.9z"/>
					</g>
					<g>
						<path id="mf622be21c2_9_" class="st2" d="M186.2,15.5c0.8,0,1.6-0.3,2.1-0.9c0.6-0.6,0.9-1.3,0.9-2.1c0-0.8-0.3-1.6-0.9-2.1
							c-0.6-0.6-1.3-0.9-2.1-0.9s-1.6,0.3-2.1,0.9c-0.6,0.6-0.9,1.3-0.9,2.1c0,0.8,0.3,1.6,0.9,2.1
							C184.6,15.2,185.4,15.5,186.2,15.5z"/>
					</g>
				</g>
			</g>
		</g>
		<g id="line2d_16">
			<g>
				<defs>
					<rect id="SVGID_3_" x="34.5" y="0.4" width="357.1" height="266.1"/>
				</defs>
				<clipPath id="SVGID_4_">
					<use xlink:href="#SVGID_3_"  style="overflow:visible;"/>
				</clipPath>
				<g class="st3">
					<g>
						<path id="m499e79f135" class="st4" d="M308.5,227c0.8,0,1.6-0.3,2.1-0.9c0.6-0.6,0.9-1.3,0.9-2.1s-0.3-1.6-0.9-2.1
							c-0.6-0.6-1.3-0.9-2.1-0.9s-1.6,0.3-2.1,0.9c-0.6,0.6-0.9,1.3-0.9,2.1s0.3,1.6,0.9,2.1C307,226.6,307.7,227,308.5,227z"/>
					</g>
					<g>
						<path id="m499e79f135_1_" class="st4" d="M261.1,128.2c0.8,0,1.6-0.3,2.1-0.9c0.6-0.6,0.9-1.3,0.9-2.1s-0.3-1.6-0.9-2.1
							c-0.6-0.6-1.3-0.9-2.1-0.9s-1.6,0.3-2.1,0.9c-0.6,0.6-0.9,1.3-0.9,2.1s0.3,1.6,0.9,2.1C259.5,127.9,260.3,128.2,261.1,128.2z"
							/>
					</g>
					<g>
						<path id="m499e79f135_2_" class="st4" d="M186.7,162.9c0.8,0,1.6-0.3,2.1-0.9c0.6-0.6,0.9-1.3,0.9-2.1s-0.3-1.6-0.9-2.1
							c-0.6-0.6-1.3-0.9-2.1-0.9s-1.6,0.3-2.1,0.9c-0.6,0.6-0.9,1.3-0.9,2.1s0.3,1.6,0.9,2.1C185.1,162.6,185.9,162.9,186.7,162.9z"
							/>
					</g>
					<g>
						<path id="m499e79f135_3_" class="st4" d="M228,245.7c0.8,0,1.6-0.3,2.1-0.9c0.6-0.6,0.9-1.3,0.9-2.1s-0.3-1.6-0.9-2.1
							c-0.6-0.6-1.3-0.9-2.1-0.9s-1.6,0.3-2.1,0.9c-0.6,0.6-0.9,1.3-0.9,2.1s0.3,1.6,0.9,2.1C226.4,245.4,227.2,245.7,228,245.7z"/>
					</g>
					<g>
						<path id="m499e79f135_4_" class="st4" d="M158.1,17.7c0.8,0,1.6-0.3,2.1-0.9s0.9-1.3,0.9-2.1c0-0.8-0.3-1.6-0.9-2.1
							c-0.6-0.6-1.3-0.9-2.1-0.9s-1.6,0.3-2.1,0.9c-0.6,0.6-0.9,1.3-0.9,2.1c0,0.8,0.3,1.6,0.9,2.1S157.3,17.7,158.1,17.7z"/>
					</g>
					<g>
						<path id="m499e79f135_5_" class="st4" d="M202.3,127.9c0.8,0,1.6-0.3,2.1-0.9c0.6-0.6,0.9-1.3,0.9-2.1s-0.3-1.6-0.9-2.1
							c-0.6-0.6-1.3-0.9-2.1-0.9s-1.6,0.3-2.1,0.9c-0.6,0.6-0.9,1.3-0.9,2.1s0.3,1.6,0.9,2.1C200.8,127.6,201.5,127.9,202.3,127.9z"
							/>
					</g>
					<g>
						<path id="m499e79f135_6_" class="st4" d="M233.9,81.4c0.8,0,1.6-0.3,2.1-0.9c0.6-0.6,0.9-1.3,0.9-2.1s-0.3-1.6-0.9-2.1
							c-0.6-0.6-1.3-0.9-2.1-0.9s-1.6,0.3-2.1,0.9c-0.6,0.6-0.9,1.3-0.9,2.1s0.3,1.6,0.9,2.1C232.4,81,233.1,81.4,233.9,81.4z"/>
					</g>
					<g>
						<path id="m499e79f135_7_" class="st4" d="M219,36.1c0.8,0,1.6-0.3,2.1-0.9s0.9-1.3,0.9-2.1c0-0.8-0.3-1.6-0.9-2.1
							c-0.6-0.6-1.3-0.9-2.1-0.9s-1.6,0.3-2.1,0.9c-0.6,0.6-0.9,1.3-0.9,2.1c0,0.8,0.3,1.6,0.9,2.1S218.2,36.1,219,36.1z"/>
					</g>
					<g>
						<path id="m499e79f135_8_" class="st4" d="M375.3,95.6c0.8,0,1.6-0.3,2.1-0.9c0.6-0.6,0.9-1.3,0.9-2.1s-0.3-1.6-0.9-2.1
							c-0.6-0.6-1.3-0.9-2.1-0.9s-1.6,0.3-2.1,0.9c-0.6,0.6-0.9,1.3-0.9,2.1s0.3,1.6,0.9,2.1C373.8,95.3,374.5,95.6,375.3,95.6z"/>
					</g>
					<g>
						<path id="m499e79f135_9_" class="st4" d="M254.7,222.6c0.8,0,1.6-0.3,2.1-0.9c0.6-0.6,0.9-1.3,0.9-2.1s-0.3-1.6-0.9-2.1
							c-0.6-0.6-1.3-0.9-2.1-0.9s-1.6,0.3-2.1,0.9c-0.6,0.6-0.9,1.3-0.9,2.1s0.3,1.6,0.9,2.1C253.1,222.2,253.9,222.6,254.7,222.6z"
							/>
					</g>
				</g>
			</g>
		</g>
		<g id="patch_3">
			<path class="st5" d="M34.5,266.5V0.4"/>
		</g>
		<g id="patch_4">
			<path class="st5" d="M391.6,266.5V0.4"/>
		</g>
		<g id="patch_5">
			<path class="st5" d="M34.5,266.5h357.1"/>
		</g>
		<g id="patch_6">
			<path class="st5" d="M34.5,0.4h357.1"/>
		</g>
		<g id="legend_1">
			<g id="patch_7">
				<path class="st6" d="M317.7,37.8h66.9c1.3,0,2-0.7,2-2V7.4c0-1.3-0.7-2-2-2h-66.9c-1.3,0-2,0.7-2,2v28.4
					C315.7,37.1,316.4,37.8,317.7,37.8z"/>
			</g>
			<g id="line2d_17">
			</g>
			<g id="line2d_18">
				<g>
					<g>
						<path id="mf622be21c2_10_" class="st2" d="M329.7,16.5c0.8,0,1.6-0.3,2.1-0.9c0.6-0.6,0.9-1.3,0.9-2.1c0-0.8-0.3-1.6-0.9-2.1
							c-0.6-0.6-1.3-0.9-2.1-0.9s-1.6,0.3-2.1,0.9c-0.6,0.6-0.9,1.3-0.9,2.1c0,0.8,0.3,1.6,0.9,2.1
							C328.2,16.2,328.9,16.5,329.7,16.5z"/>
					</g>
				</g>
			</g>
			<g id="text_17">
				<g transform="translate(370.8575 58.070437)scale(0.1 -0.1)">
					<g>
						<path id="DejaVuSans-99" d="M-182.7,463.3v-8.4c-2.5,1.4-5.1,2.5-7.6,3.2c-2.6,0.7-5.1,1-7.7,1c-5.8,0-10.4-1.8-13.6-5.5
							c-3.2-3.7-4.8-8.9-4.8-15.5s1.6-11.9,4.8-15.6c3.2-3.7,7.8-5.5,13.6-5.5c2.6,0,5.2,0.3,7.7,1c2.6,0.7,5.1,1.8,7.6,3.2v-8.3
							c-2.5-1.2-5.1-2-7.8-2.6c-2.7-0.6-5.5-0.9-8.6-0.9c-8.2,0-14.8,2.6-19.6,7.8c-4.8,5.2-7.3,12.2-7.3,21c0,8.9,2.4,15.9,7.3,21
							c4.9,5.1,11.6,7.7,20.2,7.7c2.8,0,5.5-0.3,8.1-0.9C-187.7,465.3-185.2,464.4-182.7,463.3z"/>
					</g>
					<g>
						<path id="DejaVuSans-108" d="M-167.1,486.7h9v-76h-9V486.7z"/>
					</g>
					<g>
						<path id="DejaVuSans-97" d="M-114.4,438.2c-7.3,0-12.3-0.8-15.1-2.5c-2.8-1.7-4.2-4.5-4.2-8.5c0-3.2,1.1-5.7,3.2-7.6
							c2.1-1.9,5-2.8,8.6-2.8c5,0,9,1.8,12,5.3c3,3.5,4.5,8.2,4.5,14.1v2H-114.4z M-96.5,441.9v-31.2h-9v8.3
							c-2.1-3.3-4.6-5.8-7.7-7.3s-6.8-2.4-11.2-2.4c-5.6,0-10,1.6-13.4,4.7c-3.3,3.1-5,7.4-5,12.6c0,6.1,2.1,10.8,6.2,13.9
							c4.1,3.1,10.3,4.7,18.4,4.7h12.6v0.9c0,4.1-1.4,7.3-4.1,9.6s-6.5,3.4-11.5,3.4c-3.1,0-6.2-0.4-9.1-1.1c-3-0.8-5.8-1.9-8.5-3.4
							v8.3c3.3,1.3,6.5,2.2,9.6,2.8c3.1,0.6,6.1,1,9,1c7.9,0,13.8-2.1,17.7-6.2C-98.5,456.5-96.5,450.3-96.5,441.9z"/>
					</g>
					<g>
						<path id="DejaVuSans-115" d="M-43.2,463.8v-8.5c-2.5,1.3-5.2,2.3-7.9,2.9c-2.7,0.7-5.6,1-8.5,1c-4.5,0-7.8-0.7-10-2
							s-3.3-3.4-3.3-6.2c0-2.1,0.8-3.7,2.4-4.9s4.8-2.3,9.6-3.4l3.1-0.7c6.4-1.4,10.9-3.3,13.6-5.8s4-6,4-10.4c0-5.1-2-9.1-6-12.1
							c-4-3-9.5-4.4-16.6-4.4c-2.9,0-6,0.3-9.2,0.9s-6.5,1.4-10,2.6v9.3c3.3-1.7,6.6-3,9.8-3.9c3.2-0.9,6.4-1.3,9.6-1.3
							c4.2,0,7.5,0.7,9.8,2.2c2.3,1.4,3.4,3.5,3.4,6.1c0,2.4-0.8,4.3-2.5,5.6c-1.6,1.3-5.2,2.6-10.8,3.8l-3.1,0.7
							c-5.6,1.2-9.6,3-12.1,5.4c-2.5,2.4-3.7,5.8-3.7,10c0,5.1,1.8,9.1,5.5,11.9c3.6,2.8,8.8,4.2,15.5,4.2c3.3,0,6.4-0.2,9.4-0.7
							C-48.3,465.5-45.6,464.8-43.2,463.8z"/>
					</g>
					<g>
						<path id="DejaVuSans-115_1_" d="M8.9,463.8v-8.5c-2.5,1.3-5.2,2.3-7.9,2.9c-2.7,0.7-5.6,1-8.5,1c-4.5,0-7.8-0.7-10-2
							s-3.3-3.4-3.3-6.2c0-2.1,0.8-3.7,2.4-4.9s4.8-2.3,9.6-3.4l3.1-0.7c6.4-1.4,10.9-3.3,13.6-5.8s4-6,4-10.4c0-5.1-2-9.1-6-12.1
							c-4-3-9.5-4.4-16.6-4.4c-2.9,0-6,0.3-9.2,0.9s-6.5,1.4-10,2.6v9.3c3.3-1.7,6.6-3,9.8-3.9c3.2-0.9,6.4-1.3,9.6-1.3
							c4.2,0,7.5,0.7,9.8,2.2c2.3,1.4,3.4,3.5,3.4,6.1c0,2.4-0.8,4.3-2.5,5.6c-1.6,1.3-5.2,2.6-10.8,3.8l-3.1,0.7
							c-5.6,1.2-9.6,3-12.1,5.4c-2.5,2.4-3.7,5.8-3.7,10c0,5.1,1.8,9.1,5.5,11.9c3.6,2.8,8.8,4.2,15.5,4.2c3.3,0,6.4-0.2,9.4-0.7
							C3.8,465.5,6.5,464.8,8.9,463.8z"/>
					</g>
					<g>
						<path id="DejaVuSans-32" d="M16.8,410.7"/>
					</g>
					<g>
						<path id="DejaVuSans-65" d="M82.7,473.9l-13.4-36.3h26.8L82.7,473.9z M77.2,483.6h11.2l27.8-72.9h-10.3l-6.6,18.7H66.4
							l-6.6-18.7H49.3L77.2,483.6z"/>
					</g>
				</g>
			</g>
			<g id="line2d_19">
			</g>
			<g id="line2d_20">
				<g>
					<g>
						<path id="m499e79f135_10_" class="st4" d="M329.7,31.2c0.8,0,1.6-0.3,2.1-0.9c0.6-0.6,0.9-1.3,0.9-2.1s-0.3-1.6-0.9-2.1
							c-0.6-0.6-1.3-0.9-2.1-0.9s-1.6,0.3-2.1,0.9c-0.6,0.6-0.9,1.3-0.9,2.1s0.3,1.6,0.9,2.1C328.2,30.9,328.9,31.2,329.7,31.2z"/>
					</g>
				</g>
			</g>
			<g id="text_18">
				<g transform="translate(370.8575 72.748562)scale(0.1 -0.1)">
					<g>
						<path id="DejaVuSans-99_1_" d="M-182.7,463.3v-8.4c-2.5,1.4-5.1,2.5-7.6,3.2c-2.6,0.7-5.1,1-7.7,1c-5.8,0-10.4-1.8-13.6-5.5
							c-3.2-3.7-4.8-8.9-4.8-15.5s1.6-11.9,4.8-15.6c3.2-3.7,7.8-5.5,13.6-5.5c2.6,0,5.2,0.3,7.7,1c2.6,0.7,5.1,1.8,7.6,3.2v-8.3
							c-2.5-1.2-5.1-2-7.8-2.6c-2.7-0.6-5.5-0.9-8.6-0.9c-8.2,0-14.8,2.6-19.6,7.8c-4.8,5.2-7.3,12.2-7.3,21c0,8.9,2.4,15.9,7.3,21
							c4.9,5.1,11.6,7.7,20.2,7.7c2.8,0,5.5-0.3,8.1-0.9C-187.7,465.3-185.2,464.4-182.7,463.3z"/>
					</g>
					<g>
						<path id="DejaVuSans-108_1_" d="M-167.1,486.7h9v-76h-9V486.7z"/>
					</g>
					<g>
						<path id="DejaVuSans-97_1_" d="M-114.4,438.2c-7.3,0-12.3-0.8-15.1-2.5c-2.8-1.7-4.2-4.5-4.2-8.5c0-3.2,1.1-5.7,3.2-7.6
							c2.1-1.9,5-2.8,8.6-2.8c5,0,9,1.8,12,5.3c3,3.5,4.5,8.2,4.5,14.1v2H-114.4z M-96.5,441.9v-31.2h-9v8.3
							c-2.1-3.3-4.6-5.8-7.7-7.3s-6.8-2.4-11.2-2.4c-5.6,0-10,1.6-13.4,4.7c-3.3,3.1-5,7.4-5,12.6c0,6.1,2.1,10.8,6.2,13.9
							c4.1,3.1,10.3,4.7,18.4,4.7h12.6v0.9c0,4.1-1.4,7.3-4.1,9.6c-2.7,2.3-6.5,3.4-11.5,3.4c-3.1,0-6.2-0.4-9.1-1.1
							c-3-0.8-5.8-1.9-8.5-3.4v8.3c3.3,1.3,6.5,2.2,9.6,2.8c3.1,0.6,6.1,1,9,1c7.9,0,13.8-2.1,17.7-6.2
							C-98.5,456.5-96.5,450.3-96.5,441.9z"/>
					</g>
					<g>
						<path id="DejaVuSans-115_2_" d="M-43.2,463.8v-8.5c-2.5,1.3-5.2,2.3-7.9,2.9c-2.7,0.7-5.6,1-8.5,1c-4.5,0-7.8-0.7-10-2
							c-2.2-1.4-3.3-3.4-3.3-6.2c0-2.1,0.8-3.7,2.4-4.9s4.8-2.3,9.6-3.4l3.1-0.7c6.4-1.4,10.9-3.3,13.6-5.8s4-6,4-10.4
							c0-5.1-2-9.1-6-12.1c-4-3-9.5-4.4-16.6-4.4c-2.9,0-6,0.3-9.2,0.9s-6.5,1.4-10,2.6v9.3c3.3-1.7,6.6-3,9.8-3.9
							c3.2-0.9,6.4-1.3,9.6-1.3c4.2,0,7.5,0.7,9.8,2.2c2.3,1.4,3.4,3.5,3.4,6.1c0,2.4-0.8,4.3-2.5,5.6c-1.6,1.3-5.2,2.6-10.8,3.8
							l-3.1,0.7c-5.6,1.2-9.6,3-12.1,5.4c-2.5,2.4-3.7,5.8-3.7,10c0,5.1,1.8,9.1,5.5,11.9c3.6,2.8,8.8,4.2,15.5,4.2
							c3.3,0,6.4-0.2,9.4-0.7C-48.3,465.5-45.6,464.8-43.2,463.8z"/>
					</g>
					<g>
						<path id="DejaVuSans-115_3_" d="M8.9,463.8v-8.5c-2.5,1.3-5.2,2.3-7.9,2.9c-2.7,0.7-5.6,1-8.5,1c-4.5,0-7.8-0.7-10-2
							c-2.2-1.4-3.3-3.4-3.3-6.2c0-2.1,0.8-3.7,2.4-4.9s4.8-2.3,9.6-3.4l3.1-0.7c6.4-1.4,10.9-3.3,13.6-5.8s4-6,4-10.4
							c0-5.1-2-9.1-6-12.1c-4-3-9.5-4.4-16.6-4.4c-2.9,0-6,0.3-9.2,0.9s-6.5,1.4-10,2.6v9.3c3.3-1.7,6.6-3,9.8-3.9
							c3.2-0.9,6.4-1.3,9.6-1.3c4.2,0,7.5,0.7,9.8,2.2c2.3,1.4,3.4,3.5,3.4,6.1c0,2.4-0.8,4.3-2.5,5.6c-1.6,1.3-5.2,2.6-10.8,3.8
							l-3.1,0.7c-5.6,1.2-9.6,3-12.1,5.4c-2.5,2.4-3.7,5.8-3.7,10c0,5.1,1.8,9.1,5.5,11.9c3.6,2.8,8.8,4.2,15.5,4.2
							c3.3,0,6.4-0.2,9.4-0.7C3.8,465.5,6.5,464.8,8.9,463.8z"/>
					</g>
					<g>
						<path id="DejaVuSans-32_1_" d="M16.8,410.7"/>
					</g>
					<g>
						<path id="DejaVuSans-66" d="M68.2,445.5v-26.7H84c5.3,0,9.2,1.1,11.8,3.3c2.6,2.2,3.8,5.6,3.8,10.1c0,4.6-1.3,7.9-3.8,10.1
							c-2.6,2.2-6.5,3.3-11.8,3.3H68.2z M68.2,475.5v-22h14.6c4.8,0,8.4,0.9,10.8,2.7c2.4,1.8,3.5,4.6,3.5,8.3
							c0,3.7-1.2,6.4-3.5,8.3c-2.4,1.8-5.9,2.7-10.8,2.7H68.2z M58.4,483.6h25.2c7.5,0,13.3-1.6,17.4-4.7c4.1-3.1,6.1-7.6,6.1-13.3
							c0-4.5-1-8-3.1-10.7c-2.1-2.6-5.1-4.3-9.2-4.9c4.9-1,8.6-3.2,11.3-6.5c2.7-3.3,4-7.4,4-12.4c0-6.5-2.2-11.5-6.6-15.1
							c-4.4-3.5-10.7-5.3-18.9-5.3H58.4V483.6z"/>
					</g>
				</g>
			</g>
		</g>
	</g>
</g>
</svg>
