<?xml version="1.0" encoding="utf-8"?>
<!-- Generator: Adobe Illustrator 20.1.0, SVG Export Plug-In . SVG Version: 6.00 Build 0)  -->
<svg version="1.1" xmlns="http://www.w3.org/2000/svg" xmlns:xlink="http://www.w3.org/1999/xlink" x="0px" y="0px"
	 viewBox="0 0 230.3 145.7" style="enable-background:new 0 0 230.3 145.7;" xml:space="preserve">
<style type="text/css">
	.st0{fill:none;stroke:#006838;stroke-miterlimit:10;}
	.st1{fill:none;stroke:#F7941D;stroke-miterlimit:10;}
	.st2{fill:#F7941D;}
	.st3{font-family:'MyriadPro-Regular';}
	.st4{font-size:12px;}
	.st5{fill:#006838;}
	.st6{fill:#A97C50;}
	.st7{fill:none;stroke:#8B5E3C;stroke-miterlimit:10;}
	.st8{fill:#A97C50;stroke:#231F20;stroke-miterlimit:10;}
	.st9{fill:#9B8579;stroke:#231F20;stroke-miterlimit:10;}
	.st10{fill:#F7941D;stroke:#231F20;stroke-miterlimit:10;}
	.st11{fill:#2BB673;stroke:#231F20;stroke-miterlimit:10;}
</style>
<g id="Layer_1">
	<line class="st0" x1="8.8" y1="99.8" x2="110.5" y2="8.8"/>
	<line class="st0" x1="8.8" y1="99.8" x2="111.5" y2="137.8"/>
	<line class="st1" x1="110.5" y1="8.8" x2="221.5" y2="74.8"/>
	<line class="st1" x1="111.5" y1="137.8" x2="221.5" y2="74.8"/>
	<text transform="matrix(1 0 0 1 162.8333 37.5)" class="st2 st3 st4">-2</text>
	<text transform="matrix(1 0 0 1 162.833 122.9167)" class="st2 st3 st4">-2</text>
	<text transform="matrix(1 0 0 1 39.0833 128.5)" class="st5 st3 st4">-1</text>
	<text transform="matrix(1 0 0 1 45.5833 58.1667)" class="st5 st3 st4">1</text>
	<text transform="matrix(1 0 0 1 40.5833 25.4167)" class="st6 st3 st4">1</text>
	<text transform="matrix(1 0 0 1 67.5833 93.6667)" class="st6 st3 st4">-1</text>
</g>
<g id="Layer_3">
	<line class="st7" x1="8.8" y1="45.8" x2="110.5" y2="8.8"/>
	<line class="st7" x1="8.8" y1="45.8" x2="111.5" y2="137.8"/>
</g>
<g id="nodes">
	<circle class="st8" cx="8.8" cy="45.8" r="8.3"/>
	<circle class="st9" cx="110.5" cy="8.8" r="8.3"/>
	<circle class="st9" cx="110.5" cy="136.8" r="8.3"/>
	<circle class="st10" cx="221.5" cy="74.8" r="8.3"/>
	<circle class="st11" cx="8.8" cy="99.8" r="8.3"/>
</g>
<g id="Layer_4">
	<text transform="matrix(1 0 0 1 105.1544 12.2753)" class="st3 st4">-1</text>
	<text transform="matrix(1 0 0 1 106.9245 141.1875)" class="st3 st4">-1</text>
	<text transform="matrix(1 0 0 1 219.4167 79.5)" class="st3 st4">1</text>
	<text transform="matrix(1 0 0 1 4.2105 49.8333)" class="st3 st4">x0</text>
	<text transform="matrix(1 0 0 1 4.2105 103.1377)" class="st3 st4">x1</text>
</g>
</svg>
