<?xml version="1.0" encoding="utf-8"?>
<!-- Generator: Adobe Illustrator 20.1.0, SVG Export Plug-In . SVG Version: 6.00 Build 0)  -->
<svg version="1.1" id="Layer_1" xmlns="http://www.w3.org/2000/svg" xmlns:xlink="http://www.w3.org/1999/xlink" x="0px" y="0px"
	 viewBox="0 0 244.7 145.6" style="enable-background:new 0 0 244.7 145.6;" xml:space="preserve">
<style type="text/css">
	.st0{fill:none;stroke:#006838;stroke-miterlimit:10;}
	.st1{fill:none;stroke:#F7941D;stroke-miterlimit:10;}
	.st2{fill:none;stroke:#8B5E3C;stroke-miterlimit:10;}
	.st3{fill:#A97C50;stroke:#231F20;stroke-miterlimit:10;}
	.st4{fill:#9B8579;stroke:#231F20;stroke-miterlimit:10;}
	.st5{fill:#F7941D;stroke:#231F20;stroke-miterlimit:10;}
	.st6{fill:#2BB673;stroke:#231F20;stroke-miterlimit:10;}
	.st7{font-family:'MyriadPro-Regular';}
	.st8{font-size:12px;}
	.st9{font-size:7px;}
</style>
<g id="Layer_1_1_">
	<line class="st0" x1="8.8" y1="99.8" x2="110.5" y2="8.8"/>
	<line class="st0" x1="8.8" y1="99.8" x2="111.5" y2="137.8"/>
	<line class="st1" x1="110.5" y1="8.8" x2="221.5" y2="74.8"/>
	<line class="st1" x1="111.5" y1="137.8" x2="221.5" y2="74.8"/>
</g>
<g id="Layer_3">
	<line class="st2" x1="8.8" y1="45.8" x2="110.5" y2="8.8"/>
	<line class="st2" x1="8.8" y1="45.8" x2="111.5" y2="137.8"/>
</g>
<g id="nodes">
	<circle class="st3" cx="8.8" cy="45.8" r="8.3"/>
	<circle class="st4" cx="110.5" cy="8.8" r="8.3"/>
	<circle class="st4" cx="110.5" cy="136.8" r="8.3"/>
	<circle class="st5" cx="221.5" cy="74.8" r="8.3"/>
	<circle class="st6" cx="8.8" cy="99.8" r="8.3"/>
</g>
<g id="Layer_4">
	<text transform="matrix(1 0 0 1 4.2105 49.8333)" class="st7 st8">x0</text>
	<text transform="matrix(1 0 0 1 4.2105 103.1377)" class="st7 st8">x1</text>
</g>
<text transform="matrix(0 1 -1 0 106.3335 39.5168)" class="st7 st8">tanh activation</text>
<text transform="matrix(0 1 -1 0 234.6665 35.7702)" class="st7 st8">logistic activation</text>
<text transform="matrix(1 0 0 1 215.033 77.1037)" class="st7 st9">hout</text>
</svg>
