<?xml version="1.0" encoding="utf-8" standalone="no"?>
<!DOCTYPE svg PUBLIC "-//W3C//DTD SVG 1.1//EN"
  "http://www.w3.org/Graphics/SVG/1.1/DTD/svg11.dtd">
<!-- Created with matplotlib (https://matplotlib.org/) -->
<svg height="345.6pt" version="1.1" viewBox="0 0 460.8 345.6" width="460.8pt" xmlns="http://www.w3.org/2000/svg" xmlns:xlink="http://www.w3.org/1999/xlink">
 <defs>
  <style type="text/css">
*{stroke-linecap:butt;stroke-linejoin:round;}
  </style>
 </defs>
 <g id="figure_1">
  <g id="patch_1">
   <path d="M 0 345.6 
L 460.8 345.6 
L 460.8 0 
L 0 0 
z
" style="fill:#ffffff;"/>
  </g>
  <g id="axes_1">
   <g id="patch_2">
    <path d="M 57.6 307.584 
L 414.72 307.584 
L 414.72 41.472 
L 57.6 41.472 
z
" style="fill:#ffffff;"/>
   </g>
   <g id="matplotlib.axis_1">
    <g id="xtick_1">
     <g id="line2d_1">
      <defs>
       <path d="M 0 0 
L 0 3.5 
" id="m0ef81338e6" style="stroke:#000000;stroke-width:0.8;"/>
      </defs>
      <g>
       <use style="stroke:#000000;stroke-width:0.8;" x="73.832727" xlink:href="#m0ef81338e6" y="307.584"/>
      </g>
     </g>
     <g id="text_1">
      <!-- 0.0 -->
      <defs>
       <path d="M 31.78125 66.40625 
Q 24.171875 66.40625 20.328125 58.90625 
Q 16.5 51.421875 16.5 36.375 
Q 16.5 21.390625 20.328125 13.890625 
Q 24.171875 6.390625 31.78125 6.390625 
Q 39.453125 6.390625 43.28125 13.890625 
Q 47.125 21.390625 47.125 36.375 
Q 47.125 51.421875 43.28125 58.90625 
Q 39.453125 66.40625 31.78125 66.40625 
z
M 31.78125 74.21875 
Q 44.046875 74.21875 50.515625 64.515625 
Q 56.984375 54.828125 56.984375 36.375 
Q 56.984375 17.96875 50.515625 8.265625 
Q 44.046875 -1.421875 31.78125 -1.421875 
Q 19.53125 -1.421875 13.0625 8.265625 
Q 6.59375 17.96875 6.59375 36.375 
Q 6.59375 54.828125 13.0625 64.515625 
Q 19.53125 74.21875 31.78125 74.21875 
z
" id="DejaVuSans-48"/>
       <path d="M 10.6875 12.40625 
L 21 12.40625 
L 21 0 
L 10.6875 0 
z
" id="DejaVuSans-46"/>
      </defs>
      <g transform="translate(65.881165 322.182437)scale(0.1 -0.1)">
       <use xlink:href="#DejaVuSans-48"/>
       <use x="63.623047" xlink:href="#DejaVuSans-46"/>
       <use x="95.410156" xlink:href="#DejaVuSans-48"/>
      </g>
     </g>
    </g>
    <g id="xtick_2">
     <g id="line2d_2">
      <g>
       <use style="stroke:#000000;stroke-width:0.8;" x="127.941818" xlink:href="#m0ef81338e6" y="307.584"/>
      </g>
     </g>
     <g id="text_2">
      <!-- 0.5 -->
      <defs>
       <path d="M 10.796875 72.90625 
L 49.515625 72.90625 
L 49.515625 64.59375 
L 19.828125 64.59375 
L 19.828125 46.734375 
Q 21.96875 47.46875 24.109375 47.828125 
Q 26.265625 48.1875 28.421875 48.1875 
Q 40.625 48.1875 47.75 41.5 
Q 54.890625 34.8125 54.890625 23.390625 
Q 54.890625 11.625 47.5625 5.09375 
Q 40.234375 -1.421875 26.90625 -1.421875 
Q 22.3125 -1.421875 17.546875 -0.640625 
Q 12.796875 0.140625 7.71875 1.703125 
L 7.71875 11.625 
Q 12.109375 9.234375 16.796875 8.0625 
Q 21.484375 6.890625 26.703125 6.890625 
Q 35.15625 6.890625 40.078125 11.328125 
Q 45.015625 15.765625 45.015625 23.390625 
Q 45.015625 31 40.078125 35.4375 
Q 35.15625 39.890625 26.703125 39.890625 
Q 22.75 39.890625 18.8125 39.015625 
Q 14.890625 38.140625 10.796875 36.28125 
z
" id="DejaVuSans-53"/>
      </defs>
      <g transform="translate(119.990256 322.182437)scale(0.1 -0.1)">
       <use xlink:href="#DejaVuSans-48"/>
       <use x="63.623047" xlink:href="#DejaVuSans-46"/>
       <use x="95.410156" xlink:href="#DejaVuSans-53"/>
      </g>
     </g>
    </g>
    <g id="xtick_3">
     <g id="line2d_3">
      <g>
       <use style="stroke:#000000;stroke-width:0.8;" x="182.050909" xlink:href="#m0ef81338e6" y="307.584"/>
      </g>
     </g>
     <g id="text_3">
      <!-- 1.0 -->
      <defs>
       <path d="M 12.40625 8.296875 
L 28.515625 8.296875 
L 28.515625 63.921875 
L 10.984375 60.40625 
L 10.984375 69.390625 
L 28.421875 72.90625 
L 38.28125 72.90625 
L 38.28125 8.296875 
L 54.390625 8.296875 
L 54.390625 0 
L 12.40625 0 
z
" id="DejaVuSans-49"/>
      </defs>
      <g transform="translate(174.099347 322.182437)scale(0.1 -0.1)">
       <use xlink:href="#DejaVuSans-49"/>
       <use x="63.623047" xlink:href="#DejaVuSans-46"/>
       <use x="95.410156" xlink:href="#DejaVuSans-48"/>
      </g>
     </g>
    </g>
    <g id="xtick_4">
     <g id="line2d_4">
      <g>
       <use style="stroke:#000000;stroke-width:0.8;" x="236.16" xlink:href="#m0ef81338e6" y="307.584"/>
      </g>
     </g>
     <g id="text_4">
      <!-- 1.5 -->
      <g transform="translate(228.208438 322.182437)scale(0.1 -0.1)">
       <use xlink:href="#DejaVuSans-49"/>
       <use x="63.623047" xlink:href="#DejaVuSans-46"/>
       <use x="95.410156" xlink:href="#DejaVuSans-53"/>
      </g>
     </g>
    </g>
    <g id="xtick_5">
     <g id="line2d_5">
      <g>
       <use style="stroke:#000000;stroke-width:0.8;" x="290.269091" xlink:href="#m0ef81338e6" y="307.584"/>
      </g>
     </g>
     <g id="text_5">
      <!-- 2.0 -->
      <defs>
       <path d="M 19.1875 8.296875 
L 53.609375 8.296875 
L 53.609375 0 
L 7.328125 0 
L 7.328125 8.296875 
Q 12.9375 14.109375 22.625 23.890625 
Q 32.328125 33.6875 34.8125 36.53125 
Q 39.546875 41.84375 41.421875 45.53125 
Q 43.3125 49.21875 43.3125 52.78125 
Q 43.3125 58.59375 39.234375 62.25 
Q 35.15625 65.921875 28.609375 65.921875 
Q 23.96875 65.921875 18.8125 64.3125 
Q 13.671875 62.703125 7.8125 59.421875 
L 7.8125 69.390625 
Q 13.765625 71.78125 18.9375 73 
Q 24.125 74.21875 28.421875 74.21875 
Q 39.75 74.21875 46.484375 68.546875 
Q 53.21875 62.890625 53.21875 53.421875 
Q 53.21875 48.921875 51.53125 44.890625 
Q 49.859375 40.875 45.40625 35.40625 
Q 44.1875 33.984375 37.640625 27.21875 
Q 31.109375 20.453125 19.1875 8.296875 
z
" id="DejaVuSans-50"/>
      </defs>
      <g transform="translate(282.317528 322.182437)scale(0.1 -0.1)">
       <use xlink:href="#DejaVuSans-50"/>
       <use x="63.623047" xlink:href="#DejaVuSans-46"/>
       <use x="95.410156" xlink:href="#DejaVuSans-48"/>
      </g>
     </g>
    </g>
    <g id="xtick_6">
     <g id="line2d_6">
      <g>
       <use style="stroke:#000000;stroke-width:0.8;" x="344.378182" xlink:href="#m0ef81338e6" y="307.584"/>
      </g>
     </g>
     <g id="text_6">
      <!-- 2.5 -->
      <g transform="translate(336.426619 322.182437)scale(0.1 -0.1)">
       <use xlink:href="#DejaVuSans-50"/>
       <use x="63.623047" xlink:href="#DejaVuSans-46"/>
       <use x="95.410156" xlink:href="#DejaVuSans-53"/>
      </g>
     </g>
    </g>
    <g id="xtick_7">
     <g id="line2d_7">
      <g>
       <use style="stroke:#000000;stroke-width:0.8;" x="398.487273" xlink:href="#m0ef81338e6" y="307.584"/>
      </g>
     </g>
     <g id="text_7">
      <!-- 3.0 -->
      <defs>
       <path d="M 40.578125 39.3125 
Q 47.65625 37.796875 51.625 33 
Q 55.609375 28.21875 55.609375 21.1875 
Q 55.609375 10.40625 48.1875 4.484375 
Q 40.765625 -1.421875 27.09375 -1.421875 
Q 22.515625 -1.421875 17.65625 -0.515625 
Q 12.796875 0.390625 7.625 2.203125 
L 7.625 11.71875 
Q 11.71875 9.328125 16.59375 8.109375 
Q 21.484375 6.890625 26.8125 6.890625 
Q 36.078125 6.890625 40.9375 10.546875 
Q 45.796875 14.203125 45.796875 21.1875 
Q 45.796875 27.640625 41.28125 31.265625 
Q 36.765625 34.90625 28.71875 34.90625 
L 20.21875 34.90625 
L 20.21875 43.015625 
L 29.109375 43.015625 
Q 36.375 43.015625 40.234375 45.921875 
Q 44.09375 48.828125 44.09375 54.296875 
Q 44.09375 59.90625 40.109375 62.90625 
Q 36.140625 65.921875 28.71875 65.921875 
Q 24.65625 65.921875 20.015625 65.03125 
Q 15.375 64.15625 9.8125 62.3125 
L 9.8125 71.09375 
Q 15.4375 72.65625 20.34375 73.4375 
Q 25.25 74.21875 29.59375 74.21875 
Q 40.828125 74.21875 47.359375 69.109375 
Q 53.90625 64.015625 53.90625 55.328125 
Q 53.90625 49.265625 50.4375 45.09375 
Q 46.96875 40.921875 40.578125 39.3125 
z
" id="DejaVuSans-51"/>
      </defs>
      <g transform="translate(390.53571 322.182437)scale(0.1 -0.1)">
       <use xlink:href="#DejaVuSans-51"/>
       <use x="63.623047" xlink:href="#DejaVuSans-46"/>
       <use x="95.410156" xlink:href="#DejaVuSans-48"/>
      </g>
     </g>
    </g>
   </g>
   <g id="matplotlib.axis_2">
    <g id="ytick_1">
     <g id="line2d_8">
      <defs>
       <path d="M 0 0 
L -3.5 0 
" id="m615d77a0e4" style="stroke:#000000;stroke-width:0.8;"/>
      </defs>
      <g>
       <use style="stroke:#000000;stroke-width:0.8;" x="57.6" xlink:href="#m615d77a0e4" y="279.603262"/>
      </g>
     </g>
     <g id="text_8">
      <!-- −1.5 -->
      <defs>
       <path d="M 10.59375 35.5 
L 73.1875 35.5 
L 73.1875 27.203125 
L 10.59375 27.203125 
z
" id="DejaVuSans-8722"/>
      </defs>
      <g transform="translate(26.317187 283.402481)scale(0.1 -0.1)">
       <use xlink:href="#DejaVuSans-8722"/>
       <use x="83.789062" xlink:href="#DejaVuSans-49"/>
       <use x="147.412109" xlink:href="#DejaVuSans-46"/>
       <use x="179.199219" xlink:href="#DejaVuSans-53"/>
      </g>
     </g>
    </g>
    <g id="ytick_2">
     <g id="line2d_9">
      <g>
       <use style="stroke:#000000;stroke-width:0.8;" x="57.6" xlink:href="#m615d77a0e4" y="247.760604"/>
      </g>
     </g>
     <g id="text_9">
      <!-- −1.0 -->
      <g transform="translate(26.317187 251.559822)scale(0.1 -0.1)">
       <use xlink:href="#DejaVuSans-8722"/>
       <use x="83.789062" xlink:href="#DejaVuSans-49"/>
       <use x="147.412109" xlink:href="#DejaVuSans-46"/>
       <use x="179.199219" xlink:href="#DejaVuSans-48"/>
      </g>
     </g>
    </g>
    <g id="ytick_3">
     <g id="line2d_10">
      <g>
       <use style="stroke:#000000;stroke-width:0.8;" x="57.6" xlink:href="#m615d77a0e4" y="215.917946"/>
      </g>
     </g>
     <g id="text_10">
      <!-- −0.5 -->
      <g transform="translate(26.317187 219.717164)scale(0.1 -0.1)">
       <use xlink:href="#DejaVuSans-8722"/>
       <use x="83.789062" xlink:href="#DejaVuSans-48"/>
       <use x="147.412109" xlink:href="#DejaVuSans-46"/>
       <use x="179.199219" xlink:href="#DejaVuSans-53"/>
      </g>
     </g>
    </g>
    <g id="ytick_4">
     <g id="line2d_11">
      <g>
       <use style="stroke:#000000;stroke-width:0.8;" x="57.6" xlink:href="#m615d77a0e4" y="184.075288"/>
      </g>
     </g>
     <g id="text_11">
      <!-- 0.0 -->
      <g transform="translate(34.696875 187.874506)scale(0.1 -0.1)">
       <use xlink:href="#DejaVuSans-48"/>
       <use x="63.623047" xlink:href="#DejaVuSans-46"/>
       <use x="95.410156" xlink:href="#DejaVuSans-48"/>
      </g>
     </g>
    </g>
    <g id="ytick_5">
     <g id="line2d_12">
      <g>
       <use style="stroke:#000000;stroke-width:0.8;" x="57.6" xlink:href="#m615d77a0e4" y="152.232629"/>
      </g>
     </g>
     <g id="text_12">
      <!-- 0.5 -->
      <g transform="translate(34.696875 156.031848)scale(0.1 -0.1)">
       <use xlink:href="#DejaVuSans-48"/>
       <use x="63.623047" xlink:href="#DejaVuSans-46"/>
       <use x="95.410156" xlink:href="#DejaVuSans-53"/>
      </g>
     </g>
    </g>
    <g id="ytick_6">
     <g id="line2d_13">
      <g>
       <use style="stroke:#000000;stroke-width:0.8;" x="57.6" xlink:href="#m615d77a0e4" y="120.389971"/>
      </g>
     </g>
     <g id="text_13">
      <!-- 1.0 -->
      <g transform="translate(34.696875 124.18919)scale(0.1 -0.1)">
       <use xlink:href="#DejaVuSans-49"/>
       <use x="63.623047" xlink:href="#DejaVuSans-46"/>
       <use x="95.410156" xlink:href="#DejaVuSans-48"/>
      </g>
     </g>
    </g>
    <g id="ytick_7">
     <g id="line2d_14">
      <g>
       <use style="stroke:#000000;stroke-width:0.8;" x="57.6" xlink:href="#m615d77a0e4" y="88.547313"/>
      </g>
     </g>
     <g id="text_14">
      <!-- 1.5 -->
      <g transform="translate(34.696875 92.346532)scale(0.1 -0.1)">
       <use xlink:href="#DejaVuSans-49"/>
       <use x="63.623047" xlink:href="#DejaVuSans-46"/>
       <use x="95.410156" xlink:href="#DejaVuSans-53"/>
      </g>
     </g>
    </g>
    <g id="ytick_8">
     <g id="line2d_15">
      <g>
       <use style="stroke:#000000;stroke-width:0.8;" x="57.6" xlink:href="#m615d77a0e4" y="56.704655"/>
      </g>
     </g>
     <g id="text_15">
      <!-- 2.0 -->
      <g transform="translate(34.696875 60.503874)scale(0.1 -0.1)">
       <use xlink:href="#DejaVuSans-50"/>
       <use x="63.623047" xlink:href="#DejaVuSans-46"/>
       <use x="95.410156" xlink:href="#DejaVuSans-48"/>
      </g>
     </g>
    </g>
   </g>
   <g id="line2d_16">
    <defs>
     <path d="M 0 3 
C 0.795609 3 1.55874 2.683901 2.12132 2.12132 
C 2.683901 1.55874 3 0.795609 3 0 
C 3 -0.795609 2.683901 -1.55874 2.12132 -2.12132 
C 1.55874 -2.683901 0.795609 -3 0 -3 
C -0.795609 -3 -1.55874 -2.683901 -2.12132 -2.12132 
C -2.683901 -1.55874 -3 -0.795609 -3 0 
C -3 0.795609 -2.683901 1.55874 -2.12132 2.12132 
C -1.55874 2.683901 -0.795609 3 0 3 
z
" id="m2b539be702" style="stroke:#1f77b4;"/>
    </defs>
    <g clip-path="url(#pd8fbf4ae5e)">
     <use style="fill:#1f77b4;stroke:#1f77b4;" x="163.537408" xlink:href="#m2b539be702" y="214.388276"/>
     <use style="fill:#1f77b4;stroke:#1f77b4;" x="211.8886" xlink:href="#m2b539be702" y="99.173928"/>
     <use style="fill:#1f77b4;stroke:#1f77b4;" x="240.037395" xlink:href="#m2b539be702" y="194.33433"/>
     <use style="fill:#1f77b4;stroke:#1f77b4;" x="109.446218" xlink:href="#m2b539be702" y="205.764276"/>
     <use style="fill:#1f77b4;stroke:#1f77b4;" x="75.257876" xlink:href="#m2b539be702" y="130.676967"/>
     <use style="fill:#1f77b4;stroke:#1f77b4;" x="248.256595" xlink:href="#m2b539be702" y="245.765107"/>
     <use style="fill:#1f77b4;stroke:#1f77b4;" x="166.465097" xlink:href="#m2b539be702" y="219.405352"/>
     <use style="fill:#1f77b4;stroke:#1f77b4;" x="162.63701" xlink:href="#m2b539be702" y="294.338237"/>
     <use style="fill:#1f77b4;stroke:#1f77b4;" x="240.963161" xlink:href="#m2b539be702" y="229.562685"/>
     <use style="fill:#1f77b4;stroke:#1f77b4;" x="104.977053" xlink:href="#m2b539be702" y="153.058829"/>
     <use style="fill:#1f77b4;stroke:#1f77b4;" x="241.183704" xlink:href="#m2b539be702" y="215.290748"/>
     <use style="fill:#1f77b4;stroke:#1f77b4;" x="223.595416" xlink:href="#m2b539be702" y="134.817375"/>
     <use style="fill:#1f77b4;stroke:#1f77b4;" x="116.397542" xlink:href="#m2b539be702" y="132.180513"/>
     <use style="fill:#1f77b4;stroke:#1f77b4;" x="95.300255" xlink:href="#m2b539be702" y="53.568"/>
     <use style="fill:#1f77b4;stroke:#1f77b4;" x="83.572395" xlink:href="#m2b539be702" y="222.38087"/>
     <use style="fill:#1f77b4;stroke:#1f77b4;" x="228.475692" xlink:href="#m2b539be702" y="187.99248"/>
     <use style="fill:#1f77b4;stroke:#1f77b4;" x="232.473107" xlink:href="#m2b539be702" y="140.512937"/>
     <use style="fill:#1f77b4;stroke:#1f77b4;" x="159.888403" xlink:href="#m2b539be702" y="246.817695"/>
     <use style="fill:#1f77b4;stroke:#1f77b4;" x="98.009748" xlink:href="#m2b539be702" y="186.709504"/>
     <use style="fill:#1f77b4;stroke:#1f77b4;" x="283.333884" xlink:href="#m2b539be702" y="258.485575"/>
     <use style="fill:#1f77b4;stroke:#1f77b4;" x="276.624705" xlink:href="#m2b539be702" y="282.141217"/>
     <use style="fill:#1f77b4;stroke:#1f77b4;" x="95.013186" xlink:href="#m2b539be702" y="186.782787"/>
     <use style="fill:#1f77b4;stroke:#1f77b4;" x="152.913784" xlink:href="#m2b539be702" y="166.337961"/>
     <use style="fill:#1f77b4;stroke:#1f77b4;" x="114.710772" xlink:href="#m2b539be702" y="180.636573"/>
     <use style="fill:#1f77b4;stroke:#1f77b4;" x="140.361181" xlink:href="#m2b539be702" y="130.760541"/>
     <use style="fill:#1f77b4;stroke:#1f77b4;" x="215.893652" xlink:href="#m2b539be702" y="175.60745"/>
     <use style="fill:#1f77b4;stroke:#1f77b4;" x="127.330691" xlink:href="#m2b539be702" y="219.41105"/>
     <use style="fill:#1f77b4;stroke:#1f77b4;" x="161.938362" xlink:href="#m2b539be702" y="244.309695"/>
     <use style="fill:#1f77b4;stroke:#1f77b4;" x="206.845229" xlink:href="#m2b539be702" y="106.656191"/>
     <use style="fill:#1f77b4;stroke:#1f77b4;" x="82.219143" xlink:href="#m2b539be702" y="145.820394"/>
    </g>
   </g>
   <g id="line2d_17">
    <path clip-path="url(#pd8fbf4ae5e)" d="M 73.832727 174.188056 
L 77.112066 171.459542 
L 80.391405 168.426924 
L 83.670744 165.903577 
L 86.950083 164.649615 
L 90.229421 165.176252 
L 93.50876 167.692023 
L 96.788099 172.164392 
L 100.067438 178.381909 
L 103.346777 185.90403 
L 106.626116 193.887229 
L 109.905455 200.921783 
L 113.184793 205.105298 
L 116.464132 204.522532 
L 119.743471 198.078 
L 123.02281 186.346176 
L 126.302149 171.957083 
L 129.581488 159.163721 
L 132.860826 152.606034 
L 136.140165 155.693231 
L 139.419504 169.248095 
L 142.698843 190.983494 
L 145.978182 216.053022 
L 149.257521 238.482655 
L 152.53686 252.939278 
L 155.816198 256.182909 
L 159.095537 247.724797 
L 162.374876 229.571131 
L 165.654215 205.289822 
L 168.933554 178.84381 
L 172.212893 153.631941 
L 175.492231 132.00391 
L 178.77157 115.265705 
L 182.050909 103.983227 
L 185.330248 98.31239 
L 188.609587 98.151708 
L 191.888926 103.072964 
L 195.168264 112.146383 
L 198.447603 123.858978 
L 201.726942 136.288427 
L 205.006281 147.555216 
L 208.28562 156.403942 
L 211.564959 162.657298 
L 214.844298 167.309608 
L 218.123636 172.173915 
L 221.402975 179.194636 
L 224.682314 189.692855 
L 227.961653 203.851241 
L 231.240992 220.646976 
L 234.520331 238.243912 
L 237.799669 254.654275 
L 241.079008 268.377384 
L 244.358347 278.76314 
L 247.637686 285.995214 
L 250.917025 290.758969 
L 254.196364 293.775516 
L 257.475702 295.408311 
L 260.755041 295.488 
L 264.03438 293.394029 
L 267.313719 288.331137 
L 270.593058 279.684375 
L 273.872397 267.333346 
L 277.151736 251.833607 
L 280.431074 234.409016 
L 283.710413 216.740628 
L 286.989752 200.594139 
L 290.269091 187.39373 
L 293.54843 177.892112 
L 296.827769 172.063331 
L 300.107107 169.250112 
L 303.386446 168.480273 
L 306.665785 168.800536 
L 309.945124 169.498516 
L 313.224463 170.167654 
L 316.503802 170.652358 
L 319.78314 170.945929 
L 323.062479 171.100264 
L 326.341818 171.171964 
L 329.621157 171.201693 
L 332.900496 171.212762 
L 336.179835 171.216477 
L 339.459174 171.217605 
L 342.738512 171.217914 
L 346.017851 171.217992 
L 349.29719 171.218009 
L 352.576529 171.218013 
L 355.855868 171.218013 
L 359.135207 171.218014 
L 362.414545 171.218014 
L 365.693884 171.218014 
L 368.973223 171.218014 
L 372.252562 171.218014 
L 375.531901 171.218014 
L 378.81124 171.218014 
L 382.090579 171.218014 
L 385.369917 171.218014 
L 388.649256 171.218014 
L 391.928595 171.218014 
L 395.207934 171.218014 
L 398.487273 171.218014 
" style="fill:none;stroke:#ff7f0e;stroke-linecap:square;stroke-width:1.5;"/>
   </g>
   <g id="patch_3">
    <path d="M 57.6 307.584 
L 57.6 41.472 
" style="fill:none;stroke:#000000;stroke-linecap:square;stroke-linejoin:miter;stroke-width:0.8;"/>
   </g>
   <g id="patch_4">
    <path d="M 414.72 307.584 
L 414.72 41.472 
" style="fill:none;stroke:#000000;stroke-linecap:square;stroke-linejoin:miter;stroke-width:0.8;"/>
   </g>
   <g id="patch_5">
    <path d="M 57.6 307.584 
L 414.72 307.584 
" style="fill:none;stroke:#000000;stroke-linecap:square;stroke-linejoin:miter;stroke-width:0.8;"/>
   </g>
   <g id="patch_6">
    <path d="M 57.6 41.472 
L 414.72 41.472 
" style="fill:none;stroke:#000000;stroke-linecap:square;stroke-linejoin:miter;stroke-width:0.8;"/>
   </g>
  </g>
 </g>
 <defs>
  <clipPath id="pd8fbf4ae5e">
   <rect height="266.112" width="357.12" x="57.6" y="41.472"/>
  </clipPath>
 </defs>
</svg>
