<?xml version="1.0" encoding="utf-8" standalone="no"?>
<!DOCTYPE svg PUBLIC "-//W3C//DTD SVG 1.1//EN"
  "http://www.w3.org/Graphics/SVG/1.1/DTD/svg11.dtd">
<!-- Created with matplotlib (https://matplotlib.org/) -->
<svg height="345.6pt" version="1.1" viewBox="0 0 460.8 345.6" width="460.8pt" xmlns="http://www.w3.org/2000/svg" xmlns:xlink="http://www.w3.org/1999/xlink">
 <defs>
  <style type="text/css">
*{stroke-linecap:butt;stroke-linejoin:round;}
  </style>
 </defs>
 <g id="figure_1">
  <g id="patch_1">
   <path d="M 0 345.6 
L 460.8 345.6 
L 460.8 0 
L 0 0 
z
" style="fill:#ffffff;"/>
  </g>
  <g id="axes_1">
   <g id="patch_2">
    <path d="M 57.6 307.584 
L 414.72 307.584 
L 414.72 41.472 
L 57.6 41.472 
z
" style="fill:#ffffff;"/>
   </g>
   <g id="matplotlib.axis_1">
    <g id="xtick_1">
     <g id="line2d_1">
      <defs>
       <path d="M 0 0 
L 0 3.5 
" id="m57c72c6953" style="stroke:#000000;stroke-width:0.8;"/>
      </defs>
      <g>
       <use style="stroke:#000000;stroke-width:0.8;" x="73.832727" xlink:href="#m57c72c6953" y="307.584"/>
      </g>
     </g>
     <g id="text_1">
      <!-- 0.00 -->
      <defs>
       <path d="M 31.78125 66.40625 
Q 24.171875 66.40625 20.328125 58.90625 
Q 16.5 51.421875 16.5 36.375 
Q 16.5 21.390625 20.328125 13.890625 
Q 24.171875 6.390625 31.78125 6.390625 
Q 39.453125 6.390625 43.28125 13.890625 
Q 47.125 21.390625 47.125 36.375 
Q 47.125 51.421875 43.28125 58.90625 
Q 39.453125 66.40625 31.78125 66.40625 
z
M 31.78125 74.21875 
Q 44.046875 74.21875 50.515625 64.515625 
Q 56.984375 54.828125 56.984375 36.375 
Q 56.984375 17.96875 50.515625 8.265625 
Q 44.046875 -1.421875 31.78125 -1.421875 
Q 19.53125 -1.421875 13.0625 8.265625 
Q 6.59375 17.96875 6.59375 36.375 
Q 6.59375 54.828125 13.0625 64.515625 
Q 19.53125 74.21875 31.78125 74.21875 
z
" id="DejaVuSans-48"/>
       <path d="M 10.6875 12.40625 
L 21 12.40625 
L 21 0 
L 10.6875 0 
z
" id="DejaVuSans-46"/>
      </defs>
      <g transform="translate(62.699915 322.182437)scale(0.1 -0.1)">
       <use xlink:href="#DejaVuSans-48"/>
       <use x="63.623047" xlink:href="#DejaVuSans-46"/>
       <use x="95.410156" xlink:href="#DejaVuSans-48"/>
       <use x="159.033203" xlink:href="#DejaVuSans-48"/>
      </g>
     </g>
    </g>
    <g id="xtick_2">
     <g id="line2d_2">
      <g>
       <use style="stroke:#000000;stroke-width:0.8;" x="114.414545" xlink:href="#m57c72c6953" y="307.584"/>
      </g>
     </g>
     <g id="text_2">
      <!-- 0.25 -->
      <defs>
       <path d="M 19.1875 8.296875 
L 53.609375 8.296875 
L 53.609375 0 
L 7.328125 0 
L 7.328125 8.296875 
Q 12.9375 14.109375 22.625 23.890625 
Q 32.328125 33.6875 34.8125 36.53125 
Q 39.546875 41.84375 41.421875 45.53125 
Q 43.3125 49.21875 43.3125 52.78125 
Q 43.3125 58.59375 39.234375 62.25 
Q 35.15625 65.921875 28.609375 65.921875 
Q 23.96875 65.921875 18.8125 64.3125 
Q 13.671875 62.703125 7.8125 59.421875 
L 7.8125 69.390625 
Q 13.765625 71.78125 18.9375 73 
Q 24.125 74.21875 28.421875 74.21875 
Q 39.75 74.21875 46.484375 68.546875 
Q 53.21875 62.890625 53.21875 53.421875 
Q 53.21875 48.921875 51.53125 44.890625 
Q 49.859375 40.875 45.40625 35.40625 
Q 44.1875 33.984375 37.640625 27.21875 
Q 31.109375 20.453125 19.1875 8.296875 
z
" id="DejaVuSans-50"/>
       <path d="M 10.796875 72.90625 
L 49.515625 72.90625 
L 49.515625 64.59375 
L 19.828125 64.59375 
L 19.828125 46.734375 
Q 21.96875 47.46875 24.109375 47.828125 
Q 26.265625 48.1875 28.421875 48.1875 
Q 40.625 48.1875 47.75 41.5 
Q 54.890625 34.8125 54.890625 23.390625 
Q 54.890625 11.625 47.5625 5.09375 
Q 40.234375 -1.421875 26.90625 -1.421875 
Q 22.3125 -1.421875 17.546875 -0.640625 
Q 12.796875 0.140625 7.71875 1.703125 
L 7.71875 11.625 
Q 12.109375 9.234375 16.796875 8.0625 
Q 21.484375 6.890625 26.703125 6.890625 
Q 35.15625 6.890625 40.078125 11.328125 
Q 45.015625 15.765625 45.015625 23.390625 
Q 45.015625 31 40.078125 35.4375 
Q 35.15625 39.890625 26.703125 39.890625 
Q 22.75 39.890625 18.8125 39.015625 
Q 14.890625 38.140625 10.796875 36.28125 
z
" id="DejaVuSans-53"/>
      </defs>
      <g transform="translate(103.281733 322.182437)scale(0.1 -0.1)">
       <use xlink:href="#DejaVuSans-48"/>
       <use x="63.623047" xlink:href="#DejaVuSans-46"/>
       <use x="95.410156" xlink:href="#DejaVuSans-50"/>
       <use x="159.033203" xlink:href="#DejaVuSans-53"/>
      </g>
     </g>
    </g>
    <g id="xtick_3">
     <g id="line2d_3">
      <g>
       <use style="stroke:#000000;stroke-width:0.8;" x="154.996364" xlink:href="#m57c72c6953" y="307.584"/>
      </g>
     </g>
     <g id="text_3">
      <!-- 0.50 -->
      <g transform="translate(143.863551 322.182437)scale(0.1 -0.1)">
       <use xlink:href="#DejaVuSans-48"/>
       <use x="63.623047" xlink:href="#DejaVuSans-46"/>
       <use x="95.410156" xlink:href="#DejaVuSans-53"/>
       <use x="159.033203" xlink:href="#DejaVuSans-48"/>
      </g>
     </g>
    </g>
    <g id="xtick_4">
     <g id="line2d_4">
      <g>
       <use style="stroke:#000000;stroke-width:0.8;" x="195.578182" xlink:href="#m57c72c6953" y="307.584"/>
      </g>
     </g>
     <g id="text_4">
      <!-- 0.75 -->
      <defs>
       <path d="M 8.203125 72.90625 
L 55.078125 72.90625 
L 55.078125 68.703125 
L 28.609375 0 
L 18.3125 0 
L 43.21875 64.59375 
L 8.203125 64.59375 
z
" id="DejaVuSans-55"/>
      </defs>
      <g transform="translate(184.445369 322.182437)scale(0.1 -0.1)">
       <use xlink:href="#DejaVuSans-48"/>
       <use x="63.623047" xlink:href="#DejaVuSans-46"/>
       <use x="95.410156" xlink:href="#DejaVuSans-55"/>
       <use x="159.033203" xlink:href="#DejaVuSans-53"/>
      </g>
     </g>
    </g>
    <g id="xtick_5">
     <g id="line2d_5">
      <g>
       <use style="stroke:#000000;stroke-width:0.8;" x="236.16" xlink:href="#m57c72c6953" y="307.584"/>
      </g>
     </g>
     <g id="text_5">
      <!-- 1.00 -->
      <defs>
       <path d="M 12.40625 8.296875 
L 28.515625 8.296875 
L 28.515625 63.921875 
L 10.984375 60.40625 
L 10.984375 69.390625 
L 28.421875 72.90625 
L 38.28125 72.90625 
L 38.28125 8.296875 
L 54.390625 8.296875 
L 54.390625 0 
L 12.40625 0 
z
" id="DejaVuSans-49"/>
      </defs>
      <g transform="translate(225.027187 322.182437)scale(0.1 -0.1)">
       <use xlink:href="#DejaVuSans-49"/>
       <use x="63.623047" xlink:href="#DejaVuSans-46"/>
       <use x="95.410156" xlink:href="#DejaVuSans-48"/>
       <use x="159.033203" xlink:href="#DejaVuSans-48"/>
      </g>
     </g>
    </g>
    <g id="xtick_6">
     <g id="line2d_6">
      <g>
       <use style="stroke:#000000;stroke-width:0.8;" x="276.741818" xlink:href="#m57c72c6953" y="307.584"/>
      </g>
     </g>
     <g id="text_6">
      <!-- 1.25 -->
      <g transform="translate(265.609006 322.182437)scale(0.1 -0.1)">
       <use xlink:href="#DejaVuSans-49"/>
       <use x="63.623047" xlink:href="#DejaVuSans-46"/>
       <use x="95.410156" xlink:href="#DejaVuSans-50"/>
       <use x="159.033203" xlink:href="#DejaVuSans-53"/>
      </g>
     </g>
    </g>
    <g id="xtick_7">
     <g id="line2d_7">
      <g>
       <use style="stroke:#000000;stroke-width:0.8;" x="317.323636" xlink:href="#m57c72c6953" y="307.584"/>
      </g>
     </g>
     <g id="text_7">
      <!-- 1.50 -->
      <g transform="translate(306.190824 322.182437)scale(0.1 -0.1)">
       <use xlink:href="#DejaVuSans-49"/>
       <use x="63.623047" xlink:href="#DejaVuSans-46"/>
       <use x="95.410156" xlink:href="#DejaVuSans-53"/>
       <use x="159.033203" xlink:href="#DejaVuSans-48"/>
      </g>
     </g>
    </g>
    <g id="xtick_8">
     <g id="line2d_8">
      <g>
       <use style="stroke:#000000;stroke-width:0.8;" x="357.905455" xlink:href="#m57c72c6953" y="307.584"/>
      </g>
     </g>
     <g id="text_8">
      <!-- 1.75 -->
      <g transform="translate(346.772642 322.182437)scale(0.1 -0.1)">
       <use xlink:href="#DejaVuSans-49"/>
       <use x="63.623047" xlink:href="#DejaVuSans-46"/>
       <use x="95.410156" xlink:href="#DejaVuSans-55"/>
       <use x="159.033203" xlink:href="#DejaVuSans-53"/>
      </g>
     </g>
    </g>
    <g id="xtick_9">
     <g id="line2d_9">
      <g>
       <use style="stroke:#000000;stroke-width:0.8;" x="398.487273" xlink:href="#m57c72c6953" y="307.584"/>
      </g>
     </g>
     <g id="text_9">
      <!-- 2.00 -->
      <g transform="translate(387.35446 322.182437)scale(0.1 -0.1)">
       <use xlink:href="#DejaVuSans-50"/>
       <use x="63.623047" xlink:href="#DejaVuSans-46"/>
       <use x="95.410156" xlink:href="#DejaVuSans-48"/>
       <use x="159.033203" xlink:href="#DejaVuSans-48"/>
      </g>
     </g>
    </g>
   </g>
   <g id="matplotlib.axis_2">
    <g id="ytick_1">
     <g id="line2d_10">
      <defs>
       <path d="M 0 0 
L -3.5 0 
" id="mac9b22c3c0" style="stroke:#000000;stroke-width:0.8;"/>
      </defs>
      <g>
       <use style="stroke:#000000;stroke-width:0.8;" x="57.6" xlink:href="#mac9b22c3c0" y="259.688305"/>
      </g>
     </g>
     <g id="text_10">
      <!-- −1 -->
      <defs>
       <path d="M 10.59375 35.5 
L 73.1875 35.5 
L 73.1875 27.203125 
L 10.59375 27.203125 
z
" id="DejaVuSans-8722"/>
      </defs>
      <g transform="translate(35.857813 263.487524)scale(0.1 -0.1)">
       <use xlink:href="#DejaVuSans-8722"/>
       <use x="83.789062" xlink:href="#DejaVuSans-49"/>
      </g>
     </g>
    </g>
    <g id="ytick_2">
     <g id="line2d_11">
      <g>
       <use style="stroke:#000000;stroke-width:0.8;" x="57.6" xlink:href="#mac9b22c3c0" y="204.577589"/>
      </g>
     </g>
     <g id="text_11">
      <!-- 0 -->
      <g transform="translate(44.2375 208.376808)scale(0.1 -0.1)">
       <use xlink:href="#DejaVuSans-48"/>
      </g>
     </g>
    </g>
    <g id="ytick_3">
     <g id="line2d_12">
      <g>
       <use style="stroke:#000000;stroke-width:0.8;" x="57.6" xlink:href="#mac9b22c3c0" y="149.466873"/>
      </g>
     </g>
     <g id="text_12">
      <!-- 1 -->
      <g transform="translate(44.2375 153.266092)scale(0.1 -0.1)">
       <use xlink:href="#DejaVuSans-49"/>
      </g>
     </g>
    </g>
    <g id="ytick_4">
     <g id="line2d_13">
      <g>
       <use style="stroke:#000000;stroke-width:0.8;" x="57.6" xlink:href="#mac9b22c3c0" y="94.356157"/>
      </g>
     </g>
     <g id="text_13">
      <!-- 2 -->
      <g transform="translate(44.2375 98.155375)scale(0.1 -0.1)">
       <use xlink:href="#DejaVuSans-50"/>
      </g>
     </g>
    </g>
   </g>
   <g id="line2d_14">
    <defs>
     <path d="M 0 3 
C 0.795609 3 1.55874 2.683901 2.12132 2.12132 
C 2.683901 1.55874 3 0.795609 3 0 
C 3 -0.795609 2.683901 -1.55874 2.12132 -2.12132 
C 1.55874 -2.683901 0.795609 -3 0 -3 
C -0.795609 -3 -1.55874 -2.683901 -2.12132 -2.12132 
C -2.683901 -1.55874 -3 -0.795609 -3 0 
C -3 0.795609 -2.683901 1.55874 -2.12132 2.12132 
C -1.55874 2.683901 -0.795609 3 0 3 
z
" id="m11c3139327" style="stroke:#1f77b4;"/>
    </defs>
    <g clip-path="url(#p803960d452)">
     <use style="fill:#1f77b4;stroke:#1f77b4;" x="111.743877" xlink:href="#m11c3139327" y="113.9681"/>
     <use style="fill:#1f77b4;stroke:#1f77b4;" x="138.012687" xlink:href="#m11c3139327" y="145.458308"/>
     <use style="fill:#1f77b4;stroke:#1f77b4;" x="353.860318" xlink:href="#m11c3139327" y="177.108057"/>
     <use style="fill:#1f77b4;stroke:#1f77b4;" x="131.45978" xlink:href="#m11c3139327" y="194.725942"/>
     <use style="fill:#1f77b4;stroke:#1f77b4;" x="387.2683" xlink:href="#m11c3139327" y="180.849426"/>
     <use style="fill:#1f77b4;stroke:#1f77b4;" x="338.271943" xlink:href="#m11c3139327" y="238.523036"/>
     <use style="fill:#1f77b4;stroke:#1f77b4;" x="381.089717" xlink:href="#m11c3139327" y="288.802411"/>
     <use style="fill:#1f77b4;stroke:#1f77b4;" x="102.751957" xlink:href="#m11c3139327" y="116.164507"/>
     <use style="fill:#1f77b4;stroke:#1f77b4;" x="347.351687" xlink:href="#m11c3139327" y="295.488"/>
     <use style="fill:#1f77b4;stroke:#1f77b4;" x="267.726529" xlink:href="#m11c3139327" y="158.264293"/>
     <use style="fill:#1f77b4;stroke:#1f77b4;" x="348.875184" xlink:href="#m11c3139327" y="227.679413"/>
     <use style="fill:#1f77b4;stroke:#1f77b4;" x="133.985589" xlink:href="#m11c3139327" y="145.242848"/>
     <use style="fill:#1f77b4;stroke:#1f77b4;" x="143.963527" xlink:href="#m11c3139327" y="191.373806"/>
     <use style="fill:#1f77b4;stroke:#1f77b4;" x="93.341791" xlink:href="#m11c3139327" y="172.0213"/>
     <use style="fill:#1f77b4;stroke:#1f77b4;" x="84.415779" xlink:href="#m11c3139327" y="149.811668"/>
     <use style="fill:#1f77b4;stroke:#1f77b4;" x="233.781982" xlink:href="#m11c3139327" y="159.225752"/>
     <use style="fill:#1f77b4;stroke:#1f77b4;" x="297.422432" xlink:href="#m11c3139327" y="54.153651"/>
     <use style="fill:#1f77b4;stroke:#1f77b4;" x="260.700573" xlink:href="#m11c3139327" y="229.096102"/>
     <use style="fill:#1f77b4;stroke:#1f77b4;" x="375.99587" xlink:href="#m11c3139327" y="252.497072"/>
     <use style="fill:#1f77b4;stroke:#1f77b4;" x="145.952957" xlink:href="#m11c3139327" y="160.059927"/>
     <use style="fill:#1f77b4;stroke:#1f77b4;" x="394.641312" xlink:href="#m11c3139327" y="254.678137"/>
     <use style="fill:#1f77b4;stroke:#1f77b4;" x="140.518329" xlink:href="#m11c3139327" y="177.090723"/>
     <use style="fill:#1f77b4;stroke:#1f77b4;" x="283.860228" xlink:href="#m11c3139327" y="238.765855"/>
     <use style="fill:#1f77b4;stroke:#1f77b4;" x="303.496574" xlink:href="#m11c3139327" y="171.177671"/>
     <use style="fill:#1f77b4;stroke:#1f77b4;" x="303.479283" xlink:href="#m11c3139327" y="163.787394"/>
     <use style="fill:#1f77b4;stroke:#1f77b4;" x="224.670141" xlink:href="#m11c3139327" y="265.754372"/>
     <use style="fill:#1f77b4;stroke:#1f77b4;" x="273.312738" xlink:href="#m11c3139327" y="53.568"/>
     <use style="fill:#1f77b4;stroke:#1f77b4;" x="83.484804" xlink:href="#m11c3139327" y="182.466356"/>
     <use style="fill:#1f77b4;stroke:#1f77b4;" x="263.413133" xlink:href="#m11c3139327" y="178.197925"/>
     <use style="fill:#1f77b4;stroke:#1f77b4;" x="270.011099" xlink:href="#m11c3139327" y="127.484478"/>
    </g>
   </g>
   <g id="line2d_15">
    <path clip-path="url(#p803960d452)" d="M 73.832727 142.640713 
L 77.112066 143.42089 
L 80.391405 144.201067 
L 83.670744 144.981244 
L 86.950083 145.761421 
L 90.229421 146.541598 
L 93.50876 147.321776 
L 96.788099 148.101953 
L 100.067438 148.88213 
L 103.346777 149.662307 
L 106.626116 150.442484 
L 109.905455 151.222661 
L 113.184793 152.002838 
L 116.464132 152.783015 
L 119.743471 153.563192 
L 123.02281 154.34337 
L 126.302149 155.123547 
L 129.581488 155.903724 
L 132.860826 156.683901 
L 136.140165 157.464078 
L 139.419504 158.244255 
L 142.698843 159.024432 
L 145.978182 159.804609 
L 149.257521 160.584786 
L 152.53686 161.364964 
L 155.816198 162.145141 
L 159.095537 162.925318 
L 162.374876 163.705495 
L 165.654215 164.485672 
L 168.933554 165.265849 
L 172.212893 166.046026 
L 175.492231 166.826203 
L 178.77157 167.606381 
L 182.050909 168.386558 
L 185.330248 169.166735 
L 188.609587 169.946912 
L 191.888926 170.727089 
L 195.168264 171.507266 
L 198.447603 172.287443 
L 201.726942 173.06762 
L 205.006281 173.847797 
L 208.28562 174.627975 
L 211.564959 175.408152 
L 214.844298 176.188329 
L 218.123636 176.968506 
L 221.402975 177.748683 
L 224.682314 178.52886 
L 227.961653 179.309037 
L 231.240992 180.089214 
L 234.520331 180.869391 
L 237.799669 181.649569 
L 241.079008 182.429746 
L 244.358347 183.209923 
L 247.637686 183.9901 
L 250.917025 184.770277 
L 254.196364 185.550454 
L 257.475702 186.330631 
L 260.755041 187.110808 
L 264.03438 187.890985 
L 267.313719 188.671163 
L 270.593058 189.45134 
L 273.872397 190.231517 
L 277.151736 191.011694 
L 280.431074 191.791871 
L 283.710413 192.572048 
L 286.989752 193.352225 
L 290.269091 194.132402 
L 293.54843 194.912579 
L 296.827769 195.692757 
L 300.107107 196.472934 
L 303.386446 197.253111 
L 306.665785 198.033288 
L 309.945124 198.813465 
L 313.224463 199.593642 
L 316.503802 200.373819 
L 319.78314 201.153996 
L 323.062479 201.934173 
L 326.341818 202.714351 
L 329.621157 203.494528 
L 332.900496 204.274705 
L 336.179835 205.054882 
L 339.459174 205.835059 
L 342.738512 206.615236 
L 346.017851 207.395413 
L 349.29719 208.17559 
L 352.576529 208.955768 
L 355.855868 209.735945 
L 359.135207 210.516122 
L 362.414545 211.296299 
L 365.693884 212.076476 
L 368.973223 212.856653 
L 372.252562 213.63683 
L 375.531901 214.417007 
L 378.81124 215.197184 
L 382.090579 215.977362 
L 385.369917 216.757539 
L 388.649256 217.537716 
L 391.928595 218.317893 
L 395.207934 219.09807 
L 398.487273 219.878247 
" style="fill:none;stroke:#ff7f0e;stroke-linecap:square;stroke-width:1.5;"/>
   </g>
   <g id="patch_3">
    <path d="M 57.6 307.584 
L 57.6 41.472 
" style="fill:none;stroke:#000000;stroke-linecap:square;stroke-linejoin:miter;stroke-width:0.8;"/>
   </g>
   <g id="patch_4">
    <path d="M 414.72 307.584 
L 414.72 41.472 
" style="fill:none;stroke:#000000;stroke-linecap:square;stroke-linejoin:miter;stroke-width:0.8;"/>
   </g>
   <g id="patch_5">
    <path d="M 57.6 307.584 
L 414.72 307.584 
" style="fill:none;stroke:#000000;stroke-linecap:square;stroke-linejoin:miter;stroke-width:0.8;"/>
   </g>
   <g id="patch_6">
    <path d="M 57.6 41.472 
L 414.72 41.472 
" style="fill:none;stroke:#000000;stroke-linecap:square;stroke-linejoin:miter;stroke-width:0.8;"/>
   </g>
  </g>
 </g>
 <defs>
  <clipPath id="p803960d452">
   <rect height="266.112" width="357.12" x="57.6" y="41.472"/>
  </clipPath>
 </defs>
</svg>
