<?xml version="1.0" encoding="utf-8"?>
<!-- Generator: Adobe Illustrator 20.1.0, SVG Export Plug-In . SVG Version: 6.00 Build 0)  -->
<svg version="1.1" id="Layer_1" xmlns="http://www.w3.org/2000/svg" xmlns:xlink="http://www.w3.org/1999/xlink" x="0px" y="0px"
	 viewBox="0 0 378.2 281.4" style="enable-background:new 0 0 378.2 281.4;" xml:space="preserve">
<style type="text/css">
	.st0{display:none;}
	.st1{display:inline;fill:#FFFFFF;}
	.st2{stroke:#000000;stroke-width:0.8;stroke-linejoin:round;}
	.st3{clip-path:url(#SVGID_2_);}
	.st4{fill:#3FDEA7;stroke:#3FDEA7;stroke-linejoin:round;}
	.st5{clip-path:url(#SVGID_4_);}
	.st6{fill:#CEB098;stroke:#CEB098;stroke-linejoin:round;}
	.st7{clip-path:url(#SVGID_6_);fill:none;stroke:#808080;stroke-width:1.5;stroke-linecap:square;stroke-linejoin:round;}
	.st8{clip-path:url(#SVGID_8_);fill:none;stroke:#808080;stroke-width:1.5;stroke-linecap:square;stroke-linejoin:round;}
	.st9{fill:none;stroke:#000000;stroke-width:0.8;stroke-linecap:square;}
</style>
<g id="figure_1">
	<g id="axes_1">
		<g id="patch_2" class="st0">
			<path class="st1" d="M20.7,266.7h357.1V0.6H20.7V266.7z"/>
		</g>
		<g id="matplotlib.axis_1">
			<g id="xtick_1">
				<g id="line2d_1">
					<g>
						<g>
							<path id="m5f6328de20" class="st2" d="M36.9,266.7v3.5"/>
						</g>
					</g>
				</g>
				<g id="text_1">
					<g transform="translate(66.461634 322.182437)scale(0.1 -0.1)">
						<g>
							<path id="DejaVuSans-8722" d="M-358.6,444.5h62.6v-8.3h-62.6V444.5z"/>
						</g>
						<g>
							<path id="DejaVuSans-50" d="M-266.2,417.3h34.4V409h-46.3v8.3c3.7,3.9,8.8,9.1,15.3,15.6c6.5,6.5,10.5,10.7,12.2,12.6
								c3.2,3.5,5.4,6.5,6.6,9c1.3,2.5,1.9,4.9,1.9,7.3c0,3.9-1.4,7-4.1,9.5c-2.7,2.4-6.3,3.7-10.6,3.7c-3.1,0-6.4-0.5-9.8-1.6
								c-3.4-1.1-7.1-2.7-11-4.9v10c4,1.6,7.7,2.8,11.1,3.6c3.5,0.8,6.6,1.2,9.5,1.2c7.6,0,13.6-1.9,18.1-5.7
								c4.5-3.8,6.7-8.8,6.7-15.1c0-3-0.6-5.8-1.7-8.5c-1.1-2.7-3.2-5.8-6.1-9.5c-0.8-0.9-3.4-3.7-7.8-8.2
								C-252.1,431.7-258.2,425.4-266.2,417.3z"/>
						</g>
					</g>
				</g>
			</g>
			<g id="xtick_2">
				<g id="line2d_2">
					<g>
						<g>
							<path id="m5f6328de20_1_" class="st2" d="M85,266.7v3.5"/>
						</g>
					</g>
				</g>
				<g id="text_2">
					<g transform="translate(114.50922 322.182437)scale(0.1 -0.1)">
						<g>
							<path id="DejaVuSans-8722_1_" d="M-358.6,444.5h62.6v-8.3h-62.6V444.5z"/>
						</g>
						<g>
							<path id="DejaVuSans-49" d="M-273,417.3h16.1v55.6l-17.5-3.5v9l17.4,3.5h9.9v-64.6h16.1V409h-42V417.3z"/>
						</g>
					</g>
				</g>
			</g>
			<g id="xtick_3">
				<g id="line2d_3">
					<g>
						<g>
							<path id="m5f6328de20_2_" class="st2" d="M133,266.7v3.5"/>
						</g>
					</g>
				</g>
				<g id="text_3">
					<g transform="translate(166.746649 322.182437)scale(0.1 -0.1)">
						<g>
							<path id="DejaVuSans-48" d="M-337.4,475.4c-5.1,0-8.9-2.5-11.5-7.5c-2.6-5-3.8-12.5-3.8-22.5c0-10,1.3-17.5,3.8-22.5
								c2.6-5,6.4-7.5,11.5-7.5c5.1,0,8.9,2.5,11.5,7.5c2.6,5,3.8,12.5,3.8,22.5c0,10-1.3,17.5-3.8,22.5
								C-328.4,472.9-332.3,475.4-337.4,475.4z M-337.4,483.2c8.2,0,14.4-3.2,18.7-9.7c4.3-6.5,6.5-15.8,6.5-28.1
								c0-12.3-2.2-21.6-6.5-28.1c-4.3-6.5-10.6-9.7-18.7-9.7c-8.2,0-14.4,3.2-18.7,9.7c-4.3,6.5-6.5,15.8-6.5,28.1
								c0,12.3,2.2,21.7,6.5,28.1C-351.8,480-345.6,483.2-337.4,483.2z"/>
						</g>
					</g>
				</g>
			</g>
			<g id="xtick_4">
				<g id="line2d_4">
					<g>
						<g>
							<path id="m5f6328de20_3_" class="st2" d="M181.1,266.7v3.5"/>
						</g>
					</g>
				</g>
				<g id="text_4">
					<g transform="translate(214.794236 322.182437)scale(0.1 -0.1)">
						<g>
							<path id="DejaVuSans-49_1_" d="M-356.8,417.3h16.1v55.6l-17.5-3.5v9l17.4,3.5h9.9v-64.6h16.1V409h-42V417.3z"/>
						</g>
					</g>
				</g>
			</g>
			<g id="xtick_5">
				<g id="line2d_5">
					<g>
						<g>
							<path id="m5f6328de20_4_" class="st2" d="M229.1,266.7v3.5"/>
						</g>
					</g>
				</g>
				<g id="text_5">
					<g transform="translate(262.841822 322.182437)scale(0.1 -0.1)">
						<g>
							<path id="DejaVuSans-50_1_" d="M-350,417.3h34.4V409h-46.3v8.3c3.7,3.9,8.8,9.1,15.3,15.6c6.5,6.5,10.5,10.7,12.2,12.6
								c3.2,3.5,5.4,6.5,6.6,9c1.3,2.5,1.9,4.9,1.9,7.3c0,3.9-1.4,7-4.1,9.5c-2.7,2.4-6.3,3.7-10.6,3.7c-3.1,0-6.4-0.5-9.8-1.6
								c-3.4-1.1-7.1-2.7-11-4.9v10c4,1.6,7.7,2.8,11.1,3.6c3.5,0.8,6.6,1.2,9.5,1.2c7.6,0,13.6-1.9,18.1-5.7
								c4.5-3.8,6.7-8.8,6.7-15.1c0-3-0.6-5.8-1.7-8.5c-1.1-2.7-3.2-5.8-6.1-9.5c-0.8-0.9-3.4-3.7-7.8-8.2
								C-335.9,431.7-342,425.4-350,417.3z"/>
						</g>
					</g>
				</g>
			</g>
			<g id="xtick_6">
				<g id="line2d_6">
					<g>
						<g>
							<path id="m5f6328de20_5_" class="st2" d="M277.2,266.7v3.5"/>
						</g>
					</g>
				</g>
				<g id="text_6">
					<g transform="translate(310.889408 322.182437)scale(0.1 -0.1)">
						<g>
							<path id="DejaVuSans-51" d="M-328.6,448.3c4.7-1,8.4-3.1,11-6.3c2.7-3.2,4-7.1,4-11.8c0-7.2-2.5-12.8-7.4-16.7
								c-4.9-3.9-12-5.9-21.1-5.9c-3.1,0-6.2,0.3-9.4,0.9c-3.2,0.6-6.6,1.5-10,2.7v9.5c2.7-1.6,5.7-2.8,9-3.6
								c3.3-0.8,6.7-1.2,10.2-1.2c6.2,0,10.9,1.2,14.1,3.7c3.2,2.4,4.9,6,4.9,10.6c0,4.3-1.5,7.7-4.5,10.1c-3,2.4-7.2,3.6-12.6,3.6
								h-8.5v8.1h8.9c4.8,0,8.6,1,11.1,2.9c2.6,1.9,3.9,4.7,3.9,8.4c0,3.7-1.3,6.6-4,8.6c-2.6,2-6.4,3-11.4,3
								c-2.7,0-5.6-0.3-8.7-0.9c-3.1-0.6-6.5-1.5-10.2-2.7v8.8c3.8,1,7.3,1.8,10.5,2.3c3.3,0.5,6.4,0.8,9.3,0.8
								c7.5,0,13.4-1.7,17.8-5.1c4.4-3.4,6.5-8,6.5-13.8c0-4-1.2-7.5-3.5-10.2S-324.3,449.4-328.6,448.3z"/>
						</g>
					</g>
				</g>
			</g>
			<g id="xtick_7">
				<g id="line2d_7">
					<g>
						<g>
							<path id="m5f6328de20_6_" class="st2" d="M325.2,266.7v3.5"/>
						</g>
					</g>
				</g>
				<g id="text_7">
					<g transform="translate(358.936994 322.182437)scale(0.1 -0.1)">
						<g>
							<path id="DejaVuSans-52" d="M-331.4,473.3l-24.9-38.9h24.9V473.3z M-334,481.9h12.4v-47.5h10.4v-8.2h-10.4V409h-9.8v17.2
								h-32.9v9.5L-334,481.9z"/>
						</g>
					</g>
				</g>
			</g>
			<g id="xtick_8">
				<g id="line2d_8">
					<g>
						<g>
							<path id="m5f6328de20_7_" class="st2" d="M373.2,266.7v3.5"/>
						</g>
					</g>
				</g>
				<g id="text_8">
					<g transform="translate(406.98458 322.182437)scale(0.1 -0.1)">
						<g>
							<path id="DejaVuSans-53" d="M-358.4,481.9h38.7v-8.3h-29.7v-17.9c1.4,0.5,2.9,0.9,4.3,1.1c1.4,0.2,2.9,0.4,4.3,0.4
								c8.1,0,14.6-2.2,19.3-6.7c4.8-4.5,7.1-10.5,7.1-18.1c0-7.8-2.4-13.9-7.3-18.3c-4.9-4.3-11.8-6.5-20.7-6.5
								c-3.1,0-6.2,0.3-9.4,0.8c-3.2,0.5-6.4,1.3-9.8,2.3v9.9c2.9-1.6,6-2.8,9.1-3.6s6.4-1.2,9.9-1.2c5.6,0,10.1,1.5,13.4,4.4
								c3.3,3,4.9,7,4.9,12.1c0,5.1-1.6,9.1-4.9,12c-3.3,3-7.7,4.5-13.4,4.5c-2.6,0-5.3-0.3-7.9-0.9c-2.6-0.6-5.3-1.5-8-2.7V481.9z"
								/>
						</g>
					</g>
				</g>
			</g>
		</g>
		<g id="matplotlib.axis_2">
			<g id="ytick_1">
				<g id="line2d_9">
					<g>
						<g>
							<path id="m46f87b46f5" class="st2" d="M20.7,254.6h-3.5"/>
						</g>
					</g>
				</g>
				<g id="text_9">
					<g transform="translate(35.857813 299.290879)scale(0.1 -0.1)">
						<g>
							<path id="DejaVuSans-8722_2_" d="M-358.6,444.5h62.6v-8.3h-62.6V444.5z"/>
						</g>
						<g>
							<path id="DejaVuSans-50_2_" d="M-266.2,417.3h34.4V409h-46.3v8.3c3.7,3.9,8.8,9.1,15.3,15.6c6.5,6.5,10.5,10.7,12.2,12.6
								c3.2,3.5,5.4,6.5,6.6,9c1.3,2.5,1.9,4.9,1.9,7.3c0,3.9-1.4,7-4.1,9.5c-2.7,2.4-6.3,3.7-10.6,3.7c-3.1,0-6.4-0.5-9.8-1.6
								c-3.4-1.1-7.1-2.7-11-4.9v10c4,1.6,7.7,2.8,11.1,3.6c3.5,0.8,6.6,1.2,9.5,1.2c7.6,0,13.6-1.9,18.1-5.7
								c4.5-3.8,6.7-8.8,6.7-15.1c0-3-0.6-5.8-1.7-8.5c-1.1-2.7-3.2-5.8-6.1-9.5c-0.8-0.9-3.4-3.7-7.8-8.2
								C-252.1,431.7-258.2,425.4-266.2,417.3z"/>
						</g>
					</g>
				</g>
			</g>
			<g id="ytick_2">
				<g id="line2d_10">
					<g>
						<g>
							<path id="m46f87b46f5_1_" class="st2" d="M20.7,218.7h-3.5"/>
						</g>
					</g>
				</g>
				<g id="text_10">
					<g transform="translate(35.857813 263.419757)scale(0.1 -0.1)">
						<g>
							<path id="DejaVuSans-8722_3_" d="M-358.6,444.5h62.6v-8.3h-62.6V444.5z"/>
						</g>
						<g>
							<path id="DejaVuSans-49_2_" d="M-273,417.3h16.1v55.6l-17.5-3.5v9l17.4,3.5h9.9v-64.6h16.1V409h-42V417.3z"/>
						</g>
					</g>
				</g>
			</g>
			<g id="ytick_3">
				<g id="line2d_11">
					<g>
						<g>
							<path id="m46f87b46f5_2_" class="st2" d="M20.7,182.8h-3.5"/>
						</g>
					</g>
				</g>
				<g id="text_11">
					<g transform="translate(44.2375 227.548635)scale(0.1 -0.1)">
						<g>
							<path id="DejaVuSans-48_1_" d="M-337.4,475.4c-5.1,0-8.9-2.5-11.5-7.5c-2.6-5-3.8-12.5-3.8-22.5c0-10,1.3-17.5,3.8-22.5
								c2.6-5,6.4-7.5,11.5-7.5c5.1,0,8.9,2.5,11.5,7.5c2.6,5,3.8,12.5,3.8,22.5c0,10-1.3,17.5-3.8,22.5
								C-328.4,472.9-332.3,475.4-337.4,475.4z M-337.4,483.2c8.2,0,14.4-3.2,18.7-9.7c4.3-6.5,6.5-15.8,6.5-28.1
								c0-12.3-2.2-21.6-6.5-28.1c-4.3-6.5-10.6-9.7-18.7-9.7c-8.2,0-14.4,3.2-18.7,9.7c-4.3,6.5-6.5,15.8-6.5,28.1
								c0,12.3,2.2,21.7,6.5,28.1C-351.8,480-345.6,483.2-337.4,483.2z"/>
						</g>
					</g>
				</g>
			</g>
			<g id="ytick_4">
				<g id="line2d_12">
					<g>
						<g>
							<path id="m46f87b46f5_3_" class="st2" d="M20.7,147h-3.5"/>
						</g>
					</g>
				</g>
				<g id="text_12">
					<g transform="translate(44.2375 191.677513)scale(0.1 -0.1)">
						<g>
							<path id="DejaVuSans-49_3_" d="M-356.8,417.3h16.1v55.6l-17.5-3.5v9l17.4,3.5h9.9v-64.6h16.1V409h-42V417.3z"/>
						</g>
					</g>
				</g>
			</g>
			<g id="ytick_5">
				<g id="line2d_13">
					<g>
						<g>
							<path id="m46f87b46f5_4_" class="st2" d="M20.7,111.1h-3.5"/>
						</g>
					</g>
				</g>
				<g id="text_13">
					<g transform="translate(44.2375 155.806391)scale(0.1 -0.1)">
						<g>
							<path id="DejaVuSans-50_3_" d="M-350,417.3h34.4V409h-46.3v8.3c3.7,3.9,8.8,9.1,15.3,15.6c6.5,6.5,10.5,10.7,12.2,12.6
								c3.2,3.5,5.4,6.5,6.6,9c1.3,2.5,1.9,4.9,1.9,7.3c0,3.9-1.4,7-4.1,9.5c-2.7,2.4-6.3,3.7-10.6,3.7c-3.1,0-6.4-0.5-9.8-1.6
								c-3.4-1.1-7.1-2.7-11-4.9v10c4,1.6,7.7,2.8,11.1,3.6c3.5,0.8,6.6,1.2,9.5,1.2c7.6,0,13.6-1.9,18.1-5.7
								c4.5-3.8,6.7-8.8,6.7-15.1c0-3-0.6-5.8-1.7-8.5c-1.1-2.7-3.2-5.8-6.1-9.5c-0.8-0.9-3.4-3.7-7.8-8.2
								C-335.9,431.7-342,425.4-350,417.3z"/>
						</g>
					</g>
				</g>
			</g>
			<g id="ytick_6">
				<g id="line2d_14">
					<g>
						<g>
							<path id="m46f87b46f5_5_" class="st2" d="M20.7,75.2h-3.5"/>
						</g>
					</g>
				</g>
				<g id="text_14">
					<g transform="translate(44.2375 119.935269)scale(0.1 -0.1)">
						<g>
							<path id="DejaVuSans-51_1_" d="M-328.6,448.3c4.7-1,8.4-3.1,11-6.3c2.7-3.2,4-7.1,4-11.8c0-7.2-2.5-12.8-7.4-16.7
								c-4.9-3.9-12-5.9-21.1-5.9c-3.1,0-6.2,0.3-9.4,0.9c-3.2,0.6-6.6,1.5-10,2.7v9.5c2.7-1.6,5.7-2.8,9-3.6
								c3.3-0.8,6.7-1.2,10.2-1.2c6.2,0,10.9,1.2,14.1,3.7c3.2,2.4,4.9,6,4.9,10.6c0,4.3-1.5,7.7-4.5,10.1c-3,2.4-7.2,3.6-12.6,3.6
								h-8.5v8.1h8.9c4.8,0,8.6,1,11.1,2.9c2.6,1.9,3.9,4.7,3.9,8.4c0,3.7-1.3,6.6-4,8.6c-2.6,2-6.4,3-11.4,3
								c-2.7,0-5.6-0.3-8.7-0.9c-3.1-0.6-6.5-1.5-10.2-2.7v8.8c3.8,1,7.3,1.8,10.5,2.3c3.3,0.5,6.4,0.8,9.3,0.8
								c7.5,0,13.4-1.7,17.8-5.1c4.4-3.4,6.5-8,6.5-13.8c0-4-1.2-7.5-3.5-10.2S-324.3,449.4-328.6,448.3z"/>
						</g>
					</g>
				</g>
			</g>
			<g id="ytick_7">
				<g id="line2d_15">
					<g>
						<g>
							<path id="m46f87b46f5_6_" class="st2" d="M20.7,39.4h-3.5"/>
						</g>
					</g>
				</g>
				<g id="text_15">
					<g transform="translate(44.2375 84.064147)scale(0.1 -0.1)">
						<g>
							<path id="DejaVuSans-52_1_" d="M-331.4,473.3l-24.9-38.9h24.9V473.3z M-334,481.9h12.4v-47.5h10.4v-8.2h-10.4V409h-9.8v17.2
								h-32.9v9.5L-334,481.9z"/>
						</g>
					</g>
				</g>
			</g>
			<g id="ytick_8">
				<g id="line2d_16">
					<g>
						<g>
							<path id="m46f87b46f5_7_" class="st2" d="M20.7,3.5h-3.5"/>
						</g>
					</g>
				</g>
				<g id="text_16">
					<g transform="translate(44.2375 48.193026)scale(0.1 -0.1)">
						<g>
							<path id="DejaVuSans-53_1_" d="M-358.4,481.9h38.7v-8.3h-29.7v-17.9c1.4,0.5,2.9,0.9,4.3,1.1c1.4,0.2,2.9,0.4,4.3,0.4
								c8.1,0,14.6-2.2,19.3-6.7c4.8-4.5,7.1-10.5,7.1-18.1c0-7.8-2.4-13.9-7.3-18.3c-4.9-4.3-11.8-6.5-20.7-6.5
								c-3.1,0-6.2,0.3-9.4,0.8c-3.2,0.5-6.4,1.3-9.8,2.3v9.9c2.9-1.6,6-2.8,9.1-3.6s6.4-1.2,9.9-1.2c5.6,0,10.1,1.5,13.4,4.4
								c3.3,3,4.9,7,4.9,12.1c0,5.1-1.6,9.1-4.9,12c-3.3,3-7.7,4.5-13.4,4.5c-2.6,0-5.3-0.3-7.9-0.9c-2.6-0.6-5.3-1.5-8-2.7V481.9z"
								/>
						</g>
					</g>
				</g>
			</g>
		</g>
		<g id="line2d_17">
			<g>
				<defs>
					<rect id="SVGID_1_" x="20.7" y="0.6" width="357.1" height="266.1"/>
				</defs>
				<clipPath id="SVGID_2_">
					<use xlink:href="#SVGID_1_"  style="overflow:visible;"/>
				</clipPath>
				<g class="st3">
					<g>
						<path id="mce2cfc0837" class="st4" d="M92.6,164.8c0.8,0,1.6-0.3,2.1-0.9c0.6-0.6,0.9-1.3,0.9-2.1s-0.3-1.6-0.9-2.1
							c-0.6-0.6-1.3-0.9-2.1-0.9s-1.6,0.3-2.1,0.9c-0.6,0.6-0.9,1.3-0.9,2.1s0.3,1.6,0.9,2.1C91.1,164.5,91.8,164.8,92.6,164.8z"/>
					</g>
					<g>
						<path id="mce2cfc0837_1_" class="st4" d="M151.5,234.8c0.8,0,1.6-0.3,2.1-0.9s0.9-1.3,0.9-2.1s-0.3-1.6-0.9-2.1
							c-0.6-0.6-1.3-0.9-2.1-0.9s-1.6,0.3-2.1,0.9c-0.6,0.6-0.9,1.3-0.9,2.1s0.3,1.6,0.9,2.1S150.7,234.8,151.5,234.8z"/>
					</g>
					<g>
						<path id="mce2cfc0837_2_" class="st4" d="M142.1,130.1c0.8,0,1.6-0.3,2.1-0.9s0.9-1.3,0.9-2.1s-0.3-1.6-0.9-2.1
							c-0.6-0.6-1.3-0.9-2.1-0.9s-1.6,0.3-2.1,0.9c-0.6,0.6-0.9,1.3-0.9,2.1s0.3,1.6,0.9,2.1S141.3,130.1,142.1,130.1z"/>
					</g>
					<g>
						<path id="mce2cfc0837_3_" class="st4" d="M115.8,143.5c0.8,0,1.6-0.3,2.1-0.9c0.6-0.6,0.9-1.3,0.9-2.1s-0.3-1.6-0.9-2.1
							c-0.6-0.6-1.3-0.9-2.1-0.9s-1.6,0.3-2.1,0.9c-0.6,0.6-0.9,1.3-0.9,2.1s0.3,1.6,0.9,2.1C114.2,143.2,115,143.5,115.8,143.5z"/>
					</g>
					<g>
						<path id="mce2cfc0837_4_" class="st4" d="M166.8,186.6c0.8,0,1.6-0.3,2.1-0.9s0.9-1.3,0.9-2.1s-0.3-1.6-0.9-2.1
							c-0.6-0.6-1.3-0.9-2.1-0.9s-1.6,0.3-2.1,0.9c-0.6,0.6-0.9,1.3-0.9,2.1s0.3,1.6,0.9,2.1S166,186.6,166.8,186.6z"/>
					</g>
					<g>
						<path id="mce2cfc0837_5_" class="st4" d="M121.9,192.7c0.8,0,1.6-0.3,2.1-0.9c0.6-0.6,0.9-1.3,0.9-2.1s-0.3-1.6-0.9-2.1
							c-0.6-0.6-1.3-0.9-2.1-0.9s-1.6,0.3-2.1,0.9c-0.6,0.6-0.9,1.3-0.9,2.1s0.3,1.6,0.9,2.1C120.4,192.3,121.1,192.7,121.9,192.7z"
							/>
					</g>
					<g>
						<path id="mce2cfc0837_6_" class="st4" d="M172.7,178.5c0.8,0,1.6-0.3,2.1-0.9s0.9-1.3,0.9-2.1s-0.3-1.6-0.9-2.1
							c-0.6-0.6-1.3-0.9-2.1-0.9s-1.6,0.3-2.1,0.9c-0.6,0.6-0.9,1.3-0.9,2.1s0.3,1.6,0.9,2.1S171.9,178.5,172.7,178.5z"/>
					</g>
					<g>
						<path id="mce2cfc0837_7_" class="st4" d="M97.4,175.4c0.8,0,1.6-0.3,2.1-0.9c0.6-0.6,0.9-1.3,0.9-2.1s-0.3-1.6-0.9-2.1
							c-0.6-0.6-1.3-0.9-2.1-0.9s-1.6,0.3-2.1,0.9c-0.6,0.6-0.9,1.3-0.9,2.1s0.3,1.6,0.9,2.1C95.8,175.1,96.6,175.4,97.4,175.4z"/>
					</g>
					<g>
						<path id="mce2cfc0837_8_" class="st4" d="M87,175.6c0.8,0,1.6-0.3,2.1-0.9c0.6-0.6,0.9-1.3,0.9-2.1s-0.3-1.6-0.9-2.1
							c-0.6-0.6-1.3-0.9-2.1-0.9s-1.6,0.3-2.1,0.9c-0.6,0.6-0.9,1.3-0.9,2.1s0.3,1.6,0.9,2.1C85.4,175.3,86.2,175.6,87,175.6z"/>
					</g>
					<g>
						<path id="mce2cfc0837_9_" class="st4" d="M82.6,191c0.8,0,1.6-0.3,2.1-0.9c0.6-0.6,0.9-1.3,0.9-2.1s-0.3-1.6-0.9-2.1
							c-0.6-0.6-1.3-0.9-2.1-0.9s-1.6,0.3-2.1,0.9c-0.6,0.6-0.9,1.3-0.9,2.1s0.3,1.6,0.9,2.1C81.1,190.7,81.8,191,82.6,191z"/>
					</g>
					<g>
						<path id="mce2cfc0837_10_" class="st4" d="M147.8,166.2c0.8,0,1.6-0.3,2.1-0.9s0.9-1.3,0.9-2.1s-0.3-1.6-0.9-2.1
							c-0.6-0.6-1.3-0.9-2.1-0.9s-1.6,0.3-2.1,0.9c-0.6,0.6-0.9,1.3-0.9,2.1s0.3,1.6,0.9,2.1S147,166.2,147.8,166.2z"/>
					</g>
					<g>
						<path id="mce2cfc0837_11_" class="st4" d="M171.5,165.1c0.8,0,1.6-0.3,2.1-0.9s0.9-1.3,0.9-2.1s-0.3-1.6-0.9-2.1
							c-0.6-0.6-1.3-0.9-2.1-0.9s-1.6,0.3-2.1,0.9c-0.6,0.6-0.9,1.3-0.9,2.1s0.3,1.6,0.9,2.1S170.7,165.1,171.5,165.1z"/>
					</g>
					<g>
						<path id="mce2cfc0837_12_" class="st4" d="M88,236.6c0.8,0,1.6-0.3,2.1-0.9c0.6-0.6,0.9-1.3,0.9-2.1s-0.3-1.6-0.9-2.1
							c-0.6-0.6-1.3-0.9-2.1-0.9s-1.6,0.3-2.1,0.9c-0.6,0.6-0.9,1.3-0.9,2.1s0.3,1.6,0.9,2.1C86.4,236.3,87.2,236.6,88,236.6z"/>
					</g>
					<g>
						<path id="mce2cfc0837_13_" class="st4" d="M121.1,208.6c0.8,0,1.6-0.3,2.1-0.9c0.6-0.6,0.9-1.3,0.9-2.1s-0.3-1.6-0.9-2.1
							c-0.6-0.6-1.3-0.9-2.1-0.9s-1.6,0.3-2.1,0.9c-0.6,0.6-0.9,1.3-0.9,2.1s0.3,1.6,0.9,2.1C119.5,208.3,120.3,208.6,121.1,208.6z"
							/>
					</g>
					<g>
						<path id="mce2cfc0837_14_" class="st4" d="M133.7,181.4c0.8,0,1.6-0.3,2.1-0.9s0.9-1.3,0.9-2.1s-0.3-1.6-0.9-2.1
							c-0.6-0.6-1.3-0.9-2.1-0.9s-1.6,0.3-2.1,0.9c-0.6,0.6-0.9,1.3-0.9,2.1s0.3,1.6,0.9,2.1S132.9,181.4,133.7,181.4z"/>
					</g>
					<g>
						<path id="mce2cfc0837_15_" class="st4" d="M152.4,189.9c0.8,0,1.6-0.3,2.1-0.9s0.9-1.3,0.9-2.1s-0.3-1.6-0.9-2.1
							c-0.6-0.6-1.3-0.9-2.1-0.9s-1.6,0.3-2.1,0.9c-0.6,0.6-0.9,1.3-0.9,2.1s0.3,1.6,0.9,2.1S151.6,189.9,152.4,189.9z"/>
					</g>
					<g>
						<path id="mce2cfc0837_16_" class="st4" d="M169.7,179.6c0.8,0,1.6-0.3,2.1-0.9s0.9-1.3,0.9-2.1s-0.3-1.6-0.9-2.1
							c-0.6-0.6-1.3-0.9-2.1-0.9s-1.6,0.3-2.1,0.9c-0.6,0.6-0.9,1.3-0.9,2.1s0.3,1.6,0.9,2.1S168.9,179.6,169.7,179.6z"/>
					</g>
					<g>
						<path id="mce2cfc0837_17_" class="st4" d="M145.8,154.1c0.8,0,1.6-0.3,2.1-0.9s0.9-1.3,0.9-2.1s-0.3-1.6-0.9-2.1
							c-0.6-0.6-1.3-0.9-2.1-0.9s-1.6,0.3-2.1,0.9c-0.6,0.6-0.9,1.3-0.9,2.1s0.3,1.6,0.9,2.1S145,154.1,145.8,154.1z"/>
					</g>
					<g>
						<path id="mce2cfc0837_18_" class="st4" d="M123.7,175.6c0.8,0,1.6-0.3,2.1-0.9c0.6-0.6,0.9-1.3,0.9-2.1s-0.3-1.6-0.9-2.1
							c-0.6-0.6-1.3-0.9-2.1-0.9s-1.6,0.3-2.1,0.9c-0.6,0.6-0.9,1.3-0.9,2.1s0.3,1.6,0.9,2.1C122.1,175.3,122.9,175.6,123.7,175.6z"
							/>
					</g>
					<g>
						<path id="mce2cfc0837_19_" class="st4" d="M116.1,196.4c0.8,0,1.6-0.3,2.1-0.9c0.6-0.6,0.9-1.3,0.9-2.1s-0.3-1.6-0.9-2.1
							c-0.6-0.6-1.3-0.9-2.1-0.9s-1.6,0.3-2.1,0.9c-0.6,0.6-0.9,1.3-0.9,2.1s0.3,1.6,0.9,2.1C114.5,196.1,115.3,196.4,116.1,196.4z"
							/>
					</g>
					<g>
						<path id="mce2cfc0837_20_" class="st4" d="M155,160.6c0.8,0,1.6-0.3,2.1-0.9s0.9-1.3,0.9-2.1s-0.3-1.6-0.9-2.1
							c-0.6-0.6-1.3-0.9-2.1-0.9s-1.6,0.3-2.1,0.9c-0.6,0.6-0.9,1.3-0.9,2.1s0.3,1.6,0.9,2.1S154.3,160.6,155,160.6z"/>
					</g>
					<g>
						<path id="mce2cfc0837_21_" class="st4" d="M126.7,202.4c0.8,0,1.6-0.3,2.1-0.9s0.9-1.3,0.9-2.1s-0.3-1.6-0.9-2.1
							c-0.6-0.6-1.3-0.9-2.1-0.9s-1.6,0.3-2.1,0.9c-0.6,0.6-0.9,1.3-0.9,2.1s0.3,1.6,0.9,2.1C125.1,202.1,125.9,202.4,126.7,202.4z"
							/>
					</g>
					<g>
						<path id="mce2cfc0837_22_" class="st4" d="M71.9,180.6c0.8,0,1.6-0.3,2.1-0.9c0.6-0.6,0.9-1.3,0.9-2.1s-0.3-1.6-0.9-2.1
							c-0.6-0.6-1.3-0.9-2.1-0.9s-1.6,0.3-2.1,0.9c-0.6,0.6-0.9,1.3-0.9,2.1s0.3,1.6,0.9,2.1C70.4,180.3,71.1,180.6,71.9,180.6z"/>
					</g>
					<g>
						<path id="mce2cfc0837_23_" class="st4" d="M66.3,141.4c0.8,0,1.6-0.3,2.1-0.9c0.6-0.6,0.9-1.3,0.9-2.1s-0.3-1.6-0.9-2.1
							c-0.6-0.6-1.3-0.9-2.1-0.9s-1.6,0.3-2.1,0.9c-0.6,0.6-0.9,1.3-0.9,2.1s0.3,1.6,0.9,2.1C64.8,141.1,65.5,141.4,66.3,141.4z"/>
					</g>
					<g>
						<path id="mce2cfc0837_24_" class="st4" d="M103.4,177.3c0.8,0,1.6-0.3,2.1-0.9c0.6-0.6,0.9-1.3,0.9-2.1s-0.3-1.6-0.9-2.1
							c-0.6-0.6-1.3-0.9-2.1-0.9s-1.6,0.3-2.1,0.9c-0.6,0.6-0.9,1.3-0.9,2.1s0.3,1.6,0.9,2.1C101.8,177,102.6,177.3,103.4,177.3z"/>
					</g>
					<g>
						<path id="mce2cfc0837_25_" class="st4" d="M116.4,195.5c0.8,0,1.6-0.3,2.1-0.9c0.6-0.6,0.9-1.3,0.9-2.1s-0.3-1.6-0.9-2.1
							c-0.6-0.6-1.3-0.9-2.1-0.9s-1.6,0.3-2.1,0.9c-0.6,0.6-0.9,1.3-0.9,2.1s0.3,1.6,0.9,2.1C114.8,195.2,115.6,195.5,116.4,195.5z"
							/>
					</g>
					<g>
						<path id="mce2cfc0837_26_" class="st4" d="M165.5,205.4c0.8,0,1.6-0.3,2.1-0.9s0.9-1.3,0.9-2.1s-0.3-1.6-0.9-2.1
							c-0.6-0.6-1.3-0.9-2.1-0.9s-1.6,0.3-2.1,0.9c-0.6,0.6-0.9,1.3-0.9,2.1s0.3,1.6,0.9,2.1S164.7,205.4,165.5,205.4z"/>
					</g>
					<g>
						<path id="mce2cfc0837_27_" class="st4" d="M137.4,174.5c0.8,0,1.6-0.3,2.1-0.9s0.9-1.3,0.9-2.1s-0.3-1.6-0.9-2.1
							c-0.6-0.6-1.3-0.9-2.1-0.9s-1.6,0.3-2.1,0.9c-0.6,0.6-0.9,1.3-0.9,2.1s0.3,1.6,0.9,2.1S136.6,174.5,137.4,174.5z"/>
					</g>
					<g>
						<path id="mce2cfc0837_28_" class="st4" d="M140,145.7c0.8,0,1.6-0.3,2.1-0.9s0.9-1.3,0.9-2.1s-0.3-1.6-0.9-2.1
							c-0.6-0.6-1.3-0.9-2.1-0.9s-1.6,0.3-2.1,0.9c-0.6,0.6-0.9,1.3-0.9,2.1s0.3,1.6,0.9,2.1S139.2,145.7,140,145.7z"/>
					</g>
					<g>
						<path id="mce2cfc0837_29_" class="st4" d="M112.2,206.7c0.8,0,1.6-0.3,2.1-0.9c0.6-0.6,0.9-1.3,0.9-2.1s-0.3-1.6-0.9-2.1
							c-0.6-0.6-1.3-0.9-2.1-0.9s-1.6,0.3-2.1,0.9c-0.6,0.6-0.9,1.3-0.9,2.1s0.3,1.6,0.9,2.1C110.6,206.4,111.4,206.7,112.2,206.7z"
							/>
					</g>
					<g>
						<path id="mce2cfc0837_30_" class="st4" d="M143.3,191.8c0.8,0,1.6-0.3,2.1-0.9s0.9-1.3,0.9-2.1s-0.3-1.6-0.9-2.1
							c-0.6-0.6-1.3-0.9-2.1-0.9s-1.6,0.3-2.1,0.9c-0.6,0.6-0.9,1.3-0.9,2.1s0.3,1.6,0.9,2.1S142.5,191.8,143.3,191.8z"/>
					</g>
					<g>
						<path id="mce2cfc0837_31_" class="st4" d="M169.7,215.6c0.8,0,1.6-0.3,2.1-0.9s0.9-1.3,0.9-2.1s-0.3-1.6-0.9-2.1
							c-0.6-0.6-1.3-0.9-2.1-0.9s-1.6,0.3-2.1,0.9c-0.6,0.6-0.9,1.3-0.9,2.1s0.3,1.6,0.9,2.1S168.9,215.6,169.7,215.6z"/>
					</g>
					<g>
						<path id="mce2cfc0837_32_" class="st4" d="M114.7,195.7c0.8,0,1.6-0.3,2.1-0.9c0.6-0.6,0.9-1.3,0.9-2.1s-0.3-1.6-0.9-2.1
							c-0.6-0.6-1.3-0.9-2.1-0.9s-1.6,0.3-2.1,0.9c-0.6,0.6-0.9,1.3-0.9,2.1s0.3,1.6,0.9,2.1C113.2,195.4,113.9,195.7,114.7,195.7z"
							/>
					</g>
					<g>
						<path id="mce2cfc0837_33_" class="st4" d="M137,155.5c0.8,0,1.6-0.3,2.1-0.9s0.9-1.3,0.9-2.1s-0.3-1.6-0.9-2.1
							c-0.6-0.6-1.3-0.9-2.1-0.9s-1.6,0.3-2.1,0.9c-0.6,0.6-0.9,1.3-0.9,2.1s0.3,1.6,0.9,2.1S136.3,155.5,137,155.5z"/>
					</g>
					<g>
						<path id="mce2cfc0837_34_" class="st4" d="M123.6,215.4c0.8,0,1.6-0.3,2.1-0.9c0.6-0.6,0.9-1.3,0.9-2.1s-0.3-1.6-0.9-2.1
							c-0.6-0.6-1.3-0.9-2.1-0.9s-1.6,0.3-2.1,0.9c-0.6,0.6-0.9,1.3-0.9,2.1s0.3,1.6,0.9,2.1C122,215.1,122.8,215.4,123.6,215.4z"/>
					</g>
					<g>
						<path id="mce2cfc0837_35_" class="st4" d="M85.9,180.8c0.8,0,1.6-0.3,2.1-0.9c0.6-0.6,0.9-1.3,0.9-2.1s-0.3-1.6-0.9-2.1
							c-0.6-0.6-1.3-0.9-2.1-0.9s-1.6,0.3-2.1,0.9c-0.6,0.6-0.9,1.3-0.9,2.1s0.3,1.6,0.9,2.1C84.3,180.5,85.1,180.8,85.9,180.8z"/>
					</g>
					<g>
						<path id="mce2cfc0837_36_" class="st4" d="M141,185.8c0.8,0,1.6-0.3,2.1-0.9s0.9-1.3,0.9-2.1s-0.3-1.6-0.9-2.1
							c-0.6-0.6-1.3-0.9-2.1-0.9s-1.6,0.3-2.1,0.9c-0.6,0.6-0.9,1.3-0.9,2.1s0.3,1.6,0.9,2.1S140.2,185.8,141,185.8z"/>
					</g>
					<g>
						<path id="mce2cfc0837_37_" class="st4" d="M107.7,120.4c0.8,0,1.6-0.3,2.1-0.9c0.6-0.6,0.9-1.3,0.9-2.1s-0.3-1.6-0.9-2.1
							c-0.6-0.6-1.3-0.9-2.1-0.9s-1.6,0.3-2.1,0.9c-0.6,0.6-0.9,1.3-0.9,2.1s0.3,1.6,0.9,2.1C106.1,120.1,106.9,120.4,107.7,120.4z"
							/>
					</g>
					<g>
						<path id="mce2cfc0837_38_" class="st4" d="M179.7,204.2c0.8,0,1.6-0.3,2.1-0.9s0.9-1.3,0.9-2.1s-0.3-1.6-0.9-2.1
							c-0.6-0.6-1.3-0.9-2.1-0.9s-1.6,0.3-2.1,0.9c-0.6,0.6-0.9,1.3-0.9,2.1s0.3,1.6,0.9,2.1S178.9,204.2,179.7,204.2z"/>
					</g>
					<g>
						<path id="mce2cfc0837_39_" class="st4" d="M87.4,179.3c0.8,0,1.6-0.3,2.1-0.9c0.6-0.6,0.9-1.3,0.9-2.1s-0.3-1.6-0.9-2.1
							c-0.6-0.6-1.3-0.9-2.1-0.9s-1.6,0.3-2.1,0.9c-0.6,0.6-0.9,1.3-0.9,2.1s0.3,1.6,0.9,2.1C85.8,179,86.6,179.3,87.4,179.3z"/>
					</g>
					<g>
						<path id="mce2cfc0837_40_" class="st4" d="M131.6,210c0.8,0,1.6-0.3,2.1-0.9s0.9-1.3,0.9-2.1s-0.3-1.6-0.9-2.1
							c-0.6-0.6-1.3-0.9-2.1-0.9s-1.6,0.3-2.1,0.9c-0.6,0.6-0.9,1.3-0.9,2.1s0.3,1.6,0.9,2.1S130.8,210,131.6,210z"/>
					</g>
					<g>
						<path id="mce2cfc0837_41_" class="st4" d="M163,236c0.8,0,1.6-0.3,2.1-0.9s0.9-1.3,0.9-2.1s-0.3-1.6-0.9-2.1
							c-0.6-0.6-1.3-0.9-2.1-0.9s-1.6,0.3-2.1,0.9c-0.6,0.6-0.9,1.3-0.9,2.1s0.3,1.6,0.9,2.1S162.2,236,163,236z"/>
					</g>
					<g>
						<path id="mce2cfc0837_42_" class="st4" d="M211.3,173.3c0.8,0,1.6-0.3,2.1-0.9s0.9-1.3,0.9-2.1s-0.3-1.6-0.9-2.1
							c-0.6-0.6-1.3-0.9-2.1-0.9s-1.6,0.3-2.1,0.9c-0.6,0.6-0.9,1.3-0.9,2.1s0.3,1.6,0.9,2.1S210.5,173.3,211.3,173.3z"/>
					</g>
					<g>
						<path id="mce2cfc0837_43_" class="st4" d="M168.1,183.4c0.8,0,1.6-0.3,2.1-0.9s0.9-1.3,0.9-2.1s-0.3-1.6-0.9-2.1
							c-0.6-0.6-1.3-0.9-2.1-0.9s-1.6,0.3-2.1,0.9c-0.6,0.6-0.9,1.3-0.9,2.1s0.3,1.6,0.9,2.1S167.3,183.4,168.1,183.4z"/>
					</g>
					<g>
						<path id="mce2cfc0837_44_" class="st4" d="M102.2,230.3c0.8,0,1.6-0.3,2.1-0.9c0.6-0.6,0.9-1.3,0.9-2.1s-0.3-1.6-0.9-2.1
							c-0.6-0.6-1.3-0.9-2.1-0.9s-1.6,0.3-2.1,0.9c-0.6,0.6-0.9,1.3-0.9,2.1s0.3,1.6,0.9,2.1C100.6,230,101.4,230.3,102.2,230.3z"/>
					</g>
					<g>
						<path id="mce2cfc0837_45_" class="st4" d="M103.5,156.8c0.8,0,1.6-0.3,2.1-0.9c0.6-0.6,0.9-1.3,0.9-2.1s-0.3-1.6-0.9-2.1
							c-0.6-0.6-1.3-0.9-2.1-0.9s-1.6,0.3-2.1,0.9c-0.6,0.6-0.9,1.3-0.9,2.1s0.3,1.6,0.9,2.1C102,156.5,102.7,156.8,103.5,156.8z"/>
					</g>
					<g>
						<path id="mce2cfc0837_46_" class="st4" d="M100.3,206.3c0.8,0,1.6-0.3,2.1-0.9c0.6-0.6,0.9-1.3,0.9-2.1s-0.3-1.6-0.9-2.1
							c-0.6-0.6-1.3-0.9-2.1-0.9s-1.6,0.3-2.1,0.9c-0.6,0.6-0.9,1.3-0.9,2.1s0.3,1.6,0.9,2.1C98.8,206,99.5,206.3,100.3,206.3z"/>
					</g>
					<g>
						<path id="mce2cfc0837_47_" class="st4" d="M90.3,184.6c0.8,0,1.6-0.3,2.1-0.9c0.6-0.6,0.9-1.3,0.9-2.1s-0.3-1.6-0.9-2.1
							c-0.6-0.6-1.3-0.9-2.1-0.9s-1.6,0.3-2.1,0.9c-0.6,0.6-0.9,1.3-0.9,2.1s0.3,1.6,0.9,2.1C88.7,184.3,89.5,184.6,90.3,184.6z"/>
					</g>
					<g>
						<path id="mce2cfc0837_48_" class="st4" d="M112.3,144.4c0.8,0,1.6-0.3,2.1-0.9c0.6-0.6,0.9-1.3,0.9-2.1s-0.3-1.6-0.9-2.1
							c-0.6-0.6-1.3-0.9-2.1-0.9s-1.6,0.3-2.1,0.9c-0.6,0.6-0.9,1.3-0.9,2.1s0.3,1.6,0.9,2.1C110.8,144.1,111.6,144.4,112.3,144.4z"
							/>
					</g>
					<g>
						<path id="mce2cfc0837_49_" class="st4" d="M134.8,120.2c0.8,0,1.6-0.3,2.1-0.9s0.9-1.3,0.9-2.1s-0.3-1.6-0.9-2.1
							c-0.6-0.6-1.3-0.9-2.1-0.9s-1.6,0.3-2.1,0.9c-0.6,0.6-0.9,1.3-0.9,2.1s0.3,1.6,0.9,2.1S134,120.2,134.8,120.2z"/>
					</g>
				</g>
			</g>
		</g>
		<g id="line2d_18">
			<g>
				<defs>
					<rect id="SVGID_3_" x="20.7" y="0.6" width="357.1" height="266.1"/>
				</defs>
				<clipPath id="SVGID_4_">
					<use xlink:href="#SVGID_3_"  style="overflow:visible;"/>
				</clipPath>
				<g class="st5">
					<g>
						<path id="m0cc179b3a7" class="st6" d="M325.5,110.3c0.8,0,1.6-0.3,2.1-0.9s0.9-1.3,0.9-2.1s-0.3-1.6-0.9-2.1
							c-0.6-0.6-1.3-0.9-2.1-0.9c-0.8,0-1.6,0.3-2.1,0.9c-0.6,0.6-0.9,1.3-0.9,2.1s0.3,1.6,0.9,2.1S324.7,110.3,325.5,110.3z"/>
					</g>
					<g>
						<path id="m0cc179b3a7_1_" class="st6" d="M255.2,60.4c0.8,0,1.6-0.3,2.1-0.9s0.9-1.3,0.9-2.1s-0.3-1.6-0.9-2.1
							s-1.3-0.9-2.1-0.9s-1.6,0.3-2.1,0.9s-0.9,1.3-0.9,2.1s0.3,1.6,0.9,2.1S254.4,60.4,255.2,60.4z"/>
					</g>
					<g>
						<path id="m0cc179b3a7_2_" class="st6" d="M244.1,79.5c0.8,0,1.6-0.3,2.1-0.9s0.9-1.3,0.9-2.1s-0.3-1.6-0.9-2.1
							c-0.6-0.6-1.3-0.9-2.1-0.9s-1.6,0.3-2.1,0.9c-0.6,0.6-0.9,1.3-0.9,2.1s0.3,1.6,0.9,2.1S243.3,79.5,244.1,79.5z"/>
					</g>
					<g>
						<path id="m0cc179b3a7_3_" class="st6" d="M302,61.6c0.8,0,1.6-0.3,2.1-0.9s0.9-1.3,0.9-2.1s-0.3-1.6-0.9-2.1s-1.3-0.9-2.1-0.9
							c-0.8,0-1.6,0.3-2.1,0.9s-0.9,1.3-0.9,2.1s0.3,1.6,0.9,2.1S301.2,61.6,302,61.6z"/>
					</g>
					<g>
						<path id="m0cc179b3a7_4_" class="st6" d="M271.4,85.6c0.8,0,1.6-0.3,2.1-0.9s0.9-1.3,0.9-2.1s-0.3-1.6-0.9-2.1
							c-0.6-0.6-1.3-0.9-2.1-0.9c-0.8,0-1.6,0.3-2.1,0.9c-0.6,0.6-0.9,1.3-0.9,2.1s0.3,1.6,0.9,2.1S270.6,85.6,271.4,85.6z"/>
					</g>
					<g>
						<path id="m0cc179b3a7_5_" class="st6" d="M295.8,100c0.8,0,1.6-0.3,2.1-0.9s0.9-1.3,0.9-2.1s-0.3-1.6-0.9-2.1
							c-0.6-0.6-1.3-0.9-2.1-0.9c-0.8,0-1.6,0.3-2.1,0.9c-0.6,0.6-0.9,1.3-0.9,2.1s0.3,1.6,0.9,2.1S295,100,295.8,100z"/>
					</g>
					<g>
						<path id="m0cc179b3a7_6_" class="st6" d="M276.9,88.5c0.8,0,1.6-0.3,2.1-0.9s0.9-1.3,0.9-2.1s-0.3-1.6-0.9-2.1
							c-0.6-0.6-1.3-0.9-2.1-0.9c-0.8,0-1.6,0.3-2.1,0.9c-0.6,0.6-0.9,1.3-0.9,2.1s0.3,1.6,0.9,2.1S276.1,88.5,276.9,88.5z"/>
					</g>
					<g>
						<path id="m0cc179b3a7_7_" class="st6" d="M299.8,53.4c0.8,0,1.6-0.3,2.1-0.9s0.9-1.3,0.9-2.1s-0.3-1.6-0.9-2.1
							s-1.3-0.9-2.1-0.9c-0.8,0-1.6,0.3-2.1,0.9s-0.9,1.3-0.9,2.1s0.3,1.6,0.9,2.1S299,53.4,299.8,53.4z"/>
					</g>
					<g>
						<path id="m0cc179b3a7_8_" class="st6" d="M279.6,90.6c0.8,0,1.6-0.3,2.1-0.9s0.9-1.3,0.9-2.1s-0.3-1.6-0.9-2.1
							c-0.6-0.6-1.3-0.9-2.1-0.9c-0.8,0-1.6,0.3-2.1,0.9c-0.6,0.6-0.9,1.3-0.9,2.1s0.3,1.6,0.9,2.1S278.9,90.6,279.6,90.6z"/>
					</g>
					<g>
						<path id="m0cc179b3a7_9_" class="st6" d="M262.6,78.5c0.8,0,1.6-0.3,2.1-0.9s0.9-1.3,0.9-2.1s-0.3-1.6-0.9-2.1
							c-0.6-0.6-1.3-0.9-2.1-0.9c-0.8,0-1.6,0.3-2.1,0.9c-0.6,0.6-0.9,1.3-0.9,2.1s0.3,1.6,0.9,2.1S261.8,78.5,262.6,78.5z"/>
					</g>
					<g>
						<path id="m0cc179b3a7_10_" class="st6" d="M269.5,75c0.8,0,1.6-0.3,2.1-0.9s0.9-1.3,0.9-2.1s-0.3-1.6-0.9-2.1
							c-0.6-0.6-1.3-0.9-2.1-0.9c-0.8,0-1.6,0.3-2.1,0.9c-0.6,0.6-0.9,1.3-0.9,2.1s0.3,1.6,0.9,2.1S268.7,75,269.5,75z"/>
					</g>
					<g>
						<path id="m0cc179b3a7_11_" class="st6" d="M275.8,74.4c0.8,0,1.6-0.3,2.1-0.9s0.9-1.3,0.9-2.1s-0.3-1.6-0.9-2.1
							c-0.6-0.6-1.3-0.9-2.1-0.9c-0.8,0-1.6,0.3-2.1,0.9c-0.6,0.6-0.9,1.3-0.9,2.1s0.3,1.6,0.9,2.1S275,74.4,275.8,74.4z"/>
					</g>
					<g>
						<path id="m0cc179b3a7_12_" class="st6" d="M324.9,83.3c0.8,0,1.6-0.3,2.1-0.9s0.9-1.3,0.9-2.1s-0.3-1.6-0.9-2.1
							c-0.6-0.6-1.3-0.9-2.1-0.9c-0.8,0-1.6,0.3-2.1,0.9c-0.6,0.6-0.9,1.3-0.9,2.1s0.3,1.6,0.9,2.1S324.2,83.3,324.9,83.3z"/>
					</g>
					<g>
						<path id="m0cc179b3a7_13_" class="st6" d="M318.6,111.8c0.8,0,1.6-0.3,2.1-0.9s0.9-1.3,0.9-2.1s-0.3-1.6-0.9-2.1
							c-0.6-0.6-1.3-0.9-2.1-0.9c-0.8,0-1.6,0.3-2.1,0.9c-0.6,0.6-0.9,1.3-0.9,2.1s0.3,1.6,0.9,2.1S317.8,111.8,318.6,111.8z"/>
					</g>
					<g>
						<path id="m0cc179b3a7_14_" class="st6" d="M361.6,79.2c0.8,0,1.6-0.3,2.1-0.9s0.9-1.3,0.9-2.1s-0.3-1.6-0.9-2.1
							c-0.6-0.6-1.3-0.9-2.1-0.9c-0.8,0-1.6,0.3-2.1,0.9c-0.6,0.6-0.9,1.3-0.9,2.1s0.3,1.6,0.9,2.1S360.8,79.2,361.6,79.2z"/>
					</g>
					<g>
						<path id="m0cc179b3a7_15_" class="st6" d="M278.6,81c0.8,0,1.6-0.3,2.1-0.9s0.9-1.3,0.9-2.1s-0.3-1.6-0.9-2.1
							c-0.6-0.6-1.3-0.9-2.1-0.9c-0.8,0-1.6,0.3-2.1,0.9c-0.6,0.6-0.9,1.3-0.9,2.1s0.3,1.6,0.9,2.1S277.9,81,278.6,81z"/>
					</g>
					<g>
						<path id="m0cc179b3a7_16_" class="st6" d="M230.4,64.1c0.8,0,1.6-0.3,2.1-0.9s0.9-1.3,0.9-2.1s-0.3-1.6-0.9-2.1
							s-1.3-0.9-2.1-0.9s-1.6,0.3-2.1,0.9s-0.9,1.3-0.9,2.1s0.3,1.6,0.9,2.1S229.7,64.1,230.4,64.1z"/>
					</g>
					<g>
						<path id="m0cc179b3a7_17_" class="st6" d="M255.6,88.4c0.8,0,1.6-0.3,2.1-0.9s0.9-1.3,0.9-2.1s-0.3-1.6-0.9-2.1
							c-0.6-0.6-1.3-0.9-2.1-0.9s-1.6,0.3-2.1,0.9c-0.6,0.6-0.9,1.3-0.9,2.1s0.3,1.6,0.9,2.1S254.8,88.4,255.6,88.4z"/>
					</g>
					<g>
						<path id="m0cc179b3a7_18_" class="st6" d="M282.8,88.4c0.8,0,1.6-0.3,2.1-0.9s0.9-1.3,0.9-2.1s-0.3-1.6-0.9-2.1
							c-0.6-0.6-1.3-0.9-2.1-0.9c-0.8,0-1.6,0.3-2.1,0.9c-0.6,0.6-0.9,1.3-0.9,2.1s0.3,1.6,0.9,2.1S282,88.4,282.8,88.4z"/>
					</g>
					<g>
						<path id="m0cc179b3a7_19_" class="st6" d="M297.2,95.9c0.8,0,1.6-0.3,2.1-0.9s0.9-1.3,0.9-2.1s-0.3-1.6-0.9-2.1
							c-0.6-0.6-1.3-0.9-2.1-0.9c-0.8,0-1.6,0.3-2.1,0.9c-0.6,0.6-0.9,1.3-0.9,2.1s0.3,1.6,0.9,2.1S296.4,95.9,297.2,95.9z"/>
					</g>
					<g>
						<path id="m0cc179b3a7_20_" class="st6" d="M308.2,80.3c0.8,0,1.6-0.3,2.1-0.9s0.9-1.3,0.9-2.1s-0.3-1.6-0.9-2.1
							c-0.6-0.6-1.3-0.9-2.1-0.9c-0.8,0-1.6,0.3-2.1,0.9c-0.6,0.6-0.9,1.3-0.9,2.1s0.3,1.6,0.9,2.1S307.4,80.3,308.2,80.3z"/>
					</g>
					<g>
						<path id="m0cc179b3a7_21_" class="st6" d="M282.5,90.6c0.8,0,1.6-0.3,2.1-0.9s0.9-1.3,0.9-2.1s-0.3-1.6-0.9-2.1
							c-0.6-0.6-1.3-0.9-2.1-0.9c-0.8,0-1.6,0.3-2.1,0.9c-0.6,0.6-0.9,1.3-0.9,2.1s0.3,1.6,0.9,2.1S281.7,90.6,282.5,90.6z"/>
					</g>
					<g>
						<path id="m0cc179b3a7_22_" class="st6" d="M345.5,55.6c0.8,0,1.6-0.3,2.1-0.9s0.9-1.3,0.9-2.1s-0.3-1.6-0.9-2.1
							s-1.3-0.9-2.1-0.9c-0.8,0-1.6,0.3-2.1,0.9s-0.9,1.3-0.9,2.1s0.3,1.6,0.9,2.1S344.7,55.6,345.5,55.6z"/>
					</g>
					<g>
						<path id="m0cc179b3a7_23_" class="st6" d="M357.2,104.1c0.8,0,1.6-0.3,2.1-0.9s0.9-1.3,0.9-2.1s-0.3-1.6-0.9-2.1
							c-0.6-0.6-1.3-0.9-2.1-0.9c-0.8,0-1.6,0.3-2.1,0.9c-0.6,0.6-0.9,1.3-0.9,2.1s0.3,1.6,0.9,2.1S356.4,104.1,357.2,104.1z"/>
					</g>
					<g>
						<path id="m0cc179b3a7_24_" class="st6" d="M318.9,68.8c0.8,0,1.6-0.3,2.1-0.9s0.9-1.3,0.9-2.1s-0.3-1.6-0.9-2.1
							s-1.3-0.9-2.1-0.9c-0.8,0-1.6,0.3-2.1,0.9s-0.9,1.3-0.9,2.1s0.3,1.6,0.9,2.1S318.1,68.8,318.9,68.8z"/>
					</g>
					<g>
						<path id="m0cc179b3a7_25_" class="st6" d="M256.2,58.7c0.8,0,1.6-0.3,2.1-0.9s0.9-1.3,0.9-2.1s-0.3-1.6-0.9-2.1
							s-1.3-0.9-2.1-0.9c-0.8,0-1.6,0.3-2.1,0.9s-0.9,1.3-0.9,2.1s0.3,1.6,0.9,2.1S255.4,58.7,256.2,58.7z"/>
					</g>
					<g>
						<path id="m0cc179b3a7_26_" class="st6" d="M335.5,103.9c0.8,0,1.6-0.3,2.1-0.9s0.9-1.3,0.9-2.1s-0.3-1.6-0.9-2.1
							c-0.6-0.6-1.3-0.9-2.1-0.9c-0.8,0-1.6,0.3-2.1,0.9c-0.6,0.6-0.9,1.3-0.9,2.1s0.3,1.6,0.9,2.1S334.8,103.9,335.5,103.9z"/>
					</g>
					<g>
						<path id="m0cc179b3a7_27_" class="st6" d="M308.6,109.6c0.8,0,1.6-0.3,2.1-0.9s0.9-1.3,0.9-2.1s-0.3-1.6-0.9-2.1
							c-0.6-0.6-1.3-0.9-2.1-0.9c-0.8,0-1.6,0.3-2.1,0.9c-0.6,0.6-0.9,1.3-0.9,2.1s0.3,1.6,0.9,2.1S307.8,109.6,308.6,109.6z"/>
					</g>
					<g>
						<path id="m0cc179b3a7_28_" class="st6" d="M221.4,55.3c0.8,0,1.6-0.3,2.1-0.9s0.9-1.3,0.9-2.1s-0.3-1.6-0.9-2.1
							s-1.3-0.9-2.1-0.9s-1.6,0.3-2.1,0.9s-0.9,1.3-0.9,2.1s0.3,1.6,0.9,2.1S220.6,55.3,221.4,55.3z"/>
					</g>
					<g>
						<path id="m0cc179b3a7_29_" class="st6" d="M303,81.8c0.8,0,1.6-0.3,2.1-0.9s0.9-1.3,0.9-2.1s-0.3-1.6-0.9-2.1
							c-0.6-0.6-1.3-0.9-2.1-0.9c-0.8,0-1.6,0.3-2.1,0.9c-0.6,0.6-0.9,1.3-0.9,2.1s0.3,1.6,0.9,2.1S302.2,81.8,303,81.8z"/>
					</g>
					<g>
						<path id="m0cc179b3a7_30_" class="st6" d="M263,94.6c0.8,0,1.6-0.3,2.1-0.9s0.9-1.3,0.9-2.1s-0.3-1.6-0.9-2.1
							c-0.6-0.6-1.3-0.9-2.1-0.9c-0.8,0-1.6,0.3-2.1,0.9c-0.6,0.6-0.9,1.3-0.9,2.1s0.3,1.6,0.9,2.1S262.2,94.6,263,94.6z"/>
					</g>
					<g>
						<path id="m0cc179b3a7_31_" class="st6" d="M230,94.3c0.8,0,1.6-0.3,2.1-0.9s0.9-1.3,0.9-2.1s-0.3-1.6-0.9-2.1
							c-0.6-0.6-1.3-0.9-2.1-0.9s-1.6,0.3-2.1,0.9c-0.6,0.6-0.9,1.3-0.9,2.1s0.3,1.6,0.9,2.1S229.2,94.3,230,94.3z"/>
					</g>
					<g>
						<path id="m0cc179b3a7_32_" class="st6" d="M342.7,100.9c0.8,0,1.6-0.3,2.1-0.9s0.9-1.3,0.9-2.1s-0.3-1.6-0.9-2.1
							c-0.6-0.6-1.3-0.9-2.1-0.9c-0.8,0-1.6,0.3-2.1,0.9c-0.6,0.6-0.9,1.3-0.9,2.1s0.3,1.6,0.9,2.1S341.9,100.9,342.7,100.9z"/>
					</g>
					<g>
						<path id="m0cc179b3a7_33_" class="st6" d="M241.5,59.7c0.8,0,1.6-0.3,2.1-0.9s0.9-1.3,0.9-2.1s-0.3-1.6-0.9-2.1
							s-1.3-0.9-2.1-0.9s-1.6,0.3-2.1,0.9s-0.9,1.3-0.9,2.1s0.3,1.6,0.9,2.1S240.7,59.7,241.5,59.7z"/>
					</g>
					<g>
						<path id="m0cc179b3a7_34_" class="st6" d="M214.9,58.6c0.8,0,1.6-0.3,2.1-0.9s0.9-1.3,0.9-2.1s-0.3-1.6-0.9-2.1
							s-1.3-0.9-2.1-0.9s-1.6,0.3-2.1,0.9s-0.9,1.3-0.9,2.1s0.3,1.6,0.9,2.1S214.1,58.6,214.9,58.6z"/>
					</g>
					<g>
						<path id="m0cc179b3a7_35_" class="st6" d="M203.7,54.6c0.8,0,1.6-0.3,2.1-0.9s0.9-1.3,0.9-2.1s-0.3-1.6-0.9-2.1
							s-1.3-0.9-2.1-0.9s-1.6,0.3-2.1,0.9s-0.9,1.3-0.9,2.1s0.3,1.6,0.9,2.1S202.9,54.6,203.7,54.6z"/>
					</g>
					<g>
						<path id="m0cc179b3a7_36_" class="st6" d="M313.9,86.5c0.8,0,1.6-0.3,2.1-0.9s0.9-1.3,0.9-2.1s-0.3-1.6-0.9-2.1
							c-0.6-0.6-1.3-0.9-2.1-0.9c-0.8,0-1.6,0.3-2.1,0.9c-0.6,0.6-0.9,1.3-0.9,2.1s0.3,1.6,0.9,2.1S313.1,86.5,313.9,86.5z"/>
					</g>
					<g>
						<path id="m0cc179b3a7_37_" class="st6" d="M273.9,63.5c0.8,0,1.6-0.3,2.1-0.9s0.9-1.3,0.9-2.1s-0.3-1.6-0.9-2.1
							s-1.3-0.9-2.1-0.9c-0.8,0-1.6,0.3-2.1,0.9s-0.9,1.3-0.9,2.1s0.3,1.6,0.9,2.1S273.1,63.5,273.9,63.5z"/>
					</g>
					<g>
						<path id="m0cc179b3a7_38_" class="st6" d="M350.9,98.6c0.8,0,1.6-0.3,2.1-0.9s0.9-1.3,0.9-2.1s-0.3-1.6-0.9-2.1
							c-0.6-0.6-1.3-0.9-2.1-0.9c-0.8,0-1.6,0.3-2.1,0.9c-0.6,0.6-0.9,1.3-0.9,2.1s0.3,1.6,0.9,2.1S350.1,98.6,350.9,98.6z"/>
					</g>
					<g>
						<path id="m0cc179b3a7_39_" class="st6" d="M251.2,86.3c0.8,0,1.6-0.3,2.1-0.9s0.9-1.3,0.9-2.1s-0.3-1.6-0.9-2.1
							c-0.6-0.6-1.3-0.9-2.1-0.9s-1.6,0.3-2.1,0.9c-0.6,0.6-0.9,1.3-0.9,2.1s0.3,1.6,0.9,2.1S250.4,86.3,251.2,86.3z"/>
					</g>
					<g>
						<path id="m0cc179b3a7_40_" class="st6" d="M291,82.9c0.8,0,1.6-0.3,2.1-0.9s0.9-1.3,0.9-2.1s-0.3-1.6-0.9-2.1
							c-0.6-0.6-1.3-0.9-2.1-0.9c-0.8,0-1.6,0.3-2.1,0.9c-0.6,0.6-0.9,1.3-0.9,2.1s0.3,1.6,0.9,2.1S290.2,82.9,291,82.9z"/>
					</g>
					<g>
						<path id="m0cc179b3a7_41_" class="st6" d="M284.5,82.7c0.8,0,1.6-0.3,2.1-0.9s0.9-1.3,0.9-2.1s-0.3-1.6-0.9-2.1
							c-0.6-0.6-1.3-0.9-2.1-0.9c-0.8,0-1.6,0.3-2.1,0.9c-0.6,0.6-0.9,1.3-0.9,2.1s0.3,1.6,0.9,2.1S283.7,82.7,284.5,82.7z"/>
					</g>
					<g>
						<path id="m0cc179b3a7_42_" class="st6" d="M297.8,94.7c0.8,0,1.6-0.3,2.1-0.9s0.9-1.3,0.9-2.1s-0.3-1.6-0.9-2.1
							c-0.6-0.6-1.3-0.9-2.1-0.9c-0.8,0-1.6,0.3-2.1,0.9c-0.6,0.6-0.9,1.3-0.9,2.1s0.3,1.6,0.9,2.1S297,94.7,297.8,94.7z"/>
					</g>
					<g>
						<path id="m0cc179b3a7_43_" class="st6" d="M291.4,42.5c0.8,0,1.6-0.3,2.1-0.9s0.9-1.3,0.9-2.1s-0.3-1.6-0.9-2.1
							s-1.3-0.9-2.1-0.9c-0.8,0-1.6,0.3-2.1,0.9s-0.9,1.3-0.9,2.1s0.3,1.6,0.9,2.1S290.6,42.5,291.4,42.5z"/>
					</g>
					<g>
						<path id="m0cc179b3a7_44_" class="st6" d="M295.8,74.2c0.8,0,1.6-0.3,2.1-0.9s0.9-1.3,0.9-2.1s-0.3-1.6-0.9-2.1
							c-0.6-0.6-1.3-0.9-2.1-0.9c-0.8,0-1.6,0.3-2.1,0.9c-0.6,0.6-0.9,1.3-0.9,2.1s0.3,1.6,0.9,2.1S295,74.2,295.8,74.2z"/>
					</g>
					<g>
						<path id="m0cc179b3a7_45_" class="st6" d="M272.7,91.2c0.8,0,1.6-0.3,2.1-0.9s0.9-1.3,0.9-2.1s-0.3-1.6-0.9-2.1
							c-0.6-0.6-1.3-0.9-2.1-0.9c-0.8,0-1.6,0.3-2.1,0.9c-0.6,0.6-0.9,1.3-0.9,2.1s0.3,1.6,0.9,2.1S271.9,91.2,272.7,91.2z"/>
					</g>
					<g>
						<path id="m0cc179b3a7_46_" class="st6" d="M278.8,62c0.8,0,1.6-0.3,2.1-0.9s0.9-1.3,0.9-2.1s-0.3-1.6-0.9-2.1
							s-1.3-0.9-2.1-0.9c-0.8,0-1.6,0.3-2.1,0.9s-0.9,1.3-0.9,2.1s0.3,1.6,0.9,2.1S278,62,278.8,62z"/>
					</g>
					<g>
						<path id="m0cc179b3a7_47_" class="st6" d="M241.7,86.5c0.8,0,1.6-0.3,2.1-0.9s0.9-1.3,0.9-2.1s-0.3-1.6-0.9-2.1
							c-0.6-0.6-1.3-0.9-2.1-0.9s-1.6,0.3-2.1,0.9c-0.6,0.6-0.9,1.3-0.9,2.1s0.3,1.6,0.9,2.1S240.9,86.5,241.7,86.5z"/>
					</g>
					<g>
						<path id="m0cc179b3a7_48_" class="st6" d="M261.5,15.7c0.8,0,1.6-0.3,2.1-0.9c0.6-0.6,0.9-1.3,0.9-2.1c0-0.8-0.3-1.6-0.9-2.1
							c-0.6-0.6-1.3-0.9-2.1-0.9c-0.8,0-1.6,0.3-2.1,0.9c-0.6,0.6-0.9,1.3-0.9,2.1c0,0.8,0.3,1.6,0.9,2.1
							C259.9,15.3,260.7,15.7,261.5,15.7z"/>
					</g>
					<g>
						<path id="m0cc179b3a7_49_" class="st6" d="M219.8,36.8c0.8,0,1.6-0.3,2.1-0.9s0.9-1.3,0.9-2.1s-0.3-1.6-0.9-2.1
							c-0.6-0.6-1.3-0.9-2.1-0.9s-1.6,0.3-2.1,0.9c-0.6,0.6-0.9,1.3-0.9,2.1s0.3,1.6,0.9,2.1S219,36.8,219.8,36.8z"/>
					</g>
				</g>
			</g>
		</g>
		<g id="line2d_19">
			<g>
				<defs>
					<rect id="SVGID_5_" x="20.7" y="0.6" width="357.1" height="266.1"/>
				</defs>
				<clipPath id="SVGID_6_">
					<use xlink:href="#SVGID_5_"  style="overflow:visible;"/>
				</clipPath>
				<path class="st7" d="M36.9,182.8l1.9-14.3l1.9-5.8l1.9-4.4l1.9-3.7l1.9-3.2l1.9-2.8l1.9-2.5l1.9-2.3l1.9-2.1l1.9-2l1.9-1.9
					l1.9-1.7l1.9-1.6l1.9-1.5l1.9-1.4L68,130l1.9-1.3l1.9-1.2l1.9-1.2l1.9-1.1l1.9-1l1.9-1l1.9-0.9l1.9-0.9l1.9-0.8l1.9-0.8l1.9-0.8
					l1.9-0.7l1.9-0.7l1.9-0.6l1.9-0.6l1.9-0.6l1.9-0.5l1.9-0.5l1.9-0.5l1.9-0.4l1.9-0.4l1.9-0.4l1.9-0.3l1.9-0.3l1.9-0.3l1.9-0.2
					l1.9-0.2l1.9-0.2l1.9-0.1l1.9-0.1l1.9-0.1l1.9-0.1l1.9,0h1.9l1.9,0l1.9,0.1l1.9,0.1l1.9,0.1l1.9,0.1l1.9,0.2l1.9,0.2l1.9,0.2
					l1.9,0.3l1.9,0.3l1.9,0.3l1.9,0.4l1.9,0.4l1.9,0.4l1.9,0.5l1.9,0.5l1.9,0.5l1.9,0.6l1.9,0.6l1.9,0.6l1.9,0.7l1.9,0.7l1.9,0.8
					l1.9,0.8l1.9,0.8l1.9,0.9l1.9,0.9l1.9,1l1.9,1l1.9,1.1l1.9,1.2l1.9,1.2l1.9,1.3l1.9,1.4l1.9,1.4l1.9,1.5l1.9,1.6l1.9,1.7
					l1.9,1.9l1.9,2l1.9,2.1l1.9,2.3l1.9,2.5l1.9,2.8l1.9,3.2l1.9,3.7l1.9,4.4l1.9,5.8l1.9,14.3"/>
			</g>
		</g>
		<g id="line2d_20">
			<g>
				<defs>
					<rect id="SVGID_7_" x="20.7" y="0.6" width="357.1" height="266.1"/>
				</defs>
				<clipPath id="SVGID_8_">
					<use xlink:href="#SVGID_7_"  style="overflow:visible;"/>
				</clipPath>
				<path class="st8" d="M36.9,182.8l1.9,14.3l1.9,5.8l1.9,4.4l1.9,3.7l1.9,3.2l1.9,2.8l1.9,2.5l1.9,2.3l1.9,2.1l1.9,2l1.9,1.9
					l1.9,1.7l1.9,1.6l1.9,1.5l1.9,1.4l1.9,1.4l1.9,1.3l1.9,1.2l1.9,1.2l1.9,1.1l1.9,1l1.9,1l1.9,0.9l1.9,0.9l1.9,0.8l1.9,0.8
					l1.9,0.8l1.9,0.7l1.9,0.7l1.9,0.6l1.9,0.6L99,250l1.9,0.5l1.9,0.5l1.9,0.5l1.9,0.4l1.9,0.4l1.9,0.4l1.9,0.3l1.9,0.3l1.9,0.3
					l1.9,0.2l1.9,0.2l1.9,0.2l1.9,0.1l1.9,0.1l1.9,0.1l1.9,0.1l1.9,0h1.9l1.9,0l1.9-0.1l1.9-0.1l1.9-0.1l1.9-0.1l1.9-0.2l1.9-0.2
					l1.9-0.2l1.9-0.3l1.9-0.3l1.9-0.3l1.9-0.4l1.9-0.4l1.9-0.4l1.9-0.5l1.9-0.5l1.9-0.5l1.9-0.6l1.9-0.6l1.9-0.6l1.9-0.7l1.9-0.7
					l1.9-0.8l1.9-0.8l1.9-0.8l1.9-0.9l1.9-0.9l1.9-1l1.9-1l1.9-1.1l1.9-1.2l1.9-1.2l1.9-1.3l1.9-1.4l1.9-1.4l1.9-1.5l1.9-1.6
					l1.9-1.7l1.9-1.9l1.9-2l1.9-2.1l1.9-2.3l1.9-2.5l1.9-2.8l1.9-3.2l1.9-3.7l1.9-4.4l1.9-5.8l1.9-14.3"/>
			</g>
		</g>
		<g id="patch_3">
			<path class="st9" d="M20.7,266.7V0.6"/>
		</g>
		<g id="patch_4">
			<path class="st9" d="M377.8,266.7V0.6"/>
		</g>
		<g id="patch_5">
			<path class="st9" d="M20.7,266.7h357.1"/>
		</g>
		<g id="patch_6">
			<path class="st9" d="M20.7,0.6h357.1"/>
		</g>
	</g>
</g>
</svg>
