<?xml version="1.0" encoding="utf-8"?>
<!-- Generator: Adobe Illustrator 20.1.0, SVG Export Plug-In . SVG Version: 6.00 Build 0)  -->
<svg version="1.1" id="Layer_1" xmlns="http://www.w3.org/2000/svg" xmlns:xlink="http://www.w3.org/1999/xlink" x="0px" y="0px"
	 viewBox="0 0 393.8 294.8" style="enable-background:new 0 0 393.8 294.8;" xml:space="preserve">
<style type="text/css">
	.st0{stroke:#000000;stroke-width:0.8;stroke-linejoin:round;}
	.st1{clip-path:url(#SVGID_2_);fill:none;stroke:#33801A;stroke-width:1.5;stroke-linejoin:round;stroke-dasharray:5.55,2.4;}
	.st2{clip-path:url(#SVGID_4_);}
	.st3{fill:#33801A;stroke:#33801A;stroke-linejoin:round;}
	.st4{fill:none;stroke:#000000;stroke-width:0.8;stroke-linecap:square;}
</style>
<g id="figure_1">
	<g id="axes_1">
		<g id="matplotlib.axis_1">
			<g id="xtick_1">
				<g id="line2d_1">
					<g>
						<g>
							<path id="m93984b12b0" class="st0" d="M52.5,266.5v3.5"/>
						</g>
					</g>
				</g>
				<g id="text_1">
					<g transform="translate(65.881165 322.182437)scale(0.1 -0.1)">
						<g>
							<path id="DejaVuSans-48" d="M-181.5,477.1c-5.1,0-8.9-2.5-11.5-7.5c-2.6-5-3.8-12.5-3.8-22.5c0-10,1.3-17.5,3.8-22.5
								c2.6-5,6.4-7.5,11.5-7.5c5.1,0,8.9,2.5,11.5,7.5c2.6,5,3.8,12.5,3.8,22.5c0,10-1.3,17.5-3.8,22.5
								C-172.5,474.6-176.4,477.1-181.5,477.1z M-181.5,484.9c8.2,0,14.4-3.2,18.7-9.7c4.3-6.5,6.5-15.8,6.5-28.1
								c0-12.3-2.2-21.6-6.5-28.1c-4.3-6.5-10.6-9.7-18.7-9.7c-8.2,0-14.4,3.2-18.7,9.7c-4.3,6.5-6.5,15.8-6.5,28.1
								c0,12.3,2.2,21.7,6.5,28.1C-195.9,481.7-189.7,484.9-181.5,484.9z"/>
						</g>
						<g>
							<path id="DejaVuSans-46" d="M-139,423.1h10.3v-12.4H-139V423.1z"/>
						</g>
						<g>
							<path id="DejaVuSans-48_1_" d="M-86.1,477.1c-5.1,0-8.9-2.5-11.5-7.5c-2.6-5-3.8-12.5-3.8-22.5c0-10,1.3-17.5,3.8-22.5
								c2.6-5,6.4-7.5,11.5-7.5c5.1,0,8.9,2.5,11.5,7.5c2.6,5,3.8,12.5,3.8,22.5c0,10-1.3,17.5-3.8,22.5
								C-77.1,474.6-81,477.1-86.1,477.1z M-86.1,484.9c8.2,0,14.4-3.2,18.7-9.7c4.3-6.5,6.5-15.8,6.5-28.1
								c0-12.3-2.2-21.6-6.5-28.1c-4.3-6.5-10.6-9.7-18.7-9.7c-8.2,0-14.4,3.2-18.7,9.7c-4.3,6.5-6.5,15.8-6.5,28.1
								c0,12.3,2.2,21.7,6.5,28.1C-100.5,481.7-94.2,484.9-86.1,484.9z"/>
						</g>
					</g>
				</g>
			</g>
			<g id="xtick_2">
				<g id="line2d_2">
					<g>
						<g>
							<path id="m93984b12b0_1_" class="st0" d="M117.4,266.5v3.5"/>
						</g>
					</g>
				</g>
				<g id="text_2">
					<g transform="translate(130.812074 322.182437)scale(0.1 -0.1)">
						<g>
							<path id="DejaVuSans-48_2_" d="M-181.5,477.1c-5.1,0-8.9-2.5-11.5-7.5c-2.6-5-3.8-12.5-3.8-22.5c0-10,1.3-17.5,3.8-22.5
								c2.6-5,6.4-7.5,11.5-7.5c5.1,0,8.9,2.5,11.5,7.5c2.6,5,3.8,12.5,3.8,22.5c0,10-1.3,17.5-3.8,22.5
								C-172.5,474.6-176.4,477.1-181.5,477.1z M-181.5,484.9c8.2,0,14.4-3.2,18.7-9.7c4.3-6.5,6.5-15.8,6.5-28.1
								c0-12.3-2.2-21.6-6.5-28.1c-4.3-6.5-10.6-9.7-18.7-9.7c-8.2,0-14.4,3.2-18.7,9.7c-4.3,6.5-6.5,15.8-6.5,28.1
								c0,12.3,2.2,21.7,6.5,28.1C-195.9,481.7-189.7,484.9-181.5,484.9z"/>
						</g>
						<g>
							<path id="DejaVuSans-46_1_" d="M-139,423.1h10.3v-12.4H-139V423.1z"/>
						</g>
						<g>
							<path id="DejaVuSans-50" d="M-98.7,419h34.4v-8.3h-46.3v8.3c3.7,3.9,8.8,9.1,15.3,15.6c6.5,6.5,10.5,10.7,12.2,12.6
								c3.2,3.5,5.4,6.5,6.6,9c1.3,2.5,1.9,4.9,1.9,7.3c0,3.9-1.4,7-4.1,9.5c-2.7,2.4-6.3,3.7-10.6,3.7c-3.1,0-6.4-0.5-9.8-1.6
								c-3.4-1.1-7.1-2.7-11-4.9v10c4,1.6,7.7,2.8,11.1,3.6c3.5,0.8,6.6,1.2,9.5,1.2c7.6,0,13.6-1.9,18.1-5.7
								c4.5-3.8,6.7-8.8,6.7-15.1c0-3-0.6-5.8-1.7-8.5c-1.1-2.7-3.2-5.8-6.1-9.5c-0.8-0.9-3.4-3.7-7.8-8.2
								C-84.6,433.4-90.7,427.1-98.7,419z"/>
						</g>
					</g>
				</g>
			</g>
			<g id="xtick_3">
				<g id="line2d_3">
					<g>
						<g>
							<path id="m93984b12b0_2_" class="st0" d="M182.4,266.5v3.5"/>
						</g>
					</g>
				</g>
				<g id="text_3">
					<g transform="translate(195.742983 322.182437)scale(0.1 -0.1)">
						<g>
							<path id="DejaVuSans-48_3_" d="M-181.5,477.1c-5.1,0-8.9-2.5-11.5-7.5c-2.6-5-3.8-12.5-3.8-22.5c0-10,1.3-17.5,3.8-22.5
								c2.6-5,6.4-7.5,11.5-7.5c5.1,0,8.9,2.5,11.5,7.5c2.6,5,3.8,12.5,3.8,22.5c0,10-1.3,17.5-3.8,22.5
								C-172.5,474.6-176.4,477.1-181.5,477.1z M-181.5,484.9c8.2,0,14.4-3.2,18.7-9.7c4.3-6.5,6.5-15.8,6.5-28.1
								c0-12.3-2.2-21.6-6.5-28.1c-4.3-6.5-10.6-9.7-18.7-9.7c-8.2,0-14.4,3.2-18.7,9.7c-4.3,6.5-6.5,15.8-6.5,28.1
								c0,12.3,2.2,21.7,6.5,28.1C-195.9,481.7-189.7,484.9-181.5,484.9z"/>
						</g>
						<g>
							<path id="DejaVuSans-46_2_" d="M-139,423.1h10.3v-12.4H-139V423.1z"/>
						</g>
						<g>
							<path id="DejaVuSans-52" d="M-80.1,475l-24.9-38.9h24.9V475z M-82.7,483.6h12.4v-47.5h10.4v-8.2h-10.4v-17.2h-9.8v17.2H-113
								v9.5L-82.7,483.6z"/>
						</g>
					</g>
				</g>
			</g>
			<g id="xtick_4">
				<g id="line2d_4">
					<g>
						<g>
							<path id="m93984b12b0_3_" class="st0" d="M247.3,266.5v3.5"/>
						</g>
					</g>
				</g>
				<g id="text_4">
					<g transform="translate(260.673892 322.182437)scale(0.1 -0.1)">
						<g>
							<path id="DejaVuSans-48_4_" d="M-181.5,477.1c-5.1,0-8.9-2.5-11.5-7.5c-2.6-5-3.8-12.5-3.8-22.5c0-10,1.3-17.5,3.8-22.5
								c2.6-5,6.4-7.5,11.5-7.5c5.1,0,8.9,2.5,11.5,7.5c2.6,5,3.8,12.5,3.8,22.5c0,10-1.3,17.5-3.8,22.5
								C-172.5,474.6-176.4,477.1-181.5,477.1z M-181.5,484.9c8.2,0,14.4-3.2,18.7-9.7c4.3-6.5,6.5-15.8,6.5-28.1
								c0-12.3-2.2-21.6-6.5-28.1c-4.3-6.5-10.6-9.7-18.7-9.7c-8.2,0-14.4,3.2-18.7,9.7c-4.3,6.5-6.5,15.8-6.5,28.1
								c0,12.3,2.2,21.7,6.5,28.1C-195.9,481.7-189.7,484.9-181.5,484.9z"/>
						</g>
						<g>
							<path id="DejaVuSans-46_3_" d="M-139,423.1h10.3v-12.4H-139V423.1z"/>
						</g>
						<g>
							<path id="DejaVuSans-54" d="M-84.8,451.1c-4.4,0-7.9-1.5-10.5-4.5c-2.6-3-3.9-7.2-3.9-12.4c0-5.2,1.3-9.4,3.9-12.4
								c2.6-3,6.1-4.6,10.5-4.6c4.4,0,7.9,1.5,10.5,4.6c2.6,3.1,3.9,7.2,3.9,12.4c0,5.3-1.3,9.4-3.9,12.4
								C-76.9,449.6-80.4,451.1-84.8,451.1z M-65.3,482v-9c-2.5,1.2-5,2.1-7.5,2.7c-2.5,0.6-5,0.9-7.5,0.9c-6.5,0-11.5-2.2-14.9-6.6
								c-3.4-4.4-5.4-11-5.9-19.9c1.9,2.8,4.3,5,7.2,6.5c2.9,1.5,6.1,2.3,9.6,2.3c7.3,0,13.1-2.2,17.4-6.7
								c4.2-4.4,6.4-10.5,6.4-18.1c0-7.5-2.2-13.5-6.6-18c-4.4-4.5-10.3-6.8-17.7-6.8c-8.4,0-14.9,3.2-19.3,9.7
								c-4.5,6.5-6.7,15.8-6.7,28.1c0,11.5,2.7,20.7,8.2,27.6s12.8,10.3,22,10.3c2.5,0,5-0.2,7.5-0.7C-70.6,483.7-68,483-65.3,482z"
								/>
						</g>
					</g>
				</g>
			</g>
			<g id="xtick_5">
				<g id="line2d_5">
					<g>
						<g>
							<path id="m93984b12b0_4_" class="st0" d="M312.2,266.5v3.5"/>
						</g>
					</g>
				</g>
				<g id="text_5">
					<g transform="translate(325.604801 322.182437)scale(0.1 -0.1)">
						<g>
							<path id="DejaVuSans-48_5_" d="M-181.5,477.1c-5.1,0-8.9-2.5-11.5-7.5c-2.6-5-3.8-12.5-3.8-22.5c0-10,1.3-17.5,3.8-22.5
								c2.6-5,6.4-7.5,11.5-7.5c5.1,0,8.9,2.5,11.5,7.5c2.6,5,3.8,12.5,3.8,22.5c0,10-1.3,17.5-3.8,22.5
								C-172.5,474.6-176.4,477.1-181.5,477.1z M-181.5,484.9c8.2,0,14.4-3.2,18.7-9.7c4.3-6.5,6.5-15.8,6.5-28.1
								c0-12.3-2.2-21.6-6.5-28.1c-4.3-6.5-10.6-9.7-18.7-9.7c-8.2,0-14.4,3.2-18.7,9.7c-4.3,6.5-6.5,15.8-6.5,28.1
								c0,12.3,2.2,21.7,6.5,28.1C-195.9,481.7-189.7,484.9-181.5,484.9z"/>
						</g>
						<g>
							<path id="DejaVuSans-46_4_" d="M-139,423.1h10.3v-12.4H-139V423.1z"/>
						</g>
						<g>
							<path id="DejaVuSans-56" d="M-86.1,445.3c-4.7,0-8.4-1.3-11.1-3.8c-2.7-2.5-4-6-4-10.3c0-4.4,1.3-7.8,4-10.4
								c2.7-2.5,6.4-3.8,11.1-3.8s8.4,1.3,11.1,3.8c2.7,2.5,4.1,6,4.1,10.3c0,4.4-1.3,7.8-4,10.3C-77.6,444.1-81.3,445.3-86.1,445.3
								z M-95.9,449.5c-4.2,1-7.5,3-9.9,5.9c-2.4,2.9-3.5,6.4-3.5,10.6c0,5.8,2.1,10.4,6.2,13.8c4.2,3.4,9.8,5.1,17.1,5.1
								c7.3,0,13-1.7,17.1-5.1c4.1-3.4,6.2-8,6.2-13.8c0-4.2-1.2-7.7-3.5-10.6c-2.4-2.9-5.6-4.9-9.8-5.9c4.8-1.1,8.4-3.3,11.1-6.5
								c2.7-3.2,4-7.2,4-11.8c0-7.1-2.2-12.5-6.5-16.3c-4.3-3.8-10.5-5.7-18.5-5.7c-8,0-14.2,1.9-18.5,5.7
								c-4.3,3.8-6.5,9.2-6.5,16.3c0,4.6,1.3,8.6,4,11.8C-104.4,446.3-100.7,448.4-95.9,449.5z M-99.5,465.1c0-3.8,1.2-6.7,3.5-8.8
								c2.4-2.1,5.7-3.2,9.9-3.2c4.2,0,7.6,1.1,9.9,3.2c2.4,2.1,3.6,5.1,3.6,8.8c0,3.8-1.2,6.7-3.6,8.8c-2.4,2.1-5.7,3.2-9.9,3.2
								c-4.3,0-7.6-1.1-9.9-3.2C-98.4,471.8-99.5,468.9-99.5,465.1z"/>
						</g>
					</g>
				</g>
			</g>
			<g id="xtick_6">
				<g id="line2d_6">
					<g>
						<g>
							<path id="m93984b12b0_5_" class="st0" d="M377.2,266.5v3.5"/>
						</g>
					</g>
				</g>
				<g id="text_6">
					<g transform="translate(390.53571 322.182437)scale(0.1 -0.1)">
						<g>
							<path id="DejaVuSans-49" d="M-200.9,419h16.1v55.6l-17.5-3.5v9l17.4,3.5h9.9V419h16.1v-8.3h-42V419z"/>
						</g>
						<g>
							<path id="DejaVuSans-46_5_" d="M-139,423.1h10.3v-12.4H-139V423.1z"/>
						</g>
						<g>
							<path id="DejaVuSans-48_6_" d="M-86.1,477.1c-5.1,0-8.9-2.5-11.5-7.5c-2.6-5-3.8-12.5-3.8-22.5c0-10,1.3-17.5,3.8-22.5
								c2.6-5,6.4-7.5,11.5-7.5c5.1,0,8.9,2.5,11.5,7.5c2.6,5,3.8,12.5,3.8,22.5c0,10-1.3,17.5-3.8,22.5
								C-77.1,474.6-81,477.1-86.1,477.1z M-86.1,484.9c8.2,0,14.4-3.2,18.7-9.7c4.3-6.5,6.5-15.8,6.5-28.1
								c0-12.3-2.2-21.6-6.5-28.1c-4.3-6.5-10.6-9.7-18.7-9.7c-8.2,0-14.4,3.2-18.7,9.7c-4.3,6.5-6.5,15.8-6.5,28.1
								c0,12.3,2.2,21.7,6.5,28.1C-100.5,481.7-94.2,484.9-86.1,484.9z"/>
						</g>
					</g>
				</g>
			</g>
			<g id="text_7">
				<g transform="translate(226.795156 335.860562)scale(0.1 -0.1)">
					<g>
						<path id="DejaVuSans-70" d="M-203.5,483.6h41.9v-8.3h-32v-21.5h28.9v-8.3h-28.9v-34.8h-9.9V483.6z"/>
					</g>
					<g>
						<path id="DejaVuSans-80" d="M-136.1,475.5v-27.4h12.4c4.6,0,8.1,1.2,10.6,3.6c2.5,2.4,3.8,5.8,3.8,10.2
							c0,4.4-1.3,7.7-3.8,10.1c-2.5,2.4-6,3.6-10.6,3.6H-136.1z M-145.9,483.6h22.3c8.2,0,14.4-1.8,18.5-5.5
							c4.2-3.7,6.3-9.1,6.3-16.2c0-7.2-2.1-12.6-6.3-16.3c-4.2-3.7-10.4-5.5-18.5-5.5h-12.4v-29.3h-9.9V483.6z"/>
					</g>
					<g>
						<path id="DejaVuSans-82" d="M-51.1,444.9c2.1-0.7,4.2-2.3,6.2-4.6s4-5.6,6-9.7l10-19.9h-10.6l-9.3,18.7
							c-2.4,4.9-4.8,8.1-7,9.7s-5.3,2.4-9.3,2.4h-10.8v-30.8h-9.9v72.9h22.3c8.3,0,14.6-1.7,18.7-5.2c4.1-3.5,6.2-8.7,6.2-15.8
							c0-4.6-1.1-8.4-3.2-11.4C-43.9,448.2-47,446.1-51.1,444.9z M-75.8,475.5v-25.9h12.4c4.8,0,8.3,1.1,10.8,3.3s3.6,5.4,3.6,9.7
							s-1.2,7.5-3.6,9.6s-6,3.3-10.8,3.3H-75.8z"/>
					</g>
				</g>
			</g>
		</g>
		<g id="matplotlib.axis_2">
			<g id="ytick_1">
				<g id="line2d_7">
					<g>
						<g>
							<path id="m7a9764b2c7" class="st0" d="M36.3,254.4h-3.5"/>
						</g>
					</g>
				</g>
				<g id="text_8">
					<g transform="translate(34.696875 299.287219)scale(0.1 -0.1)">
						<g>
							<path id="DejaVuSans-48_7_" d="M-181.5,477.1c-5.1,0-8.9-2.5-11.5-7.5c-2.6-5-3.8-12.5-3.8-22.5c0-10,1.3-17.5,3.8-22.5
								c2.6-5,6.4-7.5,11.5-7.5c5.1,0,8.9,2.5,11.5,7.5c2.6,5,3.8,12.5,3.8,22.5c0,10-1.3,17.5-3.8,22.5
								C-172.5,474.6-176.4,477.1-181.5,477.1z M-181.5,484.9c8.2,0,14.4-3.2,18.7-9.7c4.3-6.5,6.5-15.8,6.5-28.1
								c0-12.3-2.2-21.6-6.5-28.1c-4.3-6.5-10.6-9.7-18.7-9.7c-8.2,0-14.4,3.2-18.7,9.7c-4.3,6.5-6.5,15.8-6.5,28.1
								c0,12.3,2.2,21.7,6.5,28.1C-195.9,481.7-189.7,484.9-181.5,484.9z"/>
						</g>
						<g>
							<path id="DejaVuSans-46_6_" d="M-139,423.1h10.3v-12.4H-139V423.1z"/>
						</g>
						<g>
							<path id="DejaVuSans-48_8_" d="M-86.1,477.1c-5.1,0-8.9-2.5-11.5-7.5c-2.6-5-3.8-12.5-3.8-22.5c0-10,1.3-17.5,3.8-22.5
								c2.6-5,6.4-7.5,11.5-7.5c5.1,0,8.9,2.5,11.5,7.5c2.6,5,3.8,12.5,3.8,22.5c0,10-1.3,17.5-3.8,22.5
								C-77.1,474.6-81,477.1-86.1,477.1z M-86.1,484.9c8.2,0,14.4-3.2,18.7-9.7c4.3-6.5,6.5-15.8,6.5-28.1
								c0-12.3-2.2-21.6-6.5-28.1c-4.3-6.5-10.6-9.7-18.7-9.7c-8.2,0-14.4,3.2-18.7,9.7c-4.3,6.5-6.5,15.8-6.5,28.1
								c0,12.3,2.2,21.7,6.5,28.1C-100.5,481.7-94.2,484.9-86.1,484.9z"/>
						</g>
					</g>
				</g>
			</g>
			<g id="ytick_2">
				<g id="line2d_8">
					<g>
						<g>
							<path id="m7a9764b2c7_1_" class="st0" d="M36.3,206h-3.5"/>
						</g>
					</g>
				</g>
				<g id="text_9">
					<g transform="translate(34.696875 250.903219)scale(0.1 -0.1)">
						<g>
							<path id="DejaVuSans-48_9_" d="M-181.5,477.1c-5.1,0-8.9-2.5-11.5-7.5c-2.6-5-3.8-12.5-3.8-22.5c0-10,1.3-17.5,3.8-22.5
								c2.6-5,6.4-7.5,11.5-7.5c5.1,0,8.9,2.5,11.5,7.5c2.6,5,3.8,12.5,3.8,22.5c0,10-1.3,17.5-3.8,22.5
								C-172.5,474.6-176.4,477.1-181.5,477.1z M-181.5,484.9c8.2,0,14.4-3.2,18.7-9.7c4.3-6.5,6.5-15.8,6.5-28.1
								c0-12.3-2.2-21.6-6.5-28.1c-4.3-6.5-10.6-9.7-18.7-9.7c-8.2,0-14.4,3.2-18.7,9.7c-4.3,6.5-6.5,15.8-6.5,28.1
								c0,12.3,2.2,21.7,6.5,28.1C-195.9,481.7-189.7,484.9-181.5,484.9z"/>
						</g>
						<g>
							<path id="DejaVuSans-46_7_" d="M-139,423.1h10.3v-12.4H-139V423.1z"/>
						</g>
						<g>
							<path id="DejaVuSans-50_1_" d="M-98.7,419h34.4v-8.3h-46.3v8.3c3.7,3.9,8.8,9.1,15.3,15.6c6.5,6.5,10.5,10.7,12.2,12.6
								c3.2,3.5,5.4,6.5,6.6,9c1.3,2.5,1.9,4.9,1.9,7.3c0,3.9-1.4,7-4.1,9.5c-2.7,2.4-6.3,3.7-10.6,3.7c-3.1,0-6.4-0.5-9.8-1.6
								c-3.4-1.1-7.1-2.7-11-4.9v10c4,1.6,7.7,2.8,11.1,3.6c3.5,0.8,6.6,1.2,9.5,1.2c7.6,0,13.6-1.9,18.1-5.7
								c4.5-3.8,6.7-8.8,6.7-15.1c0-3-0.6-5.8-1.7-8.5c-1.1-2.7-3.2-5.8-6.1-9.5c-0.8-0.9-3.4-3.7-7.8-8.2
								C-84.6,433.4-90.7,427.1-98.7,419z"/>
						</g>
					</g>
				</g>
			</g>
			<g id="ytick_3">
				<g id="line2d_9">
					<g>
						<g>
							<path id="m7a9764b2c7_2_" class="st0" d="M36.3,157.6h-3.5"/>
						</g>
					</g>
				</g>
				<g id="text_10">
					<g transform="translate(34.696875 202.519219)scale(0.1 -0.1)">
						<g>
							<path id="DejaVuSans-48_10_" d="M-181.5,477.1c-5.1,0-8.9-2.5-11.5-7.5c-2.6-5-3.8-12.5-3.8-22.5c0-10,1.3-17.5,3.8-22.5
								c2.6-5,6.4-7.5,11.5-7.5c5.1,0,8.9,2.5,11.5,7.5c2.6,5,3.8,12.5,3.8,22.5c0,10-1.3,17.5-3.8,22.5
								C-172.5,474.6-176.4,477.1-181.5,477.1z M-181.5,484.9c8.2,0,14.4-3.2,18.7-9.7c4.3-6.5,6.5-15.8,6.5-28.1
								c0-12.3-2.2-21.6-6.5-28.1c-4.3-6.5-10.6-9.7-18.7-9.7c-8.2,0-14.4,3.2-18.7,9.7c-4.3,6.5-6.5,15.8-6.5,28.1
								c0,12.3,2.2,21.7,6.5,28.1C-195.9,481.7-189.7,484.9-181.5,484.9z"/>
						</g>
						<g>
							<path id="DejaVuSans-46_8_" d="M-139,423.1h10.3v-12.4H-139V423.1z"/>
						</g>
						<g>
							<path id="DejaVuSans-52_1_" d="M-80.1,475l-24.9-38.9h24.9V475z M-82.7,483.6h12.4v-47.5h10.4v-8.2h-10.4v-17.2h-9.8v17.2
								H-113v9.5L-82.7,483.6z"/>
						</g>
					</g>
				</g>
			</g>
			<g id="ytick_4">
				<g id="line2d_10">
					<g>
						<g>
							<path id="m7a9764b2c7_3_" class="st0" d="M36.3,109.3h-3.5"/>
						</g>
					</g>
				</g>
				<g id="text_11">
					<g transform="translate(34.696875 154.135219)scale(0.1 -0.1)">
						<g>
							<path id="DejaVuSans-48_11_" d="M-181.5,477.1c-5.1,0-8.9-2.5-11.5-7.5c-2.6-5-3.8-12.5-3.8-22.5c0-10,1.3-17.5,3.8-22.5
								c2.6-5,6.4-7.5,11.5-7.5c5.1,0,8.9,2.5,11.5,7.5c2.6,5,3.8,12.5,3.8,22.5c0,10-1.3,17.5-3.8,22.5
								C-172.5,474.6-176.4,477.1-181.5,477.1z M-181.5,484.9c8.2,0,14.4-3.2,18.7-9.7c4.3-6.5,6.5-15.8,6.5-28.1
								c0-12.3-2.2-21.6-6.5-28.1c-4.3-6.5-10.6-9.7-18.7-9.7c-8.2,0-14.4,3.2-18.7,9.7c-4.3,6.5-6.5,15.8-6.5,28.1
								c0,12.3,2.2,21.7,6.5,28.1C-195.9,481.7-189.7,484.9-181.5,484.9z"/>
						</g>
						<g>
							<path id="DejaVuSans-46_9_" d="M-139,423.1h10.3v-12.4H-139V423.1z"/>
						</g>
						<g>
							<path id="DejaVuSans-54_1_" d="M-84.8,451.1c-4.4,0-7.9-1.5-10.5-4.5c-2.6-3-3.9-7.2-3.9-12.4c0-5.2,1.3-9.4,3.9-12.4
								c2.6-3,6.1-4.6,10.5-4.6c4.4,0,7.9,1.5,10.5,4.6c2.6,3.1,3.9,7.2,3.9,12.4c0,5.3-1.3,9.4-3.9,12.4
								C-76.9,449.6-80.4,451.1-84.8,451.1z M-65.3,482v-9c-2.5,1.2-5,2.1-7.5,2.7c-2.5,0.6-5,0.9-7.5,0.9c-6.5,0-11.5-2.2-14.9-6.6
								c-3.4-4.4-5.4-11-5.9-19.9c1.9,2.8,4.3,5,7.2,6.5c2.9,1.5,6.1,2.3,9.6,2.3c7.3,0,13.1-2.2,17.4-6.7
								c4.3-4.4,6.4-10.5,6.4-18.1c0-7.5-2.2-13.5-6.6-18c-4.4-4.5-10.3-6.8-17.7-6.8c-8.4,0-14.9,3.2-19.3,9.7
								c-4.5,6.5-6.7,15.8-6.7,28.1c0,11.5,2.7,20.7,8.2,27.6s12.8,10.3,22,10.3c2.5,0,5-0.2,7.5-0.7C-70.6,483.7-68,483-65.3,482z"
								/>
						</g>
					</g>
				</g>
			</g>
			<g id="ytick_5">
				<g id="line2d_11">
					<g>
						<g>
							<path id="m7a9764b2c7_4_" class="st0" d="M36.3,60.9h-3.5"/>
						</g>
					</g>
				</g>
				<g id="text_12">
					<g transform="translate(34.696875 105.751219)scale(0.1 -0.1)">
						<g>
							<path id="DejaVuSans-48_12_" d="M-181.5,477.1c-5.1,0-8.9-2.5-11.5-7.5c-2.6-5-3.8-12.5-3.8-22.5c0-10,1.3-17.5,3.8-22.5
								c2.6-5,6.4-7.5,11.5-7.5c5.1,0,8.9,2.5,11.5,7.5c2.6,5,3.8,12.5,3.8,22.5c0,10-1.3,17.5-3.8,22.5
								C-172.5,474.6-176.4,477.1-181.5,477.1z M-181.5,484.9c8.2,0,14.4-3.2,18.7-9.7c4.3-6.5,6.5-15.8,6.5-28.1
								c0-12.3-2.2-21.6-6.5-28.1c-4.3-6.5-10.6-9.7-18.7-9.7c-8.2,0-14.4,3.2-18.7,9.7c-4.3,6.5-6.5,15.8-6.5,28.1
								c0,12.3,2.2,21.7,6.5,28.1C-195.9,481.7-189.7,484.9-181.5,484.9z"/>
						</g>
						<g>
							<path id="DejaVuSans-46_10_" d="M-139,423.1h10.3v-12.4H-139V423.1z"/>
						</g>
						<g>
							<path id="DejaVuSans-56_1_" d="M-86.1,445.3c-4.7,0-8.4-1.3-11.1-3.8c-2.7-2.5-4-6-4-10.3c0-4.4,1.3-7.8,4-10.4
								c2.7-2.5,6.4-3.8,11.1-3.8s8.4,1.3,11.1,3.8c2.7,2.5,4.1,6,4.1,10.3c0,4.4-1.3,7.8-4,10.3C-77.6,444.1-81.3,445.3-86.1,445.3
								z M-95.9,449.5c-4.2,1-7.5,3-9.9,5.9c-2.4,2.9-3.5,6.4-3.5,10.6c0,5.8,2.1,10.4,6.2,13.8c4.2,3.4,9.8,5.1,17.1,5.1
								c7.3,0,13-1.7,17.1-5.1c4.1-3.4,6.2-8,6.2-13.8c0-4.2-1.2-7.7-3.5-10.6c-2.4-2.9-5.6-4.9-9.8-5.9c4.8-1.1,8.4-3.3,11.1-6.5
								c2.7-3.2,4-7.2,4-11.8c0-7.1-2.2-12.5-6.5-16.3c-4.3-3.8-10.5-5.7-18.5-5.7c-8,0-14.2,1.9-18.5,5.7
								c-4.3,3.8-6.5,9.2-6.5,16.3c0,4.6,1.3,8.6,4,11.8C-104.4,446.3-100.7,448.4-95.9,449.5z M-99.5,465.1c0-3.8,1.2-6.7,3.5-8.8
								c2.4-2.1,5.7-3.2,9.9-3.2c4.2,0,7.6,1.1,9.9,3.2c2.4,2.1,3.6,5.1,3.6,8.8c0,3.8-1.2,6.7-3.6,8.8c-2.4,2.1-5.7,3.2-9.9,3.2
								c-4.3,0-7.6-1.1-9.9-3.2C-98.4,471.8-99.5,468.9-99.5,465.1z"/>
						</g>
					</g>
				</g>
			</g>
			<g id="ytick_6">
				<g id="line2d_12">
					<g>
						<g>
							<path id="m7a9764b2c7_5_" class="st0" d="M36.3,12.5h-3.5"/>
						</g>
					</g>
				</g>
				<g id="text_13">
					<g transform="translate(34.696875 57.367219)scale(0.1 -0.1)">
						<g>
							<path id="DejaVuSans-49_1_" d="M-200.9,419h16.1v55.6l-17.5-3.5v9l17.4,3.5h9.9V419h16.1v-8.3h-42V419z"/>
						</g>
						<g>
							<path id="DejaVuSans-46_11_" d="M-139,423.1h10.3v-12.4H-139V423.1z"/>
						</g>
						<g>
							<path id="DejaVuSans-48_13_" d="M-86.1,477.1c-5.1,0-8.9-2.5-11.5-7.5c-2.6-5-3.8-12.5-3.8-22.5c0-10,1.3-17.5,3.8-22.5
								c2.6-5,6.4-7.5,11.5-7.5c5.1,0,8.9,2.5,11.5,7.5c2.6,5,3.8,12.5,3.8,22.5c0,10-1.3,17.5-3.8,22.5
								C-77.1,474.6-81,477.1-86.1,477.1z M-86.1,484.9c8.2,0,14.4-3.2,18.7-9.7c4.3-6.5,6.5-15.8,6.5-28.1
								c0-12.3-2.2-21.6-6.5-28.1c-4.3-6.5-10.6-9.7-18.7-9.7c-8.2,0-14.4,3.2-18.7,9.7c-4.3,6.5-6.5,15.8-6.5,28.1
								c0,12.3,2.2,21.7,6.5,28.1C-100.5,481.7-94.2,484.9-86.1,484.9z"/>
						</g>
					</g>
				</g>
			</g>
			<g id="text_14">
				<g transform="translate(28.617188 184.070969)rotate(-90)scale(0.1 -0.1)">
					<g>
						<path id="DejaVuSans-84" d="M410.4,286.2h61.7v-8.3h-25.9v-64.6h-9.9v64.6h-25.9V286.2z"/>
					</g>
					<g>
						<path id="DejaVuSans-80_1_" d="M491.5,278.1v-27.4h12.4c4.6,0,8.1,1.2,10.6,3.6c2.5,2.4,3.8,5.8,3.8,10.2
							c0,4.4-1.3,7.7-3.8,10.1c-2.5,2.4-6,3.6-10.6,3.6H491.5z M481.6,286.2h22.3c8.2,0,14.4-1.8,18.5-5.5c4.2-3.7,6.3-9.1,6.3-16.2
							c0-7.2-2.1-12.6-6.3-16.3c-4.2-3.7-10.4-5.5-18.5-5.5h-12.4v-29.3h-9.9V286.2z"/>
					</g>
					<g>
						<path id="DejaVuSans-82_1_" d="M576.5,247.5c2.1-0.7,4.2-2.3,6.2-4.6s4-5.6,6-9.7l10-19.9h-10.6l-9.3,18.7
							c-2.4,4.9-4.8,8.1-7,9.7c-2.3,1.6-5.3,2.4-9.3,2.4h-10.8v-30.8h-9.9v72.9h22.3c8.3,0,14.6-1.7,18.7-5.2
							c4.1-3.5,6.2-8.7,6.2-15.8c0-4.6-1.1-8.4-3.2-11.4C583.7,250.7,580.6,248.6,576.5,247.5z M551.8,278.1v-25.9h12.4
							c4.8,0,8.3,1.1,10.8,3.3c2.4,2.2,3.6,5.4,3.6,9.7c0,4.3-1.2,7.5-3.6,9.6c-2.4,2.2-6,3.3-10.8,3.3H551.8z"/>
					</g>
				</g>
			</g>
		</g>
		<g id="line2d_13">
			<g>
				<defs>
					<rect id="SVGID_1_" x="36.3" y="0.4" width="357.1" height="266.1"/>
				</defs>
				<clipPath id="SVGID_2_">
					<use xlink:href="#SVGID_1_"  style="overflow:visible;"/>
				</clipPath>
				<path class="st1" d="M52.5,254.4L72.8,98.9l304.4-86.4"/>
			</g>
			<g>
				<defs>
					<rect id="SVGID_3_" x="36.3" y="0.4" width="357.1" height="266.1"/>
				</defs>
				<clipPath id="SVGID_4_">
					<use xlink:href="#SVGID_3_"  style="overflow:visible;"/>
				</clipPath>
				<g class="st2">
					<g>
						<path id="md39aaede71" class="st3" d="M52.5,257.4c0.8,0,1.6-0.3,2.1-0.9c0.6-0.6,0.9-1.3,0.9-2.1s-0.3-1.6-0.9-2.1
							c-0.6-0.6-1.3-0.9-2.1-0.9s-1.6,0.3-2.1,0.9c-0.6,0.6-0.9,1.3-0.9,2.1s0.3,1.6,0.9,2.1C50.9,257.1,51.7,257.4,52.5,257.4z"/>
					</g>
					<g>
						<path id="md39aaede71_1_" class="st3" d="M72.8,101.9c0.8,0,1.6-0.3,2.1-0.9c0.6-0.6,0.9-1.3,0.9-2.1s-0.3-1.6-0.9-2.1
							c-0.6-0.6-1.3-0.9-2.1-0.9s-1.6,0.3-2.1,0.9c-0.6,0.6-0.9,1.3-0.9,2.1s0.3,1.6,0.9,2.1C71.2,101.6,72,101.9,72.8,101.9z"/>
					</g>
					<g>
						<path id="md39aaede71_2_" class="st3" d="M377.2,15.5c0.8,0,1.6-0.3,2.1-0.9c0.6-0.6,0.9-1.3,0.9-2.1c0-0.8-0.3-1.6-0.9-2.1
							c-0.6-0.6-1.3-0.9-2.1-0.9c-0.8,0-1.6,0.3-2.1,0.9c-0.6,0.6-0.9,1.3-0.9,2.1c0,0.8,0.3,1.6,0.9,2.1
							C375.6,15.2,376.4,15.5,377.2,15.5z"/>
					</g>
				</g>
			</g>
		</g>
		<g id="patch_3">
			<path class="st4" d="M36.3,266.5V0.4"/>
		</g>
		<g id="patch_4">
			<path class="st4" d="M393.4,266.5V0.4"/>
		</g>
		<g id="patch_5">
			<path class="st4" d="M36.3,266.5h357.1"/>
		</g>
		<g id="patch_6">
			<path class="st4" d="M36.3,0.4h357.1"/>
		</g>
	</g>
</g>
</svg>
