<?xml version="1.0" encoding="utf-8"?>
<!-- Generator: Adobe Illustrator 20.1.0, SVG Export Plug-In . SVG Version: 6.00 Build 0)  -->
<svg version="1.0" id="Layer_1" xmlns="http://www.w3.org/2000/svg" xmlns:xlink="http://www.w3.org/1999/xlink" x="0px" y="0px"
	 viewBox="0 0 400.4 294.8" enable-background="new 0 0 400.4 294.8" xml:space="preserve">
<g id="figure_1">
	<g id="axes_1">
		<g id="matplotlib.axis_1">
			<g id="xtick_1">
				<g id="line2d_1">
					<g>
						<g>
							<path id="mb434ed8a2b" stroke="#000000" stroke-width="0.8" stroke-linejoin="round" d="M50.5,266.5v3.5"/>
						</g>
					</g>
				</g>
				<g id="text_1">
					<g transform="translate(57.276102 322.182437)scale(0.1 -0.1)">
						<g>
							<path id="DejaVuSans-48" d="M-115.9,477.1c-5.1,0-8.9-2.5-11.5-7.5c-2.6-5-3.8-12.5-3.8-22.5c0-10,1.3-17.5,3.8-22.5
								c2.6-5,6.4-7.5,11.5-7.5c5.1,0,8.9,2.5,11.5,7.5c2.6,5,3.8,12.5,3.8,22.5c0,10-1.3,17.5-3.8,22.5
								C-107,474.6-110.8,477.1-115.9,477.1z M-115.9,484.9c8.2,0,14.4-3.2,18.7-9.7c4.3-6.5,6.5-15.8,6.5-28.1
								c0-12.3-2.2-21.6-6.5-28.1c-4.3-6.5-10.6-9.7-18.7-9.7c-8.2,0-14.4,3.2-18.7,9.7c-4.3,6.5-6.5,15.8-6.5,28.1
								c0,12.3,2.2,21.7,6.5,28.1C-130.3,481.7-124.1,484.9-115.9,484.9z"/>
						</g>
						<g>
							<path id="DejaVuSans-46" d="M-73.4,423.1h10.3v-12.4h-10.3V423.1z"/>
						</g>
						<g>
							<path id="DejaVuSans-48_1_" d="M-20.5,477.1c-5.1,0-8.9-2.5-11.5-7.5c-2.6-5-3.8-12.5-3.8-22.5c0-10,1.3-17.5,3.8-22.5
								c2.6-5,6.4-7.5,11.5-7.5c5.1,0,8.9,2.5,11.5,7.5c2.6,5,3.8,12.5,3.8,22.5c0,10-1.3,17.5-3.8,22.5
								C-11.5,474.6-15.4,477.1-20.5,477.1z M-20.5,484.9c8.2,0,14.4-3.2,18.7-9.7c4.3-6.5,6.5-15.8,6.5-28.1
								c0-12.3-2.2-21.6-6.5-28.1c-4.3-6.5-10.6-9.7-18.7-9.7c-8.2,0-14.4,3.2-18.7,9.7c-4.3,6.5-6.5,15.8-6.5,28.1
								c0,12.3,2.2,21.7,6.5,28.1C-34.9,481.7-28.7,484.9-20.5,484.9z"/>
						</g>
					</g>
				</g>
			</g>
			<g id="xtick_2">
				<g id="line2d_2">
					<g>
						<g>
							<path id="mb434ed8a2b_1_" stroke="#000000" stroke-width="0.8" stroke-linejoin="round" d="M118.6,266.5v3.5"/>
						</g>
					</g>
				</g>
				<g id="text_2">
					<g transform="translate(125.367371 322.182437)scale(0.1 -0.1)">
						<g>
							<path id="DejaVuSans-48_2_" d="M-115.9,477.1c-5.1,0-8.9-2.5-11.5-7.5c-2.6-5-3.8-12.5-3.8-22.5c0-10,1.3-17.5,3.8-22.5
								c2.6-5,6.4-7.5,11.5-7.5c5.1,0,8.9,2.5,11.5,7.5c2.6,5,3.8,12.5,3.8,22.5c0,10-1.3,17.5-3.8,22.5
								C-107,474.6-110.8,477.1-115.9,477.1z M-115.9,484.9c8.2,0,14.4-3.2,18.7-9.7c4.3-6.5,6.5-15.8,6.5-28.1
								c0-12.3-2.2-21.6-6.5-28.1c-4.3-6.5-10.6-9.7-18.7-9.7c-8.2,0-14.4,3.2-18.7,9.7c-4.3,6.5-6.5,15.8-6.5,28.1
								c0,12.3,2.2,21.7,6.5,28.1C-130.3,481.7-124.1,484.9-115.9,484.9z"/>
						</g>
						<g>
							<path id="DejaVuSans-46_1_" d="M-73.4,423.1h10.3v-12.4h-10.3V423.1z"/>
						</g>
						<g>
							<path id="DejaVuSans-50" d="M-33.1,419H1.3v-8.3h-46.3v8.3c3.7,3.9,8.8,9.1,15.3,15.6c6.5,6.5,10.5,10.7,12.2,12.6
								c3.2,3.5,5.4,6.5,6.6,9c1.3,2.5,1.9,4.9,1.9,7.3c0,3.9-1.4,7-4.1,9.5c-2.7,2.4-6.3,3.7-10.6,3.7c-3.1,0-6.4-0.5-9.8-1.6
								c-3.4-1.1-7.1-2.7-11-4.9v10c4,1.6,7.7,2.8,11.1,3.6c3.5,0.8,6.6,1.2,9.5,1.2c7.6,0,13.6-1.9,18.1-5.7
								c4.5-3.8,6.7-8.8,6.7-15.1c0-3-0.6-5.8-1.7-8.5c-1.1-2.7-3.2-5.8-6.1-9.5c-0.8-0.9-3.4-3.7-7.8-8.2
								C-19,433.4-25.1,427.1-33.1,419z"/>
						</g>
					</g>
				</g>
			</g>
			<g id="xtick_3">
				<g id="line2d_3">
					<g>
						<g>
							<path id="mb434ed8a2b_2_" stroke="#000000" stroke-width="0.8" stroke-linejoin="round" d="M186.6,266.5v3.5"/>
						</g>
					</g>
				</g>
				<g id="text_3">
					<g transform="translate(193.458639 322.182437)scale(0.1 -0.1)">
						<g>
							<path id="DejaVuSans-48_3_" d="M-115.9,477.1c-5.1,0-8.9-2.5-11.5-7.5c-2.6-5-3.8-12.5-3.8-22.5c0-10,1.3-17.5,3.8-22.5
								c2.6-5,6.4-7.5,11.5-7.5c5.1,0,8.9,2.5,11.5,7.5c2.6,5,3.8,12.5,3.8,22.5c0,10-1.3,17.5-3.8,22.5
								C-107,474.6-110.8,477.1-115.9,477.1z M-115.9,484.9c8.2,0,14.4-3.2,18.7-9.7c4.3-6.5,6.5-15.8,6.5-28.1
								c0-12.3-2.2-21.6-6.5-28.1c-4.3-6.5-10.6-9.7-18.7-9.7c-8.2,0-14.4,3.2-18.7,9.7c-4.3,6.5-6.5,15.8-6.5,28.1
								c0,12.3,2.2,21.7,6.5,28.1C-130.3,481.7-124.1,484.9-115.9,484.9z"/>
						</g>
						<g>
							<path id="DejaVuSans-46_2_" d="M-73.4,423.1h10.3v-12.4h-10.3V423.1z"/>
						</g>
						<g>
							<path id="DejaVuSans-52" d="M-14.5,475l-24.9-38.9h24.9V475z M-17.1,483.6h12.4v-47.5H5.7v-8.2H-4.7v-17.2h-9.8v17.2h-32.9
								v9.5L-17.1,483.6z"/>
						</g>
					</g>
				</g>
			</g>
			<g id="xtick_4">
				<g id="line2d_4">
					<g>
						<g>
							<path id="mb434ed8a2b_3_" stroke="#000000" stroke-width="0.8" stroke-linejoin="round" d="M254.7,266.5v3.5"/>
						</g>
					</g>
				</g>
				<g id="text_4">
					<g transform="translate(261.549908 322.182437)scale(0.1 -0.1)">
						<g>
							<path id="DejaVuSans-48_4_" d="M-115.9,477.1c-5.1,0-8.9-2.5-11.5-7.5c-2.6-5-3.8-12.5-3.8-22.5c0-10,1.3-17.5,3.8-22.5
								c2.6-5,6.4-7.5,11.5-7.5c5.1,0,8.9,2.5,11.5,7.5c2.6,5,3.8,12.5,3.8,22.5c0,10-1.3,17.5-3.8,22.5
								C-107,474.6-110.8,477.1-115.9,477.1z M-115.9,484.9c8.2,0,14.4-3.2,18.7-9.7c4.3-6.5,6.5-15.8,6.5-28.1
								c0-12.3-2.2-21.6-6.5-28.1c-4.3-6.5-10.6-9.7-18.7-9.7c-8.2,0-14.4,3.2-18.7,9.7c-4.3,6.5-6.5,15.8-6.5,28.1
								c0,12.3,2.2,21.7,6.5,28.1C-130.3,481.7-124.1,484.9-115.9,484.9z"/>
						</g>
						<g>
							<path id="DejaVuSans-46_3_" d="M-73.4,423.1h10.3v-12.4h-10.3V423.1z"/>
						</g>
						<g>
							<path id="DejaVuSans-54" d="M-19.3,451.1c-4.4,0-7.9-1.5-10.5-4.5c-2.6-3-3.9-7.2-3.9-12.4c0-5.2,1.3-9.4,3.9-12.4
								c2.6-3,6.1-4.6,10.5-4.6s7.9,1.5,10.5,4.6c2.6,3.1,3.9,7.2,3.9,12.4c0,5.3-1.3,9.4-3.9,12.4
								C-11.3,449.6-14.8,451.1-19.3,451.1z M0.3,482v-9c-2.5,1.2-5,2.1-7.5,2.7c-2.5,0.6-5,0.9-7.5,0.9c-6.5,0-11.5-2.2-14.9-6.6
								c-3.4-4.4-5.4-11-5.9-19.9c1.9,2.8,4.3,5,7.2,6.5c2.9,1.5,6.1,2.3,9.6,2.3c7.3,0,13.1-2.2,17.4-6.7
								c4.3-4.4,6.4-10.5,6.4-18.1c0-7.5-2.2-13.5-6.6-18c-4.4-4.5-10.3-6.8-17.7-6.8c-8.4,0-14.9,3.2-19.3,9.7
								c-4.5,6.5-6.7,15.8-6.7,28.1c0,11.5,2.7,20.7,8.2,27.6s12.8,10.3,22,10.3c2.5,0,5-0.2,7.5-0.7S-2.4,483,0.3,482z"/>
						</g>
					</g>
				</g>
			</g>
			<g id="xtick_5">
				<g id="line2d_5">
					<g>
						<g>
							<path id="mb434ed8a2b_4_" stroke="#000000" stroke-width="0.8" stroke-linejoin="round" d="M322.8,266.5v3.5"/>
						</g>
					</g>
				</g>
				<g id="text_5">
					<g transform="translate(329.641176 322.182437)scale(0.1 -0.1)">
						<g>
							<path id="DejaVuSans-48_5_" d="M-115.9,477.1c-5.1,0-8.9-2.5-11.5-7.5c-2.6-5-3.8-12.5-3.8-22.5c0-10,1.3-17.5,3.8-22.5
								c2.6-5,6.4-7.5,11.5-7.5c5.1,0,8.9,2.5,11.5,7.5c2.6,5,3.8,12.5,3.8,22.5c0,10-1.3,17.5-3.8,22.5
								C-107,474.6-110.8,477.1-115.9,477.1z M-115.9,484.9c8.2,0,14.4-3.2,18.7-9.7c4.3-6.5,6.5-15.8,6.5-28.1
								c0-12.3-2.2-21.6-6.5-28.1c-4.3-6.5-10.6-9.7-18.7-9.7c-8.2,0-14.4,3.2-18.7,9.7c-4.3,6.5-6.5,15.8-6.5,28.1
								c0,12.3,2.2,21.7,6.5,28.1C-130.3,481.7-124.1,484.9-115.9,484.9z"/>
						</g>
						<g>
							<path id="DejaVuSans-46_4_" d="M-73.4,423.1h10.3v-12.4h-10.3V423.1z"/>
						</g>
						<g>
							<path id="DejaVuSans-56" d="M-20.5,445.3c-4.7,0-8.4-1.3-11.1-3.8c-2.7-2.5-4-6-4-10.3c0-4.4,1.3-7.8,4-10.4
								c2.7-2.5,6.4-3.8,11.1-3.8s8.4,1.3,11.1,3.8c2.7,2.5,4.1,6,4.1,10.3c0,4.4-1.3,7.8-4,10.3C-12.1,444.1-15.8,445.3-20.5,445.3
								z M-30.4,449.5c-4.2,1-7.5,3-9.9,5.9c-2.4,2.9-3.5,6.4-3.5,10.6c0,5.8,2.1,10.4,6.2,13.8c4.2,3.4,9.8,5.1,17.1,5.1
								c7.3,0,13-1.7,17.1-5.1s6.2-8,6.2-13.8c0-4.2-1.2-7.7-3.5-10.6c-2.4-2.9-5.6-4.9-9.8-5.9c4.8-1.1,8.4-3.3,11.1-6.5
								c2.7-3.2,4-7.2,4-11.8c0-7.1-2.2-12.5-6.5-16.3c-4.3-3.8-10.5-5.7-18.5-5.7c-8,0-14.2,1.9-18.5,5.7
								c-4.3,3.8-6.5,9.2-6.5,16.3c0,4.6,1.3,8.6,4,11.8C-38.8,446.3-35.1,448.4-30.4,449.5z M-34,465.1c0-3.8,1.2-6.7,3.5-8.8
								c2.4-2.1,5.7-3.2,9.9-3.2c4.2,0,7.6,1.1,9.9,3.2c2.4,2.1,3.6,5.1,3.6,8.8c0,3.8-1.2,6.7-3.6,8.8c-2.4,2.1-5.7,3.2-9.9,3.2
								c-4.3,0-7.6-1.1-9.9-3.2C-32.8,471.8-34,468.9-34,465.1z"/>
						</g>
					</g>
				</g>
			</g>
			<g id="xtick_6">
				<g id="line2d_6">
					<g>
						<g>
							<path id="mb434ed8a2b_5_" stroke="#000000" stroke-width="0.8" stroke-linejoin="round" d="M390.9,266.5v3.5"/>
						</g>
					</g>
				</g>
				<g id="text_6">
					<g transform="translate(397.732444 322.182437)scale(0.1 -0.1)">
						<g>
							<path id="DejaVuSans-49" d="M-135.3,419h16.1v55.6l-17.5-3.5v9l17.4,3.5h9.9V419h16.1v-8.3h-42V419z"/>
						</g>
						<g>
							<path id="DejaVuSans-46_5_" d="M-73.4,423.1h10.3v-12.4h-10.3V423.1z"/>
						</g>
						<g>
							<path id="DejaVuSans-48_6_" d="M-20.5,477.1c-5.1,0-8.9-2.5-11.5-7.5c-2.6-5-3.8-12.5-3.8-22.5c0-10,1.3-17.5,3.8-22.5
								c2.6-5,6.4-7.5,11.5-7.5c5.1,0,8.9,2.5,11.5,7.5c2.6,5,3.8,12.5,3.8,22.5c0,10-1.3,17.5-3.8,22.5
								C-11.5,474.6-15.4,477.1-20.5,477.1z M-20.5,484.9c8.2,0,14.4-3.2,18.7-9.7c4.3-6.5,6.5-15.8,6.5-28.1
								c0-12.3-2.2-21.6-6.5-28.1c-4.3-6.5-10.6-9.7-18.7-9.7c-8.2,0-14.4,3.2-18.7,9.7c-4.3,6.5-6.5,15.8-6.5,28.1
								c0,12.3,2.2,21.7,6.5,28.1C-34.9,481.7-28.7,484.9-20.5,484.9z"/>
						</g>
					</g>
				</g>
			</g>
			<g id="text_7">
				<g transform="translate(233.200625 335.860562)scale(0.1 -0.1)">
					<g>
						<path id="DejaVuSans-120" d="M-92.8,465.4l-19.8-26.6l20.8-28.1h-10.6l-15.9,21.5l-15.9-21.5h-10.6l21.3,28.6l-19.4,26.1h10.6
							l14.5-19.5l14.5,19.5H-92.8z"/>
					</g>
				</g>
			</g>
		</g>
		<g id="matplotlib.axis_2">
			<g id="ytick_1">
				<g id="line2d_7">
					<g>
						<g>
							<path id="m6fce78db1d" stroke="#000000" stroke-width="0.8" stroke-linejoin="round" d="M42.8,259.3h-3.5"/>
						</g>
					</g>
				</g>
				<g id="text_8">
					<g transform="translate(26.317187 304.174382)scale(0.1 -0.1)">
						<g>
							<path id="DejaVuSans-8722" d="M-137.1,446.2h62.6v-8.3h-62.6V446.2z"/>
						</g>
						<g>
							<path id="DejaVuSans-49_1_" d="M-51.5,419h16.1v55.6l-17.5-3.5v9l17.4,3.5h9.9V419h16.1v-8.3h-42V419z"/>
						</g>
						<g>
							<path id="DejaVuSans-46_6_" d="M10.4,423.1h10.3v-12.4H10.4V423.1z"/>
						</g>
						<g>
							<path id="DejaVuSans-48_7_" d="M63.3,477.1c-5.1,0-8.9-2.5-11.5-7.5c-2.6-5-3.8-12.5-3.8-22.5c0-10,1.3-17.5,3.8-22.5
								c2.6-5,6.4-7.5,11.5-7.5c5.1,0,8.9,2.5,11.5,7.5c2.6,5,3.8,12.5,3.8,22.5c0,10-1.3,17.5-3.8,22.5
								C72.2,474.6,68.4,477.1,63.3,477.1z M63.3,484.9c8.2,0,14.4-3.2,18.7-9.7c4.3-6.5,6.5-15.8,6.5-28.1
								c0-12.3-2.2-21.6-6.5-28.1c-4.3-6.5-10.6-9.7-18.7-9.7c-8.2,0-14.4,3.2-18.7,9.7c-4.3,6.5-6.5,15.8-6.5,28.1
								c0,12.3,2.2,21.7,6.5,28.1C48.9,481.7,55.1,484.9,63.3,484.9z"/>
						</g>
					</g>
				</g>
			</g>
			<g id="ytick_2">
				<g id="line2d_8">
					<g>
						<g>
							<path id="m6fce78db1d_1_" stroke="#000000" stroke-width="0.8" stroke-linejoin="round" d="M42.8,200.2h-3.5"/>
						</g>
					</g>
				</g>
				<g id="text_9">
					<g transform="translate(26.317187 245.066339)scale(0.1 -0.1)">
						<g>
							<path id="DejaVuSans-8722_1_" d="M-137.1,446.2h62.6v-8.3h-62.6V446.2z"/>
						</g>
						<g>
							<path id="DejaVuSans-48_8_" d="M-32.1,477.1c-5.1,0-8.9-2.5-11.5-7.5c-2.6-5-3.8-12.5-3.8-22.5c0-10,1.3-17.5,3.8-22.5
								c2.6-5,6.4-7.5,11.5-7.5c5.1,0,8.9,2.5,11.5,7.5c2.6,5,3.8,12.5,3.8,22.5c0,10-1.3,17.5-3.8,22.5
								C-23.2,474.6-27,477.1-32.1,477.1z M-32.1,484.9c8.2,0,14.4-3.2,18.7-9.7c4.3-6.5,6.5-15.8,6.5-28.1
								c0-12.3-2.2-21.6-6.5-28.1c-4.3-6.5-10.6-9.7-18.7-9.7c-8.2,0-14.4,3.2-18.7,9.7c-4.3,6.5-6.5,15.8-6.5,28.1
								c0,12.3,2.2,21.7,6.5,28.1C-46.5,481.7-40.3,484.9-32.1,484.9z"/>
						</g>
						<g>
							<path id="DejaVuSans-46_7_" d="M10.4,423.1h10.3v-12.4H10.4V423.1z"/>
						</g>
						<g>
							<path id="DejaVuSans-53" d="M42.3,483.6H81v-8.3H51.3v-17.9c1.4,0.5,2.9,0.9,4.3,1.1c1.4,0.2,2.9,0.4,4.3,0.4
								c8.1,0,14.6-2.2,19.3-6.7c4.8-4.5,7.1-10.5,7.1-18.1c0-7.8-2.4-13.9-7.3-18.3c-4.9-4.3-11.8-6.5-20.7-6.5
								c-3.1,0-6.2,0.3-9.4,0.8c-3.2,0.5-6.4,1.3-9.8,2.3v9.9c2.9-1.6,6-2.8,9.1-3.6s6.4-1.2,9.9-1.2c5.6,0,10.1,1.5,13.4,4.4
								c3.3,3,4.9,7,4.9,12.1c0,5.1-1.6,9.1-4.9,12c-3.3,3-7.7,4.5-13.4,4.5c-2.6,0-5.3-0.3-7.9-0.9c-2.6-0.6-5.3-1.5-8-2.7V483.6z"
								/>
						</g>
					</g>
				</g>
			</g>
			<g id="ytick_3">
				<g id="line2d_9">
					<g>
						<g>
							<path id="m6fce78db1d_2_" stroke="#000000" stroke-width="0.8" stroke-linejoin="round" d="M42.8,141.1h-3.5"/>
						</g>
					</g>
				</g>
				<g id="text_10">
					<g transform="translate(34.696875 185.958296)scale(0.1 -0.1)">
						<g>
							<path id="DejaVuSans-48_9_" d="M-115.9,477.1c-5.1,0-8.9-2.5-11.5-7.5c-2.6-5-3.8-12.5-3.8-22.5c0-10,1.3-17.5,3.8-22.5
								c2.6-5,6.4-7.5,11.5-7.5c5.1,0,8.9,2.5,11.5,7.5c2.6,5,3.8,12.5,3.8,22.5c0,10-1.3,17.5-3.8,22.5
								C-107,474.6-110.8,477.1-115.9,477.1z M-115.9,484.9c8.2,0,14.4-3.2,18.7-9.7c4.3-6.5,6.5-15.8,6.5-28.1
								c0-12.3-2.2-21.6-6.5-28.1c-4.3-6.5-10.6-9.7-18.7-9.7c-8.2,0-14.4,3.2-18.7,9.7c-4.3,6.5-6.5,15.8-6.5,28.1
								c0,12.3,2.2,21.7,6.5,28.1C-130.3,481.7-124.1,484.9-115.9,484.9z"/>
						</g>
						<g>
							<path id="DejaVuSans-46_8_" d="M-73.4,423.1h10.3v-12.4h-10.3V423.1z"/>
						</g>
						<g>
							<path id="DejaVuSans-48_10_" d="M-20.5,477.1c-5.1,0-8.9-2.5-11.5-7.5c-2.6-5-3.8-12.5-3.8-22.5c0-10,1.3-17.5,3.8-22.5
								c2.6-5,6.4-7.5,11.5-7.5c5.1,0,8.9,2.5,11.5,7.5c2.6,5,3.8,12.5,3.8,22.5c0,10-1.3,17.5-3.8,22.5
								C-11.5,474.6-15.4,477.1-20.5,477.1z M-20.5,484.9c8.2,0,14.4-3.2,18.7-9.7c4.3-6.5,6.5-15.8,6.5-28.1
								c0-12.3-2.2-21.6-6.5-28.1c-4.3-6.5-10.6-9.7-18.7-9.7c-8.2,0-14.4,3.2-18.7,9.7c-4.3,6.5-6.5,15.8-6.5,28.1
								c0,12.3,2.2,21.7,6.5,28.1C-34.9,481.7-28.7,484.9-20.5,484.9z"/>
						</g>
					</g>
				</g>
			</g>
			<g id="ytick_4">
				<g id="line2d_10">
					<g>
						<g>
							<path id="m6fce78db1d_3_" stroke="#000000" stroke-width="0.8" stroke-linejoin="round" d="M42.8,82h-3.5"/>
						</g>
					</g>
				</g>
				<g id="text_11">
					<g transform="translate(34.696875 126.850253)scale(0.1 -0.1)">
						<g>
							<path id="DejaVuSans-48_11_" d="M-115.9,477.1c-5.1,0-8.9-2.5-11.5-7.5c-2.6-5-3.8-12.5-3.8-22.5c0-10,1.3-17.5,3.8-22.5
								c2.6-5,6.4-7.5,11.5-7.5c5.1,0,8.9,2.5,11.5,7.5c2.6,5,3.8,12.5,3.8,22.5c0,10-1.3,17.5-3.8,22.5
								C-107,474.6-110.8,477.1-115.9,477.1z M-115.9,484.9c8.2,0,14.4-3.2,18.7-9.7c4.3-6.5,6.5-15.8,6.5-28.1
								c0-12.3-2.2-21.6-6.5-28.1c-4.3-6.5-10.6-9.7-18.7-9.7c-8.2,0-14.4,3.2-18.7,9.7c-4.3,6.5-6.5,15.8-6.5,28.1
								c0,12.3,2.2,21.7,6.5,28.1C-130.3,481.7-124.1,484.9-115.9,484.9z"/>
						</g>
						<g>
							<path id="DejaVuSans-46_9_" d="M-73.4,423.1h10.3v-12.4h-10.3V423.1z"/>
						</g>
						<g>
							<path id="DejaVuSans-53_1_" d="M-41.5,483.6h38.7v-8.3h-29.7v-17.9c1.4,0.5,2.9,0.9,4.3,1.1c1.4,0.2,2.9,0.4,4.3,0.4
								c8.1,0,14.6-2.2,19.3-6.7c4.8-4.5,7.1-10.5,7.1-18.1c0-7.8-2.4-13.9-7.3-18.3c-4.9-4.3-11.8-6.5-20.7-6.5
								c-3.1,0-6.2,0.3-9.4,0.8c-3.2,0.5-6.4,1.3-9.8,2.3v9.9c2.9-1.6,6-2.8,9.1-3.6s6.4-1.2,9.9-1.2c5.6,0,10.1,1.5,13.4,4.4
								c3.3,3,4.9,7,4.9,12.1c0,5.1-1.6,9.1-4.9,12c-3.3,3-7.7,4.5-13.4,4.5c-2.6,0-5.3-0.3-7.9-0.9c-2.6-0.6-5.3-1.5-8-2.7V483.6z"
								/>
						</g>
					</g>
				</g>
			</g>
			<g id="ytick_5">
				<g id="line2d_11">
					<g>
						<g>
							<path id="m6fce78db1d_4_" stroke="#000000" stroke-width="0.8" stroke-linejoin="round" d="M42.8,22.9h-3.5"/>
						</g>
					</g>
				</g>
				<g id="text_12">
					<g transform="translate(34.696875 67.74221)scale(0.1 -0.1)">
						<g>
							<path id="DejaVuSans-49_2_" d="M-135.3,419h16.1v55.6l-17.5-3.5v9l17.4,3.5h9.9V419h16.1v-8.3h-42V419z"/>
						</g>
						<g>
							<path id="DejaVuSans-46_10_" d="M-73.4,423.1h10.3v-12.4h-10.3V423.1z"/>
						</g>
						<g>
							<path id="DejaVuSans-48_12_" d="M-20.5,477.1c-5.1,0-8.9-2.5-11.5-7.5c-2.6-5-3.8-12.5-3.8-22.5c0-10,1.3-17.5,3.8-22.5
								c2.6-5,6.4-7.5,11.5-7.5c5.1,0,8.9,2.5,11.5,7.5c2.6,5,3.8,12.5,3.8,22.5c0,10-1.3,17.5-3.8,22.5
								C-11.5,474.6-15.4,477.1-20.5,477.1z M-20.5,484.9c8.2,0,14.4-3.2,18.7-9.7c4.3-6.5,6.5-15.8,6.5-28.1
								c0-12.3-2.2-21.6-6.5-28.1c-4.3-6.5-10.6-9.7-18.7-9.7c-8.2,0-14.4,3.2-18.7,9.7c-4.3,6.5-6.5,15.8-6.5,28.1
								c0,12.3,2.2,21.7,6.5,28.1C-34.9,481.7-28.7,484.9-20.5,484.9z"/>
						</g>
					</g>
				</g>
			</g>
			<g id="text_13">
				<g transform="translate(20.2375 177.487375)rotate(-90)scale(0.1 -0.1)">
					<g>
						<path id="DejaVuSans-121" d="M442.9,142.6c-2.5-6.5-5-10.8-7.4-12.7c-2.4-2-5.6-3-9.7-3h-7.2v7.5h5.3c2.5,0,4.4,0.6,5.8,1.8
							c1.4,1.2,2.9,3.9,4.5,8.3l1.6,4.1l-22.1,53.8h9.5l17.1-42.8l17.1,42.8h9.5L442.9,142.6z"/>
					</g>
				</g>
			</g>
		</g>
		<g id="line2d_12">
			<g>
				<defs>
					<rect id="SVGID_1_" x="42.8" y="0.4" width="357.1" height="266.1"/>
				</defs>
				<clipPath id="SVGID_2_">
					<use xlink:href="#SVGID_1_"  overflow="visible"/>
				</clipPath>
				<g clip-path="url(#SVGID_2_)">
					<g>
						<path id="md6b3788b7a" fill="#1F77B4" stroke="#1F77B4" stroke-linejoin="round" d="M185.4,70.7c0.8,0,1.6-0.3,2.1-0.9
							c0.6-0.6,0.9-1.3,0.9-2.1s-0.3-1.6-0.9-2.1c-0.6-0.6-1.3-0.9-2.1-0.9s-1.6,0.3-2.1,0.9c-0.6,0.6-0.9,1.3-0.9,2.1
							s0.3,1.6,0.9,2.1C183.8,70.4,184.6,70.7,185.4,70.7z"/>
					</g>
					<g>
						<path id="md6b3788b7a_1_" fill="#1F77B4" stroke="#1F77B4" stroke-linejoin="round" d="M89,71.8c0.8,0,1.6-0.3,2.1-0.9
							c0.6-0.6,0.9-1.3,0.9-2.1s-0.3-1.6-0.9-2.1c-0.6-0.6-1.3-0.9-2.1-0.9c-0.8,0-1.6,0.3-2.1,0.9C86.3,67.2,86,68,86,68.8
							s0.3,1.6,0.9,2.1C87.5,71.5,88.2,71.8,89,71.8z"/>
					</g>
					<g>
						<path id="md6b3788b7a_2_" fill="#1F77B4" stroke="#1F77B4" stroke-linejoin="round" d="M285.8,257.4c0.8,0,1.6-0.3,2.1-0.9
							c0.6-0.6,0.9-1.3,0.9-2.1s-0.3-1.6-0.9-2.1c-0.6-0.6-1.3-0.9-2.1-0.9c-0.8,0-1.6,0.3-2.1,0.9c-0.6,0.6-0.9,1.3-0.9,2.1
							s0.3,1.6,0.9,2.1C284.3,257.1,285,257.4,285.8,257.4z"/>
					</g>
					<g>
						<path id="md6b3788b7a_3_" fill="#1F77B4" stroke="#1F77B4" stroke-linejoin="round" d="M209.4,125.3c0.8,0,1.6-0.3,2.1-0.9
							c0.6-0.6,0.9-1.3,0.9-2.1s-0.3-1.6-0.9-2.1c-0.6-0.6-1.3-0.9-2.1-0.9s-1.6,0.3-2.1,0.9c-0.6,0.6-0.9,1.3-0.9,2.1
							s0.3,1.6,0.9,2.1C207.8,124.9,208.6,125.3,209.4,125.3z"/>
					</g>
					<g>
						<path id="md6b3788b7a_4_" fill="#1F77B4" stroke="#1F77B4" stroke-linejoin="round" d="M383.7,175.5c0.8,0,1.6-0.3,2.1-0.9
							c0.6-0.6,0.9-1.3,0.9-2.1s-0.3-1.6-0.9-2.1c-0.6-0.6-1.3-0.9-2.1-0.9c-0.8,0-1.6,0.3-2.1,0.9c-0.6,0.6-0.9,1.3-0.9,2.1
							s0.3,1.6,0.9,2.1C382.2,175.2,382.9,175.5,383.7,175.5z"/>
					</g>
					<g>
						<path id="md6b3788b7a_5_" fill="#1F77B4" stroke="#1F77B4" stroke-linejoin="round" d="M105.1,44.2c0.8,0,1.6-0.3,2.1-0.9
							c0.6-0.6,0.9-1.3,0.9-2.1c0-0.8-0.3-1.6-0.9-2.1c-0.6-0.6-1.3-0.9-2.1-0.9c-0.8,0-1.6,0.3-2.1,0.9c-0.6,0.6-0.9,1.3-0.9,2.1
							c0,0.8,0.3,1.6,0.9,2.1C103.5,43.9,104.3,44.2,105.1,44.2z"/>
					</g>
					<g>
						<path id="md6b3788b7a_6_" fill="#1F77B4" stroke="#1F77B4" stroke-linejoin="round" d="M151.1,43.3c0.8,0,1.6-0.3,2.1-0.9
							s0.9-1.3,0.9-2.1c0-0.8-0.3-1.6-0.9-2.1s-1.3-0.9-2.1-0.9s-1.6,0.3-2.1,0.9c-0.6,0.6-0.9,1.3-0.9,2.1c0,0.8,0.3,1.6,0.9,2.1
							C149.5,42.9,150.3,43.3,151.1,43.3z"/>
					</g>
					<g>
						<path id="md6b3788b7a_7_" fill="#1F77B4" stroke="#1F77B4" stroke-linejoin="round" d="M311.9,235.1c0.8,0,1.6-0.3,2.1-0.9
							c0.6-0.6,0.9-1.3,0.9-2.1s-0.3-1.6-0.9-2.1c-0.6-0.6-1.3-0.9-2.1-0.9c-0.8,0-1.6,0.3-2.1,0.9c-0.6,0.6-0.9,1.3-0.9,2.1
							s0.3,1.6,0.9,2.1C310.4,234.7,311.1,235.1,311.9,235.1z"/>
					</g>
					<g>
						<path id="md6b3788b7a_8_" fill="#1F77B4" stroke="#1F77B4" stroke-linejoin="round" d="M309.7,253.5c0.8,0,1.6-0.3,2.1-0.9
							c0.6-0.6,0.9-1.3,0.9-2.1s-0.3-1.6-0.9-2.1c-0.6-0.6-1.3-0.9-2.1-0.9c-0.8,0-1.6,0.3-2.1,0.9c-0.6,0.6-0.9,1.3-0.9,2.1
							s0.3,1.6,0.9,2.1C308.1,253.2,308.9,253.5,309.7,253.5z"/>
					</g>
					<g>
						<path id="md6b3788b7a_9_" fill="#1F77B4" stroke="#1F77B4" stroke-linejoin="round" d="M190.7,82.7c0.8,0,1.6-0.3,2.1-0.9
							c0.6-0.6,0.9-1.3,0.9-2.1s-0.3-1.6-0.9-2.1c-0.6-0.6-1.3-0.9-2.1-0.9s-1.6,0.3-2.1,0.9c-0.6,0.6-0.9,1.3-0.9,2.1
							s0.3,1.6,0.9,2.1C189.1,82.3,189.9,82.7,190.7,82.7z"/>
					</g>
					<g>
						<path id="md6b3788b7a_10_" fill="#1F77B4" stroke="#1F77B4" stroke-linejoin="round" d="M351.7,210.8c0.8,0,1.6-0.3,2.1-0.9
							c0.6-0.6,0.9-1.3,0.9-2.1s-0.3-1.6-0.9-2.1c-0.6-0.6-1.3-0.9-2.1-0.9c-0.8,0-1.6,0.3-2.1,0.9c-0.6,0.6-0.9,1.3-0.9,2.1
							s0.3,1.6,0.9,2.1C350.1,210.4,350.9,210.8,351.7,210.8z"/>
					</g>
					<g>
						<path id="md6b3788b7a_11_" fill="#1F77B4" stroke="#1F77B4" stroke-linejoin="round" d="M324.3,245.5c0.8,0,1.6-0.3,2.1-0.9
							c0.6-0.6,0.9-1.3,0.9-2.1s-0.3-1.6-0.9-2.1c-0.6-0.6-1.3-0.9-2.1-0.9c-0.8,0-1.6,0.3-2.1,0.9c-0.6,0.6-0.9,1.3-0.9,2.1
							s0.3,1.6,0.9,2.1C322.7,245.2,323.5,245.5,324.3,245.5z"/>
					</g>
					<g>
						<path id="md6b3788b7a_12_" fill="#1F77B4" stroke="#1F77B4" stroke-linejoin="round" d="M81.6,69.8c0.8,0,1.6-0.3,2.1-0.9
							c0.6-0.6,0.9-1.3,0.9-2.1s-0.3-1.6-0.9-2.1c-0.6-0.6-1.3-0.9-2.1-0.9c-0.8,0-1.6,0.3-2.1,0.9c-0.6,0.6-0.9,1.3-0.9,2.1
							s0.3,1.6,0.9,2.1C80.1,69.4,80.8,69.8,81.6,69.8z"/>
					</g>
					<g>
						<path id="md6b3788b7a_13_" fill="#1F77B4" stroke="#1F77B4" stroke-linejoin="round" d="M326.3,238c0.8,0,1.6-0.3,2.1-0.9
							c0.6-0.6,0.9-1.3,0.9-2.1s-0.3-1.6-0.9-2.1c-0.6-0.6-1.3-0.9-2.1-0.9c-0.8,0-1.6,0.3-2.1,0.9c-0.6,0.6-0.9,1.3-0.9,2.1
							s0.3,1.6,0.9,2.1C324.8,237.7,325.5,238,326.3,238z"/>
					</g>
					<g>
						<path id="md6b3788b7a_14_" fill="#1F77B4" stroke="#1F77B4" stroke-linejoin="round" d="M62.2,106.3c0.8,0,1.6-0.3,2.1-0.9
							c0.6-0.6,0.9-1.3,0.9-2.1s-0.3-1.6-0.9-2.1c-0.6-0.6-1.3-0.9-2.1-0.9s-1.6,0.3-2.1,0.9c-0.6,0.6-0.9,1.3-0.9,2.1
							s0.3,1.6,0.9,2.1C60.6,106,61.4,106.3,62.2,106.3z"/>
					</g>
					<g>
						<path id="md6b3788b7a_15_" fill="#1F77B4" stroke="#1F77B4" stroke-linejoin="round" d="M116,15.5c0.8,0,1.6-0.3,2.1-0.9
							c0.6-0.6,0.9-1.3,0.9-2.1c0-0.8-0.3-1.6-0.9-2.1c-0.6-0.6-1.3-0.9-2.1-0.9c-0.8,0-1.6,0.3-2.1,0.9c-0.6,0.6-0.9,1.3-0.9,2.1
							c0,0.8,0.3,1.6,0.9,2.1C114.5,15.2,115.2,15.5,116,15.5z"/>
					</g>
					<g>
						<path id="md6b3788b7a_16_" fill="#1F77B4" stroke="#1F77B4" stroke-linejoin="round" d="M166.5,59.5c0.8,0,1.6-0.3,2.1-0.9
							s0.9-1.3,0.9-2.1c0-0.8-0.3-1.6-0.9-2.1s-1.3-0.9-2.1-0.9s-1.6,0.3-2.1,0.9c-0.6,0.6-0.9,1.3-0.9,2.1c0,0.8,0.3,1.6,0.9,2.1
							C165,59.2,165.8,59.5,166.5,59.5z"/>
					</g>
					<g>
						<path id="md6b3788b7a_17_" fill="#1F77B4" stroke="#1F77B4" stroke-linejoin="round" d="M236.9,170.4c0.8,0,1.6-0.3,2.1-0.9
							c0.6-0.6,0.9-1.3,0.9-2.1s-0.3-1.6-0.9-2.1c-0.6-0.6-1.3-0.9-2.1-0.9s-1.6,0.3-2.1,0.9c-0.6,0.6-0.9,1.3-0.9,2.1
							s0.3,1.6,0.9,2.1C235.4,170,236.1,170.4,236.9,170.4z"/>
					</g>
					<g>
						<path id="md6b3788b7a_18_" fill="#1F77B4" stroke="#1F77B4" stroke-linejoin="round" d="M335.3,213.5c0.8,0,1.6-0.3,2.1-0.9
							c0.6-0.6,0.9-1.3,0.9-2.1s-0.3-1.6-0.9-2.1c-0.6-0.6-1.3-0.9-2.1-0.9c-0.8,0-1.6,0.3-2.1,0.9c-0.6,0.6-0.9,1.3-0.9,2.1
							s0.3,1.6,0.9,2.1C333.7,213.2,334.5,213.5,335.3,213.5z"/>
					</g>
					<g>
						<path id="md6b3788b7a_19_" fill="#1F77B4" stroke="#1F77B4" stroke-linejoin="round" d="M344.2,216.6c0.8,0,1.6-0.3,2.1-0.9
							c0.6-0.6,0.9-1.3,0.9-2.1s-0.3-1.6-0.9-2.1c-0.6-0.6-1.3-0.9-2.1-0.9c-0.8,0-1.6,0.3-2.1,0.9c-0.6,0.6-0.9,1.3-0.9,2.1
							s0.3,1.6,0.9,2.1C342.7,216.3,343.4,216.6,344.2,216.6z"/>
					</g>
					<g>
						<path id="md6b3788b7a_20_" fill="#1F77B4" stroke="#1F77B4" stroke-linejoin="round" d="M302.1,249.8c0.8,0,1.6-0.3,2.1-0.9
							c0.6-0.6,0.9-1.3,0.9-2.1s-0.3-1.6-0.9-2.1c-0.6-0.6-1.3-0.9-2.1-0.9c-0.8,0-1.6,0.3-2.1,0.9c-0.6,0.6-0.9,1.3-0.9,2.1
							s0.3,1.6,0.9,2.1C300.5,249.5,301.3,249.8,302.1,249.8z"/>
					</g>
					<g>
						<path id="md6b3788b7a_21_" fill="#1F77B4" stroke="#1F77B4" stroke-linejoin="round" d="M82.9,99.3c0.8,0,1.6-0.3,2.1-0.9
							c0.6-0.6,0.9-1.3,0.9-2.1s-0.3-1.6-0.9-2.1c-0.6-0.6-1.3-0.9-2.1-0.9c-0.8,0-1.6,0.3-2.1,0.9c-0.6,0.6-0.9,1.3-0.9,2.1
							s0.3,1.6,0.9,2.1C81.3,99,82.1,99.3,82.9,99.3z"/>
					</g>
					<g>
						<path id="md6b3788b7a_22_" fill="#1F77B4" stroke="#1F77B4" stroke-linejoin="round" d="M59.1,130.8c0.8,0,1.6-0.3,2.1-0.9
							c0.6-0.6,0.9-1.3,0.9-2.1c0-0.8-0.3-1.6-0.9-2.1c-0.6-0.6-1.3-0.9-2.1-0.9s-1.6,0.3-2.1,0.9c-0.6,0.6-0.9,1.3-0.9,2.1
							c0,0.8,0.3,1.6,0.9,2.1C57.5,130.5,58.3,130.8,59.1,130.8z"/>
					</g>
					<g>
						<path id="md6b3788b7a_23_" fill="#1F77B4" stroke="#1F77B4" stroke-linejoin="round" d="M121,32.8c0.8,0,1.6-0.3,2.1-0.9
							c0.6-0.6,0.9-1.3,0.9-2.1s-0.3-1.6-0.9-2.1c-0.6-0.6-1.3-0.9-2.1-0.9c-0.8,0-1.6,0.3-2.1,0.9c-0.6,0.6-0.9,1.3-0.9,2.1
							s0.3,1.6,0.9,2.1C119.5,32.5,120.2,32.8,121,32.8z"/>
					</g>
					<g>
						<path id="md6b3788b7a_24_" fill="#1F77B4" stroke="#1F77B4" stroke-linejoin="round" d="M175.4,60.8c0.8,0,1.6-0.3,2.1-0.9
							s0.9-1.3,0.9-2.1c0-0.8-0.3-1.6-0.9-2.1s-1.3-0.9-2.1-0.9s-1.6,0.3-2.1,0.9c-0.6,0.6-0.9,1.3-0.9,2.1c0,0.8,0.3,1.6,0.9,2.1
							C173.9,60.4,174.6,60.8,175.4,60.8z"/>
					</g>
					<g>
						<path id="md6b3788b7a_25_" fill="#1F77B4" stroke="#1F77B4" stroke-linejoin="round" d="M221.3,167.3c0.8,0,1.6-0.3,2.1-0.9
							c0.6-0.6,0.9-1.3,0.9-2.1s-0.3-1.6-0.9-2.1c-0.6-0.6-1.3-0.9-2.1-0.9s-1.6,0.3-2.1,0.9c-0.6,0.6-0.9,1.3-0.9,2.1
							s0.3,1.6,0.9,2.1C219.7,167,220.5,167.3,221.3,167.3z"/>
					</g>
					<g>
						<path id="md6b3788b7a_26_" fill="#1F77B4" stroke="#1F77B4" stroke-linejoin="round" d="M71.8,95.6c0.8,0,1.6-0.3,2.1-0.9
							c0.6-0.6,0.9-1.3,0.9-2.1s-0.3-1.6-0.9-2.1c-0.6-0.6-1.3-0.9-2.1-0.9c-0.8,0-1.6,0.3-2.1,0.9c-0.6,0.6-0.9,1.3-0.9,2.1
							s0.3,1.6,0.9,2.1C70.2,95.2,71,95.6,71.8,95.6z"/>
					</g>
					<g>
						<path id="md6b3788b7a_27_" fill="#1F77B4" stroke="#1F77B4" stroke-linejoin="round" d="M349.4,212c0.8,0,1.6-0.3,2.1-0.9
							c0.6-0.6,0.9-1.3,0.9-2.1s-0.3-1.6-0.9-2.1c-0.6-0.6-1.3-0.9-2.1-0.9c-0.8,0-1.6,0.3-2.1,0.9c-0.6,0.6-0.9,1.3-0.9,2.1
							s0.3,1.6,0.9,2.1C347.8,211.6,348.6,212,349.4,212z"/>
					</g>
					<g>
						<path id="md6b3788b7a_28_" fill="#1F77B4" stroke="#1F77B4" stroke-linejoin="round" d="M100.9,73.9c0.8,0,1.6-0.3,2.1-0.9
							c0.6-0.6,0.9-1.3,0.9-2.1s-0.3-1.6-0.9-2.1c-0.6-0.6-1.3-0.9-2.1-0.9c-0.8,0-1.6,0.3-2.1,0.9c-0.6,0.6-0.9,1.3-0.9,2.1
							s0.3,1.6,0.9,2.1C99.3,73.6,100.1,73.9,100.9,73.9z"/>
					</g>
					<g>
						<path id="md6b3788b7a_29_" fill="#1F77B4" stroke="#1F77B4" stroke-linejoin="round" d="M307.4,223.3c0.8,0,1.6-0.3,2.1-0.9
							c0.6-0.6,0.9-1.3,0.9-2.1s-0.3-1.6-0.9-2.1c-0.6-0.6-1.3-0.9-2.1-0.9c-0.8,0-1.6,0.3-2.1,0.9c-0.6,0.6-0.9,1.3-0.9,2.1
							s0.3,1.6,0.9,2.1C305.8,223,306.6,223.3,307.4,223.3z"/>
					</g>
					<g>
						<path id="md6b3788b7a_30_" fill="#1F77B4" stroke="#1F77B4" stroke-linejoin="round" d="M290.3,238.6c0.8,0,1.6-0.3,2.1-0.9
							c0.6-0.6,0.9-1.3,0.9-2.1s-0.3-1.6-0.9-2.1c-0.6-0.6-1.3-0.9-2.1-0.9c-0.8,0-1.6,0.3-2.1,0.9c-0.6,0.6-0.9,1.3-0.9,2.1
							s0.3,1.6,0.9,2.1C288.8,238.3,289.5,238.6,290.3,238.6z"/>
					</g>
					<g>
						<path id="md6b3788b7a_31_" fill="#1F77B4" stroke="#1F77B4" stroke-linejoin="round" d="M335.6,224.7c0.8,0,1.6-0.3,2.1-0.9
							c0.6-0.6,0.9-1.3,0.9-2.1s-0.3-1.6-0.9-2.1c-0.6-0.6-1.3-0.9-2.1-0.9c-0.8,0-1.6,0.3-2.1,0.9c-0.6,0.6-0.9,1.3-0.9,2.1
							s0.3,1.6,0.9,2.1C334,224.3,334.8,224.7,335.6,224.7z"/>
					</g>
					<g>
						<path id="md6b3788b7a_32_" fill="#1F77B4" stroke="#1F77B4" stroke-linejoin="round" d="M129.3,20.1c0.8,0,1.6-0.3,2.1-0.9
							s0.9-1.3,0.9-2.1s-0.3-1.6-0.9-2.1c-0.6-0.6-1.3-0.9-2.1-0.9s-1.6,0.3-2.1,0.9c-0.6,0.6-0.9,1.3-0.9,2.1s0.3,1.6,0.9,2.1
							C127.8,19.7,128.5,20.1,129.3,20.1z"/>
					</g>
					<g>
						<path id="md6b3788b7a_33_" fill="#1F77B4" stroke="#1F77B4" stroke-linejoin="round" d="M123,54.8c0.8,0,1.6-0.3,2.1-0.9
							c0.6-0.6,0.9-1.3,0.9-2.1c0-0.8-0.3-1.6-0.9-2.1c-0.6-0.6-1.3-0.9-2.1-0.9c-0.8,0-1.6,0.3-2.1,0.9c-0.6,0.6-0.9,1.3-0.9,2.1
							c0,0.8,0.3,1.6,0.9,2.1C121.5,54.5,122.2,54.8,123,54.8z"/>
					</g>
					<g>
						<path id="md6b3788b7a_34_" fill="#1F77B4" stroke="#1F77B4" stroke-linejoin="round" d="M146.7,38.3c0.8,0,1.6-0.3,2.1-0.9
							s0.9-1.3,0.9-2.1c0-0.8-0.3-1.6-0.9-2.1s-1.3-0.9-2.1-0.9s-1.6,0.3-2.1,0.9c-0.6,0.6-0.9,1.3-0.9,2.1c0,0.8,0.3,1.6,0.9,2.1
							C145.1,38,145.9,38.3,146.7,38.3z"/>
					</g>
					<g>
						<path id="md6b3788b7a_35_" fill="#1F77B4" stroke="#1F77B4" stroke-linejoin="round" d="M335.2,257c0.8,0,1.6-0.3,2.1-0.9
							c0.6-0.6,0.9-1.3,0.9-2.1s-0.3-1.6-0.9-2.1c-0.6-0.6-1.3-0.9-2.1-0.9c-0.8,0-1.6,0.3-2.1,0.9c-0.6,0.6-0.9,1.3-0.9,2.1
							s0.3,1.6,0.9,2.1C333.6,256.7,334.4,257,335.2,257z"/>
					</g>
					<g>
						<path id="md6b3788b7a_36_" fill="#1F77B4" stroke="#1F77B4" stroke-linejoin="round" d="M148.9,52.3c0.8,0,1.6-0.3,2.1-0.9
							s0.9-1.3,0.9-2.1c0-0.8-0.3-1.6-0.9-2.1s-1.3-0.9-2.1-0.9s-1.6,0.3-2.1,0.9c-0.6,0.6-0.9,1.3-0.9,2.1c0,0.8,0.3,1.6,0.9,2.1
							C147.4,52,148.1,52.3,148.9,52.3z"/>
					</g>
					<g>
						<path id="md6b3788b7a_37_" fill="#1F77B4" stroke="#1F77B4" stroke-linejoin="round" d="M95.8,68.8c0.8,0,1.6-0.3,2.1-0.9
							c0.6-0.6,0.9-1.3,0.9-2.1s-0.3-1.6-0.9-2.1c-0.6-0.6-1.3-0.9-2.1-0.9c-0.8,0-1.6,0.3-2.1,0.9c-0.6,0.6-0.9,1.3-0.9,2.1
							s0.3,1.6,0.9,2.1C94.3,68.5,95,68.8,95.8,68.8z"/>
					</g>
					<g>
						<path id="md6b3788b7a_38_" fill="#1F77B4" stroke="#1F77B4" stroke-linejoin="round" d="M148.8,54.1c0.8,0,1.6-0.3,2.1-0.9
							s0.9-1.3,0.9-2.1c0-0.8-0.3-1.6-0.9-2.1s-1.3-0.9-2.1-0.9s-1.6,0.3-2.1,0.9c-0.6,0.6-0.9,1.3-0.9,2.1c0,0.8,0.3,1.6,0.9,2.1
							C147.3,53.8,148,54.1,148.8,54.1z"/>
					</g>
					<g>
						<path id="md6b3788b7a_39_" fill="#1F77B4" stroke="#1F77B4" stroke-linejoin="round" d="M219.3,142.6c0.8,0,1.6-0.3,2.1-0.9
							c0.6-0.6,0.9-1.3,0.9-2.1s-0.3-1.6-0.9-2.1c-0.6-0.6-1.3-0.9-2.1-0.9s-1.6,0.3-2.1,0.9c-0.6,0.6-0.9,1.3-0.9,2.1
							s0.3,1.6,0.9,2.1C217.8,142.3,218.5,142.6,219.3,142.6z"/>
					</g>
					<g>
						<path id="md6b3788b7a_40_" fill="#1F77B4" stroke="#1F77B4" stroke-linejoin="round" d="M293.5,240.7c0.8,0,1.6-0.3,2.1-0.9
							c0.6-0.6,0.9-1.3,0.9-2.1s-0.3-1.6-0.9-2.1c-0.6-0.6-1.3-0.9-2.1-0.9c-0.8,0-1.6,0.3-2.1,0.9c-0.6,0.6-0.9,1.3-0.9,2.1
							s0.3,1.6,0.9,2.1C292,240.4,292.7,240.7,293.5,240.7z"/>
					</g>
					<g>
						<path id="md6b3788b7a_41_" fill="#1F77B4" stroke="#1F77B4" stroke-linejoin="round" d="M352.8,196.4c0.8,0,1.6-0.3,2.1-0.9
							c0.6-0.6,0.9-1.3,0.9-2.1s-0.3-1.6-0.9-2.1c-0.6-0.6-1.3-0.9-2.1-0.9c-0.8,0-1.6,0.3-2.1,0.9c-0.6,0.6-0.9,1.3-0.9,2.1
							s0.3,1.6,0.9,2.1C351.3,196,352,196.4,352.8,196.4z"/>
					</g>
					<g>
						<path id="md6b3788b7a_42_" fill="#1F77B4" stroke="#1F77B4" stroke-linejoin="round" d="M332.9,239.8c0.8,0,1.6-0.3,2.1-0.9
							c0.6-0.6,0.9-1.3,0.9-2.1s-0.3-1.6-0.9-2.1c-0.6-0.6-1.3-0.9-2.1-0.9c-0.8,0-1.6,0.3-2.1,0.9c-0.6,0.6-0.9,1.3-0.9,2.1
							s0.3,1.6,0.9,2.1C331.3,239.5,332.1,239.8,332.9,239.8z"/>
					</g>
				</g>
			</g>
		</g>
		<g id="patch_3">
			<path fill="none" stroke="#000000" stroke-width="0.8" stroke-linecap="square" d="M42.8,266.5V0.4"/>
		</g>
		<g id="patch_4">
			<path fill="none" stroke="#000000" stroke-width="0.8" stroke-linecap="square" d="M400,266.5V0.4"/>
		</g>
		<g id="patch_5">
			<path fill="none" stroke="#000000" stroke-width="0.8" stroke-linecap="square" d="M42.8,266.5H400"/>
		</g>
		<g id="patch_6">
			<path fill="none" stroke="#000000" stroke-width="0.8" stroke-linecap="square" d="M42.8,0.4H400"/>
		</g>
	</g>
</g>
</svg>
