<?xml version="1.0" encoding="utf-8" standalone="no"?>
<!DOCTYPE svg PUBLIC "-//W3C//DTD SVG 1.1//EN"
  "http://www.w3.org/Graphics/SVG/1.1/DTD/svg11.dtd">
<!-- Created with matplotlib (https://matplotlib.org/) -->
<svg height="345.6pt" version="1.1" viewBox="0 0 460.8 345.6" width="460.8pt" xmlns="http://www.w3.org/2000/svg" xmlns:xlink="http://www.w3.org/1999/xlink">
 <defs>
  <style type="text/css">
*{stroke-linecap:butt;stroke-linejoin:round;}
  </style>
 </defs>
 <g id="figure_1">
  <g id="patch_1">
   <path d="M 0 345.6 
L 460.8 345.6 
L 460.8 0 
L 0 0 
z
" style="fill:#ffffff;"/>
  </g>
  <g id="axes_1">
   <g id="patch_2">
    <path d="M 57.6 307.584 
L 414.72 307.584 
L 414.72 41.472 
L 57.6 41.472 
z
" style="fill:#ffffff;"/>
   </g>
   <g id="matplotlib.axis_1">
    <g id="xtick_1">
     <g id="line2d_1">
      <defs>
       <path d="M 0 0 
L 0 3.5 
" id="m8eb4f03395" style="stroke:#000000;stroke-width:0.8;"/>
      </defs>
      <g>
       <use style="stroke:#000000;stroke-width:0.8;" x="69.063536" xlink:href="#m8eb4f03395" y="307.584"/>
      </g>
     </g>
     <g id="text_1">
      <!-- −1.5 -->
      <defs>
       <path d="M 10.59375 35.5 
L 73.1875 35.5 
L 73.1875 27.203125 
L 10.59375 27.203125 
z
" id="DejaVuSans-8722"/>
       <path d="M 12.40625 8.296875 
L 28.515625 8.296875 
L 28.515625 63.921875 
L 10.984375 60.40625 
L 10.984375 69.390625 
L 28.421875 72.90625 
L 38.28125 72.90625 
L 38.28125 8.296875 
L 54.390625 8.296875 
L 54.390625 0 
L 12.40625 0 
z
" id="DejaVuSans-49"/>
       <path d="M 10.6875 12.40625 
L 21 12.40625 
L 21 0 
L 10.6875 0 
z
" id="DejaVuSans-46"/>
       <path d="M 10.796875 72.90625 
L 49.515625 72.90625 
L 49.515625 64.59375 
L 19.828125 64.59375 
L 19.828125 46.734375 
Q 21.96875 47.46875 24.109375 47.828125 
Q 26.265625 48.1875 28.421875 48.1875 
Q 40.625 48.1875 47.75 41.5 
Q 54.890625 34.8125 54.890625 23.390625 
Q 54.890625 11.625 47.5625 5.09375 
Q 40.234375 -1.421875 26.90625 -1.421875 
Q 22.3125 -1.421875 17.546875 -0.640625 
Q 12.796875 0.140625 7.71875 1.703125 
L 7.71875 11.625 
Q 12.109375 9.234375 16.796875 8.0625 
Q 21.484375 6.890625 26.703125 6.890625 
Q 35.15625 6.890625 40.078125 11.328125 
Q 45.015625 15.765625 45.015625 23.390625 
Q 45.015625 31 40.078125 35.4375 
Q 35.15625 39.890625 26.703125 39.890625 
Q 22.75 39.890625 18.8125 39.015625 
Q 14.890625 38.140625 10.796875 36.28125 
z
" id="DejaVuSans-53"/>
      </defs>
      <g transform="translate(56.922129 322.182437)scale(0.1 -0.1)">
       <use xlink:href="#DejaVuSans-8722"/>
       <use x="83.789062" xlink:href="#DejaVuSans-49"/>
       <use x="147.412109" xlink:href="#DejaVuSans-46"/>
       <use x="179.199219" xlink:href="#DejaVuSans-53"/>
      </g>
     </g>
    </g>
    <g id="xtick_2">
     <g id="line2d_2">
      <g>
       <use style="stroke:#000000;stroke-width:0.8;" x="128.865631" xlink:href="#m8eb4f03395" y="307.584"/>
      </g>
     </g>
     <g id="text_2">
      <!-- −1.0 -->
      <defs>
       <path d="M 31.78125 66.40625 
Q 24.171875 66.40625 20.328125 58.90625 
Q 16.5 51.421875 16.5 36.375 
Q 16.5 21.390625 20.328125 13.890625 
Q 24.171875 6.390625 31.78125 6.390625 
Q 39.453125 6.390625 43.28125 13.890625 
Q 47.125 21.390625 47.125 36.375 
Q 47.125 51.421875 43.28125 58.90625 
Q 39.453125 66.40625 31.78125 66.40625 
z
M 31.78125 74.21875 
Q 44.046875 74.21875 50.515625 64.515625 
Q 56.984375 54.828125 56.984375 36.375 
Q 56.984375 17.96875 50.515625 8.265625 
Q 44.046875 -1.421875 31.78125 -1.421875 
Q 19.53125 -1.421875 13.0625 8.265625 
Q 6.59375 17.96875 6.59375 36.375 
Q 6.59375 54.828125 13.0625 64.515625 
Q 19.53125 74.21875 31.78125 74.21875 
z
" id="DejaVuSans-48"/>
      </defs>
      <g transform="translate(116.724224 322.182437)scale(0.1 -0.1)">
       <use xlink:href="#DejaVuSans-8722"/>
       <use x="83.789062" xlink:href="#DejaVuSans-49"/>
       <use x="147.412109" xlink:href="#DejaVuSans-46"/>
       <use x="179.199219" xlink:href="#DejaVuSans-48"/>
      </g>
     </g>
    </g>
    <g id="xtick_3">
     <g id="line2d_3">
      <g>
       <use style="stroke:#000000;stroke-width:0.8;" x="188.667726" xlink:href="#m8eb4f03395" y="307.584"/>
      </g>
     </g>
     <g id="text_3">
      <!-- −0.5 -->
      <g transform="translate(176.52632 322.182437)scale(0.1 -0.1)">
       <use xlink:href="#DejaVuSans-8722"/>
       <use x="83.789062" xlink:href="#DejaVuSans-48"/>
       <use x="147.412109" xlink:href="#DejaVuSans-46"/>
       <use x="179.199219" xlink:href="#DejaVuSans-53"/>
      </g>
     </g>
    </g>
    <g id="xtick_4">
     <g id="line2d_4">
      <g>
       <use style="stroke:#000000;stroke-width:0.8;" x="248.469821" xlink:href="#m8eb4f03395" y="307.584"/>
      </g>
     </g>
     <g id="text_4">
      <!-- 0.0 -->
      <g transform="translate(240.518258 322.182437)scale(0.1 -0.1)">
       <use xlink:href="#DejaVuSans-48"/>
       <use x="63.623047" xlink:href="#DejaVuSans-46"/>
       <use x="95.410156" xlink:href="#DejaVuSans-48"/>
      </g>
     </g>
    </g>
    <g id="xtick_5">
     <g id="line2d_5">
      <g>
       <use style="stroke:#000000;stroke-width:0.8;" x="308.271916" xlink:href="#m8eb4f03395" y="307.584"/>
      </g>
     </g>
     <g id="text_5">
      <!-- 0.5 -->
      <g transform="translate(300.320353 322.182437)scale(0.1 -0.1)">
       <use xlink:href="#DejaVuSans-48"/>
       <use x="63.623047" xlink:href="#DejaVuSans-46"/>
       <use x="95.410156" xlink:href="#DejaVuSans-53"/>
      </g>
     </g>
    </g>
    <g id="xtick_6">
     <g id="line2d_6">
      <g>
       <use style="stroke:#000000;stroke-width:0.8;" x="368.074011" xlink:href="#m8eb4f03395" y="307.584"/>
      </g>
     </g>
     <g id="text_6">
      <!-- 1.0 -->
      <g transform="translate(360.122449 322.182437)scale(0.1 -0.1)">
       <use xlink:href="#DejaVuSans-49"/>
       <use x="63.623047" xlink:href="#DejaVuSans-46"/>
       <use x="95.410156" xlink:href="#DejaVuSans-48"/>
      </g>
     </g>
    </g>
    <g id="text_7">
     <!-- x2 -->
     <defs>
      <path d="M 54.890625 54.6875 
L 35.109375 28.078125 
L 55.90625 0 
L 45.3125 0 
L 29.390625 21.484375 
L 13.484375 0 
L 2.875 0 
L 24.125 28.609375 
L 4.6875 54.6875 
L 15.28125 54.6875 
L 29.78125 35.203125 
L 44.28125 54.6875 
z
" id="DejaVuSans-120"/>
      <path d="M 19.1875 8.296875 
L 53.609375 8.296875 
L 53.609375 0 
L 7.328125 0 
L 7.328125 8.296875 
Q 12.9375 14.109375 22.625 23.890625 
Q 32.328125 33.6875 34.8125 36.53125 
Q 39.546875 41.84375 41.421875 45.53125 
Q 43.3125 49.21875 43.3125 52.78125 
Q 43.3125 58.59375 39.234375 62.25 
Q 35.15625 65.921875 28.609375 65.921875 
Q 23.96875 65.921875 18.8125 64.3125 
Q 13.671875 62.703125 7.8125 59.421875 
L 7.8125 69.390625 
Q 13.765625 71.78125 18.9375 73 
Q 24.125 74.21875 28.421875 74.21875 
Q 39.75 74.21875 46.484375 68.546875 
Q 53.21875 62.890625 53.21875 53.421875 
Q 53.21875 48.921875 51.53125 44.890625 
Q 49.859375 40.875 45.40625 35.40625 
Q 44.1875 33.984375 37.640625 27.21875 
Q 31.109375 20.453125 19.1875 8.296875 
z
" id="DejaVuSans-50"/>
     </defs>
     <g transform="translate(230.019375 335.860562)scale(0.1 -0.1)">
      <use xlink:href="#DejaVuSans-120"/>
      <use x="59.179688" xlink:href="#DejaVuSans-50"/>
     </g>
    </g>
   </g>
   <g id="matplotlib.axis_2">
    <g id="ytick_1">
     <g id="line2d_7">
      <defs>
       <path d="M 0 0 
L -3.5 0 
" id="m6ad6b3b1c6" style="stroke:#000000;stroke-width:0.8;"/>
      </defs>
      <g>
       <use style="stroke:#000000;stroke-width:0.8;" x="57.6" xlink:href="#m6ad6b3b1c6" y="271.955079"/>
      </g>
     </g>
     <g id="text_8">
      <!-- −1.0 -->
      <g transform="translate(26.317187 275.754298)scale(0.1 -0.1)">
       <use xlink:href="#DejaVuSans-8722"/>
       <use x="83.789062" xlink:href="#DejaVuSans-49"/>
       <use x="147.412109" xlink:href="#DejaVuSans-46"/>
       <use x="179.199219" xlink:href="#DejaVuSans-48"/>
      </g>
     </g>
    </g>
    <g id="ytick_2">
     <g id="line2d_8">
      <g>
       <use style="stroke:#000000;stroke-width:0.8;" x="57.6" xlink:href="#m6ad6b3b1c6" y="227.940678"/>
      </g>
     </g>
     <g id="text_9">
      <!-- −0.5 -->
      <g transform="translate(26.317187 231.739896)scale(0.1 -0.1)">
       <use xlink:href="#DejaVuSans-8722"/>
       <use x="83.789062" xlink:href="#DejaVuSans-48"/>
       <use x="147.412109" xlink:href="#DejaVuSans-46"/>
       <use x="179.199219" xlink:href="#DejaVuSans-53"/>
      </g>
     </g>
    </g>
    <g id="ytick_3">
     <g id="line2d_9">
      <g>
       <use style="stroke:#000000;stroke-width:0.8;" x="57.6" xlink:href="#m6ad6b3b1c6" y="183.926276"/>
      </g>
     </g>
     <g id="text_10">
      <!-- 0.0 -->
      <g transform="translate(34.696875 187.725495)scale(0.1 -0.1)">
       <use xlink:href="#DejaVuSans-48"/>
       <use x="63.623047" xlink:href="#DejaVuSans-46"/>
       <use x="95.410156" xlink:href="#DejaVuSans-48"/>
      </g>
     </g>
    </g>
    <g id="ytick_4">
     <g id="line2d_10">
      <g>
       <use style="stroke:#000000;stroke-width:0.8;" x="57.6" xlink:href="#m6ad6b3b1c6" y="139.911874"/>
      </g>
     </g>
     <g id="text_11">
      <!-- 0.5 -->
      <g transform="translate(34.696875 143.711093)scale(0.1 -0.1)">
       <use xlink:href="#DejaVuSans-48"/>
       <use x="63.623047" xlink:href="#DejaVuSans-46"/>
       <use x="95.410156" xlink:href="#DejaVuSans-53"/>
      </g>
     </g>
    </g>
    <g id="ytick_5">
     <g id="line2d_11">
      <g>
       <use style="stroke:#000000;stroke-width:0.8;" x="57.6" xlink:href="#m6ad6b3b1c6" y="95.897473"/>
      </g>
     </g>
     <g id="text_12">
      <!-- 1.0 -->
      <g transform="translate(34.696875 99.696692)scale(0.1 -0.1)">
       <use xlink:href="#DejaVuSans-49"/>
       <use x="63.623047" xlink:href="#DejaVuSans-46"/>
       <use x="95.410156" xlink:href="#DejaVuSans-48"/>
      </g>
     </g>
    </g>
    <g id="ytick_6">
     <g id="line2d_12">
      <g>
       <use style="stroke:#000000;stroke-width:0.8;" x="57.6" xlink:href="#m6ad6b3b1c6" y="51.883071"/>
      </g>
     </g>
     <g id="text_13">
      <!-- 1.5 -->
      <g transform="translate(34.696875 55.68229)scale(0.1 -0.1)">
       <use xlink:href="#DejaVuSans-49"/>
       <use x="63.623047" xlink:href="#DejaVuSans-46"/>
       <use x="95.410156" xlink:href="#DejaVuSans-53"/>
      </g>
     </g>
    </g>
   </g>
   <g id="line2d_13">
    <defs>
     <path d="M -3 3 
L 3 -3 
M -3 -3 
L 3 3 
" id="m72a1c32fa2" style="stroke:#1f77b4;"/>
    </defs>
    <g clip-path="url(#pea43e43bdd)">
     <use style="fill:#1f77b4;stroke:#1f77b4;" x="94.187016" xlink:href="#m72a1c32fa2" y="263.201446"/>
     <use style="fill:#1f77b4;stroke:#1f77b4;" x="139.013251" xlink:href="#m72a1c32fa2" y="249.394525"/>
     <use style="fill:#1f77b4;stroke:#1f77b4;" x="122.954263" xlink:href="#m72a1c32fa2" y="249.504797"/>
     <use style="fill:#1f77b4;stroke:#1f77b4;" x="119.446735" xlink:href="#m72a1c32fa2" y="284.420165"/>
     <use style="fill:#1f77b4;stroke:#1f77b4;" x="134.662468" xlink:href="#m72a1c32fa2" y="253.653179"/>
     <use style="fill:#1f77b4;stroke:#1f77b4;" x="129.108495" xlink:href="#m72a1c32fa2" y="268.572335"/>
     <use style="fill:#1f77b4;stroke:#1f77b4;" x="163.551466" xlink:href="#m72a1c32fa2" y="277.208296"/>
     <use style="fill:#1f77b4;stroke:#1f77b4;" x="113.910457" xlink:href="#m72a1c32fa2" y="241.626304"/>
     <use style="fill:#1f77b4;stroke:#1f77b4;" x="151.390675" xlink:href="#m72a1c32fa2" y="293.462954"/>
     <use style="fill:#1f77b4;stroke:#1f77b4;" x="119.065004" xlink:href="#m72a1c32fa2" y="264.934581"/>
     <use style="fill:#1f77b4;stroke:#1f77b4;" x="113.515416" xlink:href="#m72a1c32fa2" y="283.259221"/>
     <use style="fill:#1f77b4;stroke:#1f77b4;" x="109.313016" xlink:href="#m72a1c32fa2" y="291.267704"/>
     <use style="fill:#1f77b4;stroke:#1f77b4;" x="117.235367" xlink:href="#m72a1c32fa2" y="248.590349"/>
     <use style="fill:#1f77b4;stroke:#1f77b4;" x="122.27629" xlink:href="#m72a1c32fa2" y="295.488"/>
     <use style="fill:#1f77b4;stroke:#1f77b4;" x="135.547184" xlink:href="#m72a1c32fa2" y="276.956609"/>
     <use style="fill:#1f77b4;stroke:#1f77b4;" x="73.832727" xlink:href="#m72a1c32fa2" y="236.75195"/>
     <use style="fill:#1f77b4;stroke:#1f77b4;" x="146.650409" xlink:href="#m72a1c32fa2" y="288.36496"/>
     <use style="fill:#1f77b4;stroke:#1f77b4;" x="147.215672" xlink:href="#m72a1c32fa2" y="250.578359"/>
     <use style="fill:#1f77b4;stroke:#1f77b4;" x="112.66758" xlink:href="#m72a1c32fa2" y="256.270798"/>
     <use style="fill:#1f77b4;stroke:#1f77b4;" x="105.520806" xlink:href="#m72a1c32fa2" y="287.110041"/>
    </g>
   </g>
   <g id="line2d_14">
    <defs>
     <path d="M -3 3 
L 3 -3 
M -3 -3 
L 3 3 
" id="m03fd7239d9" style="stroke:#ff7f0e;"/>
    </defs>
    <g clip-path="url(#pea43e43bdd)">
     <use style="fill:#ff7f0e;stroke:#ff7f0e;" x="383.160654" xlink:href="#m03fd7239d9" y="109.055171"/>
     <use style="fill:#ff7f0e;stroke:#ff7f0e;" x="369.333388" xlink:href="#m03fd7239d9" y="100.274707"/>
     <use style="fill:#ff7f0e;stroke:#ff7f0e;" x="368.157385" xlink:href="#m03fd7239d9" y="127.323058"/>
     <use style="fill:#ff7f0e;stroke:#ff7f0e;" x="368.408678" xlink:href="#m03fd7239d9" y="98.501109"/>
     <use style="fill:#ff7f0e;stroke:#ff7f0e;" x="368.34849" xlink:href="#m03fd7239d9" y="86.796747"/>
     <use style="fill:#ff7f0e;stroke:#ff7f0e;" x="367.082196" xlink:href="#m03fd7239d9" y="113.941786"/>
     <use style="fill:#ff7f0e;stroke:#ff7f0e;" x="380.279286" xlink:href="#m03fd7239d9" y="89.311119"/>
     <use style="fill:#ff7f0e;stroke:#ff7f0e;" x="336.831394" xlink:href="#m03fd7239d9" y="71.068485"/>
     <use style="fill:#ff7f0e;stroke:#ff7f0e;" x="333.164734" xlink:href="#m03fd7239d9" y="112.914679"/>
     <use style="fill:#ff7f0e;stroke:#ff7f0e;" x="398.487273" xlink:href="#m03fd7239d9" y="107.573667"/>
     <use style="fill:#ff7f0e;stroke:#ff7f0e;" x="366.871942" xlink:href="#m03fd7239d9" y="86.719063"/>
     <use style="fill:#ff7f0e;stroke:#ff7f0e;" x="362.903967" xlink:href="#m03fd7239d9" y="53.568"/>
     <use style="fill:#ff7f0e;stroke:#ff7f0e;" x="359.900662" xlink:href="#m03fd7239d9" y="77.573872"/>
     <use style="fill:#ff7f0e;stroke:#ff7f0e;" x="374.652517" xlink:href="#m03fd7239d9" y="64.83352"/>
     <use style="fill:#ff7f0e;stroke:#ff7f0e;" x="339.041665" xlink:href="#m03fd7239d9" y="107.905732"/>
     <use style="fill:#ff7f0e;stroke:#ff7f0e;" x="320.467023" xlink:href="#m03fd7239d9" y="56.837172"/>
     <use style="fill:#ff7f0e;stroke:#ff7f0e;" x="360.974483" xlink:href="#m03fd7239d9" y="100.251761"/>
     <use style="fill:#ff7f0e;stroke:#ff7f0e;" x="352.178098" xlink:href="#m03fd7239d9" y="76.498233"/>
     <use style="fill:#ff7f0e;stroke:#ff7f0e;" x="362.682566" xlink:href="#m03fd7239d9" y="94.208982"/>
     <use style="fill:#ff7f0e;stroke:#ff7f0e;" x="366.960601" xlink:href="#m03fd7239d9" y="76.604056"/>
    </g>
   </g>
   <g id="line2d_15">
    <defs>
     <path d="M 0 3 
C 0.795609 3 1.55874 2.683901 2.12132 2.12132 
C 2.683901 1.55874 3 0.795609 3 0 
C 3 -0.795609 2.683901 -1.55874 2.12132 -2.12132 
C 1.55874 -2.683901 0.795609 -3 0 -3 
C -0.795609 -3 -1.55874 -2.683901 -2.12132 -2.12132 
C -2.683901 -1.55874 -3 -0.795609 -3 0 
C -3 0.795609 -2.683901 1.55874 -2.12132 2.12132 
C -1.55874 2.683901 -0.795609 3 0 3 
z
" id="mb1c2c0fcd7" style="stroke:#2ca02c;"/>
    </defs>
    <g clip-path="url(#pea43e43bdd)">
     <use style="fill:#2ca02c;stroke:#2ca02c;" x="264.560774" xlink:href="#mb1c2c0fcd7" y="204.904806"/>
     <use style="fill:#2ca02c;stroke:#2ca02c;" x="263.939965" xlink:href="#mb1c2c0fcd7" y="200.183097"/>
     <use style="fill:#2ca02c;stroke:#2ca02c;" x="251.865051" xlink:href="#mb1c2c0fcd7" y="181.001772"/>
     <use style="fill:#2ca02c;stroke:#2ca02c;" x="250.289807" xlink:href="#mb1c2c0fcd7" y="205.121754"/>
     <use style="fill:#2ca02c;stroke:#2ca02c;" x="237.822821" xlink:href="#mb1c2c0fcd7" y="183.291798"/>
     <use style="fill:#2ca02c;stroke:#2ca02c;" x="255.430538" xlink:href="#mb1c2c0fcd7" y="183.343622"/>
     <use style="fill:#2ca02c;stroke:#2ca02c;" x="262.350007" xlink:href="#mb1c2c0fcd7" y="164.855791"/>
     <use style="fill:#2ca02c;stroke:#2ca02c;" x="243.362221" xlink:href="#mb1c2c0fcd7" y="183.07589"/>
     <use style="fill:#2ca02c;stroke:#2ca02c;" x="240.118529" xlink:href="#mb1c2c0fcd7" y="189.046246"/>
     <use style="fill:#2ca02c;stroke:#2ca02c;" x="244.270923" xlink:href="#mb1c2c0fcd7" y="199.837324"/>
     <use style="fill:#2ca02c;stroke:#2ca02c;" x="253.276814" xlink:href="#mb1c2c0fcd7" y="203.926624"/>
     <use style="fill:#2ca02c;stroke:#2ca02c;" x="253.033977" xlink:href="#mb1c2c0fcd7" y="175.745616"/>
     <use style="fill:#2ca02c;stroke:#2ca02c;" x="226.002671" xlink:href="#mb1c2c0fcd7" y="184.027615"/>
     <use style="fill:#2ca02c;stroke:#2ca02c;" x="246.46134" xlink:href="#mb1c2c0fcd7" y="187.419001"/>
     <use style="fill:#2ca02c;stroke:#2ca02c;" x="237.41011" xlink:href="#mb1c2c0fcd7" y="202.594245"/>
     <use style="fill:#2ca02c;stroke:#2ca02c;" x="262.968591" xlink:href="#mb1c2c0fcd7" y="170.763945"/>
     <use style="fill:#2ca02c;stroke:#2ca02c;" x="234.202563" xlink:href="#mb1c2c0fcd7" y="174.541305"/>
     <use style="fill:#2ca02c;stroke:#2ca02c;" x="233.13815" xlink:href="#mb1c2c0fcd7" y="189.300063"/>
     <use style="fill:#2ca02c;stroke:#2ca02c;" x="238.562594" xlink:href="#mb1c2c0fcd7" y="190.197101"/>
     <use style="fill:#2ca02c;stroke:#2ca02c;" x="242.059163" xlink:href="#mb1c2c0fcd7" y="222.443082"/>
    </g>
   </g>
   <g id="patch_3">
    <path d="M 57.6 307.584 
L 57.6 41.472 
" style="fill:none;stroke:#000000;stroke-linecap:square;stroke-linejoin:miter;stroke-width:0.8;"/>
   </g>
   <g id="patch_4">
    <path d="M 414.72 307.584 
L 414.72 41.472 
" style="fill:none;stroke:#000000;stroke-linecap:square;stroke-linejoin:miter;stroke-width:0.8;"/>
   </g>
   <g id="patch_5">
    <path d="M 57.6 307.584 
L 414.72 307.584 
" style="fill:none;stroke:#000000;stroke-linecap:square;stroke-linejoin:miter;stroke-width:0.8;"/>
   </g>
   <g id="patch_6">
    <path d="M 57.6 41.472 
L 414.72 41.472 
" style="fill:none;stroke:#000000;stroke-linecap:square;stroke-linejoin:miter;stroke-width:0.8;"/>
   </g>
  </g>
 </g>
 <defs>
  <clipPath id="pea43e43bdd">
   <rect height="266.112" width="357.12" x="57.6" y="41.472"/>
  </clipPath>
 </defs>
</svg>
