<?xml version="1.0" encoding="utf-8"?>
<!-- Generator: Adobe Illustrator 20.1.0, SVG Export Plug-In . SVG Version: 6.00 Build 0)  -->
<svg version="1.1" xmlns="http://www.w3.org/2000/svg" xmlns:xlink="http://www.w3.org/1999/xlink" x="0px" y="0px"
	 viewBox="0 0 384.5 281.1" style="enable-background:new 0 0 384.5 281.1;" xml:space="preserve">
<style type="text/css">
	.st0{stroke:#000000;stroke-width:0.8;stroke-linejoin:round;stroke-miterlimit:10;}
	.st1{fill-rule:evenodd;clip-rule:evenodd;}
	.st2{fill:none;stroke:#1F77B4;stroke-width:1.5;stroke-linecap:square;stroke-linejoin:round;stroke-miterlimit:10;}
	.st3{fill:none;stroke:#000000;stroke-width:0.8;stroke-linecap:square;stroke-miterlimit:10;}
	.st4{font-family:'MyriadPro-Regular';}
	.st5{font-size:12px;}
	.st6{fill:none;stroke:#ED7713;stroke-width:1.5;stroke-linecap:square;stroke-linejoin:round;stroke-miterlimit:10;}
	.st7{fill:none;stroke:#000000;}
</style>
<g id="Layer_1">
	<g>
		<line class="st0" x1="43.3" y1="266.5" x2="43.3" y2="270"/>
		<path class="st1" d="M43.2,274.4c-0.5,0-0.9,0.3-1.2,0.8c-0.3,0.5-0.4,1.3-0.4,2.3s0.1,1.8,0.4,2.3c0.3,0.5,0.6,0.8,1.2,0.8
			c0.5,0,0.9-0.3,1.2-0.8c0.2-0.5,0.4-1.3,0.4-2.3s-0.1-1.8-0.4-2.3C44.1,274.6,43.7,274.4,43.2,274.4 M43.2,273.6
			c0.8,0,1.4,0.3,1.9,1c0.4,0.6,0.7,1.6,0.7,2.8c0,1.2-0.2,2.2-0.7,2.8c-0.4,0.6-1.1,1-1.9,1c-0.8,0-1.5-0.3-1.9-1s-0.6-1.6-0.6-2.8
			c0-1.2,0.2-2.2,0.6-2.8C41.7,273.9,42.3,273.6,43.2,273.6L43.2,273.6z"/>
		<line class="st0" x1="97.4" y1="266.5" x2="97.4" y2="270"/>
		<polygon class="st1" points="95.5,280.2 97.1,280.2 97.1,274.6 95.3,275 95.3,274.1 97.1,273.7 98.1,273.7 98.1,280.2 99.7,280.2 
			99.7,281 95.5,281 95.5,280.2 		"/>
		<line class="st0" x1="151.5" y1="266.5" x2="151.5" y2="270"/>
		<path class="st1" d="M150.1,280.2h3.4v0.8H149v-0.8c0.4-0.4,0.9-0.9,1.5-1.6c0.6-0.6,1-1.1,1.2-1.3c0.3-0.4,0.5-0.6,0.7-0.9
			c0.1-0.2,0.2-0.5,0.2-0.7c0-0.4-0.1-0.7-0.4-0.9c-0.3-0.2-0.6-0.4-1.1-0.4c-0.3,0-0.6,0.1-1,0.2c-0.3,0.1-0.7,0.3-1.1,0.5v-1
			c0.4-0.2,0.8-0.3,1.1-0.4c0.3-0.1,0.7-0.1,0.9-0.1c0.8,0,1.4,0.2,1.8,0.6c0.5,0.4,0.7,0.9,0.7,1.5c0,0.3-0.1,0.6-0.2,0.9
			c-0.1,0.3-0.3,0.6-0.6,1c-0.1,0.1-0.3,0.4-0.8,0.8C151.5,278.7,150.9,279.4,150.1,280.2L150.1,280.2z"/>
		<line class="st0" x1="205.6" y1="266.5" x2="205.6" y2="270"/>
		<path class="st1" d="M206.5,277.1c0.5,0.1,0.8,0.3,1.1,0.6c0.3,0.3,0.4,0.7,0.4,1.2c0,0.7-0.3,1.3-0.7,1.7
			c-0.5,0.4-1.2,0.6-2.1,0.6c-0.3,0-0.6,0-1-0.1c-0.3,0-0.7-0.1-1-0.3v-0.9c0.3,0.2,0.6,0.3,0.9,0.4c0.3,0.1,0.7,0.1,1,0.1
			c0.6,0,1.1-0.1,1.4-0.4c0.3-0.2,0.5-0.6,0.5-1.1c0-0.4-0.1-0.8-0.5-1c-0.3-0.2-0.7-0.4-1.3-0.4h-0.9v-0.8h0.9
			c0.5,0,0.9-0.1,1.1-0.3c0.3-0.2,0.4-0.5,0.4-0.8c0-0.4-0.1-0.7-0.4-0.9c-0.3-0.2-0.6-0.3-1.1-0.3c-0.3,0-0.6,0-0.9,0.1
			c-0.3,0.1-0.6,0.1-1,0.3v-0.9c0.4-0.1,0.7-0.2,1.1-0.2c0.3-0.1,0.6-0.1,0.9-0.1c0.7,0,1.3,0.2,1.8,0.5c0.4,0.3,0.7,0.8,0.7,1.4
			c0,0.4-0.1,0.7-0.4,1C207.3,276.8,206.9,277,206.5,277.1L206.5,277.1z"/>
		<line class="st0" x1="259.7" y1="266.5" x2="259.7" y2="270"/>
		<path class="st1" d="M260.2,274.6l-2.5,3.9h2.5V274.6 M260,273.7h1.2v4.8h1v0.8h-1v1.7h-1v-1.7H257v-0.9L260,273.7L260,273.7z"/>
		<line class="st0" x1="313.8" y1="266.5" x2="313.8" y2="270"/>
		<path class="st1" d="M311.8,273.7h3.9v0.8h-3v1.8c0.1-0.1,0.3-0.1,0.4-0.1c0.1,0,0.3,0,0.4,0c0.8,0,1.5,0.2,1.9,0.7
			c0.5,0.5,0.7,1.1,0.7,1.8c0,0.8-0.3,1.4-0.7,1.8c-0.5,0.4-1.2,0.6-2.1,0.6c-0.3,0-0.6,0-0.9-0.1c-0.3-0.1-0.6-0.1-1-0.2v-1
			c0.3,0.2,0.6,0.3,0.9,0.4c0.3,0.1,0.6,0.1,1,0.1c0.6,0,1-0.1,1.3-0.4c0.3-0.3,0.5-0.7,0.5-1.2c0-0.5-0.2-0.9-0.5-1.2
			c-0.3-0.3-0.8-0.5-1.3-0.5c-0.3,0-0.5,0-0.8,0.1s-0.5,0.1-0.8,0.3V273.7L311.8,273.7z"/>
		<line class="st0" x1="367.9" y1="266.5" x2="367.9" y2="270"/>
		<path class="st1" d="M368,277c-0.4,0-0.8,0.2-1,0.5c-0.3,0.3-0.4,0.7-0.4,1.2c0,0.5,0.1,1,0.4,1.3c0.3,0.3,0.6,0.5,1,0.5
			s0.8-0.1,1.1-0.5c0.3-0.3,0.4-0.7,0.4-1.3c0-0.5-0.1-0.9-0.4-1.2C368.8,277.1,368.4,277,368,277 M370,273.9v0.9
			c-0.3-0.1-0.5-0.2-0.8-0.3c-0.3-0.1-0.5-0.1-0.8-0.1c-0.7,0-1.2,0.2-1.5,0.7c-0.3,0.4-0.5,1.1-0.6,2c0.2-0.3,0.4-0.5,0.7-0.6
			c0.3-0.1,0.6-0.2,1-0.2c0.7,0,1.3,0.2,1.7,0.7s0.6,1.1,0.6,1.8c0,0.8-0.2,1.4-0.7,1.8c-0.4,0.4-1,0.7-1.8,0.7
			c-0.8,0-1.5-0.3-1.9-1c-0.5-0.6-0.7-1.6-0.7-2.8c0-1.1,0.3-2.1,0.8-2.8c0.5-0.7,1.3-1,2.2-1c0.2,0,0.5,0,0.8,0.1
			C369.4,273.7,369.7,273.8,370,273.9L370,273.9z"/>
		<line class="st0" x1="27" y1="232" x2="23.5" y2="232"/>
		<polygon class="st1" points="0,232.3 6.3,232.3 6.3,233.2 0,233.2 0,232.3 		"/>
		<path class="st1" d="M9.3,235.1h3.4v0.8H8.1v-0.8c0.4-0.4,0.9-0.9,1.5-1.6c0.6-0.6,1.1-1.1,1.2-1.3c0.3-0.4,0.5-0.6,0.7-0.9
			c0.1-0.2,0.2-0.5,0.2-0.7c0-0.4-0.1-0.7-0.4-0.9c-0.3-0.2-0.6-0.4-1.1-0.4c-0.3,0-0.6,0.1-1,0.2c-0.3,0.1-0.7,0.3-1.1,0.5v-1
			c0.4-0.2,0.8-0.3,1.1-0.4c0.3-0.1,0.7-0.1,0.9-0.1c0.8,0,1.4,0.2,1.8,0.6s0.7,0.9,0.7,1.5c0,0.3-0.1,0.6-0.2,0.9
			c-0.1,0.3-0.3,0.6-0.6,0.9c-0.1,0.1-0.3,0.4-0.8,0.8C10.7,233.6,10.1,234.2,9.3,235.1L9.3,235.1z"/>
		<path class="st1" d="M16.8,229.2c-0.5,0-0.9,0.3-1.1,0.8c-0.3,0.5-0.4,1.3-0.4,2.3s0.1,1.8,0.4,2.3c0.3,0.5,0.6,0.8,1.1,0.8
			c0.5,0,0.9-0.3,1.2-0.8c0.2-0.5,0.4-1.3,0.4-2.3s-0.1-1.8-0.4-2.3C17.6,229.5,17.3,229.2,16.8,229.2 M16.8,228.5
			c0.8,0,1.4,0.3,1.9,1c0.4,0.7,0.6,1.6,0.6,2.8c0,1.2-0.2,2.2-0.6,2.8c-0.4,0.6-1.1,1-1.9,1c-0.8,0-1.4-0.3-1.9-1
			c-0.4-0.6-0.6-1.6-0.6-2.8c0-1.2,0.2-2.2,0.6-2.8C15.3,228.8,15.9,228.5,16.8,228.5L16.8,228.5z"/>
		<line class="st0" x1="27" y1="187.2" x2="23.5" y2="187.2"/>
		<polygon class="st1" points="0,187.5 6.3,187.5 6.3,188.3 0,188.3 0,187.5 		"/>
		<polygon class="st1" points="8.6,190.2 10.2,190.2 10.2,184.6 8.4,185 8.4,184.1 10.2,183.7 11.2,183.7 11.2,190.2 12.8,190.2 
			12.8,191 8.6,191 8.6,190.2 		"/>
		<path class="st1" d="M16.8,184.4c-0.5,0-0.9,0.3-1.1,0.8c-0.3,0.5-0.4,1.3-0.4,2.3s0.1,1.8,0.4,2.3c0.3,0.5,0.6,0.8,1.1,0.8
			c0.5,0,0.9-0.3,1.2-0.8c0.2-0.5,0.4-1.3,0.4-2.3s-0.1-1.8-0.4-2.3C17.6,184.6,17.3,184.4,16.8,184.4 M16.8,183.6
			c0.8,0,1.4,0.3,1.9,1c0.4,0.7,0.6,1.6,0.6,2.8c0,1.2-0.2,2.2-0.6,2.8c-0.4,0.6-1.1,1-1.9,1c-0.8,0-1.4-0.3-1.9-1
			c-0.4-0.6-0.6-1.6-0.6-2.8c0-1.2,0.2-2.2,0.6-2.8C15.3,183.9,15.9,183.6,16.8,183.6L16.8,183.6z"/>
		<line class="st0" x1="27" y1="142.4" x2="23.5" y2="142.4"/>
		<path class="st1" d="M16.8,139.5c-0.5,0-0.9,0.3-1.1,0.8c-0.3,0.5-0.4,1.3-0.4,2.3s0.1,1.8,0.4,2.3c0.3,0.5,0.6,0.8,1.1,0.8
			c0.5,0,0.9-0.3,1.2-0.8c0.2-0.5,0.4-1.3,0.4-2.3s-0.1-1.8-0.4-2.3C17.6,139.7,17.3,139.5,16.8,139.5 M16.8,138.7
			c0.8,0,1.4,0.3,1.9,1c0.4,0.6,0.6,1.6,0.6,2.8c0,1.2-0.2,2.2-0.6,2.8c-0.4,0.6-1.1,1-1.9,1c-0.8,0-1.4-0.3-1.9-1
			c-0.4-0.6-0.6-1.6-0.6-2.8c0-1.2,0.2-2.2,0.6-2.8C15.3,139,15.9,138.7,16.8,138.7L16.8,138.7z"/>
		<line class="st0" x1="27" y1="97.6" x2="23.5" y2="97.6"/>
		<polygon class="st1" points="8.6,100.7 10.2,100.7 10.2,95.1 8.4,95.4 8.4,94.5 10.2,94.2 11.2,94.2 11.2,100.7 12.8,100.7 
			12.8,101.5 8.6,101.5 8.6,100.7 		"/>
		<path class="st1" d="M16.8,94.8c-0.5,0-0.9,0.3-1.1,0.8c-0.3,0.5-0.4,1.3-0.4,2.3s0.1,1.8,0.4,2.3c0.3,0.5,0.6,0.8,1.1,0.8
			c0.5,0,0.9-0.3,1.2-0.8c0.2-0.5,0.4-1.3,0.4-2.3s-0.1-1.8-0.4-2.3C17.6,95.1,17.3,94.8,16.8,94.8 M16.8,94.1c0.8,0,1.4,0.3,1.9,1
			c0.4,0.6,0.6,1.6,0.6,2.8c0,1.2-0.2,2.2-0.6,2.8c-0.4,0.6-1.1,1-1.9,1c-0.8,0-1.4-0.3-1.9-1c-0.4-0.6-0.6-1.6-0.6-2.8
			c0-1.2,0.2-2.2,0.6-2.8C15.3,94.4,15.9,94.1,16.8,94.1L16.8,94.1z"/>
		<line class="st0" x1="27" y1="52.8" x2="23.5" y2="52.8"/>
		<path class="st1" d="M9.3,55.8h3.4v0.8H8.1v-0.8c0.4-0.4,0.9-0.9,1.5-1.6c0.6-0.6,1.1-1.1,1.2-1.3c0.3-0.4,0.5-0.7,0.7-0.9
			c0.1-0.2,0.2-0.5,0.2-0.7c0-0.4-0.1-0.7-0.4-0.9S10.6,50,10.2,50c-0.3,0-0.6,0.1-1,0.2c-0.3,0.1-0.7,0.3-1.1,0.5v-1
			c0.4-0.2,0.8-0.3,1.1-0.4c0.3-0.1,0.7-0.1,0.9-0.1c0.8,0,1.4,0.2,1.8,0.6s0.7,0.9,0.7,1.5c0,0.3-0.1,0.6-0.2,0.8
			c-0.1,0.3-0.3,0.6-0.6,1c-0.1,0.1-0.3,0.4-0.8,0.8C10.7,54.3,10.1,55,9.3,55.8L9.3,55.8z"/>
		<path class="st1" d="M16.8,50c-0.5,0-0.9,0.3-1.1,0.8c-0.3,0.5-0.4,1.3-0.4,2.3s0.1,1.8,0.4,2.3c0.3,0.5,0.6,0.8,1.1,0.8
			c0.5,0,0.9-0.3,1.2-0.8c0.2-0.5,0.4-1.3,0.4-2.3s-0.1-1.8-0.4-2.3C17.6,50.2,17.3,50,16.8,50 M16.8,49.2c0.8,0,1.4,0.3,1.9,1
			c0.4,0.6,0.6,1.6,0.6,2.8c0,1.2-0.2,2.2-0.6,2.8c-0.4,0.6-1.1,1-1.9,1c-0.8,0-1.4-0.3-1.9-1c-0.4-0.6-0.6-1.6-0.6-2.8
			c0-1.2,0.2-2.2,0.6-2.8C15.3,49.5,15.9,49.2,16.8,49.2L16.8,49.2z"/>
		<line class="st0" x1="27" y1="8" x2="23.5" y2="8"/>
		<path class="st1" d="M11.4,7.8c0.5,0.1,0.8,0.3,1.1,0.6s0.4,0.7,0.4,1.2c0,0.7-0.3,1.3-0.7,1.7c-0.5,0.4-1.2,0.6-2.1,0.6
			c-0.3,0-0.6,0-1-0.1c-0.3,0-0.7-0.1-1-0.3v-1c0.3,0.2,0.6,0.3,0.9,0.4C9.3,11,9.7,11,10,11c0.6,0,1.1-0.1,1.4-0.4
			c0.3-0.2,0.5-0.6,0.5-1.1c0-0.4-0.2-0.8-0.4-1c-0.3-0.2-0.7-0.4-1.3-0.4H9.4V7.4h0.9c0.5,0,0.9-0.1,1.1-0.3
			c0.3-0.2,0.4-0.5,0.4-0.8s-0.1-0.7-0.4-0.9c-0.3-0.2-0.6-0.3-1.1-0.3c-0.3,0-0.6,0-0.9,0.1C9,5.3,8.7,5.4,8.3,5.5V4.6
			C8.7,4.5,9,4.4,9.4,4.4c0.3,0,0.6-0.1,0.9-0.1c0.7,0,1.3,0.2,1.8,0.5c0.4,0.3,0.7,0.8,0.7,1.4c0,0.4-0.1,0.7-0.3,1
			C12.2,7.5,11.8,7.7,11.4,7.8L11.4,7.8z"/>
		<path class="st1" d="M16.8,5.1c-0.5,0-0.9,0.3-1.1,0.8c-0.3,0.5-0.4,1.3-0.4,2.2s0.1,1.8,0.4,2.3c0.3,0.5,0.6,0.8,1.1,0.8
			c0.5,0,0.9-0.3,1.2-0.8c0.2-0.5,0.4-1.3,0.4-2.3s-0.1-1.7-0.4-2.2C17.6,5.3,17.3,5.1,16.8,5.1 M16.8,4.3c0.8,0,1.4,0.3,1.9,1
			c0.4,0.6,0.6,1.6,0.6,2.8c0,1.2-0.2,2.2-0.6,2.8c-0.4,0.6-1.1,1-1.9,1c-0.8,0-1.4-0.3-1.9-1c-0.4-0.6-0.6-1.6-0.6-2.8
			c0-1.2,0.2-2.2,0.6-2.8C15.3,4.6,15.9,4.3,16.8,4.3L16.8,4.3z"/>
		<polyline class="st2" points="43.3,254.4 46.5,247.2 49.8,240.3 53.1,233.7 56.4,227.4 59.6,221.3 62.9,215.5 66.2,210 
			69.5,204.7 72.8,199.7 76,194.9 79.3,190.4 82.6,186 85.9,182 89.2,178.1 92.4,174.4 95.7,170.9 99,167.7 102.3,164.6 
			105.6,161.8 108.8,159.1 112.1,156.5 115.4,154.2 118.7,152 122,150 125.2,148.1 128.5,146.4 131.8,144.8 135.1,143.4 138.4,142 
			141.6,140.9 144.9,139.8 148.2,138.8 151.5,137.9 154.8,137.2 158,136.5 161.3,135.9 164.6,135.4 167.9,135 171.1,134.6 
			174.4,134.3 177.7,134.1 181,133.9 184.3,133.7 187.5,133.6 190.8,133.5 194.1,133.5 197.4,133.5 200.7,133.5 203.9,133.5 
			207.2,133.5 210.5,133.5 213.8,133.4 217.1,133.4 220.3,133.4 223.6,133.3 226.9,133.2 230.2,133 233.5,132.8 236.7,132.6 
			240,132.3 243.3,131.9 246.6,131.5 249.9,131 253.1,130.4 256.4,129.7 259.7,129 263,128.1 266.2,127.1 269.5,126.1 272.8,124.9 
			276.1,123.5 279.4,122.1 282.6,120.5 285.9,118.8 289.2,116.9 292.5,114.9 295.8,112.7 299,110.4 302.3,107.9 305.6,105.2 
			308.9,102.3 312.2,99.2 315.4,96 318.7,92.5 322,88.8 325.3,85 328.6,80.9 331.8,76.5 335.1,72 338.4,67.2 341.7,62.2 345,56.9 
			348.2,51.4 351.5,45.6 354.8,39.5 358.1,33.2 361.3,26.6 364.6,19.7 367.9,12.5 		"/>
		<path class="st3" d="M27,266.5V0.4 M384.1,266.5V0.4 M27,266.5h357.1 M27,0.4h357.1"/>
	</g>
</g>
<g id="Layer_2">
	<text transform="matrix(1 0 0 1 163.42 126.428)" class="st4 st5">t~stud_t</text>
</g>
<g id="Layer_3">
	<g>
		<line class="st0" x1="157.9" y1="185.2" x2="158.9" y2="185.2"/>
		<polygon class="st1" points="161.1,187.1 161.1,185.2 161.4,185.2 161.4,187.1 161.1,187.1 		"/>
		<path class="st1" d="M161,183.6c0-0.1,0.1-0.3,0.2-0.3c0.1-0.1,0.2-0.1,0.4-0.1c0.2,0,0.4,0.1,0.5,0.2c0.1,0.1,0.2,0.4,0.2,0.6
			c0,0.1,0,0.2,0,0.3c0,0.1,0,0.2-0.1,0.3h-0.3c0-0.1,0.1-0.2,0.1-0.3c0-0.1,0-0.2,0-0.3c0-0.2,0-0.3-0.1-0.4
			c-0.1-0.1-0.2-0.1-0.3-0.1c-0.1,0-0.2,0-0.3,0.1c-0.1,0.1-0.1,0.2-0.1,0.4v0.3h-0.2V184c0-0.1,0-0.3-0.1-0.3
			c-0.1-0.1-0.1-0.1-0.3-0.1c-0.1,0-0.2,0-0.3,0.1c-0.1,0.1-0.1,0.2-0.1,0.3c0,0.1,0,0.2,0,0.3c0,0.1,0,0.2,0.1,0.3h-0.3
			c0-0.1-0.1-0.2-0.1-0.3c0-0.1,0-0.2,0-0.3c0-0.2,0.1-0.4,0.2-0.5c0.1-0.1,0.2-0.2,0.4-0.2c0.1,0,0.2,0,0.3,0.1
			S161,183.5,161,183.6L161,183.6z"/>
		<line class="st0" x1="157.9" y1="168.9" x2="158.9" y2="168.9"/>
		<polygon class="st1" points="161.1,170.9 161.1,169 161.4,169 161.4,170.9 161.1,170.9 		"/>
		<path class="st1" d="M162,168.1v-1h0.2v1.4H162c-0.1-0.1-0.3-0.3-0.5-0.5c-0.2-0.2-0.3-0.3-0.4-0.4c-0.1-0.1-0.2-0.2-0.3-0.2
			c-0.1,0-0.1-0.1-0.2-0.1c-0.1,0-0.2,0-0.3,0.1c-0.1,0.1-0.1,0.2-0.1,0.3c0,0.1,0,0.2,0,0.3c0,0.1,0.1,0.2,0.1,0.3h-0.3
			c0-0.1-0.1-0.2-0.1-0.3c0-0.1,0-0.2,0-0.3c0-0.2,0.1-0.4,0.2-0.5c0.1-0.1,0.3-0.2,0.5-0.2c0.1,0,0.2,0,0.3,0.1
			c0.1,0,0.2,0.1,0.3,0.2c0,0,0.1,0.1,0.2,0.2C161.5,167.7,161.7,167.8,162,168.1L162,168.1z"/>
		<line class="st0" x1="157.9" y1="152.7" x2="158.9" y2="152.7"/>
		<polygon class="st1" points="161.1,154.6 161.1,152.7 161.4,152.7 161.4,154.6 161.1,154.6 		"/>
		<polygon class="st1" points="162,152 162,151.5 160.3,151.5 160.4,152.1 160.1,152.1 160,151.5 160,151.2 162,151.2 162,150.8 
			162.2,150.8 162.2,152 162,152 		"/>
		<line class="st0" x1="157.9" y1="136.5" x2="158.9" y2="136.5"/>
		<path class="st1" d="M160.2,136.5c0,0.2,0.1,0.3,0.2,0.3c0.2,0.1,0.4,0.1,0.7,0.1c0.3,0,0.5,0,0.7-0.1c0.2-0.1,0.2-0.2,0.2-0.3
			s-0.1-0.3-0.2-0.3c-0.1-0.1-0.4-0.1-0.7-0.1c-0.3,0-0.5,0-0.7,0.1C160.3,136.2,160.2,136.3,160.2,136.5 M160,136.5
			c0-0.2,0.1-0.4,0.3-0.6c0.2-0.1,0.5-0.2,0.8-0.2c0.4,0,0.7,0.1,0.8,0.2c0.2,0.1,0.3,0.3,0.3,0.6c0,0.2-0.1,0.4-0.3,0.6
			s-0.5,0.2-0.8,0.2c-0.4,0-0.6-0.1-0.8-0.2C160.1,136.9,160,136.7,160,136.5L160,136.5z"/>
		<line class="st0" x1="157.9" y1="120.2" x2="158.9" y2="120.2"/>
		<polygon class="st1" points="162,120.8 162,120.4 160.3,120.4 160.4,120.9 160.1,120.9 160,120.4 160,120.1 162,120.1 162,119.6 
			162.2,119.6 162.2,120.8 162,120.8 		"/>
		<line class="st0" x1="157.9" y1="104" x2="158.9" y2="104"/>
		<path class="st1" d="M162,104.4v-1h0.2v1.4H162c-0.1-0.1-0.3-0.3-0.5-0.5c-0.2-0.2-0.3-0.3-0.4-0.4c-0.1-0.1-0.2-0.2-0.3-0.2
			c-0.1,0-0.1-0.1-0.2-0.1c-0.1,0-0.2,0-0.3,0.1c-0.1,0.1-0.1,0.2-0.1,0.3c0,0.1,0,0.2,0,0.3c0,0.1,0.1,0.2,0.1,0.3h-0.3
			c0-0.1-0.1-0.2-0.1-0.3c0-0.1,0-0.2,0-0.3c0-0.2,0.1-0.4,0.2-0.5c0.1-0.1,0.3-0.2,0.5-0.2c0.1,0,0.2,0,0.3,0.1
			c0.1,0,0.2,0.1,0.3,0.2c0,0,0.1,0.1,0.2,0.2C161.5,103.9,161.7,104.1,162,104.4L162,104.4z"/>
		<line class="st0" x1="157.9" y1="87.8" x2="158.9" y2="87.8"/>
		<path class="st1" d="M161,87.5c0-0.1,0.1-0.3,0.2-0.3c0.1-0.1,0.2-0.1,0.4-0.1c0.2,0,0.4,0.1,0.5,0.2c0.1,0.2,0.2,0.4,0.2,0.6
			c0,0.1,0,0.2,0,0.3c0,0.1,0,0.2-0.1,0.3h-0.3c0-0.1,0.1-0.2,0.1-0.3c0-0.1,0-0.2,0-0.3c0-0.2,0-0.3-0.1-0.4
			c-0.1-0.1-0.2-0.1-0.3-0.1c-0.1,0-0.2,0-0.3,0.1s-0.1,0.2-0.1,0.4v0.3h-0.2v-0.3c0-0.1,0-0.3-0.1-0.3c-0.1-0.1-0.1-0.1-0.3-0.1
			c-0.1,0-0.2,0-0.3,0.1c-0.1,0.1-0.1,0.2-0.1,0.3c0,0.1,0,0.2,0,0.3c0,0.1,0,0.2,0.1,0.3h-0.3c0-0.1-0.1-0.2-0.1-0.3
			c0-0.1,0-0.2,0-0.3c0-0.2,0.1-0.4,0.2-0.5c0.1-0.1,0.2-0.2,0.4-0.2c0.1,0,0.2,0,0.3,0.1S161,87.4,161,87.5L161,87.5z"/>
		<polyline class="st6" points="154.2,185.2 154.2,184.2 154.2,183.2 154.1,182.2 154.1,181.2 154.1,180.3 154,179.3 154,178.3 
			153.9,177.3 153.9,176.3 153.8,175.3 153.8,174.4 153.7,173.4 153.6,172.4 153.5,171.4 153.5,170.4 153.4,169.4 153.3,168.5 
			153.2,167.5 153.1,166.5 152.9,165.5 152.8,164.5 152.6,163.5 152.5,162.5 152.3,161.6 152.1,160.6 151.8,159.6 151.5,158.6 
			151.2,157.6 150.9,156.6 150.5,155.7 150,154.7 149.5,153.7 148.8,152.7 148.1,151.7 147.2,150.7 146.2,149.8 144.9,148.8 
			143.4,147.8 141.5,146.8 139.1,145.8 136.2,144.8 132.5,143.9 127.8,142.9 121.8,141.9 114.4,140.9 105.6,139.9 96,138.9 
			87.1,138 81.6,137 81.6,136 87.1,135 96,134 105.6,133 114.4,132.1 121.8,131.1 127.8,130.1 132.5,129.1 136.2,128.1 139.1,127.1 
			141.5,126.1 143.4,125.2 144.9,124.2 146.2,123.2 147.2,122.2 148.1,121.2 148.8,120.2 149.5,119.3 150,118.3 150.5,117.3 
			150.9,116.3 151.2,115.3 151.5,114.3 151.8,113.4 152.1,112.4 152.3,111.4 152.5,110.4 152.6,109.4 152.8,108.4 152.9,107.5 
			153.1,106.5 153.2,105.5 153.3,104.5 153.4,103.5 153.5,102.5 153.5,101.6 153.6,100.6 153.7,99.6 153.8,98.6 153.8,97.6 
			153.9,96.6 153.9,95.7 154,94.7 154,93.7 154.1,92.7 154.1,91.7 154.1,90.7 154.2,89.7 154.2,88.8 154.2,87.8 		"/>
		<path class="st3" d="M157.9,190H78 M157.9,82.9H78 M157.9,190V82.9 M78,190V82.9"/>
	</g>
	<text transform="matrix(1 0 0 1 157.8529 276.5227)" class="st7 st4 st5">x</text>
</g>
</svg>
