<?xml version="1.0" encoding="utf-8"?>
<!-- Generator: Adobe Illustrator 20.1.0, SVG Export Plug-In . SVG Version: 6.00 Build 0)  -->
<svg version="1.1" id="Layer_1" xmlns="http://www.w3.org/2000/svg" xmlns:xlink="http://www.w3.org/1999/xlink" x="0px" y="0px"
	 viewBox="0 0 394.1 296.1" style="enable-background:new 0 0 394.1 296.1;" xml:space="preserve">
<style type="text/css">
	.st0{stroke:#000000;stroke-width:0.8;stroke-linejoin:round;}
	.st1{clip-path:url(#SVGID_2_);fill:none;stroke:#1F77B4;stroke-width:1.5;stroke-linejoin:round;stroke-dasharray:5.55,2.4;}
	.st2{clip-path:url(#SVGID_4_);}
	.st3{fill:#1F77B4;stroke:#1F77B4;stroke-linejoin:round;}
	.st4{fill:none;stroke:#000000;stroke-width:0.8;stroke-linecap:square;}
</style>
<g id="figure_1">
	<g id="axes_1">
		<g id="matplotlib.axis_1">
			<g id="xtick_1">
				<g id="line2d_1">
					<g>
						<g>
							<path id="m3cc85e8844" class="st0" d="M52.8,266.5v3.5"/>
						</g>
					</g>
				</g>
				<g id="text_1">
					<g transform="translate(65.881165 322.182437)scale(0.1 -0.1)">
						<g>
							<path id="DejaVuSans-48" d="M-178.4,477.1c-5.1,0-8.9-2.5-11.5-7.5c-2.6-5-3.8-12.5-3.8-22.5c0-10,1.3-17.5,3.8-22.5
								c2.6-5,6.4-7.5,11.5-7.5c5.1,0,8.9,2.5,11.5,7.5c2.6,5,3.8,12.5,3.8,22.5c0,10-1.3,17.5-3.8,22.5
								C-169.5,474.6-173.3,477.1-178.4,477.1z M-178.4,484.9c8.2,0,14.4-3.2,18.7-9.7c4.3-6.5,6.5-15.8,6.5-28.1
								c0-12.3-2.2-21.6-6.5-28.1c-4.3-6.5-10.6-9.7-18.7-9.7c-8.2,0-14.4,3.2-18.7,9.7c-4.3,6.5-6.5,15.8-6.5,28.1
								c0,12.3,2.2,21.7,6.5,28.1C-192.8,481.7-186.6,484.9-178.4,484.9z"/>
						</g>
						<g>
							<path id="DejaVuSans-46" d="M-135.9,423.1h10.3v-12.4h-10.3V423.1z"/>
						</g>
						<g>
							<path id="DejaVuSans-48_1_" d="M-83,477.1c-5.1,0-8.9-2.5-11.5-7.5c-2.6-5-3.8-12.5-3.8-22.5c0-10,1.3-17.5,3.8-22.5
								c2.6-5,6.4-7.5,11.5-7.5c5.1,0,8.9,2.5,11.5,7.5c2.6,5,3.8,12.5,3.8,22.5c0,10-1.3,17.5-3.8,22.5
								C-74,474.6-77.9,477.1-83,477.1z M-83,484.9c8.2,0,14.4-3.2,18.7-9.7c4.3-6.5,6.5-15.8,6.5-28.1c0-12.3-2.2-21.6-6.5-28.1
								c-4.3-6.5-10.6-9.7-18.7-9.7c-8.2,0-14.4,3.2-18.7,9.7c-4.3,6.5-6.5,15.8-6.5,28.1c0,12.3,2.2,21.7,6.5,28.1
								C-97.4,481.7-91.2,484.9-83,484.9z"/>
						</g>
					</g>
				</g>
			</g>
			<g id="xtick_2">
				<g id="line2d_2">
					<g>
						<g>
							<path id="m3cc85e8844_1_" class="st0" d="M117.7,266.5v3.5"/>
						</g>
					</g>
				</g>
				<g id="text_2">
					<g transform="translate(130.812074 322.182437)scale(0.1 -0.1)">
						<g>
							<path id="DejaVuSans-48_2_" d="M-178.4,477.1c-5.1,0-8.9-2.5-11.5-7.5c-2.6-5-3.8-12.5-3.8-22.5c0-10,1.3-17.5,3.8-22.5
								c2.6-5,6.4-7.5,11.5-7.5c5.1,0,8.9,2.5,11.5,7.5c2.6,5,3.8,12.5,3.8,22.5c0,10-1.3,17.5-3.8,22.5
								C-169.5,474.6-173.3,477.1-178.4,477.1z M-178.4,484.9c8.2,0,14.4-3.2,18.7-9.7c4.3-6.5,6.5-15.8,6.5-28.1
								c0-12.3-2.2-21.6-6.5-28.1c-4.3-6.5-10.6-9.7-18.7-9.7c-8.2,0-14.4,3.2-18.7,9.7c-4.3,6.5-6.5,15.8-6.5,28.1
								c0,12.3,2.2,21.7,6.5,28.1C-192.8,481.7-186.6,484.9-178.4,484.9z"/>
						</g>
						<g>
							<path id="DejaVuSans-46_1_" d="M-135.9,423.1h10.3v-12.4h-10.3V423.1z"/>
						</g>
						<g>
							<path id="DejaVuSans-50" d="M-95.6,419h34.4v-8.3h-46.3v8.3c3.7,3.9,8.8,9.1,15.3,15.6c6.5,6.5,10.5,10.7,12.2,12.6
								c3.2,3.5,5.4,6.5,6.6,9c1.3,2.5,1.9,4.9,1.9,7.3c0,3.9-1.4,7-4.1,9.5c-2.7,2.4-6.3,3.7-10.6,3.7c-3.1,0-6.4-0.5-9.8-1.6
								c-3.4-1.1-7.1-2.7-11-4.9v10c4,1.6,7.7,2.8,11.1,3.6c3.5,0.8,6.6,1.2,9.5,1.2c7.6,0,13.6-1.9,18.1-5.7
								c4.5-3.8,6.7-8.8,6.7-15.1c0-3-0.6-5.8-1.7-8.5c-1.1-2.7-3.2-5.8-6.1-9.5c-0.8-0.9-3.4-3.7-7.8-8.2
								C-81.5,433.4-87.6,427.1-95.6,419z"/>
						</g>
					</g>
				</g>
			</g>
			<g id="xtick_3">
				<g id="line2d_3">
					<g>
						<g>
							<path id="m3cc85e8844_2_" class="st0" d="M182.7,266.5v3.5"/>
						</g>
					</g>
				</g>
				<g id="text_3">
					<g transform="translate(195.742983 322.182437)scale(0.1 -0.1)">
						<g>
							<path id="DejaVuSans-48_3_" d="M-178.4,477.1c-5.1,0-8.9-2.5-11.5-7.5c-2.6-5-3.8-12.5-3.8-22.5c0-10,1.3-17.5,3.8-22.5
								c2.6-5,6.4-7.5,11.5-7.5c5.1,0,8.9,2.5,11.5,7.5c2.6,5,3.8,12.5,3.8,22.5c0,10-1.3,17.5-3.8,22.5
								C-169.5,474.6-173.3,477.1-178.4,477.1z M-178.4,484.9c8.2,0,14.4-3.2,18.7-9.7c4.3-6.5,6.5-15.8,6.5-28.1
								c0-12.3-2.2-21.6-6.5-28.1c-4.3-6.5-10.6-9.7-18.7-9.7c-8.2,0-14.4,3.2-18.7,9.7c-4.3,6.5-6.5,15.8-6.5,28.1
								c0,12.3,2.2,21.7,6.5,28.1C-192.8,481.7-186.6,484.9-178.4,484.9z"/>
						</g>
						<g>
							<path id="DejaVuSans-46_2_" d="M-135.9,423.1h10.3v-12.4h-10.3V423.1z"/>
						</g>
						<g>
							<path id="DejaVuSans-52" d="M-77,475l-24.9-38.9H-77V475z M-79.6,483.6h12.4v-47.5h10.4v-8.2h-10.4v-17.2H-77v17.2h-32.9v9.5
								L-79.6,483.6z"/>
						</g>
					</g>
				</g>
			</g>
			<g id="xtick_4">
				<g id="line2d_4">
					<g>
						<g>
							<path id="m3cc85e8844_3_" class="st0" d="M247.6,266.5v3.5"/>
						</g>
					</g>
				</g>
				<g id="text_4">
					<g transform="translate(260.673892 322.182437)scale(0.1 -0.1)">
						<g>
							<path id="DejaVuSans-48_4_" d="M-178.4,477.1c-5.1,0-8.9-2.5-11.5-7.5c-2.6-5-3.8-12.5-3.8-22.5c0-10,1.3-17.5,3.8-22.5
								c2.6-5,6.4-7.5,11.5-7.5c5.1,0,8.9,2.5,11.5,7.5c2.6,5,3.8,12.5,3.8,22.5c0,10-1.3,17.5-3.8,22.5
								C-169.5,474.6-173.3,477.1-178.4,477.1z M-178.4,484.9c8.2,0,14.4-3.2,18.7-9.7c4.3-6.5,6.5-15.8,6.5-28.1
								c0-12.3-2.2-21.6-6.5-28.1c-4.3-6.5-10.6-9.7-18.7-9.7c-8.2,0-14.4,3.2-18.7,9.7c-4.3,6.5-6.5,15.8-6.5,28.1
								c0,12.3,2.2,21.7,6.5,28.1C-192.8,481.7-186.6,484.9-178.4,484.9z"/>
						</g>
						<g>
							<path id="DejaVuSans-46_3_" d="M-135.9,423.1h10.3v-12.4h-10.3V423.1z"/>
						</g>
						<g>
							<path id="DejaVuSans-54" d="M-81.8,451.1c-4.4,0-7.9-1.5-10.5-4.5c-2.6-3-3.9-7.2-3.9-12.4c0-5.2,1.3-9.4,3.9-12.4
								c2.6-3,6.1-4.6,10.5-4.6c4.4,0,7.9,1.5,10.5,4.6c2.6,3.1,3.9,7.2,3.9,12.4c0,5.3-1.3,9.4-3.9,12.4
								C-73.8,449.6-77.3,451.1-81.8,451.1z M-62.2,482v-9c-2.5,1.2-5,2.1-7.5,2.7c-2.5,0.6-5,0.9-7.5,0.9c-6.5,0-11.5-2.2-14.9-6.6
								c-3.4-4.4-5.4-11-5.9-19.9c1.9,2.8,4.3,5,7.2,6.5c2.9,1.5,6.1,2.3,9.6,2.3c7.3,0,13.1-2.2,17.4-6.7
								c4.3-4.4,6.4-10.5,6.4-18.1c0-7.5-2.2-13.5-6.6-18c-4.4-4.5-10.3-6.8-17.7-6.8c-8.4,0-14.9,3.2-19.3,9.7
								c-4.5,6.5-6.7,15.8-6.7,28.1c0,11.5,2.7,20.7,8.2,27.6s12.8,10.3,22,10.3c2.5,0,5-0.2,7.5-0.7C-67.6,483.7-64.9,483-62.2,482
								z"/>
						</g>
					</g>
				</g>
			</g>
			<g id="xtick_5">
				<g id="line2d_5">
					<g>
						<g>
							<path id="m3cc85e8844_4_" class="st0" d="M312.5,266.5v3.5"/>
						</g>
					</g>
				</g>
				<g id="text_5">
					<g transform="translate(325.604801 322.182437)scale(0.1 -0.1)">
						<g>
							<path id="DejaVuSans-48_5_" d="M-178.4,477.1c-5.1,0-8.9-2.5-11.5-7.5c-2.6-5-3.8-12.5-3.8-22.5c0-10,1.3-17.5,3.8-22.5
								c2.6-5,6.4-7.5,11.5-7.5c5.1,0,8.9,2.5,11.5,7.5c2.6,5,3.8,12.5,3.8,22.5c0,10-1.3,17.5-3.8,22.5
								C-169.5,474.6-173.3,477.1-178.4,477.1z M-178.4,484.9c8.2,0,14.4-3.2,18.7-9.7c4.3-6.5,6.5-15.8,6.5-28.1
								c0-12.3-2.2-21.6-6.5-28.1c-4.3-6.5-10.6-9.7-18.7-9.7c-8.2,0-14.4,3.2-18.7,9.7c-4.3,6.5-6.5,15.8-6.5,28.1
								c0,12.3,2.2,21.7,6.5,28.1C-192.8,481.7-186.6,484.9-178.4,484.9z"/>
						</g>
						<g>
							<path id="DejaVuSans-46_4_" d="M-135.9,423.1h10.3v-12.4h-10.3V423.1z"/>
						</g>
						<g>
							<path id="DejaVuSans-56" d="M-83,445.3c-4.7,0-8.4-1.3-11.1-3.8c-2.7-2.5-4-6-4-10.3c0-4.4,1.3-7.8,4-10.4
								c2.7-2.5,6.4-3.8,11.1-3.8s8.4,1.3,11.1,3.8c2.7,2.5,4.1,6,4.1,10.3c0,4.4-1.3,7.8-4,10.3C-74.6,444.1-78.3,445.3-83,445.3z
								 M-92.9,449.5c-4.2,1-7.5,3-9.9,5.9c-2.4,2.9-3.5,6.4-3.5,10.6c0,5.8,2.1,10.4,6.2,13.8c4.2,3.4,9.8,5.1,17.1,5.1
								c7.3,0,13-1.7,17.1-5.1s6.2-8,6.2-13.8c0-4.2-1.2-7.7-3.5-10.6c-2.4-2.9-5.6-4.9-9.8-5.9c4.8-1.1,8.4-3.3,11.1-6.5
								c2.7-3.2,4-7.2,4-11.8c0-7.1-2.2-12.5-6.5-16.3c-4.3-3.8-10.5-5.7-18.5-5.7c-8,0-14.2,1.9-18.5,5.7
								c-4.3,3.8-6.5,9.2-6.5,16.3c0,4.6,1.3,8.6,4,11.8C-101.3,446.3-97.6,448.4-92.9,449.5z M-96.5,465.1c0-3.8,1.2-6.7,3.5-8.8
								c2.4-2.1,5.7-3.2,9.9-3.2c4.2,0,7.6,1.1,9.9,3.2c2.4,2.1,3.6,5.1,3.6,8.8c0,3.8-1.2,6.7-3.6,8.8c-2.4,2.1-5.7,3.2-9.9,3.2
								c-4.3,0-7.6-1.1-9.9-3.2C-95.3,471.8-96.5,468.9-96.5,465.1z"/>
						</g>
					</g>
				</g>
			</g>
			<g id="xtick_6">
				<g id="line2d_6">
					<g>
						<g>
							<path id="m3cc85e8844_5_" class="st0" d="M377.5,266.5v3.5"/>
						</g>
					</g>
				</g>
				<g id="text_6">
					<g transform="translate(390.53571 322.182437)scale(0.1 -0.1)">
						<g>
							<path id="DejaVuSans-49" d="M-197.8,419h16.1v55.6l-17.5-3.5v9l17.4,3.5h9.9V419h16.1v-8.3h-42V419z"/>
						</g>
						<g>
							<path id="DejaVuSans-46_5_" d="M-135.9,423.1h10.3v-12.4h-10.3V423.1z"/>
						</g>
						<g>
							<path id="DejaVuSans-48_6_" d="M-83,477.1c-5.1,0-8.9-2.5-11.5-7.5c-2.6-5-3.8-12.5-3.8-22.5c0-10,1.3-17.5,3.8-22.5
								c2.6-5,6.4-7.5,11.5-7.5c5.1,0,8.9,2.5,11.5,7.5c2.6,5,3.8,12.5,3.8,22.5c0,10-1.3,17.5-3.8,22.5
								C-74,474.6-77.9,477.1-83,477.1z M-83,484.9c8.2,0,14.4-3.2,18.7-9.7c4.3-6.5,6.5-15.8,6.5-28.1c0-12.3-2.2-21.6-6.5-28.1
								c-4.3-6.5-10.6-9.7-18.7-9.7c-8.2,0-14.4,3.2-18.7,9.7c-4.3,6.5-6.5,15.8-6.5,28.1c0,12.3,2.2,21.7,6.5,28.1
								C-97.4,481.7-91.2,484.9-83,484.9z"/>
						</g>
					</g>
				</g>
			</g>
			<g id="text_7">
				<g transform="translate(175.580312 335.860562)scale(0.1 -0.1)">
					<g>
						<path id="DejaVuSans-84" d="M-210.5,483.6h61.7v-8.3h-25.9v-64.6h-9.9v64.6h-25.9V483.6z"/>
					</g>
					<g>
						<path id="DejaVuSans-114" d="M-108.2,457c-1,0.6-2.1,1-3.3,1.3c-1.2,0.3-2.5,0.4-3.9,0.4c-5.1,0-9-1.7-11.7-5s-4.1-8-4.1-14.2
							v-28.8h-9v54.7h9v-8.5c1.9,3.3,4.4,5.8,7.4,7.4c3,1.6,6.7,2.4,11,2.4c0.6,0,1.3,0,2-0.1c0.8-0.1,1.6-0.2,2.5-0.4L-108.2,457z"
							/>
					</g>
					<g>
						<path id="DejaVuSans-117" d="M-99.7,432.3v33.1h9v-32.8c0-5.2,1-9.1,3-11.7c2-2.6,5.1-3.9,9.1-3.9c4.8,0,8.7,1.5,11.5,4.6
							c2.8,3.1,4.2,7.3,4.2,12.7v31h9v-54.7h-9v8.4c-2.2-3.3-4.7-5.8-7.6-7.4c-2.9-1.6-6.2-2.4-10-2.4c-6.3,0-11.1,2-14.3,5.9
							C-98.1,419.1-99.7,424.8-99.7,432.3z"/>
					</g>
					<g>
						<path id="DejaVuSans-101" d="M11.4,440.3v-4.4h-41.3c0.4-6.2,2.3-10.9,5.6-14.1s8-4.9,13.9-4.9c3.4,0,6.8,0.4,10,1.3
							s6.5,2.1,9.7,3.8v-8.5c-3.2-1.4-6.5-2.4-9.9-3.1s-6.8-1.1-10.3-1.1c-8.7,0-15.6,2.5-20.7,7.6c-5.1,5.1-7.6,12-7.6,20.6
							c0,8.9,2.4,16,7.3,21.3c4.8,5.3,11.4,7.9,19.6,7.9c7.4,0,13.2-2.4,17.5-7.1C9.2,454.9,11.4,448.4,11.4,440.3z M2.4,443
							c-0.1,4.9-1.4,8.8-4.1,11.8c-2.7,2.9-6.2,4.4-10.7,4.4c-5,0-9-1.4-12-4.3s-4.7-6.8-5.2-12L2.4,443z"/>
					</g>
					<g>
						<path id="DejaVuSans-32" d="M16.7,410.7"/>
					</g>
					<g>
						<path id="DejaVuSans-80" d="M68.2,475.5v-27.4h12.4c4.6,0,8.1,1.2,10.6,3.6c2.5,2.4,3.8,5.8,3.8,10.2c0,4.4-1.3,7.7-3.8,10.1
							c-2.5,2.4-6,3.6-10.6,3.6H68.2z M58.3,483.6h22.3c8.2,0,14.4-1.8,18.5-5.5c4.2-3.7,6.3-9.1,6.3-16.2c0-7.2-2.1-12.6-6.3-16.3
							c-4.2-3.7-10.4-5.5-18.5-5.5H68.2v-29.3h-9.9V483.6z"/>
					</g>
					<g>
						<path id="DejaVuSans-111" d="M139.3,459.1c-4.8,0-8.6-1.9-11.4-5.6s-4.2-8.9-4.2-15.5s1.4-11.7,4.2-15.5
							c2.8-3.8,6.6-5.6,11.5-5.6c4.8,0,8.6,1.9,11.4,5.7c2.8,3.8,4.2,8.9,4.2,15.4c0,6.5-1.4,11.6-4.2,15.4
							C147.9,457.2,144.1,459.1,139.3,459.1z M139.3,466.7c7.8,0,13.9-2.5,18.4-7.6c4.5-5.1,6.7-12.1,6.7-21.1
							c0-8.9-2.2-16-6.7-21.1c-4.5-5.1-10.6-7.6-18.4-7.6c-7.8,0-14,2.5-18.4,7.6c-4.4,5.1-6.7,12.1-6.7,21.1c0,9,2.2,16,6.7,21.1
							C125.4,464.2,131.5,466.7,139.3,466.7z"/>
					</g>
					<g>
						<path id="DejaVuSans-115" d="M214.2,463.8v-8.5c-2.5,1.3-5.2,2.3-7.9,2.9c-2.7,0.7-5.6,1-8.5,1c-4.5,0-7.8-0.7-10-2
							c-2.2-1.4-3.3-3.4-3.3-6.2c0-2.1,0.8-3.7,2.4-4.9s4.8-2.3,9.6-3.4l3.1-0.7c6.4-1.4,10.9-3.3,13.6-5.8s4-6,4-10.4
							c0-5.1-2-9.1-6-12.1c-4-3-9.5-4.4-16.6-4.4c-2.9,0-6,0.3-9.2,0.9c-3.2,0.6-6.5,1.4-10,2.6v9.3c3.3-1.7,6.6-3,9.8-3.9
							c3.2-0.9,6.4-1.3,9.6-1.3c4.2,0,7.5,0.7,9.8,2.2c2.3,1.4,3.4,3.5,3.4,6.1c0,2.4-0.8,4.3-2.5,5.6c-1.6,1.3-5.2,2.6-10.8,3.8
							l-3.1,0.7c-5.6,1.2-9.6,3-12.1,5.4c-2.5,2.4-3.7,5.8-3.7,10c0,5.1,1.8,9.1,5.5,11.9c3.6,2.8,8.8,4.2,15.5,4.2
							c3.3,0,6.4-0.2,9.4-0.7C209,465.5,211.7,464.8,214.2,463.8z"/>
					</g>
					<g>
						<path id="DejaVuSans-105" d="M231.4,465.4h9v-54.7h-9V465.4z M231.4,486.7h9v-11.4h-9V486.7z"/>
					</g>
					<g>
						<path id="DejaVuSans-116" d="M268.1,480.9v-15.5h18.5v-7h-18.5v-29.7c0-4.5,0.6-7.3,1.8-8.6s3.7-1.9,7.5-1.9h9.2v-7.5h-9.2
							c-6.9,0-11.7,1.3-14.4,3.9c-2.6,2.6-4,7.3-4,14.1v29.7h-6.6v7h6.6v15.5H268.1z"/>
					</g>
					<g>
						<path id="DejaVuSans-105_1_" d="M298.4,465.4h9v-54.7h-9V465.4z M298.4,486.7h9v-11.4h-9V486.7z"/>
					</g>
					<g>
						<path id="DejaVuSans-118" d="M319.8,465.4h9.5l17.1-45.9l17.1,45.9h9.5l-20.5-54.7h-12.2L319.8,465.4z"/>
					</g>
					<g>
						<path id="DejaVuSans-101_1_" d="M432.2,440.3v-4.4h-41.3c0.4-6.2,2.3-10.9,5.6-14.1c3.3-3.2,8-4.9,13.9-4.9
							c3.4,0,6.8,0.4,10,1.3c3.2,0.8,6.5,2.1,9.7,3.8v-8.5c-3.2-1.4-6.5-2.4-9.9-3.1c-3.4-0.7-6.8-1.1-10.3-1.1
							c-8.7,0-15.6,2.5-20.7,7.6c-5.1,5.1-7.6,12-7.6,20.6c0,8.9,2.4,16,7.3,21.3c4.8,5.3,11.4,7.9,19.6,7.9
							c7.4,0,13.2-2.4,17.5-7.1C430,454.9,432.2,448.4,432.2,440.3z M423.2,443c-0.1,4.9-1.4,8.8-4.1,11.8
							c-2.7,2.9-6.2,4.4-10.7,4.4c-5,0-9-1.4-12-4.3c-3-2.8-4.7-6.8-5.2-12L423.2,443z"/>
					</g>
					<g>
						<path id="DejaVuSans-32_1_" d="M437.5,410.7"/>
					</g>
					<g>
						<path id="DejaVuSans-82" d="M513.7,444.9c2.1-0.7,4.2-2.3,6.2-4.6s4-5.6,6-9.7l10-19.9h-10.6l-9.3,18.7
							c-2.4,4.9-4.8,8.1-7,9.7c-2.3,1.6-5.3,2.4-9.3,2.4H489v-30.8h-9.9v72.9h22.3c8.3,0,14.6-1.7,18.7-5.2
							c4.1-3.5,6.2-8.7,6.2-15.8c0-4.6-1.1-8.4-3.2-11.4C520.8,448.2,517.7,446.1,513.7,444.9z M489,475.5v-25.9h12.4
							c4.8,0,8.3,1.1,10.8,3.3c2.4,2.2,3.6,5.4,3.6,9.7s-1.2,7.5-3.6,9.6c-2.4,2.2-6,3.3-10.8,3.3H489z"/>
					</g>
					<g>
						<path id="DejaVuSans-97" d="M573,438.2c-7.3,0-12.3-0.8-15.1-2.5c-2.8-1.7-4.2-4.5-4.2-8.5c0-3.2,1.1-5.7,3.2-7.6
							c2.1-1.9,5-2.8,8.6-2.8c5,0,9,1.8,12,5.3c3,3.5,4.5,8.2,4.5,14.1v2H573z M590.9,441.9v-31.2h-9v8.3c-2.1-3.3-4.6-5.8-7.7-7.3
							s-6.8-2.4-11.2-2.4c-5.6,0-10,1.6-13.4,4.7c-3.3,3.1-5,7.4-5,12.6c0,6.1,2.1,10.8,6.2,13.9c4.1,3.1,10.3,4.7,18.4,4.7H582v0.9
							c0,4.1-1.4,7.3-4.1,9.6s-6.5,3.4-11.5,3.4c-3.1,0-6.2-0.4-9.1-1.1c-3-0.8-5.8-1.9-8.5-3.4v8.3c3.3,1.3,6.5,2.2,9.6,2.8
							c3.1,0.6,6.1,1,9,1c7.9,0,13.8-2.1,17.7-6.2C589,456.5,590.9,450.3,590.9,441.9z"/>
					</g>
					<g>
						<path id="DejaVuSans-116_1_" d="M618.3,480.9v-15.5h18.5v-7h-18.5v-29.7c0-4.5,0.6-7.3,1.8-8.6s3.7-1.9,7.5-1.9h9.2v-7.5h-9.2
							c-6.9,0-11.7,1.3-14.4,3.9c-2.6,2.6-4,7.3-4,14.1v29.7h-6.6v7h6.6v15.5H618.3z"/>
					</g>
					<g>
						<path id="DejaVuSans-101_2_" d="M695.4,440.3v-4.4h-41.3c0.4-6.2,2.3-10.9,5.6-14.1c3.3-3.2,8-4.9,13.9-4.9
							c3.4,0,6.8,0.4,10,1.3c3.2,0.8,6.5,2.1,9.7,3.8v-8.5c-3.2-1.4-6.5-2.4-9.9-3.1c-3.4-0.7-6.8-1.1-10.3-1.1
							c-8.7,0-15.6,2.5-20.7,7.6c-5.1,5.1-7.6,12-7.6,20.6c0,8.9,2.4,16,7.3,21.3c4.8,5.3,11.4,7.9,19.6,7.9
							c7.4,0,13.2-2.4,17.5-7.1C693.3,454.9,695.4,448.4,695.4,440.3z M686.4,443c-0.1,4.9-1.4,8.8-4.1,11.8
							c-2.7,2.9-6.2,4.4-10.7,4.4c-5,0-9-1.4-12-4.3c-3-2.8-4.7-6.8-5.2-12L686.4,443z"/>
					</g>
					<g>
						<path id="DejaVuSans-32_2_" d="M700.7,410.7"/>
					</g>
					<g>
						<path id="DejaVuSans-40" d="M763.5,486.6c-4.4-7.5-7.6-14.9-9.7-22.2c-2.1-7.3-3.2-14.7-3.2-22.3c0-7.5,1.1-15,3.2-22.3
							c2.1-7.4,5.4-14.8,9.7-22.3h-7.8c-4.9,7.7-8.5,15.2-11,22.6c-2.4,7.4-3.6,14.7-3.6,22c0,7.3,1.2,14.6,3.6,21.9
							c2.4,7.4,6.1,14.9,11,22.6H763.5z"/>
					</g>
					<g>
						<path id="DejaVuSans-84_1_" d="M771.3,483.6h61.7v-8.3H807v-64.6h-9.9v64.6h-25.9V483.6z"/>
					</g>
					<g>
						<path id="DejaVuSans-80_1_" d="M852.3,475.5v-27.4h12.4c4.6,0,8.1,1.2,10.6,3.6c2.5,2.4,3.8,5.8,3.8,10.2
							c0,4.4-1.3,7.7-3.8,10.1c-2.5,2.4-6,3.6-10.6,3.6H852.3z M842.4,483.6h22.3c8.2,0,14.4-1.8,18.5-5.5c4.2-3.7,6.3-9.1,6.3-16.2
							c0-7.2-2.1-12.6-6.3-16.3c-4.2-3.7-10.4-5.5-18.5-5.5h-12.4v-29.3h-9.9V483.6z"/>
					</g>
					<g>
						<path id="DejaVuSans-82_1_" d="M937.3,444.9c2.1-0.7,4.2-2.3,6.2-4.6s4-5.6,6-9.7l10-19.9h-10.6l-9.3,18.7
							c-2.4,4.9-4.8,8.1-7,9.7c-2.3,1.6-5.3,2.4-9.3,2.4h-10.8v-30.8h-9.9v72.9H925c8.3,0,14.6-1.7,18.7-5.2
							c4.1-3.5,6.2-8.7,6.2-15.8c0-4.6-1.1-8.4-3.2-11.4C944.5,448.2,941.4,446.1,937.3,444.9z M912.6,475.5v-25.9H925
							c4.8,0,8.3,1.1,10.8,3.3c2.4,2.2,3.6,5.4,3.6,9.7s-1.2,7.5-3.6,9.6c-2.4,2.2-6,3.3-10.8,3.3H912.6z"/>
					</g>
					<g>
						<path id="DejaVuSans-41" d="M970.4,486.6h7.8c4.9-7.7,8.5-15.2,11-22.6c2.4-7.4,3.6-14.7,3.6-21.9c0-7.3-1.2-14.6-3.6-22
							c-2.4-7.4-6.1-14.9-11-22.6h-7.8c4.3,7.5,7.6,14.9,9.7,22.3c2.1,7.4,3.2,14.8,3.2,22.3c0,7.5-1.1,14.9-3.2,22.3
							C978,471.7,974.8,479.1,970.4,486.6z"/>
					</g>
				</g>
			</g>
		</g>
		<g id="matplotlib.axis_2">
			<g id="ytick_1">
				<g id="line2d_7">
					<g>
						<g>
							<path id="m2270d9114a" class="st0" d="M36.6,254.4h-3.5"/>
						</g>
					</g>
				</g>
				<g id="text_8">
					<g transform="translate(34.696875 299.287219)scale(0.1 -0.1)">
						<g>
							<path id="DejaVuSans-48_7_" d="M-178.4,477.1c-5.1,0-8.9-2.5-11.5-7.5c-2.6-5-3.8-12.5-3.8-22.5c0-10,1.3-17.5,3.8-22.5
								c2.6-5,6.4-7.5,11.5-7.5c5.1,0,8.9,2.5,11.5,7.5c2.6,5,3.8,12.5,3.8,22.5c0,10-1.3,17.5-3.8,22.5
								C-169.5,474.6-173.3,477.1-178.4,477.1z M-178.4,484.9c8.2,0,14.4-3.2,18.7-9.7c4.3-6.5,6.5-15.8,6.5-28.1
								c0-12.3-2.2-21.6-6.5-28.1c-4.3-6.5-10.6-9.7-18.7-9.7c-8.2,0-14.4,3.2-18.7,9.7c-4.3,6.5-6.5,15.8-6.5,28.1
								c0,12.3,2.2,21.7,6.5,28.1C-192.8,481.7-186.6,484.9-178.4,484.9z"/>
						</g>
						<g>
							<path id="DejaVuSans-46_6_" d="M-135.9,423.1h10.3v-12.4h-10.3V423.1z"/>
						</g>
						<g>
							<path id="DejaVuSans-48_8_" d="M-83,477.1c-5.1,0-8.9-2.5-11.5-7.5c-2.6-5-3.8-12.5-3.8-22.5c0-10,1.3-17.5,3.8-22.5
								c2.6-5,6.4-7.5,11.5-7.5c5.1,0,8.9,2.5,11.5,7.5c2.6,5,3.8,12.5,3.8,22.5c0,10-1.3,17.5-3.8,22.5
								C-74,474.6-77.9,477.1-83,477.1z M-83,484.9c8.2,0,14.4-3.2,18.7-9.7c4.3-6.5,6.5-15.8,6.5-28.1c0-12.3-2.2-21.6-6.5-28.1
								c-4.3-6.5-10.6-9.7-18.7-9.7c-8.2,0-14.4,3.2-18.7,9.7c-4.3,6.5-6.5,15.8-6.5,28.1c0,12.3,2.2,21.7,6.5,28.1
								C-97.4,481.7-91.2,484.9-83,484.9z"/>
						</g>
					</g>
				</g>
			</g>
			<g id="ytick_2">
				<g id="line2d_8">
					<g>
						<g>
							<path id="m2270d9114a_1_" class="st0" d="M36.6,206h-3.5"/>
						</g>
					</g>
				</g>
				<g id="text_9">
					<g transform="translate(34.696875 250.903219)scale(0.1 -0.1)">
						<g>
							<path id="DejaVuSans-48_9_" d="M-178.4,477.1c-5.1,0-8.9-2.5-11.5-7.5c-2.6-5-3.8-12.5-3.8-22.5c0-10,1.3-17.5,3.8-22.5
								c2.6-5,6.4-7.5,11.5-7.5c5.1,0,8.9,2.5,11.5,7.5c2.6,5,3.8,12.5,3.8,22.5c0,10-1.3,17.5-3.8,22.5
								C-169.5,474.6-173.3,477.1-178.4,477.1z M-178.4,484.9c8.2,0,14.4-3.2,18.7-9.7c4.3-6.5,6.5-15.8,6.5-28.1
								c0-12.3-2.2-21.6-6.5-28.1c-4.3-6.5-10.6-9.7-18.7-9.7c-8.2,0-14.4,3.2-18.7,9.7c-4.3,6.5-6.5,15.8-6.5,28.1
								c0,12.3,2.2,21.7,6.5,28.1C-192.8,481.7-186.6,484.9-178.4,484.9z"/>
						</g>
						<g>
							<path id="DejaVuSans-46_7_" d="M-135.9,423.1h10.3v-12.4h-10.3V423.1z"/>
						</g>
						<g>
							<path id="DejaVuSans-50_1_" d="M-95.6,419h34.4v-8.3h-46.3v8.3c3.7,3.9,8.8,9.1,15.3,15.6c6.5,6.5,10.5,10.7,12.2,12.6
								c3.2,3.5,5.4,6.5,6.6,9c1.3,2.5,1.9,4.9,1.9,7.3c0,3.9-1.4,7-4.1,9.5c-2.7,2.4-6.3,3.7-10.6,3.7c-3.1,0-6.4-0.5-9.8-1.6
								c-3.4-1.1-7.1-2.7-11-4.9v10c4,1.6,7.7,2.8,11.1,3.6c3.5,0.8,6.6,1.2,9.5,1.2c7.6,0,13.6-1.9,18.1-5.7
								c4.5-3.8,6.7-8.8,6.7-15.1c0-3-0.6-5.8-1.7-8.5c-1.1-2.7-3.2-5.8-6.1-9.5c-0.8-0.9-3.4-3.7-7.8-8.2
								C-81.5,433.4-87.6,427.1-95.6,419z"/>
						</g>
					</g>
				</g>
			</g>
			<g id="ytick_3">
				<g id="line2d_9">
					<g>
						<g>
							<path id="m2270d9114a_2_" class="st0" d="M36.6,157.6h-3.5"/>
						</g>
					</g>
				</g>
				<g id="text_10">
					<g transform="translate(34.696875 202.519219)scale(0.1 -0.1)">
						<g>
							<path id="DejaVuSans-48_10_" d="M-178.4,477.1c-5.1,0-8.9-2.5-11.5-7.5c-2.6-5-3.8-12.5-3.8-22.5c0-10,1.3-17.5,3.8-22.5
								c2.6-5,6.4-7.5,11.5-7.5c5.1,0,8.9,2.5,11.5,7.5c2.6,5,3.8,12.5,3.8,22.5c0,10-1.3,17.5-3.8,22.5
								C-169.5,474.6-173.3,477.1-178.4,477.1z M-178.4,484.9c8.2,0,14.4-3.2,18.7-9.7c4.3-6.5,6.5-15.8,6.5-28.1
								c0-12.3-2.2-21.6-6.5-28.1c-4.3-6.5-10.6-9.7-18.7-9.7c-8.2,0-14.4,3.2-18.7,9.7c-4.3,6.5-6.5,15.8-6.5,28.1
								c0,12.3,2.2,21.7,6.5,28.1C-192.8,481.7-186.6,484.9-178.4,484.9z"/>
						</g>
						<g>
							<path id="DejaVuSans-46_8_" d="M-135.9,423.1h10.3v-12.4h-10.3V423.1z"/>
						</g>
						<g>
							<path id="DejaVuSans-52_1_" d="M-77,475l-24.9-38.9H-77V475z M-79.6,483.6h12.4v-47.5h10.4v-8.2h-10.4v-17.2H-77v17.2h-32.9
								v9.5L-79.6,483.6z"/>
						</g>
					</g>
				</g>
			</g>
			<g id="ytick_4">
				<g id="line2d_10">
					<g>
						<g>
							<path id="m2270d9114a_3_" class="st0" d="M36.6,109.3h-3.5"/>
						</g>
					</g>
				</g>
				<g id="text_11">
					<g transform="translate(34.696875 154.135219)scale(0.1 -0.1)">
						<g>
							<path id="DejaVuSans-48_11_" d="M-178.4,477.1c-5.1,0-8.9-2.5-11.5-7.5c-2.6-5-3.8-12.5-3.8-22.5c0-10,1.3-17.5,3.8-22.5
								c2.6-5,6.4-7.5,11.5-7.5c5.1,0,8.9,2.5,11.5,7.5c2.6,5,3.8,12.5,3.8,22.5c0,10-1.3,17.5-3.8,22.5
								C-169.5,474.6-173.3,477.1-178.4,477.1z M-178.4,484.9c8.2,0,14.4-3.2,18.7-9.7c4.3-6.5,6.5-15.8,6.5-28.1
								c0-12.3-2.2-21.6-6.5-28.1c-4.3-6.5-10.6-9.7-18.7-9.7c-8.2,0-14.4,3.2-18.7,9.7c-4.3,6.5-6.5,15.8-6.5,28.1
								c0,12.3,2.2,21.7,6.5,28.1C-192.8,481.7-186.6,484.9-178.4,484.9z"/>
						</g>
						<g>
							<path id="DejaVuSans-46_9_" d="M-135.9,423.1h10.3v-12.4h-10.3V423.1z"/>
						</g>
						<g>
							<path id="DejaVuSans-54_1_" d="M-81.8,451.1c-4.4,0-7.9-1.5-10.5-4.5c-2.6-3-3.9-7.2-3.9-12.4c0-5.2,1.3-9.4,3.9-12.4
								c2.6-3,6.1-4.6,10.5-4.6c4.4,0,7.9,1.5,10.5,4.6c2.6,3.1,3.9,7.2,3.9,12.4c0,5.3-1.3,9.4-3.9,12.4
								C-73.8,449.6-77.3,451.1-81.8,451.1z M-62.2,482v-9c-2.5,1.2-5,2.1-7.5,2.7c-2.5,0.6-5,0.9-7.5,0.9c-6.5,0-11.5-2.2-14.9-6.6
								c-3.4-4.4-5.4-11-5.9-19.9c1.9,2.8,4.3,5,7.2,6.5c2.9,1.5,6.1,2.3,9.6,2.3c7.3,0,13.1-2.2,17.4-6.7
								c4.3-4.4,6.4-10.5,6.4-18.1c0-7.5-2.2-13.5-6.6-18c-4.4-4.5-10.3-6.8-17.7-6.8c-8.4,0-14.9,3.2-19.3,9.7
								c-4.5,6.5-6.7,15.8-6.7,28.1c0,11.5,2.7,20.7,8.2,27.6s12.8,10.3,22,10.3c2.5,0,5-0.2,7.5-0.7C-67.6,483.7-64.9,483-62.2,482
								z"/>
						</g>
					</g>
				</g>
			</g>
			<g id="ytick_5">
				<g id="line2d_11">
					<g>
						<g>
							<path id="m2270d9114a_4_" class="st0" d="M36.6,60.9h-3.5"/>
						</g>
					</g>
				</g>
				<g id="text_12">
					<g transform="translate(34.696875 105.751219)scale(0.1 -0.1)">
						<g>
							<path id="DejaVuSans-48_12_" d="M-178.4,477.1c-5.1,0-8.9-2.5-11.5-7.5c-2.6-5-3.8-12.5-3.8-22.5c0-10,1.3-17.5,3.8-22.5
								c2.6-5,6.4-7.5,11.5-7.5c5.1,0,8.9,2.5,11.5,7.5c2.6,5,3.8,12.5,3.8,22.5c0,10-1.3,17.5-3.8,22.5
								C-169.5,474.6-173.3,477.1-178.4,477.1z M-178.4,484.9c8.2,0,14.4-3.2,18.7-9.7c4.3-6.5,6.5-15.8,6.5-28.1
								c0-12.3-2.2-21.6-6.5-28.1c-4.3-6.5-10.6-9.7-18.7-9.7c-8.2,0-14.4,3.2-18.7,9.7c-4.3,6.5-6.5,15.8-6.5,28.1
								c0,12.3,2.2,21.7,6.5,28.1C-192.8,481.7-186.6,484.9-178.4,484.9z"/>
						</g>
						<g>
							<path id="DejaVuSans-46_10_" d="M-135.9,423.1h10.3v-12.4h-10.3V423.1z"/>
						</g>
						<g>
							<path id="DejaVuSans-56_1_" d="M-83,445.3c-4.7,0-8.4-1.3-11.1-3.8c-2.7-2.5-4-6-4-10.3c0-4.4,1.3-7.8,4-10.4
								c2.7-2.5,6.4-3.8,11.1-3.8s8.4,1.3,11.1,3.8c2.7,2.5,4.1,6,4.1,10.3c0,4.4-1.3,7.8-4,10.3C-74.6,444.1-78.3,445.3-83,445.3z
								 M-92.9,449.5c-4.2,1-7.5,3-9.9,5.9c-2.4,2.9-3.5,6.4-3.5,10.6c0,5.8,2.1,10.4,6.2,13.8c4.2,3.4,9.8,5.1,17.1,5.1
								c7.3,0,13-1.7,17.1-5.1s6.2-8,6.2-13.8c0-4.2-1.2-7.7-3.5-10.6c-2.4-2.9-5.6-4.9-9.8-5.9c4.8-1.1,8.4-3.3,11.1-6.5
								c2.7-3.2,4-7.2,4-11.8c0-7.1-2.2-12.5-6.5-16.3c-4.3-3.8-10.5-5.7-18.5-5.7c-8,0-14.2,1.9-18.5,5.7
								c-4.3,3.8-6.5,9.2-6.5,16.3c0,4.6,1.3,8.6,4,11.8C-101.3,446.3-97.6,448.4-92.9,449.5z M-96.5,465.1c0-3.8,1.2-6.7,3.5-8.8
								c2.4-2.1,5.7-3.2,9.9-3.2c4.2,0,7.6,1.1,9.9,3.2c2.4,2.1,3.6,5.1,3.6,8.8c0,3.8-1.2,6.7-3.6,8.8c-2.4,2.1-5.7,3.2-9.9,3.2
								c-4.3,0-7.6-1.1-9.9-3.2C-95.3,471.8-96.5,468.9-96.5,465.1z"/>
						</g>
					</g>
				</g>
			</g>
			<g id="ytick_6">
				<g id="line2d_12">
					<g>
						<g>
							<path id="m2270d9114a_5_" class="st0" d="M36.6,12.5h-3.5"/>
						</g>
					</g>
				</g>
				<g id="text_13">
					<g transform="translate(34.696875 57.367219)scale(0.1 -0.1)">
						<g>
							<path id="DejaVuSans-49_1_" d="M-197.8,419h16.1v55.6l-17.5-3.5v9l17.4,3.5h9.9V419h16.1v-8.3h-42V419z"/>
						</g>
						<g>
							<path id="DejaVuSans-46_11_" d="M-135.9,423.1h10.3v-12.4h-10.3V423.1z"/>
						</g>
						<g>
							<path id="DejaVuSans-48_13_" d="M-83,477.1c-5.1,0-8.9-2.5-11.5-7.5c-2.6-5-3.8-12.5-3.8-22.5c0-10,1.3-17.5,3.8-22.5
								c2.6-5,6.4-7.5,11.5-7.5c5.1,0,8.9,2.5,11.5,7.5c2.6,5,3.8,12.5,3.8,22.5c0,10-1.3,17.5-3.8,22.5
								C-74,474.6-77.9,477.1-83,477.1z M-83,484.9c8.2,0,14.4-3.2,18.7-9.7c4.3-6.5,6.5-15.8,6.5-28.1c0-12.3-2.2-21.6-6.5-28.1
								c-4.3-6.5-10.6-9.7-18.7-9.7c-8.2,0-14.4,3.2-18.7,9.7c-4.3,6.5-6.5,15.8-6.5,28.1c0,12.3,2.2,21.7,6.5,28.1
								C-97.4,481.7-91.2,484.9-83,484.9z"/>
						</g>
					</g>
				</g>
			</g>
			<g id="text_14">
				<g transform="translate(28.617187 236.588937)rotate(-90)scale(0.1 -0.1)">
					<g>
						<path id="DejaVuSans-70" d="M420.5,283.1h41.9v-8.3h-32v-21.5h28.9V245h-28.9v-34.8h-9.9V283.1z"/>
					</g>
					<g>
						<path id="DejaVuSans-97_1_" d="M502.4,237.7c-7.3,0-12.3-0.8-15.1-2.5s-4.2-4.5-4.2-8.5c0-3.2,1.1-5.7,3.2-7.6
							c2.1-1.9,5-2.8,8.6-2.8c5,0,9,1.8,12,5.3s4.5,8.2,4.5,14.1v2H502.4z M520.3,241.4v-31.2h-9v8.3c-2.1-3.3-4.6-5.8-7.7-7.3
							c-3.1-1.6-6.8-2.4-11.2-2.4c-5.6,0-10,1.6-13.4,4.7c-3.3,3.1-5,7.4-5,12.6c0,6.1,2.1,10.8,6.2,13.9c4.1,3.1,10.3,4.7,18.4,4.7
							h12.6v0.9c0,4.1-1.4,7.3-4.1,9.6c-2.7,2.3-6.5,3.4-11.5,3.4c-3.1,0-6.2-0.4-9.1-1.1c-3-0.8-5.8-1.9-8.5-3.4v8.3
							c3.3,1.3,6.5,2.2,9.6,2.8c3.1,0.6,6.1,1,9,1c7.9,0,13.8-2.1,17.7-6.2C518.3,255.9,520.3,249.7,520.3,241.4z"/>
					</g>
					<g>
						<path id="DejaVuSans-108" d="M538.8,286.2h9v-76h-9V286.2z"/>
					</g>
					<g>
						<path id="DejaVuSans-115_1_" d="M601.4,263.3v-8.5c-2.5,1.3-5.2,2.3-7.9,2.9c-2.7,0.7-5.6,1-8.5,1c-4.5,0-7.8-0.7-10-2
							c-2.2-1.4-3.3-3.4-3.3-6.2c0-2.1,0.8-3.7,2.4-4.9s4.8-2.3,9.6-3.4l3.1-0.7c6.4-1.4,10.9-3.3,13.6-5.8c2.7-2.5,4-6,4-10.4
							c0-5.1-2-9.1-6-12.1c-4-3-9.5-4.4-16.6-4.4c-2.9,0-6,0.3-9.2,0.9c-3.2,0.6-6.5,1.4-10,2.6v9.3c3.3-1.7,6.6-3,9.8-3.9
							c3.2-0.9,6.4-1.3,9.6-1.3c4.2,0,7.5,0.7,9.8,2.2c2.3,1.4,3.4,3.5,3.4,6.1c0,2.4-0.8,4.3-2.5,5.6c-1.6,1.3-5.2,2.6-10.8,3.8
							l-3.1,0.7c-5.6,1.2-9.6,3-12.1,5.4c-2.5,2.4-3.7,5.8-3.7,10c0,5.1,1.8,9.1,5.5,11.9c3.6,2.8,8.8,4.2,15.5,4.2
							c3.3,0,6.4-0.2,9.4-0.7C596.3,265,599,264.2,601.4,263.3z"/>
					</g>
					<g>
						<path id="DejaVuSans-101_3_" d="M665.5,239.8v-4.4h-41.3c0.4-6.2,2.3-10.9,5.6-14.1c3.3-3.2,8-4.9,13.9-4.9
							c3.4,0,6.8,0.4,10,1.3c3.2,0.8,6.5,2.1,9.7,3.8V213c-3.2-1.4-6.5-2.4-9.9-3.1c-3.4-0.7-6.8-1.1-10.3-1.1
							c-8.7,0-15.6,2.5-20.7,7.6c-5.1,5.1-7.6,12-7.6,20.6c0,8.9,2.4,16,7.3,21.3c4.8,5.3,11.4,7.9,19.6,7.9
							c7.4,0,13.2-2.4,17.5-7.1C663.3,254.3,665.5,247.9,665.5,239.8z M656.5,242.4c-0.1,4.9-1.4,8.8-4.1,11.8
							c-2.7,2.9-6.2,4.4-10.7,4.4c-5,0-9-1.4-12-4.3c-3-2.8-4.7-6.8-5.2-12L656.5,242.4z"/>
					</g>
					<g>
						<path id="DejaVuSans-32_3_" d="M670.8,210.2"/>
					</g>
					<g>
						<path id="DejaVuSans-80_2_" d="M722.2,275v-27.4h12.4c4.6,0,8.1,1.2,10.6,3.6c2.5,2.4,3.8,5.8,3.8,10.2
							c0,4.4-1.3,7.7-3.8,10.1c-2.5,2.4-6,3.6-10.6,3.6H722.2z M712.4,283.1h22.3c8.2,0,14.4-1.8,18.5-5.5c4.2-3.7,6.3-9.1,6.3-16.2
							c0-7.2-2.1-12.6-6.3-16.3c-4.2-3.7-10.4-5.5-18.5-5.5h-12.4v-29.3h-9.9V283.1z"/>
					</g>
					<g>
						<path id="DejaVuSans-111_1_" d="M793.4,258.6c-4.8,0-8.6-1.9-11.4-5.6c-2.8-3.8-4.2-8.9-4.2-15.5c0-6.5,1.4-11.7,4.2-15.5
							c2.8-3.8,6.6-5.6,11.5-5.6c4.8,0,8.6,1.9,11.4,5.7c2.8,3.8,4.2,8.9,4.2,15.4c0,6.5-1.4,11.6-4.2,15.4
							C802,256.7,798.2,258.6,793.4,258.6z M793.4,266.2c7.8,0,13.9-2.5,18.4-7.6c4.5-5.1,6.7-12.1,6.7-21.1c0-8.9-2.2-16-6.7-21.1
							c-4.5-5.1-10.6-7.6-18.4-7.6c-7.8,0-14,2.5-18.4,7.6c-4.4,5.1-6.7,12.1-6.7,21.1c0,9,2.2,16,6.7,21.1
							C779.4,263.6,785.6,266.2,793.4,266.2z"/>
					</g>
					<g>
						<path id="DejaVuSans-115_2_" d="M868.3,263.3v-8.5c-2.5,1.3-5.2,2.3-7.9,2.9c-2.7,0.7-5.6,1-8.5,1c-4.5,0-7.8-0.7-10-2
							c-2.2-1.4-3.3-3.4-3.3-6.2c0-2.1,0.8-3.7,2.4-4.9s4.8-2.3,9.6-3.4l3.1-0.7c6.4-1.4,10.9-3.3,13.6-5.8c2.7-2.5,4-6,4-10.4
							c0-5.1-2-9.1-6-12.1c-4-3-9.5-4.4-16.6-4.4c-2.9,0-6,0.3-9.2,0.9c-3.2,0.6-6.5,1.4-10,2.6v9.3c3.3-1.7,6.6-3,9.8-3.9
							c3.2-0.9,6.4-1.3,9.6-1.3c4.2,0,7.5,0.7,9.8,2.2c2.3,1.4,3.4,3.5,3.4,6.1c0,2.4-0.8,4.3-2.5,5.6c-1.6,1.3-5.2,2.6-10.8,3.8
							l-3.1,0.7c-5.6,1.2-9.6,3-12.1,5.4c-2.5,2.4-3.7,5.8-3.7,10c0,5.1,1.8,9.1,5.5,11.9c3.6,2.8,8.8,4.2,15.5,4.2
							c3.3,0,6.4-0.2,9.4-0.7C863.1,265,865.8,264.2,868.3,263.3z"/>
					</g>
					<g>
						<path id="DejaVuSans-105_2_" d="M885.5,264.9h9v-54.7h-9V264.9z M885.5,286.2h9v-11.4h-9V286.2z"/>
					</g>
					<g>
						<path id="DejaVuSans-116_2_" d="M922.2,280.4v-15.5h18.5v-7h-18.5v-29.7c0-4.5,0.6-7.3,1.8-8.6c1.2-1.3,3.7-1.9,7.5-1.9h9.2
							v-7.5h-9.2c-6.9,0-11.7,1.3-14.4,3.9c-2.6,2.6-4,7.3-4,14.1v29.7h-6.6v7h6.6v15.5H922.2z"/>
					</g>
					<g>
						<path id="DejaVuSans-105_3_" d="M952.5,264.9h9v-54.7h-9V264.9z M952.5,286.2h9v-11.4h-9V286.2z"/>
					</g>
					<g>
						<path id="DejaVuSans-118_1_" d="M973.9,264.9h9.5l17.1-45.9l17.1,45.9h9.5l-20.5-54.7h-12.2L973.9,264.9z"/>
					</g>
					<g>
						<path id="DejaVuSans-101_4_" d="M1086.3,239.8v-4.4H1045c0.4-6.2,2.3-10.9,5.6-14.1c3.3-3.2,8-4.9,13.9-4.9
							c3.4,0,6.8,0.4,10,1.3c3.2,0.8,6.5,2.1,9.7,3.8V213c-3.2-1.4-6.5-2.4-9.9-3.1c-3.4-0.7-6.8-1.1-10.3-1.1
							c-8.7,0-15.6,2.5-20.7,7.6c-5.1,5.1-7.6,12-7.6,20.6c0,8.9,2.4,16,7.3,21.3c4.8,5.3,11.4,7.9,19.6,7.9
							c7.4,0,13.2-2.4,17.5-7.1C1084.1,254.3,1086.3,247.9,1086.3,239.8z M1077.3,242.4c-0.1,4.9-1.4,8.8-4.1,11.8
							c-2.7,2.9-6.2,4.4-10.7,4.4c-5,0-9-1.4-12-4.3c-3-2.8-4.7-6.8-5.2-12L1077.3,242.4z"/>
					</g>
					<g>
						<path id="DejaVuSans-32_4_" d="M1091.6,210.2"/>
					</g>
					<g>
						<path id="DejaVuSans-82_2_" d="M1167.8,244.4c2.1-0.7,4.2-2.3,6.2-4.6s4-5.6,6-9.7l10-19.9h-10.6l-9.3,18.7
							c-2.4,4.9-4.8,8.1-7,9.7c-2.3,1.6-5.3,2.4-9.3,2.4H1143v-30.8h-9.9v72.9h22.3c8.3,0,14.6-1.7,18.7-5.2
							c4.1-3.5,6.2-8.7,6.2-15.8c0-4.6-1.1-8.4-3.2-11.4C1174.9,247.6,1171.8,245.5,1167.8,244.4z M1143,275v-25.9h12.4
							c4.8,0,8.3,1.1,10.8,3.3c2.4,2.2,3.6,5.4,3.6,9.7c0,4.3-1.2,7.5-3.6,9.6c-2.4,2.2-6,3.3-10.8,3.3H1143z"/>
					</g>
					<g>
						<path id="DejaVuSans-97_2_" d="M1227.1,237.7c-7.3,0-12.3-0.8-15.1-2.5c-2.8-1.7-4.2-4.5-4.2-8.5c0-3.2,1.1-5.7,3.2-7.6
							c2.1-1.9,5-2.8,8.6-2.8c5,0,9,1.8,12,5.3c3,3.5,4.5,8.2,4.5,14.1v2H1227.1z M1245,241.4v-31.2h-9v8.3
							c-2.1-3.3-4.6-5.8-7.7-7.3c-3.1-1.6-6.8-2.4-11.2-2.4c-5.6,0-10,1.6-13.4,4.7c-3.3,3.1-5,7.4-5,12.6c0,6.1,2.1,10.8,6.2,13.9
							c4.1,3.1,10.3,4.7,18.4,4.7h12.6v0.9c0,4.1-1.4,7.3-4.1,9.6c-2.7,2.3-6.5,3.4-11.5,3.4c-3.1,0-6.2-0.4-9.1-1.1
							c-3-0.8-5.8-1.9-8.5-3.4v8.3c3.3,1.3,6.5,2.2,9.6,2.8c3.1,0.6,6.1,1,9,1c7.9,0,13.8-2.1,17.7-6.2
							C1243.1,255.9,1245,249.7,1245,241.4z"/>
					</g>
					<g>
						<path id="DejaVuSans-116_3_" d="M1272.4,280.4v-15.5h18.5v-7h-18.5v-29.7c0-4.5,0.6-7.3,1.8-8.6c1.2-1.3,3.7-1.9,7.5-1.9h9.2
							v-7.5h-9.2c-6.9,0-11.7,1.3-14.4,3.9c-2.6,2.6-4,7.3-4,14.1v29.7h-6.6v7h6.6v15.5H1272.4z"/>
					</g>
					<g>
						<path id="DejaVuSans-101_5_" d="M1349.5,239.8v-4.4h-41.3c0.4-6.2,2.3-10.9,5.6-14.1c3.3-3.2,8-4.9,13.9-4.9
							c3.4,0,6.8,0.4,10,1.3c3.2,0.8,6.5,2.1,9.7,3.8V213c-3.2-1.4-6.5-2.4-9.9-3.1c-3.4-0.7-6.8-1.1-10.3-1.1
							c-8.7,0-15.6,2.5-20.7,7.6c-5.1,5.1-7.6,12-7.6,20.6c0,8.9,2.4,16,7.3,21.3c4.8,5.3,11.4,7.9,19.6,7.9
							c7.4,0,13.2-2.4,17.5-7.1C1347.4,254.3,1349.5,247.9,1349.5,239.8z M1340.5,242.4c-0.1,4.9-1.4,8.8-4.1,11.8
							c-2.7,2.9-6.2,4.4-10.7,4.4c-5,0-9-1.4-12-4.3c-3-2.8-4.7-6.8-5.2-12L1340.5,242.4z"/>
					</g>
					<g>
						<path id="DejaVuSans-32_5_" d="M1354.8,210.2"/>
					</g>
					<g>
						<path id="DejaVuSans-40_1_" d="M1417.6,286.1c-4.4-7.5-7.6-14.9-9.7-22.2c-2.1-7.3-3.2-14.7-3.2-22.3c0-7.5,1.1-15,3.2-22.3
							c2.1-7.4,5.4-14.8,9.7-22.3h-7.8c-4.9,7.7-8.5,15.2-11,22.6c-2.4,7.4-3.6,14.7-3.6,22c0,7.3,1.2,14.6,3.6,21.9
							c2.4,7.4,6.1,14.9,11,22.6H1417.6z"/>
					</g>
					<g>
						<path id="DejaVuSans-70_1_" d="M1435.5,283.1h41.9v-8.3h-32v-21.5h28.9V245h-28.9v-34.8h-9.9V283.1z"/>
					</g>
					<g>
						<path id="DejaVuSans-80_3_" d="M1502.8,275v-27.4h12.4c4.6,0,8.1,1.2,10.6,3.6c2.5,2.4,3.8,5.8,3.8,10.2
							c0,4.4-1.3,7.7-3.8,10.1c-2.5,2.4-6,3.6-10.6,3.6H1502.8z M1493,283.1h22.3c8.2,0,14.4-1.8,18.5-5.5c4.2-3.7,6.3-9.1,6.3-16.2
							c0-7.2-2.1-12.6-6.3-16.3c-4.2-3.7-10.4-5.5-18.5-5.5h-12.4v-29.3h-9.9V283.1z"/>
					</g>
					<g>
						<path id="DejaVuSans-82_3_" d="M1587.9,244.4c2.1-0.7,4.2-2.3,6.2-4.6s4-5.6,6-9.7l10-19.9h-10.6l-9.3,18.7
							c-2.4,4.9-4.8,8.1-7,9.7c-2.3,1.6-5.3,2.4-9.3,2.4h-10.8v-30.8h-9.9v72.9h22.3c8.3,0,14.6-1.7,18.7-5.2
							c4.1-3.5,6.2-8.7,6.2-15.8c0-4.6-1.1-8.4-3.2-11.4C1595,247.6,1591.9,245.5,1587.9,244.4z M1563.1,275v-25.9h12.4
							c4.8,0,8.3,1.1,10.8,3.3c2.4,2.2,3.6,5.4,3.6,9.7c0,4.3-1.2,7.5-3.6,9.6c-2.4,2.2-6,3.3-10.8,3.3H1563.1z"/>
					</g>
					<g>
						<path id="DejaVuSans-41_1_" d="M1621,286.1h7.8c4.9-7.7,8.5-15.2,11-22.6c2.4-7.4,3.6-14.7,3.6-21.9c0-7.3-1.2-14.6-3.6-22
							c-2.4-7.4-6.1-14.9-11-22.6h-7.8c4.3,7.5,7.6,14.9,9.7,22.3c2.1,7.4,3.2,14.8,3.2,22.3c0,7.5-1.1,14.9-3.2,22.3
							C1628.5,271.2,1625.3,278.6,1621,286.1z"/>
					</g>
				</g>
			</g>
		</g>
		<g id="line2d_13">
			<g>
				<defs>
					<rect id="SVGID_1_" x="36.6" y="0.4" width="357.1" height="266.1"/>
				</defs>
				<clipPath id="SVGID_2_">
					<use xlink:href="#SVGID_1_"  style="overflow:visible;"/>
				</clipPath>
				<path class="st1" d="M52.8,254.4l216.4-60.5l108.2-60.5v-121"/>
			</g>
			<g>
				<defs>
					<rect id="SVGID_3_" x="36.6" y="0.4" width="357.1" height="266.1"/>
				</defs>
				<clipPath id="SVGID_4_">
					<use xlink:href="#SVGID_3_"  style="overflow:visible;"/>
				</clipPath>
				<g class="st2">
					<g>
						<path id="md44ff1c48b" class="st3" d="M52.8,257.4c0.8,0,1.6-0.3,2.1-0.9c0.6-0.6,0.9-1.3,0.9-2.1s-0.3-1.6-0.9-2.1
							c-0.6-0.6-1.3-0.9-2.1-0.9s-1.6,0.3-2.1,0.9c-0.6,0.6-0.9,1.3-0.9,2.1s0.3,1.6,0.9,2.1C51.3,257.1,52,257.4,52.8,257.4z"/>
					</g>
					<g>
						<path id="md44ff1c48b_1_" class="st3" d="M269.3,196.9c0.8,0,1.6-0.3,2.1-0.9c0.6-0.6,0.9-1.3,0.9-2.1s-0.3-1.6-0.9-2.1
							c-0.6-0.6-1.3-0.9-2.1-0.9c-0.8,0-1.6,0.3-2.1,0.9c-0.6,0.6-0.9,1.3-0.9,2.1s0.3,1.6,0.9,2.1
							C267.7,196.6,268.5,196.9,269.3,196.9z"/>
					</g>
					<g>
						<path id="md44ff1c48b_2_" class="st3" d="M377.5,136.5c0.8,0,1.6-0.3,2.1-0.9c0.6-0.6,0.9-1.3,0.9-2.1s-0.3-1.6-0.9-2.1
							c-0.6-0.6-1.3-0.9-2.1-0.9c-0.8,0-1.6,0.3-2.1,0.9c-0.6,0.6-0.9,1.3-0.9,2.1s0.3,1.6,0.9,2.1
							C375.9,136.1,376.7,136.5,377.5,136.5z"/>
					</g>
					<g>
						<path id="md44ff1c48b_3_" class="st3" d="M377.5,15.5c0.8,0,1.6-0.3,2.1-0.9c0.6-0.6,0.9-1.3,0.9-2.1c0-0.8-0.3-1.6-0.9-2.1
							c-0.6-0.6-1.3-0.9-2.1-0.9c-0.8,0-1.6,0.3-2.1,0.9c-0.6,0.6-0.9,1.3-0.9,2.1c0,0.8,0.3,1.6,0.9,2.1
							C375.9,15.2,376.7,15.5,377.5,15.5z"/>
					</g>
				</g>
			</g>
		</g>
		<g id="patch_3">
			<path class="st4" d="M36.6,266.5V0.4"/>
		</g>
		<g id="patch_4">
			<path class="st4" d="M393.7,266.5V0.4"/>
		</g>
		<g id="patch_5">
			<path class="st4" d="M36.6,266.5h357.1"/>
		</g>
		<g id="patch_6">
			<path class="st4" d="M36.6,0.4h357.1"/>
		</g>
	</g>
</g>
</svg>
